<?xml version="1.0" encoding="UTF-8"?>
<svg id="Layer_1" data-name="Layer 1" xmlns="http://www.w3.org/2000/svg" viewBox="0 0 1094.77 235.78">
  <defs>
    <style>
      .cls-1 {
        fill: #fff;
      }
    </style>
  </defs>
  <g>
    <path class="cls-1" d="M901.83,227.85c2.54-.88,11.79-1.04,11.46,3.01-.66,8.27-11.2,4.52-11.46-3.01Z"/>
    <path class="cls-1" d="M905.69,217.51c2.46,2.29-5.18,5.79-5.14,1.93.01-1.33,4.28-2.73,5.14-1.93Z"/>
    <path class="cls-1" d="M881.14,129.61c-.86.8-5.12-.6-5.14-1.93-.04-3.85,7.6-.36,5.14,1.93Z"/>
    <path class="cls-1" d="M852.72,39.15c-1.09-1.09,2.15-4.87,3.86-5.16,1.27,2.6-2.33,6.69-3.86,5.16Z"/>
    <path class="cls-1" d="M947.06,22.35c-.19-.2.07-1.77,0-2.57h6.45s0,1.27,0,1.27c-1.5-.33-6.01,1.75-6.44,1.3Z"/>
  </g>
  <path class="cls-1" d="M1006.59,171.54c-.53.74,1.25,9.23-6.16,9.87-4.91.42-7.56-5.67-9.9-6.55-1.17-.44-.92,5.55-2.54,5.9-.73.16-10.36-6.71-13.76-7.42-13.7-2.85-67.5.18-79.69,6.12-2.51,1.22-.8,4.7-5.46,4.81-7.67.19-4.08-5.27-4.46-5.47-.69-.37-12.82-.64-14.8-.54-58.37,2.84-116.85,7.85-174.49,8.12-12.13.06-24.31.85-36.4,1.55l40.32,5.5c18.42,2.2,37.43,1.02,55.79,2.94,2.95.31,9.69,3.85,7.76,8.59-2.3,5.67-26.58-.13-31.99-.52-42.64-3.03-85.26-6.05-127.87-9.57,1.95,10.13-3.29,1.31-6.1.42-8.6-2.73-23.32-.41-32.58-.87-67.08-3.29-134.55,1.95-201.75-.7-76.01-3-151.22-6.6-227.41-7.59-8.98-.12-17.29,2.85-26.47-1.44l3.49,30.15-5.44.41c-1.9,4.71,5.65,19.08-2.98,17.51-2.92-.53-3.44-.81-4.31-4.41-1.89-7.77-2.45-24.95-3.17-34.02-.31-3.94.67-19.15-1.9-21.63-4.21-4.06-4.47,5.24-5.58,7.08-.47.79-7.86,10.03-8.38,10.4-6.99,4.88-16.27-6.8-22.19-9.9-2-1.05-29.47-7.6-24.88-13.41,7.05,2.83,10.7-2.54,15.93-3.43,9.34-1.59,29.61-.2,36.65-3.25.64-.28,8.21-11.37,6.05-13.87-2.5,1.91-21.2-2.81-22-3.8-.42-.52-.7-5.01-.46-6.31,1.37-7.43,20-.76,23.9-8.11-37.23-6.91-2-8.6.36-10.75,2.03-1.85-.19-17.41,1.17-21.58-1.7-5.64-17.9.33-16.35-11l4.45-2.29c-2.13.95-15.14-1.76-15.71-2.45-.17-.2-.67-4.96-.45-5.5.71-1.8,28.67-6.51,32.49-5.21l4.76-9.08c-.08-4.03-6.83-6.11-9.43-6.83-10.49-2.89-38.75-2.31-45.84-6.98-12.47-8.21,10.97-9.07,14.86-13.7l44.84-2.09c5.14-.05,5.58-13.06,8.15-14.01,1.85-.68,4.86,3.54,7.2,4.2,9.6,2.71,29.95-6.07,42.19-6.88,49.16-3.23,99.09-2.93,148.35-5.68,52.55-2.93,107.06,2.41,160.63,3.69,83.11,1.97,169.08,7.59,252.42.53,18.51,1.01,44-7.92,61.6-5.68,5.22.66,4.33,4.22,2.9,8.96l-16.47,3.66,275.39,25.34c4.36,2.83-1.45,9.88-4.58,10.95-4.43,1.51-3.64-2.49-5.18-3.4-4.48-2.64-10.41,1.91-15.21,2.59-7.26,1.02-12.39-2.06-20.21,3.74-5.26,3.9-1.17,15.95-13.22,9.53-.31,5.74,1.52,2.86,3.96,3.64,6.4,2.04,15.42,1.6,20.43,4.08,4.85,2.4,7.94,9.13,1.27,9.88-4.8.54-28.06-1.8-30.29-.03,1.02,11.24,1.57,6.25,10.08,7.53,17,2.56,3.29,12.57-7.15,7.41-1.49,2.54,6.5,20.69,7.07,25.08.43,3.36-1.21,8.29-.92,8.57.49.47,9.64-.46,9.75,5.82.07,3.8-10.2,2.55-6.5,13.66,1.33,4.01,60.11,7.43,69.68,10.54,3.26,1.06,5.5,2.39,7.85,5.44-4.44,7.89-10.74,3.71-15.87,4.28-14.2,1.58-30.05.27-44.9.23-2.56,0-8.88-4.77-10.34-2.75ZM982.74,114.69l7.68-.71c.41-3.28-3.24-.59-3.42-2.62-.1-1.15,2.44-10.94-1.62-10.18-1.9.35-3.57,12.63-2.64,13.51ZM987.52,133.27l-.68-7.53-3.06.28.68,7.53,3.06-.28ZM938.97,128.21c.93,3.49,3.35,3.14,5.69,3.32,7.34.55,16.91.89,24.19.71,2.57-.06,4.23,1.63,5.92-2.57.36-4.15-7.08-3.89-8.88-3.89-9.24,0-17.48,4.3-26.92,2.44ZM977.96,164.57c.62-5.07-3.57-4.11-6.27-4.54-10.41-1.68-22.56-1.79-33.04-1.36-.18,3.67,3.22.45,4.6,1.79.92.9-.15,5.11,1.54,5.37l33.16-1.26ZM966.99,112.33c-.88-11.97-7.53-3.23-11.4-10.23l-78.01-.64,13.95,3.91,75.45,6.96ZM963.57,91.71l-.69-7.53-12.13,3.01.54,5.65c4.05-3.85,7.69-1.05,12.29-1.13ZM956.6,151.29l9.22-.84-.17-1.85-9.22.84.17,1.85ZM940.33,91.92c7.52.77,12.19-9.69,2.05-3.16-.88.57-3.81-2.24-2.05,3.16ZM881.34,91.57l55.73-1.27-21.25-3.82c-9.7,1.33-19.6,1.36-29.29,2.73-1.86.26-5.85-.9-5.19,2.35ZM912.12,123.02l-.34-3.75-7.68.71c-.81,2.66,7.42,3.88,8.02,3.05ZM858.8,167.8c19.12.52,38.43,2.85,57.44.48l-50.71-2.95-6.73,2.47ZM806.81,124.98c30.34.63,60.99.64,91.29-2.59.14-2.88-2.61-2.14-4.13-2.31-18.06-2.04-39.01,4.85-57.54,1.09l-29.62,3.81ZM764.4,119.33c33.79-4.71,68.05-3.5,101.66-8.28-33.26.06-66.55-6.27-99.61-3.28.98,2.44,1.88,4.15,1.19,7-.75,3.13-3.87,1.57-3.24,4.56ZM838.76,84.06l-22.31,2.03c-1.48.13-6.88-5.12-5.21,2.37l13.15-.35,14.37-4.04ZM825.97,165.08l7.68-.7-.17-1.85-7.68.7.17,1.85ZM710.38,173.69c11.96-.32,23.71-.06,35.27,4.47l71.75-4.7-54.52-5.82c-6.36,0-13.29,1.28-19.58,1.14-10.19-.22-27.74-7.61-32.92,4.9ZM792.96,126.24l10.76-.98-.17-1.85-10.76.98.17,1.85ZM729.35,126.32l14.59-1.33,11.21-4.78-9.98.91-15.82,5.2ZM711.9,105.09l34.18.69c-.31-3.19-5.41-3.1-7.24-3.15-6.3-.15-13.96-.36-20.13-.14-1.7.06-7.38-.6-6.81,2.59ZM698.39,93c4.33-.51,8.76-.56,13.09-1.17,1.86-.26,5.85.9,5.19-2.35-4.33.51-8.76.56-13.09,1.17-1.86.26-5.85-.9-5.19,2.35ZM697.88,104.46l9.22-.84-.17-1.85-9.22.84.17,1.85ZM682.83,92.52l10.76-.98-.17-1.85-10.76.98.17,1.85ZM696.16,119.84c.17-5.54-1.19-3.24-4.17-3.39-5.98-.3-12.41-1.22-17.91-1.35-8.45-.2-7.7,4.89,1.09,4.85l21-.11ZM661.12,92.59l9.22-.84-.17-1.85-9.22.84.17,1.85ZM658.02,92.88c2.77-3.6-5.61-4.96-8.19-4.94-1.01,5.11,6.82,6.72,8.19,4.94ZM648.62,91.84c-.14-4.73.08-3.27-2.64-3.51-26.79-2.36-53.05,1.81-79.75,1.52,1.09,2.48,8.21,2.46,10.5,2.6,6.91.42,14.73-1,21.17-.95,12.05.1,24.65,1.39,36.18,1.55,4.88.07,9.71-.95,14.55-1.22ZM657.54,189.92l-.34-3.75-6.14.57c-1.77,1.2,5.73,4.29,6.48,3.19ZM561.8,160.58c2.95-1.32,11.16,1.43,12.13-2.97-2.95,1.32-11.16-1.43-12.13,2.97ZM562.65,170.01l9.22-.84-.17-1.85-9.22.84.17,1.85ZM495.24,25.9l57.26-1.41-18.04-2.12c-8.79.86-17.43,2.06-26.26.39l-12.96,3.14ZM544.87,179.24l10.76-.98-.17-1.85-10.76.98.17,1.85ZM539.4,170.23l10.76-.98-.17-1.85-10.76.98.17,1.85ZM527.6,159.89c3.3-.39,6.71-.39,10.01-.89,1.87-.28,5.85.92,5.19-2.35-3.3.39-6.71.39-10.01.89-1.87.28-5.85-.92-5.19,2.35ZM543.31,179.4c.17-5.33-1.05-3.46-4.15-3.43-4.87.05-9.78,1.15-14.64,1.35l18.78,2.07ZM523.84,169.74l10.76-.98-.17-1.85-10.76.98.17,1.85ZM270.43,164.27c42.16.81,84.57,4.72,126.51,0,7.34-2.56,13.71-4.33,21.49-2.05,35.63-4.35,71.76-1.49,107.44-4.07l-39.76-2.05c-25.47,4.59-53.91-1.13-79.01,1.28-4.3.41-7.08,4.01-9.86,4-5.73-.03-9.76-6.82-13.73-7.34-8.21-1.08-20.71.96-29.38.73-24.4-.65-53.67-2.91-77.39,3.14-2.99.76-5.63,2.25-6.31,6.37ZM487.04,38.06c4.33-.51,8.76-.56,13.09-1.17,1.86-.26,5.85.9,5.19-2.35-4.33.51-8.76.56-13.09,1.17-1.86.26-5.85-.9-5.19,2.35ZM488.76,91.15c4.84-.58,9.79-.63,14.63-1.31,1.86-.26,5.85.9,5.19-2.35-4.84.58-9.79.63-14.63,1.31-1.86.26-5.85-.9-5.19,2.35ZM264.41,29.79c16.8-1.1,33.72.66,50.53,1.11,19.43.52,45.41,3.32,63.77,1.98,9.72-.71,16.03-9.12,27.68-2.66l77.88-5.22-18.12-2.2c-48.49,3.39-98.04,1.29-147.33,2.36-13.77.3-27.56,3.52-41.46,1.47l-12.97,3.15ZM478.02,177.71l9.22-.84-.17-1.85-9.22.84.17,1.85ZM313.67,93.77c45.85-1.85,92.25,1.51,137.22-9.61-11.5,1.19-25.52-2.76-36.62-1.61-5.41.56-7.52,4.02-10.12,4.39-10.45,1.51-22.53-2.08-34.5.17-12.45,2.34-21.08,2-33.96,2.75-5.22.3-11.59.91-16.81,1.52-1.83.21-5.88-.79-5.21,2.39ZM342.39,68.33l37.09-1.47-25.67-1.53-11.42,3ZM305.82,126.82l7.68-.7-.17-1.85-7.68.7.17,1.85ZM265.13,122.91c7.59,2.58,14.2,1.3,21.7-.07l-16.67-2.04-5.03,2.11ZM122.68,75.01l153.36-2.54-14.96-2.41c-22.73,1.81-45.62-1.75-68.4-1.38-14.21.23-29.04,1.2-43.18,1.92-6.95.35-14.74,1.08-21.62,2.06-1.86.26-5.85-.9-5.19,2.35ZM251.93,29.02l10.76-.98-.17-1.85-10.76.98.17,1.85ZM243.41,122.98l14.01.63c-1.58-3.34-13.17-4.8-14.01-.63ZM206.83,164.35c15.44-1.57,31.34,2.14,46.33-2.31-1.21-4.37-2.85-2.02-4.54-2.08-10.39-.37-26.28.65-36.61,2.04-1.85.25-5.85-.9-5.18,2.35ZM216.03,60.83l26.16-2.38-.17-1.89-26.16,2.38.17,1.89ZM205.45,132.14l35.56-1.33-27.54-4.06-8.02,5.39ZM228.02,175.74c.22-5.89-1.51-2.88-4.18-3.34-10.38-1.79-28.54-2.64-38.99-2.2-10.29.43-12.89,3.18-21.67.54-2.3-.69-10.67-2.01-12.31-1.33-1.2.5-.47,4.27-1.37,4-1.73-.51-3.07-3.13-6.42-2.98-3.93.18-10.22,3.87-14.38,4.88l99.32.44ZM212.94,61.1c.53-7.23-8.13-1.9-11.1-2.77,1.43,3.52,8.39,1.95,11.1,2.77ZM123.02,130.14c2.61,2.82,43.97-1.25,50.68.91,7.45-.83,14.47-6.8,21.82-5.61-8.85-11.21-34.36,6.37-34.47-12.08-6.66,6.47-16.09,4.09-24.25,6.04-2.02.48-13.87,4.37-14.28,5.12-.13.23.33,5.43.51,5.62ZM168.78,146.91c7.52,1.43,20.25-3.4,28.47-2.59-.12-2.81-5.83-2.84-7.43-2.9-5.09-.17-10.16.77-15.22,1.14-2.14.16-5.24-1.56-6.31-1.31-2.14.5-2.2,5.14.49,5.66ZM160.3,96.32l20.17.06-15.1-4.37c-3.27.37-6.5-1.15-5.07,4.31ZM155.33,41.61l14.01.63c-1.58-3.34-13.17-4.8-14.01-.63ZM124.12,65.39c9.4,1,21.76-3.34,31.55-2.87l-3.19-5.43c-9.69.78-21.35-1.74-30.75-1.06-4.63.33-2.34,8.86,2.39,9.37ZM158.75,96.47c1.09-5.7-9.9-5.02-11.01-1.84l11.01,1.84ZM124.39,111.02c8.35-2.44,18.14-2.95,26.26-4.88,1.55-.37,6.11-.96,5.54-3.7-6.6,1.88-12.99-.23-19.42-.32-5.48-.08-7.07,5.38-13.39-2.42l1.01,11.33ZM113.98,149.98c11.64-.39,20.76.05,31.96-4.13,2-.75,7.52-2.04,7.52-5.13-7.44.42-14.77.99-22.16,1.75-7.58.78-5.32,2.25-6.09,2.4-3.27.63-12.22-3.9-11.23,5.11ZM104.19,42.47c-.14-4.8.05-3.23-2.64-3.5-9.04-.9-18.08,1.7-27.1.51-.21,5.83,1.43,2.98,4.21,3.33,8.52,1.08,17.08.85,25.52-.34ZM55.52,172.4c14.55,6.12,22.21,24.19,29.06-4.5-8.94,4.43-16.7,1.91-25.36,2.21-1.69.06-4.39-.64-3.7,2.29Z"/>
  <path class="cls-1" d="M676.88,163.94c-6.76,6.17-8.7,13.97-17.85,13.97s-9.15-10.04-18.3-10.04-9.15-5.07-18.3-5.07-9.15,1.67-18.3,1.67-9.15,6.87-18.3,6.87-9.15-6.71-18.3-6.71-9.15-1.64-18.3-1.64c-9.15,0-9.15-8.29-18.3-8.29-9.15,0-9.15,6.94-18.3,6.94s-9.15,15.06-18.3,15.06-9.15-19.18-18.3-19.18-9.15-4.16-18.3-4.16-9.15,12.36-18.31,12.36c-9.15,0-9.15-13.48-18.3-13.48-9.15,0-9.15,21.19-18.31,21.19s-9.15-9.86-18.3-9.86-9.15,7.59-18.3,7.59-9.15,2.59-18.3,2.59c-9.15,0-9.15,4.01-18.31,4.01s-9.15-11.82-18.3-11.82-9.15-5.36-18.31-5.36-9.15-4.9-18.31-4.9c-9.15,0-9.15,22.41-18.31,22.41s-9.15-27.25-18.3-27.25c-9.15,0-9.15,7.35-18.31,7.35s-9.16,6.14-18.31,6.14-9.16-7.63-18.31-7.63-5.61,7.39-12.38,1.22c-6.17-5.64-4.43-1.86-4.43-10.22s6.13-8.36,6.13-16.71c0-8.36-.91-8.36-.91-16.72s-16.8-8.36-16.8-16.72,20.15-8.36,20.15-16.72-14.46-9.13-8.29-14.77c6.76-6.17,7.37,2.04,16.52,2.04s9.15,1.37,18.3,1.37,9.15-16.91,18.3-16.91,9.15.68,18.3.68,9.15,4.66,18.3,4.66,9.15-2.67,18.3-2.67,9.15-4.81,18.3-4.81,9.15.14,18.3.14,9.15,15.27,18.3,15.27,9.15-2.28,18.3-2.28,9.15,8.16,18.3,8.16,9.15-6.16,18.3-6.16,9.15-1.4,18.31-1.4,9.15-8.91,18.3-8.91,9.15,14.07,18.31,14.07,9.15-2.09,18.3-2.09,9.15-11.96,18.3-11.96,9.15,18.73,18.3,18.73,9.15-5.04,18.31-5.04,9.15,6.13,18.3,6.13,9.15-15.16,18.31-15.16,9.15,6.67,18.31,6.67,9.15,1.35,18.31,1.35,9.15-1.58,18.3-1.58,9.15,2.55,18.31,2.55,9.16-13.55,18.31-13.55,9.16,13.09,18.31,13.09,10.84-9.74,17.6-3.57c6.17,5.64,6.03,7.58,6.03,15.94s-8,8.36-8,16.71c0,8.36,7.98,8.36,7.98,16.72s-3.82,8.36-3.82,16.72-13.08,10.61-11.37,18.79,15.61,8.52,9.44,14.16Z"/>
</svg>