<?xml version="1.0" encoding="UTF-8"?>
<svg id="Layer_1" data-name="Layer 1" xmlns="http://www.w3.org/2000/svg" viewBox="0 0 1094.77 235.78">
  <defs>
    <style>
      .cls-1 {
        fill: #fff;
      }
    </style>
  </defs>
  <path class="cls-1" d="M1016.35,136.12c.45.1,3.38,2.39,1.81,3.33-12.74,12.31-35.45,6.16-45.88,21.67,6.62-.37,52.31,3.29,54.11,5.33.99,1.12.03,6.17.44,8.27l-26.99,2.48,47.69,7.79c2.55,1.61,2.66,8.51.29,10.38l-94.76,1.89c1.8,5.43-3.5,16.44-9.1,16.9-2.05.17-3.64-2.28-4.87-2.3-2.99-.06-10.67,4.25-18.61,3.44-3.5-.36-1.78-3.92-4.92-3.45-2.91.44-5.38,3.15-8.58,3.64-34.72,5.25-68.74-4.84-103.59-8.41-11.39-1.17-41.19-4.78-50.69-3.93-2.91.26-4.91,1.42-6.63,3.72-3.16-1.15-.76-4.89-.99-5-1.14-.52-4.74,1.26-6.98.98-23.88-3.01-36.4-1.11-59.77,1.05-3.84.36-12.95,3.69-15.31,3.34-1.8-.26-1.76-4.08-3.7-4.54-13.78-3.23-44.41,3.14-60.59-1.57l.1,5.16c-11-6.44-23.28-6.59-35.75-7.38-75.46-4.82-158.93-6.36-233.61-6.55-18.12-.05-51.91-2.33-67.86.28-3.26.54-2.23,3.68-3.2,3.72-2.35.09-5.32-2.82-8.58-3.14-16.72-1.65-52.73-.54-69.37,1.87-3.66.53-1.77,4.29-3.13,3.63-1.05-.51-2.11-2.82-3.77-3.05-1.92-.27-3.23,2.69-5.68,2.59-7.81-.33-18.94-5.76-28.2-4.62-3.37.42-5.5,2.73-8.26,3.09-4.82.62-9.36-2.71-14.73-.94-3.84,1.27-5.64,7.81-10.26,8.52-4.98.17-5.75-6.38-6.16-6.64-1.67-1.07-4.62,2.93-5.78,2.96-1.08.03-3.34-2.71-6.78-2.71-3.73.01-8.36,3.16-12.71,2.2-3.95-12.64,11.16-10.08,19.87-14.16-7.6-7.47-4.59-17.31-7.59-26.82-2.12-1.77-39.43,14.79-38.89-2.84,1.35-5.23,36.78-13.78,38.1-15.99,1.4-2.35-.92-12.92-.27-16.67l-15.15,2.16c-5.6-16.14,13.13-11.72,14.66-14.12,1.25-1.95-1.09-14.75-.41-18.48-5.91-1.76-23.21,3.2-26.95,1.73-4.12-1.63-8.51-9-2.08-10.14-23.22-16.82-2.16-9.7,6.96-13.17,2.79-1.06,2.62-5.37,5.4-6.42,3.83-1.44,11.31.77,14.2-1.42,2.56-1.94-.27-20.52,9.01-9.78,1.96,2.26,2.49,6.2,2.86,6.51,5.93,5.04,103.06-19.36,118.52-16.87,2.59.23.65,7-3.01,7.02l-12.72,3.6c49.73-3.42,99.42-8.84,149.19-8.52l26.4-3.53c-11.1,1.68-22.28-.53-32.94-.78-26.86-.63-54.5,1.39-79.53,2.34-6.84.26-26.65,3.85-31.3.25-4.29-3.33,4.68-5.87,7.42-6.22,70.16-9.03,148.03,2.31,218.32,3.68,40.6.8,82.76-2.23,123.59-2.18,40.64.04,82.51,4.56,123.25,2.49,5.96-.3,11.87-3.75,18.84-3.49,6.24.23,9.03,3.89,13.82,4.26,30.05,2.29,66.89-2.43,97.91-2.47,7.42,0,15.67,2.76,23.64,1.06l-6.11-6.58,35.63,3.98c.28-5.24-7.27-7.11-8.51-11.07-.72-2.31-.19-7.27,2.04-7.34l43.95-1.33c2.02-.06,18.49,4.52,20.84,5.78,7.32,3.92,5.1,5.06,15.87,9.31,13.59,5.37,6.55,23.98,9.57,25.61,1.38.74,4.85-.24,6.98.36,12.23,3.43,8.99,17.01,11.88,18.85,3.44,2.18,27.94-.38,31.7,4.78,1.28,1.76-.18,7.99-.86,8.49-1.16.84-11.77-1.57-14.1-1.14-1.56.29-.49,1.26-8.76,2.04-9.43.88-19.9,4.59-29.39.75-1.21,5.26,6.42,3.07,10.34,3.83,1.6.31,3.68,2.51,4.21,2.5l43.95-1.33c.91-.03,3.62,3.64,2.68,4.98-.39.55-7.08,1.14-8.09,2.36-1.29,1.57,1.99,6.42-4.39,4.84-.63-.16-.97-3.38-1.85-3.46-5.59-.48-9.71,7.39-13.57,8.61-3.38,1.06-7.67-.35-10.57,1.54-2.15,1.4-8.16,11.36-9.78,12.23-2.72,1.47-8.75-3.28-10.1,2.71,4.89,2.01,15.88-4.92,19.23-2.44,2.26,1.67.8,6.93,1.21,6.92,6.46-.2,21.12-1.89,26.2-.79ZM954.54,190.44c19.82,1.08,39.66,1.49,59.16-2.63-11.74-.97-24.88-2.91-36.58-3.21-5.43-.14-8.4,4.9-10.12-1.32-3.91-.76-1.6,2.93-3.51,3.52-7.96,2.48-7.51-3.12-8.31-3.17l-.65,6.8ZM975.97,115.33c3.64-.19,7.35-.03,11-.32,2.06-.16,6.32,1.1,5.84-1.85-3.64.19-7.35.03-11,.32-2.06.16-6.32-1.1-5.84,1.85ZM969.2,171.38l16.84-2.17c-4.09,1.1-17.85-5.51-16.84,2.17ZM938.17,40.35c-.37-2.22.91-5.45-1.23-6.89-4.02-2.72-39.36-7.28-41.44-5.34-.03,2.69,4.93,10.99,6.72,11.58,9.62,3.17,25.48-.57,35.95.65ZM935.32,170.72c4.61-10.14-6.41-2.58-5.09-1.56l5.09,1.56ZM934.78,152.11c4.71-5.11-10.41-2.62-6.7,1.91,1.57-1.57,6.46-1.65,6.7-1.91ZM918.99,189.81c5.74-1.39,20.5,4.97,16.58-6.24-2.19-6.27-15.16,2.4-16.58,6.24ZM895.34,190.53c3.64-.19,7.35-.03,11-.32,2.06-.16,6.32,1.1,5.84-1.85-3.64.19-7.35.03-11,.32-2.06.16-6.32-1.1-5.84,1.85ZM812.05,177.82c26.6-.36,53.06,3.51,79.59,2.67-1.01-3.99-3.02-1.93-4.81-2.07-22.24-1.77-44.94-.77-67.17-2.6l-7.61,2ZM826.9,109.71l40.57-1.23-.05-1.69-40.57,1.23.05,1.69ZM812.16,69.54c17.43-1.88,35.07.56,52.48,1.78.62-2.64-2.05-.99-2.86-2.17-2.84-4.11.58-5.23-8.35-5.94-12.84-1.01-24.64.35-37.13,2.89-3.01.61-5.1-1.67-4.14,3.44ZM842.68,127.83l5.03-.98c-1.59-1.74-2.66-3.01-5.13-2.38l.1,3.36ZM813.89,127c5.32-.28,10.74-.09,16.07-.47,2.05-.15,6.32,1.09,5.84-1.85-5.32.28-10.74.09-16.07.47-2.05.15-6.32-1.09-5.84,1.85ZM796.78,64.95c1.01,3.33,3.72,3.69,6.86,3.14-1.01-3.33-3.72-3.69-6.86-3.14ZM795.09,176.64l11.82-.36-.05-1.66-11.82.36.05,1.66ZM762.81,172.54c-6.35-13.74,10.79-6.63,18.38-7.33l-11.1-3.02c-22.65.73-45.19-6.32-67.62-1.47-1.78.38,1.18,7.47-5.84,5.39.42,2.52,7.36,2.56,9.62,2.84,18.62,2.35,37.88,1.52,56.55,3.58ZM735.98,124.28c3.12-.14,42.31.04,42.24-2.11-10.06.3-21.33-2.45-31.24-1.59-2.22.19-10.29,1.15-11,3.69ZM705.05,108.29c.78.68,6.76,1.62,8.49,1.44-1.2-3.85-5.47-3.42-8.54-3.09.1.54-.19,1.44.05,1.65ZM651.26,120.07l11.82-.36-.05-1.66-11.82.36.05,1.66ZM640.44,154.24l10.13-.31-.05-1.66-10.13.31.05,1.66ZM525.04,86.67c5.7-2.08,16.99,3.23,20.23-2.27-4.76.25-9.61.08-14.39.42-2.05.15-6.32-1.09-5.84,1.85ZM518.89,107.16c3.88-1.1,13.05,1.84,15.15-2.12-3.87,1.11-12.91-1.86-15.15,2.12ZM499.63,85.74l20.32,1.08c-.11-2.87-5.7-3.02-7.69-3.14-2.59-.16-11.63-1-12.63,2.07ZM491.8,106.28c8.24,2.6,16.89.94,25.39.93l-9.41-3.06-15.98,2.13ZM486.09,86.16c1.49-1.2,1.04-3.36-2.46-3.07-4.32.35-16.92-1.67-17.87,1.18-1.28,3.85,3.86,2.31,5.96,2.33,4.78.04,9.61-.41,14.37-.44ZM441.38,117.98l30.43-.92-.05-1.69-30.43.92.05,1.69ZM450.81,149.82c3.31-1.03,12.08,1.81,13.46-2.06-3.31,1.03-12.08-1.81-13.46,2.06ZM437.29,150.23l11.76-2.01c-2.91-.03-10.62-2.17-11.76,2.01ZM418.69,150.79l10.13-.31-.05-1.66-10.13.31.05,1.66ZM351.86,151.14c14.07,1.53,31.96-2.41,46.49-1.41l-14.71-2.66c-12.13.89-24.02-1.22-36.1.83-.57,1.72,3.62,3.16,4.32,3.24ZM395.68,117.66c1.12-6.59-6.94-1.14-11.02-1.2-33.7-.5-67.77-1.5-101.62-.55-11.26.32-33.68.17-43.58,2.04-2.83.53-6.93,1.36-7.74,4.66l163.96-4.95ZM344.25,151.36c.36-3.37.25-2.79-2.2-3.75-7.44-2.9-16.38,1.34-24.01,1.22-6.16-.09-14.21-2.65-20.5-2.8-18.35-.44-36.65.88-54.97-.04,1.37,7.11,10.4,2.38,11.57,3.37.87.74,1.44,8.3,4.59-.51,1.55-.3.39,2.44,1.23,2.94,3.83,2.29,24.64-1.49,30.67-1.55,4.03-.04,8.86,1.91,12.66,1.88,13.44-.13,27-2.35,40.95-.76ZM252.52,83.08l79.45-2.4-.05-1.69-79.45,2.4.05,1.69ZM147.05,175.92c4.5-.54,8.62,3.41,12.81,3.18,4.77-.26,6.12-5.5,11.96-1.01l59.79-3.86c-23.2-2.5-46.7,1.43-69.99,1.04-3.57-.06-12.49-3.8-14.57.65ZM158.88,119.73c5.49-.49,10.52,1.42,16.02,1.3,12.12-.25,15.79-.2,27.26.7,8.29.66,17.68.04,26.17.97-.52-1.89-2.46-3.68-4.36-4.12-16.52-3.87-29.25-.44-45.67.24-3.87.16-8.53-1.17-13.56-.96-2,.08-6.37-.99-5.86,1.88ZM215.63,148.56c2.48-2.6,12.17,4.11,13.57,2.89-5.15-11.51-23.86-3.74-34.48-5.26l-9.46,6.59c9.04-1.49,20.9,2.89,29.55.93,1.97-.45.24-4.54.82-5.14ZM157.5,129.92c.39.38,5.48,1.71,6.8,1.49-.92-3.22-3.85-3.69-6.85-3.14.11.54-.19,1.42.05,1.65ZM87.17,154.07l-1.09-8.42c-3.17,2.24-7.05,3.1-10.47,4.86-1.96,1.01-2,3.5-2.34,3.67-1.47.74-9.16-2.75-9.72,2.27l23.62-2.38Z"/>
  <path d="M226.02,46.65c-1.64-.62-8.2-1.13-8.49-1.45-4.35-4.77,10.09-13.19,8.49,1.45Z"/>
</svg>