<?xml version="1.0" encoding="UTF-8"?>
<svg id="Layer_1" data-name="Layer 1" xmlns="http://www.w3.org/2000/svg" viewBox="0 0 1094.77 235.78">
  <defs>
    <style>
      .cls-1 {
        fill: #fff;
      }
    </style>
  </defs>
  <path class="cls-1" d="M1042.06,200.23c-3.92,4.49-23.15,3.78-23.97,4.7-2,2.27,5.07,8.61-9.29,9.11-40.92,1.43-86.41-5.95-127.47-6.82-28.57-.61-59.76,2.89-86.58,3.19-4.82.05-13.02-3.64-16.23-3.36-2.47.22-4.7,3.38-8.46,3.17-2.42-.14-4.56-2.78-7.29-3.1-7.26-.87-15.21,2.33-20.52,2.01-18.78-1.13-14.22-.6-31.87,3.28-2.3.51-5.5-1.42-5.7-1.2-.25.27.14,6.92-2.34,7.01-1.21.04-5.91-9.27-15.68-6.23-1.42.44-.78,3.61-1.87,3.61-2.76-.01-4.11-2.86-5.65-3.04-2.29-.27-3.73,3.22-6.22,3.18-2.18-.03-7.46-3.49-11.34-4.01-49.57-6.73-109.27-1.64-159.89-.41-80.98,1.97-164.46,4.25-245.45,8.58-10.37.55-25.58-3.95-32.9,3.06-2.74-8.62-5.44,3.54-13.81,2.33l.62-5.23c-6.96.72-29.89,2.55-22.28-9.56,1.85-2.95,23.15-1.46,28.96-2.18,2.42-.3,9.98-.05,10.13-2.8-15.26,3.12-30.05-2.88-44.5-3.39-12.66-.45-26.42,1.97-39.21,1.71l.95,22.46c-10.43,3.37-10.03-11.18-11.25-18.55-26.42.18-52.64,5.66-79.12,5.14-4.22-.08-15.22.17-13.26-5.56l65.6-14.9c-6.93-1.41-14-3.76-20.37-6.87-4.82-2.35-25.23-14.94-26.01-18.85-1.42-7.12,2.6-3.14,5-4.59.28-.17-2.14-3.97.14-6.42,1.85-1.99,7.42-2.63,9.79-5.23,1.46-1.6,10.52-12.56,11.71-14.21,1.52-2.1,5.13-13,3.8-14.93-4.12-6.03-39.05.42-43.26-11.14.12-4.37,39.19-8.05,42.61-11.72,3.14-3.37,2.22-23.68-1.15-26.8-2.37-2.19-9.83-1.18-8.42-7.56,1.03-4.63,8.6-5.27,9.95-8.04,1.62-3.33,2.35-21.2,4.25-23.12,7.05-1.96,11.35,8.94,12.63,9.83,3.7,2.6,3.71-4.66,6.63-6.34,7.84-4.51,8.79,2.53,9.15,9.14,6.96-2.93-1.27-10.15-2.97-15.75-2.02-6.66-4.1-15.84,5.03-17.19,1.57,11.68,3.31,27.62,17.74,28.68,23.78,1.75,55.21-3.05,80.12-3.5,98.71-1.8,200.86-4.74,299.47,1.45,28.87,1.81,58.95,6.71,87.71,8.16,49.02,2.46,107.91-3.24,154.82,4.26,50.5,8.07,108.49,3.98,161,8.42,4.03.34,6.79,3.02,12.37,2.99,15.45-.08,5.73-8.18,8.99-18.21.29-.89,5.32-5.56,6.53-6.8.76,3.94,4.57,21.64,6.17,23.14,2.92,2.73,12.8,2.75,16.66,1.81,5.16-1.26,5.94-8.39,12.17-4.07,8.85,6.15,8.94,40.69,11.75,52.31.74,3.07,4.08,6.57,5.7,10.09,1.26,2.74,3.51,17.55,6.24,5.98,3.21-13.59,1.19-30.14,9.49-42.89,5.41-4.66,3.6,22.02,4.5,23.2l3.38-1.9c.23,21.8-9.05,48.72-3.95,70.19,2.26,9.51,18.79,12.16,16.51,24.25ZM1016.22,161.71c5.74-3.07,5.02-10.35,4.53-15.75l-4.53,15.75ZM1004.31,169.14l-2.18-10.29c-9.44,3.29-5.03,7.36,2.18,10.29ZM977.84,120.1c-1.13-8.34-1.49-18.44-3.01-26.53-1.68-8.93-5.62-7.76-8.26-.12,6.11,7.78,3.44,20.74,11.27,26.66ZM972.52,199.9c.99,3.28,4.01,3.72,7.09,3.12,1.76-.91-4.86-3.92-7.09-3.12ZM967.21,156.87c.05-3.87.53-3.21-2.8-3.39-5.13-.28-12.08,1.97-17.62,1.45l-14.36,3.41,34.79-1.47ZM946.44,200.97l20.93.84-15.13-2.6-5.79,1.75ZM961.76,110.39c-.47-3.43-1.89-16.43-5.2-16.98-6.2-1.04-17.23,9.97-15.74,16.99h20.94ZM958.86,124.35c1.13-1,1.38-2.34-1.76-2.85-5.71-.94-13.31.4-19.24.31,1.16,4.5,20.19,3.26,21,2.54ZM935.2,182.42l10.42-.44-.07-1.69-10.42.44.07,1.69ZM911.35,195.58c1.15,4.07,2.99,2.02,4.97,2.06,9.47.21,17.23,2.59,26.55,1.76l-22.15-4.02-9.36.2ZM910.1,124.68c3.98-1.18,13.46,1.71,15.57-2.35-3.97,1.19-13.31-1.73-15.57,2.35ZM911.28,152.32l10.34-2.18-.07-1.69-10.42.43.15,3.44ZM878.21,112.19c3.74-.24,7.57-.12,11.32-.46,2.12-.19,6.52,1.04,5.99-1.97-3.74.24-7.57.12-11.32.46-2.12.19-6.52-1.04-5.99,1.97ZM896.62,135.64l-24.35,1.03,9.7,2.7,14.65-3.73ZM850.41,196.39l38.32.11-21.81-2.59-16.51,2.48ZM845.89,151.63c-8.97-.93-23.34.99-33.05,1.4-.35.01-6.71,1.9-5.93,3.69,14.68.84,28.67-.36,43.54-.11,1.14-3.08-2.61-4.78-4.56-4.99ZM665.44,148.87c3.9-1.86,43.66,2.2,43.53-.96-12.52-.6-24.96-2.09-37.54-1-2.12.18-6.52-1.04-5.99,1.96ZM631.09,160.7c16.51.85,33.52,2.37,50.04,2.44,3.5.01,7.44-1.53,11.78-1.63,5.25-.12,12.07,4.32,16.54-1.53-24.23-1.77-48.53.51-72.85-.74-1.93-.1-6.01-1.78-5.51,1.45ZM658.48,149.18l5.16-1.07c-1.66-1.76-2.77-3.04-5.31-2.37l.15,3.44ZM630.58,148.62c3.4-1.1,12.46,1.7,13.83-2.28-3.4,1.1-12.46-1.7-13.83,2.28ZM599.19,148.22l12.16-.51-.07-1.69-12.16.51.07,1.69ZM579.99,147.3l10.42-.44-.07-1.69-10.42.44.07,1.69ZM559.31,70.34c4.9-.31,9.89-.2,14.8-.61,2.11-.18,6.52,1.03,5.99-1.97-4.9.31-9.89.2-14.8.61-2.11.18-6.52-1.03-5.99,1.97ZM462.79,136.69c3.4-1.1,12.46,1.7,13.83-2.28-3.4,1.1-12.46-1.7-13.83,2.28ZM441.92,137.58c4.32-.27,8.73-.17,13.06-.54,2.11-.18,6.52,1.03,5.99-1.97-4.32.27-8.73.17-13.06.54-2.11.18-6.52-1.03-5.99,1.97ZM357.17,70.27l27.83-1.18-23.36-1.89-4.47,3.07ZM341.54,153.94l25.25-.29,14.67-3.09c-10.94,2.36-24.27-1.79-34.57.11-2.37.44-4.79-.23-5.35,3.28ZM325.82,152.87l12.16-.51-.07-1.69-12.16.51.07,1.69ZM331.67,126.69c1.11-6.67-10.2-1.89-14.04-2.84.36,3.83,13.26,3.48,14.04,2.84ZM300.96,141.82c6.93-2.36,18.19,4.19,22.52-2.65l-7.2-.41-15.33,3.06ZM314.6,175.83l8.68-.37-.07-1.69-8.68.37.07,1.69ZM303.78,126.13l10.42-.44-.07-1.69-10.42.44.07,1.69ZM293.98,142.13c.56-7.11-13.7-1.4-17.51-2.7l17.51,2.7ZM233.94,205.23c1.11,3.77,2.57,2.26,4.88,2.12,12.58-.72,24.48.29,37-.47l-23.53-2.36-18.35.71ZM227.23,87.86c3.98-1.18,13.46,1.71,15.57-2.35-3.97,1.19-13.31-1.73-15.57,2.35ZM212.4,149.02l12.16-.51-.07-1.69-12.16.51.07,1.69ZM178.54,131.42c.16-.2,0-4.76-.23-5.15-.29-.46-7.58,1.07-10.48-1.28-4.08,8.23,8.75,8.96,10.72,6.43ZM179.41,152.16c1.11-5.76-5.7-3.11-8.89-4.8-1.11,7.52,2.61,4.86,8.89,4.8ZM157.73,134.05l-1.29-10.31c-2.55.39-2.38,15.47,1.29,10.31ZM152.77,180.97l2.86-13.95c-3.82,2.04-2.7,10.35-2.86,13.95ZM134.39,76.25c-1.58,1.72,3.35,6.74,5.43,4.93.34-.29-2.88-7.71-5.43-4.93ZM140.41,178.02c3.92-9.19-6.05-16.83-2.14-3.94.56,1.84-.64,4.57,2.14,3.94ZM127.99,90.35c3.09-3.6,1.07-16.09-5.92-17.05,1.34.1.72,23.1,5.92,17.05ZM130.62,111c-1.1-3.63,2.4-13.65-3.98-11.95l-1.24,12.14,5.21-.19ZM132.52,155.87c-.55-1.87-1.51-8.21-3.18-8.6-9.12-2.12-17.02,9.03-13.33,9.32l16.51-.72ZM132.9,176.25c1.18-1.48.06-4.55.19-6.57l-3.38,1.9,1.36-8.7c-3.07.32-9.53-.71-11.36,2.08-1.25,1.89,1.37,16.45,1.96,17.08,1.44,1.55,9.6,1.07,11.94-.28.57-3.16-2.98-.96-3.52-1.56-2.94-3.26,2.45-3.48,2.82-3.94ZM112.5,94.45l-4.11-15.37c1.63,6.76-6.04,17.94,4.11,15.37ZM111.49,111.81l-.37-8.63c-4.79-1.15-4.7,4.66-4.84,8.83l5.2-.2ZM85.81,204.54c3.98-1.18,13.46,1.71,15.57-2.35-3.97,1.19-13.31-1.73-15.57,2.35ZM95.06,176.48c-1.32-2.2-1.93-11.45-2.37-11.87-.5-.48-4.82.17-6.89-.62-4.17-1.6-6.91-5.46-12.34-3.86,2.66,2.72-.43,9.04.48,10.24.66.87,18.11,4.62,21.12,6.11Z"/>
</svg>