<?xml version="1.0" encoding="UTF-8"?>
<svg id="Layer_1" data-name="Layer 1" xmlns="http://www.w3.org/2000/svg" viewBox="0 0 1094.77 235.78">
  <defs>
    <style>
      .cls-1 {
        fill: #fff;
      }
    </style>
  </defs>
  <path class="cls-1" d="M105.68,58.54c-1.73-.48-2.64-3.4-1.34-5.22,1.59-2.21,6.11-.57,7.05-1.43.42-.39-.18-2.51.38-3.33,1.93-2.82,19.84-.03,24.92-.39,15.4-1.11,32.29-5.09,47.85-6.43,10.8-.93,22.1.06,32.93-1.32l-11.04-1.34-101.83,3.74c-2.84-1.27-2.98-3.39,0-4.77l49.55-6.67-6.45-2.59c-.37-3.09.04-4.58,3.23-5.15,31.46-1.12,62.87-.13,94.39-1.24,2.75-.1,5.25-1.25,7.71-1.33,96.84-3.4,193.98-4.47,290.7-7.83,29.32-1.02,58.84,1.42,87.95,2.63,35.8,1.49,71.59,2.49,107.16,6.53,1.97-4.18.87-7.7,5.9-9.75l-5.17-3.22c4.6,1.94,5.47-2.69,5.82-2.58,2.8.84.34,4.89.66,5.16,1.71,1.41,5.37-2.38,5.83-2.37,1.74.03,2.76,4.69,4.12,5.02,4.38,1.07,6.76-2.66,8.84-2.69,4.12-.05,7.75,12.68,9.23,13.02,14.6.74,29.17,2.66,43.73,3.82,47.13,3.76,95.03,5.17,141.77,11.75.6,2.92,5.8,1.67,4.87,4.38-3.18,9.29-9.73-.53-14.18,6.51,4.9.69,1.39,6.67,2.71,8.27,2.58,3.12,47.27.85,56.16,7.79,3.82,2.98.11,8.39-2.63,8.69-2.13.23-5.27-2.57-7.09-2.84s-3.24,2.39-5.83,2.07c-.81-.1,1.55-1.34-5.18-1.61-8.16-.33-3.42.1-6.88,1.39-11.64,4.32-18.26-.87-28.01.1-2.45.24-2.13-.22-1.96,2.63,11.89,2.53,42.36.76,47.07,14.17,1.52,4.32-2.28,8.38-6.53,8.71-2.36.18-8.5-2.87-9.52.38,8.63,2.26,24.84,1.44,32.26,5.94,2.21,1.34-.63,4.16,6.51,1.8,1.43-3.73-2.22-3.65-2.49-4.69-.24-.89.39-5.3,1.11-6.29,2.29-3.17,4.42,1.38,7.84-.64,1.68,2.07-4.64,14.04-3.98,18.64.14.99,6.38,1.5,6.35,3.97,0,.68-4.63,8.39-2.36,12.3-6.9,2.24-11.36-3.71-11.38-9.94,0-1.86,4.69-5.61.24-6.79-2.24-.59-4.6,1.19-6.36,1.02-3.19-.31-12.04-1.03-14.02-1.39-1.42-.26-4-3.78-8.21-4.56-4.54-.84-9.32-.06-13.91-.31l10.48,2.5c3.11,1.94,8.04,7.28,6.84,10.87-.62,1.86-8,4.9-7.63,9.88,2,2.02,47.94,8.02,55.88,10.69,2.66.9,4.39,2,6.15,4.19-3.37,1.09-3.36,5.19-7.16,5.83-5.2.88-12.18-4.45-16.6-3.59-2.35.45-3.67,4.95-6.59,4.85-1.71-.46-.64-6.67-7.89-6.41-3.89.14-2.25,4.73-3.9,5.21-3.35.96-10.72-.87-14.71-.07.72,1.75,6.67,2.19,8.55,2.42,7.1.87,33.01,2.59,36.02,9.22,1.61,3.54-.14,8.29-4.22,6.05-.42-.23.28-2.33-2.05-2.2-.98.05-6.2.84-5.99,2.57,4.72,5.09,18.49,5.19,22.02,8.41,1.68,1.53.61,5.09-.27,5.64-2.6,1.62-31.6-3.15-37.93-3.06-3.12.04-10.6,2.06-15.35,1.82-10.14-.5-22.22-6.73-30.52,2.08l71,14.93c-.56,13.41-3.96,5.23-4.64,5.08-2.6-.55-5.99.44-8.84,0-19.22-2.97-38.85-7.51-59.67-8.92-5.71-.39-12.61,1.7-18.52-.11-.57,3.77.75,2.26,3.21,2.56,9.16,1.11,19.67.26,28.33,1.42,2.63.35,20.54,4.5,21.91,5.22,7.54,3.97-3.44,9.98-5.02,9.98-.7,0-4.8-6.63-10.2-2.52-1.46,1.11-.41,3.97-1.35,5.34-2.34,3.42-9.81-.12-12.99-.03-29.25.81-58.92-1.34-87.82-2.64-73.79-3.31-147.87-7-222.32-7.76-1.12-.01-4.39-.12-4.55.05-1.43,1.55,4.01,5.63-5.8,5.74-48.45.52-97.66-3.67-145.98-4.5-54.59-.94-109.22.42-162.9,1.63-14.06.32-31.76,3.17-45.27,2.35-6.35-.39-11.43-3.33-16.71-3.96-19.89-2.37-42.13.88-62.02,1.39-26.84.69-53.47.86-80.23,2.48-12.66.77-25.28,3.77-38.07,2.63-.06-2.34-.58-5.44,2.12-6.28l43.13-5.37c-.52-1.1-1.45-2.74-.78-3.86,2.48-4.12,26.11-4.53,31.78-5.18l-9.02-5.8,2.56-5.21-47.12,3.32c-5.03-1.03-26.58,2.52-27.82-3.33s15.15-4.63,18.07-4.49c1.27-4.59-4.36-1.75-5.17-2.57-.35-.36.24-5.05,0-6.48,5.09-.32,11.74,1.95,14.22-3.86-4.75-.2-10.09-.62-14.76-1.41-19.9-3.38-38.54,1.05-58.12-1.33-5.45-.66-15.46-3.05-13.72-10.18l109.85-10.36c.53-.61-.62-5.28-1.63-6.14-5.33-4.54-43.35,3.7-52.65.97-1.25-4.6,5.17-2.26,6.2-2.96,7.36-5.04,4.15-2.17,12.44-3.59,4.52-.78,8.58-3.58,13.67-2.5-.52-.83-1.34-3.53-1.51-3.65-2.39-1.62-23.15,1.51-28.84,1.05-3.01-.25-9.57-.85-11-3.84,10.22.35,20.71-4.59,30.32-5.22,3.77-.25,10.86-1.09,12.33,2.61l-12.92.03,9.52,2.19c4.52-1.24,7.34-5.59,12.44-4.8-2.08-4.56-4.68-3.86-8.4-3.86h-20.68c-.8,0-1.96-2.16-1.97-3.23,0-.43,5.29-3.23,3.9-7.1-8.47.73-44.36,4.92-46.45-4.63-.66-3.02,5.02-4.02,6.86-4.61,8.44-2.68,19.12-3.01,27.98-3.69v-9.06c-2.05-.34-11.17.49-11.65,0-.34-.35-.34-3.17.77-3.99,2.54-1.87,8.31.21,9.57-2.46-6.76,3.18-24.73-4.12-12.24-6.44,6.69-1.25,7.3.43,13.13-4.9l54.69-6.76c-8.94-1.61-26.48,2.17-34.25,0ZM987.7,93.43c-.55-7.17-5.66-.11-6.06-.02-1.91.47-5.74-1.18-5.58,1.3l11.63-1.29ZM965.8,95.98c.38.27,8.79-.68,8.95-2.53-2.21-.03-7-3.9-8.4-3.86-2.53.07-1.36,5.8-.55,6.38ZM943.76,128.32l20.66-2.57-20.68-1.3.02,3.87ZM951.51,187.76l6.45-.63c-1.67-2.69-3.78-.64-6.45-.64v1.26ZM915.33,183.89c10.86-1.09,28.53,7.94,36.18-1.27-5.5,1.02-10.5-.01-15.94-.81l-20.23,2.08ZM941.17,128.32c-.16-1.04.24-3.62,0-3.87-.96-.97-24.02-.98-27.14,0-.24,1.88,3.39,2.33,4.63,2.46,7.33.78,15.14.92,22.51,1.4ZM917.91,168.38l23.25,1.29-21.62-3.58-1.62,2.3ZM886.9,89.54c3.95,2.65,7.23,1.23,10.59,1.7,12.81,1.77,25.69,3.14,38.5,4.77l-18.79-7.69-20.62-1.09-9.68,2.31ZM915.31,168.38v-2.57h-6.45v2.57h6.45ZM906.27,167.09c2.06-1.56.01-2.35-1.9-2.58-6.14-.75-13.68-.24-20.06-1.27,1.18,3.1,21.06,4.54,21.96,3.86ZM875.26,89.55l6.45-.63c-2.27-2.6-7.57-3.53-6.45.63ZM870.09,92.13h7.74v-1.27h-7.74v1.27ZM869.44,119.28c-20.51-2.12-44.39,1.58-65.26,0,.48,2.35,2.54,2.42,4.47,2.63,16.43,1.78,37.68,2.47,54.33,2.63,1.6.02,13.08.38,13.56-.1.14-.14.13-3.73,0-3.87-.48-.5-3.53.93-4.57.73-1.46-.29-2.27-2-2.53-2.03ZM824.86,99.9h49.11v-1.29h-49.11v1.29ZM839.08,134.79c4.17-1.61,7.26,1.98,12.3,1.05,2.07-.38,3.57-2.11,5.2-2.28,3.83-.38,7.73.07,11.58-.06,1.56-.06,4.81.97,4.5-1.28l-31.65-.05-1.93,2.62ZM561.23,203.27l307.58,5.83-27.73-4.59c-1.5,5.19-1.54.62-5.27.09-5.19-.74-12.32-.11-17.85-.52-4.08-.3-9.75.36-10.3.27-72.02-11.4-154-2.29-227.69-3.65l-18.75,2.56ZM852,74.04h9.03v-1.27h-9.03v1.27ZM842.95,108.93l15.5,1.29c-.57-1.91-6.73-2.45-8.41-2.55-1.56-.1-7.06-1.1-7.08,1.26ZM839.08,89.55c2.55-.71,9.18,1.66,10.33-1.27-2.55.71-9.18-1.66-10.33,1.27ZM848.12,71.47h-42.65v1.29h36.83c1.84,0,6.62,4.18,5.82-1.29ZM833.91,145.12h6.45v-1.27h-6.45v1.27ZM824.86,81.79c3.21-.07,6.48.15,9.7.01,1.57-.07,4.8.98,4.5-1.28-3.21.07-6.48-.15-9.7-.01-1.57.07-4.8-.98-4.5,1.28ZM830.03,133.48h7.74v-1.27h-7.74v1.27ZM826.15,90.84h6.45v-1.27h-6.45v1.27ZM820.99,136.07h6.45v-1.27h-6.45v1.27ZM815.82,81.79h6.45v-1.27h-6.45v1.27ZM813.23,134.78h6.45v-1.27h-6.45v1.27ZM801.6,133.48c2.55-.71,9.18,1.66,10.33-1.27-2.55.71-9.18-1.66-10.33,1.27ZM802.89,83.08l7.75-.63c-2.13-2.85-6.48-2.92-7.75.63ZM783.51,112.81h6.45v-1.27h-6.45v1.27ZM753.78,120.57h34.89v-1.29h-34.89v1.29ZM736.98,133.48l28.42,1.29-16.09-2.62-12.32,1.33ZM743.45,81.79h6.45v-1.27h-6.45v1.27ZM731.81,119.27h6.45v-1.27h-6.45v1.27ZM733.11,36.57l-.02-3.87-3.22,2.58-.65-2.58-5.15,2.59-2.6-3.87c2.95,3.97-3.57,1.58-.63,5.16h12.28ZM689.17,114.1c10.51.9,21.77-.01,32.46-.76,1.74-.12,7.42.2,7.59-1.8-9.89,1.99-25.41-2.45-34.27-1.07-1.5.23-5.59,1.71-5.78,3.62ZM729.22,133.49v-2.57h-6.45v2.57h6.45ZM681.41,99.88c3.21-.07,6.48.15,9.7.01,1.57-.07,4.8.98,4.5-1.28-3.21.07-6.48-.15-9.7-.01-1.57.07-4.8-.98-4.5,1.28ZM634.88,27.53h41.35v-1.29h-41.35v1.29ZM544.43,62.41c9.65.45,19.48-.54,29.12-.04,30.3,1.58,57.31,4.64,87.89,3.88,4.49-.11,9.2,2.03,13.52-.59-20.33-2.65-40.96-.99-61.45-1.89-19.73-.87-39.74-4.05-59.35-3.96l-9.73,2.6ZM593.76,109.91c2.55,2.23,59.42-.64,67.63-.97,1.57-.06,4.81.97,4.5-1.28l-170.57-3.88,12.28,2.57c22.33,3.15,44.97.71,67.19,1.57,3.6.14,14.69,2.76,16.68,2.43,1.07-.18.85-1.87.79-2.69h1.26c-.03.67-.17,1.88.25,2.25ZM611.63,123.15h6.45v-1.27h-6.45v1.27ZM567.69,36.56c14.88,4.23,35.56,12.4,49.09,1.95-6.34-2.22-13.6.44-19.8.16-7.55-.34-15.85-2.96-23.44-3.43-1.4-.09-6.1-.9-5.85,1.33ZM581.9,123.16h23.26l-17.31-2.46-5.95,2.46ZM590.95,192.93c2.78-.06,5.62.15,8.41.01,1.58-.08,4.8.98,4.5-1.28-2.78.06-5.62-.15-8.41-.01-1.58.08-4.8-.98-4.5,1.28ZM475.93,204.58h32.95c.61,0,4.01,1.19,6.39,1.37,1.32.1,6.16.8,5.88-1.36l-29.07-2.68-16.15,2.67ZM450.08,26.23h68.49v-1.29h-68.49v1.29ZM504.37,195.52c3.21-.07,6.48.15,9.7.01,1.57-.07,4.8.98,4.5-1.28-3.21.07-6.48-.15-9.7-.01-1.57.07-4.8-.98-4.5,1.28ZM460.43,204.56c2.55-.71,9.18,1.66,10.33-1.27-2.55.71-9.18-1.66-10.33,1.27ZM452.67,36.56c2.55-.71,9.18,1.66,10.33-1.27-2.55.71-9.18-1.66-10.33,1.27ZM428.11,27.51c3.64-.08,7.34.16,11,.01,1.57-.06,4.8.98,4.5-1.28-4.97.88-12.32-4.39-15.5,1.27ZM408.73,106.36h33.6v-1.29h-33.6v1.29ZM422.95,37.85c3.64-.08,7.34.16,10.99.01,1.57-.06,4.8.98,4.5-1.28-3.64.08-7.34-.16-10.99-.01-1.57.06-4.8-.98-4.5,1.28ZM421.66,124.44h7.74v-1.27h-7.74v1.27ZM385.46,27.53h41.35c.29-1.74-5.23-2.23-6.17-2.24-6.88-.06-14.76.99-21.57,1.03-4.54.03-11.63-2.93-13.61,1.21ZM391.93,62.42h21.97v-1.29h-21.97v1.29ZM402.27,124.44h9.03v-1.27h-9.03v1.27ZM399.69,158.04c2.55-.71,9.18,1.66,10.33-1.27-2.55.71-9.18-1.66-10.33,1.27ZM391.93,105.05h9.03v-1.27h-9.03v1.27ZM226.51,204.56c53.26.14,106.53.88,159.59-3.87l12.28-2.56c-43.86.61-88.13,1.77-132.51,2.52l-39.36,3.92ZM187.74,124.44c51.51,2.36,103.12-4.68,154.53-7.51l42.56-.23,4.5-1.28c-27.3.75-54.82-1.03-82.11-.07-34.38,1.21-68.86,5.67-103.35,7.79-3.87.24-7.76-.13-11.63.01-1.57.06-4.81-.97-4.5,1.28ZM376.42,103.76h7.74v-1.27h-7.74v1.27ZM270.45,147.7l89.86-1.23,23.85-2.62c-9.18-1.28-19.05,1.15-27.73,1.33-22.13.46-43.82-.81-66.02-.11l-19.97,2.62ZM364.79,26.22h6.45v-1.27h-6.45v1.27ZM213.59,52.07c37.33.89,74.47-3.72,111.83-2.52l25.14-2.62c-12.69.3-25.47-.42-38.17-.07-19.69.54-39.61,1.88-59.38,2.66-2.48.1-4.96,1.24-7.71,1.33-9.04.29-18.16-.42-27.21-.05-1.57.06-4.81-.98-4.5,1.28ZM331.19,39.14h6.45v-1.27h-6.45v1.27ZM227.81,96.01l34.29,1.36,32.89-3.92c-20.84,1.98-41.81.42-62.68,1.28-1.57.06-4.81-.98-4.5,1.28ZM223.92,32.7h28.43v-1.29h-28.43v1.29ZM212.3,205.85c2.55-.71,9.18,1.66,10.33-1.27-2.55.71-9.18-1.66-10.33,1.27ZM186.45,33.99h23.26v-1.29h-23.26v1.29ZM99.87,99.88c12.7-.16,25.46.24,38.17.07,5.56-.07,12.5-1.43,18.04-1.48,12.66-.11,27.78,2.07,40.11,1.47,2.62-.13,6.13-.6,8.36-1.98,0-1.1-17.63-3.35-20.04-3.35-12.56,0-28.07,1.19-40.97,1.81-5.02.24-11.27,1.79-16.13,2.06-7.54.42-15.42-.18-23.04.13-1.57.06-4.81-.98-4.5,1.28ZM58.51,159.33c12.9-1.16,26.57-.24,39.39-1.3,17.09-1.41,35.22-6.41,52.99-5.16l35.55-3.85c-38.72.25-77.12,5.86-115.64,7.75l-12.28,2.56ZM163.19,187.77l15.49-2.57c-4.06.16-8.23-.28-12.29-.01-2.58.17-3.74-1.03-3.2,2.58ZM148.97,58.54h27.14v-1.29h-27.14v1.29ZM86.94,85.67l20.67-1.92c-1.73-2.65-3-1.47-5.13-1.38-4.41.19-13.25-.24-15.54,3.3ZM93.4,124.44h7.74v-1.27h-7.74v1.27Z"/>
  <path class="cls-1" d="M1070.38,163.22c.13,4.71,4.41,4.49,7.14,6.45,5.86,4.2-6.8,4.28-7.79,2.67-.87-1.41-2.67-8.88.65-9.12Z"/>
  <path class="cls-1" d="M1039.28,123.06c-5.3,3.76-11.53-8.7.08-7.65.74,1.67,1.28,6.68-.08,7.65Z"/>
  <path class="cls-1" d="M1000.62,99.89c-1.19-4.52,10.44-6.27,11.62-5.16.92,8.04-6.77,3.18-11.62,5.16Z"/>
  <path class="cls-1" d="M762.81,2.96l-3.86-11.62c8.26.27,4.52,5.94,3.86,11.62Z"/>
  <path class="cls-1" d="M1058.77,105.06c-2.63-.32-9.76,1.82-7.75-3.21,1.36-3.39,10.2-1.13,7.75,3.21Z"/>
  <path class="cls-1" d="M1003.19,128.32c-8.27,1.89-14.4-9.04-2.77-2.99,1.77.92,3.49-.64,2.77,2.99Z"/>
  <polygon class="cls-1" points="1021.28 223.95 1012.27 219.44 1021.28 218.79 1021.28 223.95"/>
  <path class="cls-1" d="M1079.44,180.01c-.65.82-4.38,1.42-5.15-.66-1.5-4.06,7.88-2.8,5.15.66Z"/>
  <path class="cls-1" d="M1049.73,130.91v-5.16s2.56,0,2.56,0c.33,2.41,0,4.47-2.56,5.16Z"/>
  <rect class="cls-1" x="1048.44" y="68.89" width="3.86" height="2.57"/>
  <path class="cls-1" d="M1052.28,95.37c0,1.94-3.83,1.94-3.83,0s3.83-1.94,3.83,0Z"/>
  <path class="cls-1" d="M753.77,6.84h-2.57c-.42-1.9.57-2.69,1.94-3.86l.63,3.86Z"/>
</svg>