<?xml version="1.0" encoding="UTF-8"?>
<svg id="Layer_1" data-name="Layer 1" xmlns="http://www.w3.org/2000/svg" viewBox="0 0 1094.77 235.78">
  <defs>
    <style>
      .cls-1 {
        fill: #fff;
      }
    </style>
  </defs>
  <path class="cls-1" d="M1006.89,195.57c-.53.76-10.91,2.43-13.48,8.33-1.85,4.24.38,17.75-6.67,19.29-6.29,1.38-9.14-17.2-11.24-17.65-1.46-.31-6.77,2.68-9.73,3.04-40.58,4.99-93.23-1.81-135.7-1.41-24.35.23-49.47,2.77-74.28,3.01-90.84.88-181.87-3.76-273.07-8.01-1.67-.08-17.24-.74-12.21,3.3,15.61,2.92,31.73,4.05,47.67,4.77,39.99,1.82,80.92.68,121.07,1.36,4.78.08,16.72,1.84,17.63,1.7,1.57-.25,2.8-2.99,6.53-2.93,9.23.16,21.58,5.4,31.76,3.2.53,5.45-2.08,7.52-7.18,8.16-24.82,3.1-54.11.16-79.35,1.6-75.75-7.46-152.26-6.9-227.84-4.93-37.46.98-74.81,3.85-112.32,3.26l1.64,3.21c-4.71-.73-9.19,1.79-13.75,1.76-17.14-.1-38.49-4.3-56.5-5.06-27.06-1.14-54.04-.56-80.88.07-4.83.11-9.77-3.62-15.38-.82-2.87,1.43-3.2,7.32-7.23,7.36-7.71.07-3.71-20.97-12.14-17.86-.6-2.78,1.44-3.81,3.21-5.65-2.71-3.73-7.26-2.27-11.3-2.42-2.42-10.76,4.19-6.21,8.09-12.92-4.25-.39-19.56-1.97-19.48-7.28.02-1.1,6.27-9.89,7.27-10.61,2.69-1.94,8.33-1.44,9.77-4.66.95-2.13-2.18-13.45-2.39-17.09-.62-10.88-2.73-30.62-1.64-40.39.59-5.31,8.76-28.14,13.65-28.23,9.49-.18,4.53,8.41,2.52,14.49,12.42-.23,23.39-5.95,35.54-4.85.76-4.58-.93-2.71-3.73-3.45-4.35-1.15-9.15-.75-12.78-1.84-1.96-.59-17.92-7.32-18.66-8.02-3-2.85-1.1-10.16,2.18-12.42,7.07-4.88,22.12-.39,24.94-8.19h1.57c-.6,6.35,6.54,1.99,10.53,1.91,2.5-.05,5.17,1.75,7.81,1.38.54-.08,3.08-5.37,8.56-6.05,9.71-1.21,20.18-1.13,30.51-2.09,10.76-1,5.68-2.5,5.91-7.33.6-12.83,28.16-7.23,36.15-7.48,26.67-.83,68.95.76,94.45-7.07,6.81-2.09,14.76-5.82,20.28-10.44,3.26-.86,1.61,1.87,3.18,3.22,8-3.04,15.49-22.12,20.59-25.59.32-.22,7.47-.58,7.7-.28,2.23,2.85-12.36,29.1-11.3,35.55,21.26-.46,42.56-3.71,63.84-4.51,77.28-2.91,154.72.32,232.53,1.51,76.9,1.17,153.53,2.51,229.89,6.08,3.82.18,19.26-5.32,16.61,3.99-.93,3.25-9.33,4.87-7.88,10.72,6.68.35,13.54-.52,20.22.1,6.63.61,37.17,7.13,39.74,3.75,2.72-3.57,5.92-17.95,7.88-19.31.47-.33,7.84-.15,8.16.1,3.58,2.73-.58,13.04-1.66,16.97,5.24-2.89,28.24-.97,19.39,7.29-5.31,4.95-13.58,3.19-9.67,15.36l6.43-3.23c3.1,5.61-1.47,8.4-1.5,13.51-.08,16.49,12.72,33.57,11.21,49.5,2.09,1.58,9.64-7.14,12.92-.77.61,4.93-9.36,6.49-9.79,8.32-1.85,7.92,5.37,29.18,3.97,34.56-2.33,8.93-12.3,5.83-13.56,12.86,5.33-1.17,27.22-3.11,20.78,6.26ZM979.65,160.23c3.8-.94,1.94-6.32,3.2-9.69-4.13,1.24-3.24,6.14-3.2,9.69ZM971.54,134.37v-8.07h-1.58v8.07h1.58ZM958.62,113.35l-3.21-14.53c-.97.74-2.07,20.19,3.21,14.53ZM944.06,97.2l1.64-14.55c-20.57-1.7-8.42,4.83-1.64,14.55ZM932.77,174.76l12.91,1.62c-.52-3.25-11.98-5.13-12.91-1.62ZM940.84,163.46v-3.22s-9.69,0-9.69,0c1.25,4.1,6.15,3.29,9.69,3.21ZM929.53,135.98c.04-3.07.96-3.36-2.29-3.02-4.56.48-7.6.7-12.25-.19,2.4,5.37,9.96,2.69,14.54,3.21ZM921.44,111.74c1-18.26-8.82-4.77-10.5-4.87-1.33-.08-1.69-4.39-3.55-4.86-3.27-.82-14.83-.22-19.14-.03-14.63.66-30.21,3.44-45.06,3.42l-25.2,3.92c-.06,1.63,7.03,2.39,8.84,2.5,31.61,1.87,63.36-3.21,94.61-.08ZM903.67,92.34l8.07-.78c-2.52-3.56-6.52-3.54-8.07.78ZM863.27,158.62h32.32v-1.62h-32.32v1.62ZM528.71,39.01c20.63.68,41.61.38,62.2,1.64,80.64,4.95,160.64,14.24,241.39,5.38,4.61-.51,8.66-2.67,12.66-3.19,2.02-.26,16.68.72,16.7-1.4-98.05-4.52-195.4-1.66-293.43-3.97-11.69-.28-24.86-3.25-37.14-1.69-2.36.3-5.01,1.23-2.39,3.23ZM829.33,124.68h30.71l-23.37-3.31c-3.39.53-8.51-2.01-7.34,3.31ZM818.01,150.52c4.02-.09,8.11.19,12.14.02,1.97-.08,6.01,1.22,5.63-1.6-5.82,1.72-14.45-5.17-17.77,1.58ZM821.24,100.42c1.09-6.09-3.92-1.37-7.32-1.52-6.2-.28-13.06-1.37-19.33-1.82l-59.02,4.16c-.03,6.04,77.13-.49,85.67-.82ZM788.11,150.54c9.39.4,18.9-.29,28.28,0-2.29-5.95-7.85-1.69-11.95-1.75-6.35-.1-14.74-1.42-21.14-1.55-3.34-.07-4.74-.89-4.07,3.3,3.45-1.64,6.36-.1,8.88,0ZM723.46,127.91c17.25,2.41,39.55-1.78,57.38,0,.32-2.31-4.39-3.03-5.83-3.14-9.72-.73-21.34,1.62-30.53,1.66-8.02.04-16.76-2.81-25.04-1.73-.59,1.63,3.37,3.12,4.03,3.22ZM772.75,168.31c.79-4.51-.97-2.71-3.54-3.64-16.65-6-36.3-4.47-53.61-2.73-2.18-6.27-2.57-.89-6.86-.56-6.43.5-14.7-2.43-21.62.48l15.36,4.96c23.29-.71,47.16.26,70.28,1.48ZM756.6,148.9h8.07v-1.58h-8.07v1.58ZM730.74,82.64c3.19-.89,11.49,2.08,12.91-1.58-3.19.89-11.49-2.08-12.91,1.58ZM681.44,118.21h57.38c.2-3.19-4.22-.75-6.57-2.36-1.73-1.18-.45-4.95-3.45-6.28-3.59-1.59-25.92-4.17-31.11-4.37-4.99-.19-32.02,1.07-34.86,2.47-.75.37-2.05,2.12-1.59,2.43,4.29.09,11.24.05,14.99,1.99,2.86,1.48,4.04,5.72,5.21,6.1ZM717.81,81.02h11.3v-1.58h-11.3v1.58ZM720.87,148.79l1.77-6.33c-8.98.16-17.88.35-26.67-1.77l-34.73,5.82c-.54,4.02,1.11,1.93,3.31,1.7,18.39-1.91,37.73,1.1,56.31.57ZM656.39,197.39c3.01.16,7.11.47,8.08-3.2-3.01-.16-7.11-.47-8.08,3.2ZM650.19,95.34c4.73,2.78,12.62-6.26,9.42-9.45-1.28-1.28-10.32,1.71-12.92,1.62-.69.78,3.12,7.61,3.49,7.83ZM636.99,147.29c4.56-.09,9.18.19,13.75.02,1.95-.07,6.01,1.21,5.63-1.6-5.57-1.33-15.74-4.49-19.38,1.58ZM645.08,199.02c.48.56,9.49-1.88,9.69-4.83-3.56-1.05-13.96-.13-9.69,4.83ZM638.62,92.34c2.23.5,4.3-.87,4.84-3.21h-4.84s0,3.21,0,3.21ZM641.83,197.4c4.93-3.73-10.8-3.97-11.3-.79l11.3.79ZM629.21,91.93c1.32,1.12,4.29.2,6.16.41-1.77-9.48-12.5-3.2-18.63-3.47-3.05-.13-5.61-2.3-8.31-2.36-5.59-.12-11.1.76-16.7,1-3.01,2.29-.82,2.44,1.96,2.85,5.12.75,29.19,2.93,32.57,2.03,1.33-.35,1.19-2.17,1.06-3.25h1.57c-.02.82-.19,2.35.32,2.79ZM578.82,100.42c16.74,1.48,33.17,5.14,50.09,3.23l-44.47-4.82-5.62,1.59ZM570.73,118.2l25.84,1.62-13.74-3.2-12.1,1.58ZM596.6,153.76v-4.83s-84.05-3.22-84.05-3.22c-.34,2.49,4.23,2.34,5.96,2.54,7.96.89,17.5.07,25.54.69,17.5,1.35,34.97,4.4,52.55,4.83ZM590.11,89.12c.82-5.06-1.4-2.52-4.08-3.13-1.53-.35-8.92-2.33-8.81.71.13,3.77,10.53.42,12.89,2.42ZM567.5,87.5c2.23.5,4.3-.87,4.84-3.21h-4.84s0,3.21,0,3.21ZM552.96,108.5c4.02-.09,8.1.19,12.13.02,1.97-.08,6.01,1.22,5.63-1.6-4.02.09-8.1-.19-12.13-.02-1.97.08-6.01-1.22-5.63,1.6ZM564.25,87.49c.78-4.78-1.12-2.66-3.97-3.31-5.08-1.16-8.72-.63-13.79.1l17.76,3.21ZM433.35,105.27l117.99,2.44c.03-1.17-4.54-2.12-5.81-2.28-29.53-3.92-70.44-5.36-100.14-3.44-2.81.18-10.58.61-12.05,3.28ZM540.01,137.62c-20.2-2.5-41.06-1.26-60.8-3.03l-31.28.59c1.94,2.94,4.27,2.29,7.17,2.5,16.53,1.15,33.77,1.36,50.11,1.61,9.6.15,19.61.33,29.18-.07,1.97-.08,6.01,1.22,5.63-1.6ZM502.85,37.38c3.48-.08,7.03.18,10.52.02,1.97-.09,6,1.23,5.63-1.6-3.48.08-7.03-.18-10.52-.02-1.97.09-6-1.23-5.63,1.6ZM465.68,205.48l-2.43-3.27c-18.24.25-37.93,1.37-55.74-1.57-.68,4.52.76,3.02,4,3.23,5.36.35,10.82-.4,16.17.02,12.7.98,25.36,4.03,38.01,1.59ZM375.97,137.61c17.46.62,35.07-.46,52.53,0-4.54-9.09-16.96-2.38-25.22-6.32l-37.81,3.09c-1.66,4.84,6.76,3.09,10.51,3.22ZM402.64,45.5c2.49,4.53,12.81,3.7,16.15.78l-16.15-.78ZM365.46,98.8c5.85-.98,15.83,2.87,19.39-3.2-5.85.98-15.83-2.87-19.39,3.2ZM378.38,173.16c.93-3.72-1.59-3.87-4.41-4.4-6-1.11-12.18-.17-18.2-.43-.34,2.3,4.45,2.52,6.09,2.77,5.52.83,11.13.07,16.52,2.06ZM367.09,208.71l8.07-.78c-2.09-3.37-4.73-.8-8.06-.8v1.58ZM338,190.94c9.41-2.23,19.5-.45,29.28-.97,1.68-.09,6.68.19,6.25-2.25-8.9,2.37-24.03-3-31.47-1.66-2.76.5-4.59,1.8-4.06,4.87ZM312.13,207.09l53.33,1.62c-3.06-6.65-15.85-2.81-23.5-3.15-8.06-.36-16.11-2.13-24.37-1.52-2.54.19-4.71-.16-5.46,3.05ZM350.9,24.47l-6.45,4.06c2.43,8.06,7.84,2.66,6.45-4.06ZM341.21,135.98c.78-4.79-1.15-2.66-3.97-3.32-21.12-4.92-12.05,6.29,3.97,3.32ZM336.35,190.94c3.15-4.22-5.88-9.08-8.05-4.02-1.1,2.56,7.78,4.38,8.05,4.02ZM315.35,134.37c1.35-6.22-7.84-.46-11.3-3.21l11.3,3.21ZM283.04,205.48l27.47,1.61c-.61-2.92-3.17-3.02-5.59-3.28-5.19-.57-12.73-1.28-17.87-1.55-3.37-.18-4.65-.94-4.01,3.22ZM308.89,187.7c.37-4.23.22-2.68-2.43-3.17-9.63-1.79-19.53-1.05-29.1-3.27l-50.88.82,9.09,3.37c24.34,2.33,48.96,3.93,73.32,2.25ZM294.35,132.74l6.46-.78c-2.5-3.53-4.98-3.14-6.46.78ZM213.54,155.38l84.05-.8c-27.18-2.46-54.85-4.98-82.19-5.41l-1.87,6.21ZM283.04,131.13h9.68v-1.58h-9.68v1.58ZM208.7,211.93c21.85,3.17,44.18,1.86,66.25,3.24l-20.13-3.28c-13.08,1.37-25.96-1-38.79-1.63-1.76-.09-7.64-1.08-7.33,1.67ZM207.33,195.54c3.72,2.29,23.27-1.51,29.4.02l26.9-2.98-58.17-3.24c-.57.54,1.3,5.86,1.87,6.21ZM229.71,98.8h8.07v-1.58h-8.07v1.58ZM218.39,100.42l6.45-.79c-1.74-2.49-3.47-2.81-6.45-2.42v3.22ZM224.84,184.47c3.07-3.01-4.09-3.66-6.44-4.84-2.62,3.06,5.69,5.57,6.44,4.84ZM210.29,102.04c.76-8.66-17.38-11.08-19.24-5.5-3.98,11.89,13.8,2.04,19.24,5.5ZM174.73,113.36c.56-5.61,6.7-14.23,2.44-19.38.37,6-9.44,15.7-2.44,19.38ZM158.59,106.89c1.03,1.23,8.63-6.36,9.57-7.39,6.32-6.94-9.03-4.39-9.56-3.9-.58.54.36,9.1,0,11.29ZM161.82,129.53l-.92,6.48,7.37,1.58c-1.64-3.09-1.68-8.65-6.46-8.06ZM158.57,71.33v-3.22s-4.84,0-4.84,0c.54,2.34,2.61,3.71,4.84,3.21ZM128.16,72.54c1.55.97,22.6-.36,23.96-4.41-10.17-.72-39.11-2.78-47.33,1.95-12.6,7.24,16.4,5.34,20.6,4.62,1.73-.3.71-3.45.89-4.95,2.64-.69,1.02,2.26,1.89,2.8ZM142.41,116.59c-1.64-10.37,11.81-21.26-8.07-19.38-1.33,1.3,3.33,18.94,8.07,19.38ZM132.74,179.63l12.91-3.21c-3.11,1.12-14.08-3.09-12.91,3.21ZM102.65,128.71l6.71-3.08,26.58-4.18c-14.75-.63-29.21-3.33-43.62-6.48l-1.61,21.01,11.93-7.28ZM121.42,135.98c.72.54,14.21.63,14.53-3.21-3.68,1.17-15.71-3.15-14.53,3.21ZM93.94,108.5c13.52,1.94,26.53,7.7,40.4,6.46-2.4-3.54-1.98-16.61-5.77-17.56-2.11-.53-36.52,3.07-34.63,11.1ZM124.63,203.87c.55-.59,1.02-6.05-2.39-4.82-4.99,1.79.82,6.52,2.39,4.82ZM114.91,181.23c.28-.23,1.81-5.21,3.26-6.44h-16.16c-1.41,6.99,7.26,9.59,8.88,3.2,1.06-.05.64,6.1,4.01,3.24ZM92.33,148.92c.08,7.5,9.72,4.32,14.53,4.83-2.62-5.47-10.11-.59-14.53-4.83ZM89.07,182.85c7.13-15.61-4.33-5.94-1.58,0h1.58ZM74.55,181.23c2.88.44,5.67-.09,6.46-3.2-2.1-.66-8.13,2.42-6.46,3.2Z"/>
  <path class="cls-1" d="M780.09,166.54c-6.48,6.3-8.57,13.95-17.61,13.95s-9.04-10.04-18.07-10.04-9.04-5.07-18.07-5.07-9.04,1.67-18.07,1.67-9.04,6.87-18.07,6.87-9.04-6.71-18.07-6.71-9.04-1.64-18.07-1.64-9.04-8.29-18.07-8.29-9.04,6.94-18.07,6.94-9.04,15.06-18.07,15.06-9.04-19.18-18.07-19.18-9.04-4.16-18.07-4.16-9.04,12.36-18.07,12.36-9.04-13.48-18.07-13.48-9.04,21.19-18.07,21.19-9.04-9.86-18.07-9.86-9.04,7.59-18.08,7.59-9.04,2.59-18.07,2.59c-9.04,0-9.04,4.01-18.07,4.01-9.04,0-9.04-11.82-18.07-11.82s-9.04-5.36-18.08-5.36c-9.04,0-9.04-4.9-18.07-4.9-9.04,0-9.04,22.41-18.08,22.41s-9.04-27.25-18.08-27.25-9.04,7.35-18.08,7.35-11.53,12.47-18.01,6.17c-6.3-6.11,7.66-8.71,7.66-17.48,0-8.78,1.08-8.78,1.08-17.56s-7.3-8.78-7.3-17.56,6.13-8.78,6.13-17.56-9.25-6.62-2.95-12.74c6.48-6.3,4.35-14.9,13.39-14.9s9.04,20.15,18.07,20.15,9.04-7.43,18.07-7.43,9.04,1.35,18.07,1.35,9.04,1.37,18.07,1.37,9.04-16.91,18.07-16.91,9.04.68,18.07.68,9.04,4.66,18.07,4.66,9.04-2.67,18.07-2.67,9.04-4.81,18.07-4.81,9.04.14,18.07.14,9.04,15.27,18.07,15.27,9.04-2.28,18.07-2.28,9.04,8.16,18.07,8.16,9.04-6.16,18.07-6.16,9.04-1.4,18.07-1.4,9.04-8.91,18.08-8.91,9.04,14.07,18.07,14.07,9.04-2.09,18.07-2.09,9.04-11.96,18.07-11.96,9.04,18.73,18.08,18.73,9.04-5.04,18.07-5.04,9.04,6.13,18.08,6.13,9.04-15.16,18.08-15.16,9.04,6.67,18.08,6.67,8.93-6.03,15.42.27.42,6.03.42,14.81c0,8.78-2.55,8.78-2.55,17.56s13.55,8.78,13.55,17.56-14.77,9.83-13.01,18.43,10.09,10.09,3.79,16.21Z"/>
</svg>