<?xml version="1.0" encoding="UTF-8"?>
<svg id="Layer_1" data-name="Layer 1" xmlns="http://www.w3.org/2000/svg" viewBox="0 0 1194.58 257.27">
  <defs>
    <style>
      .cls-1 {
        fill: #fff;
      }
    </style>
  </defs>
  <path class="cls-1" d="M1105.3,77.75c-1.34,6.35,7.31,2.78,8.31,8.85.68,4.16-6.26,19.7-12.14,14.75l7.16-12.21c-9.88,1.14-22.82-.26-32.45,1.43-12.4,2.17.56,25.1.5,27.47-.07,2.49-3.15,4.73-3.53,7.62-3.24,24.33-.79,43.13-9.28,68.49-1.44,4.31-11.79,29.95-18.33,22.87l4.64-18.85c-6.3,1.93-5.58,10.42-8.7,14.37-5.32,6.72-14.72,3.56-20.91,4.65-2.47.44-4.66,2.57-7.64,3.07-3,.5-19.34.97-20.05,1.74-1.95,2.1,4.46,7.95-4.99,10.71-57.78,16.84-147.82-.69-208.43-3.38-90.85-4.03-194.31-1.34-285.48,2.76-100.94,4.54-206.75,26.31-307.03,20.54-18.19-1.05-37.72-5.21-55.95-6.51-13.89-.99-44.66-4.71-55.89,3.26-3.61,2.57-10.85,16.35-14.36,7.05-.87-2.29.75-4.96.15-7.49-.81-3.45-3.34-6.28-3.43-10.44-.19-8.82,7.63-11.41,6.45-19.82-2.48.56-15.25-3.37-15.68-4.11-3.86-6.62,4.48-5.18,4.99-5.74.55-.6.77-6.71,2.39-9.95.47-.94,8.06-11.13,8.66-11.49,2.31-1.37,5.27,4.4,8.89-7.44-.08-4.02-29.32-5.28-27.83-17.3.09-.74,10.1-9.24,10.75-9.51,1.94-.83,2.87,2.16,4.3,2.21,2.54.09,7.44-4.5,11.46-2.88-3.52-6.35.98-12.08.24-18.93l-3.5,1.87c-.8-17.26,4.69-33.04,9.42-49.11-6.86,1.46-59.68-.45-59.55-3.69.52-3.88,10.54-15.63,13.63-15.52s5.5,4.3,11.99,3.75c8.13-.69,18.19-2.75,28.05-3.6,12.56-1.09,25.01-4.26,37.75-3.26l-31.48-6.98c-5.35-9.92,7.86-6.14,5.49-14.19,7.63-1.32,4.55,3.53,7.78,7.65,6.14-7.06,3.45-1.65,4.73-.42,2.11,2.03,9.64-.78,13.04-.55,16.16,1.08,36.63,5.9,52.42,4.01,3.41-.41,2.66-3.75,3.44-3.93,5.14-1.21,3.89,3.15,5.19,3.49,8.99,2.37,41.52-1.64,54.44-.81,5.33.34,10.22,3.29,14.41,3.48,49.58,2.3,100.03,1.17,150,2.75,2.82-13.74,15.63-8.15,25.75-9.21l-8.86,7.42,77.94,4.49c9.83,1.86,26.4-6.56,33.55-6.8,3.77-.13,5.38,3.37,8.22,3.52,7.88.42.83-7.9,5.81-8.88,5.52-1.08,7.85,6.36,10.34,5.78,1.58-.37.34-3.39,2.06-3.82,8.9-2.25,21.58,1.08,29.52.6,17.94-1.09,37.09-3.35,56.11-3.09,23.45.31,53.53-3.38,80.76-4.62,11.33-.52,22.82.77,34.15.44,2.85-2.28.03-3.43-2.53-3.82-4.86-.73-10.37.3-15.59-.43-27.74-3.91-56.19-11.81-84.18-14.17-23.41-1.97-34.36,1.84-59.01-3.45-5.78-1.24-12.74-.61-18.87-3.34-.38-2.73,3.08-2.52,4.93-3.12,17.48-5.7,27.55-.11,43.49,1.69,88.43,10.02,173.39,25.28,262.51,20.96,61.03-2.96,122.04-19.59,182.55-23,9.44-.53,24.94-1.45,33.25-.62,3.49.35,17.01,9.28,10.13,13.46-1.01.62-19.51,4.55-22.76,5.12-22.11,3.91-49.25,6.4-71.83,8.65-43.49,4.33-87.64,3.57-130.45,11.79-.82,4.09-2.46,7.65-4.89,10.9-2.27,3.04-5.7,2.65-6.13,5.65l321.93-22.07c3.69,9.78-8.37,8.25-13.28,10.24-5.08,2.07-10.62,5.81-15.87,7.36-16.72,4.94-35.86,6.37-52.74,11.6ZM1060.7,29.41c.58.61,14.77-1.2,16.14-1.55,3.36-.86,3.01-4.5.3-5.37-1.43-.45-26.5,1.15-29.79,1.44-21.44,1.86-49.16,5.93-70.28,10.43-3.02.64-5.2-2.17-4.42,3.66,11.74-4.04,24.31-2.2,35.95-3.3,16.32-1.55,36.44-3.37,50.98-8.74,1.62-.24.39,2.66,1.12,3.44ZM942.26,79.28c9.53,10.11,25.36.57,36.44-.87,10.82-1.41,21.69-2.45,32.63-2.21l59.09-12.19c-42.97,3.26-86.04,6.49-128.16,15.28ZM1062.32,141.51c2.72-2.77,1.86-13.79-3.25-15.19-1.31,2.1-1.31,19.83,3.25,15.19ZM976.88,111.92c28.43-.77,56.21,3.94,84.24.36,4.68-7.63,1.34-9.47-1.49-14.1-.97-1.58,1.34-5.17-2.58-3.98-21.59,4.2-42.94,10.35-64.77,12.74l-15.39,4.98ZM1054.64,190.64l5.7-32.09c-2.46-.48-2.61,3.32-3.06,5.21-1.39,5.82-3.23,14.59-4.11,20.46-.3,1.97-1.57,6.88,1.47,6.43ZM1029.45,127.46l26.14-4.95c-21.66-2.35-43.85-3.16-65.76-2.9-33.07.39-76.3,1-108.63,6.21-3.21.52-5.21-2.04-4.48,3.66,35.17-2.35,70.51,4.49,106.06,3.44,4.14-.12,8.02-1.64,12.17-1.91,7.6-.51,13.98,4.31,19.4-3.41,3.54,10.97,4.77-2.13,8.81-3.66,1.95.05-.28,3.19,1.71,3.82,4.45,1.4,1.03-4.42,4.39-3.73.02.98-.3,2.96.19,3.43ZM981.61,149.9c.76,3.52,2.72,3.54,5.54,3.45,13.11-.45,38.56-1.96,50.69-5.41,9.32-2.65,7.43-7.79,10.62-16.06-7.58-1.29-7.9,7.6-10.71,10.2-6.24,5.78-46.07,2.1-56.15,7.82ZM1030.17,188.42c5,5.22,4.24-8.81,4.43-9.44,1.76-6.05,7.79-11.34,6.44-18.82l-24.56,3.47c1.42,3.81,16.68,3.2,17.44,4.07.47.54-.31,5.63-.08,7.48-7.99-.09-16.23,3.38-23.99,4.67-6.21,1.03-14.53.27-20.5,1.13-3.41.49-5.81,4.23-9.92,1.06l-.13,9.47c4.96-1.55,9.97-7.11,11.37.15l3.57-3.73c3.15,9.72,4.08.7,5.62.14,6.78-2.46,13.31.81,16.89.3,1.47-.21,1.69-3.65,3.06-4.63,11.57-8.25,9.35,3.61,10.37,4.68ZM962.28,175.78l29.52-3.02c-3.96.25-7.6-1.69-11.44-2.15-32.07-3.81-77.68-4.09-109.51,3.28-24.45,5.66-49.98,6.58-75.76,9.89-3.55.46-13.82-.05-12.07,5,32.54.11,64.69.67,97.29-2.46,6.97-.67,50.18-5.26,52.45-6.71,2-1.28,1.09-3.8,1.22-5.78,4.44.6,1.41,5.56,1.66,5.69,6.08,3.14,7.63-3.74,8.13-3.78,2.4-.22,5.04,2.25,6.63,2.18,1.08-.05,1.96-3.93,3.91-5.45,7.2-5.64,6.27,2.13,7.99,3.32ZM875.34,229.82c30.16,3.17,60.04-.59,90.25-.65l13.21-3.56c-6.36-2.68-8.97-.27-14.82,1.78-27.45.2-55.08-.19-82.5.65-2.13.07-6.5-1.52-6.13,1.79ZM975.76,191.45c-1.47-2.04.43-7.37.12-7.55-3.17-1.82-21.71,3.17-26.33,3.43l16.44,3.93c3.8-1.11,1.28-12.56,9.77.19ZM964.1,147.75c-2.61-2.9-7.55,5.53-2.7,5.6,1.16.02,3.69-4.5,2.7-5.6ZM931.7,82.9c1.47-5.6-4.31-4.09-7.91-3.96-43.9,1.52-99,4.22-141.82,11.67-3.01.52-9.56.2-8.21,5.27l157.94-12.97ZM925.62,141.52c.6-5.96-.48-2.97-3.32-3.17-31.46-2.23-71.21-3.34-102.73-2.15-11.18.42-22.95,3.68-34.18,4.35,27.58,1.79,55.02,3.41,82.39,3.06,19.2-.25,38.59-1.46,57.83-2.08ZM868.75,61.03c.37-.6.92-5.35-.62-5.48-3.11,1.96-7.69,2.43-11.22,2.48-51.59.77-103.65,4.97-155.46,8.47-7.28.49-13.71.4-11.54,9.29,12.78-.17,24.51,2.57,37.71,2.49,35.24-.2,76.09-5.07,111.26-8.97,2.04-.23,3.3,2.32,5.38,2.01,1.3-.2,23.76-9.1,24.48-10.29ZM822.53,119.27l15.83-5.44c-3.84-.05-7.81.72-11.52,1.68-2.94.76-5.1-1.98-4.31,3.76ZM746.33,178.81c21.23-.87,42.77-1.06,63.99-2.9,2.16-.19,9.37-.57,9.7-3.62-20.64,1.31-41.62,1.17-62.24,2.93-2.45.21-10.58.75-11.45,3.59ZM757.03,165.7c4.36-.04,8.78.34,13.15.2,2.13-.07,6.49,1.52,6.13-1.79-3.27.38-6.58-1.61-9.61-1.65-1.6-.02-9.67.54-9.68,3.24ZM634.68,171.02c1,.62,19.93.94,23.09.91,25.51-.25,52.5-4.9,77.58-5.27,6.42-.09,13.48-1.44,19.92-1.91-5.04-3.22-16.05-4.7-21.86-5.06-8.38-.53-16.09,2.7-21.05,2.8-.8.02-6.62-4.27-10.59-4.96-37.97-6.61-72.23,2.25-109.13,9.2-15.27,2.87-30.69,5.53-46.08,7.47-.46,3.3,3.95,1.84,6.08,1.96,6.93.39,14.17.47,21.11.36,12-.19,38.83-.15,48.62-3.67,3.39-1.22,4.16-5.23,9.35-5.27,3.12-.02,2.33,3.06,2.96,3.45ZM745.65,99.27c1.39-7.84-8.58-1.51-12.22-2.03l12.22,2.03ZM712.82,193.49c3.48-1,12.42,2.61,14.03-1.66-3.48,1-12.42-2.61-14.03,1.66ZM685.98,106.01l8.75.12.03-1.85-8.75-.12-.03,1.85ZM676.72,141.87l7.01-.82c-2.44-4.14-3.28-1.61-6.98-1.03l-.03,1.85ZM674.95,143.75l.06-5.68-8.75-.12-.1,5.68,8.78.12ZM657.63,128.35c4.07-1.05,13.43,2.68,15.78-1.64-4.06,1.06-13.28-2.7-15.78,1.64ZM659.67,107.55l8.76-.81c-3.02-3.85-10.2-5.32-8.76.81ZM662.66,143.58c.28-.21,2.83-6.13-1-7.34-3.77-1.19-8.89.06-12.91-.41.94,4.19,5.19,3.12,8.15,4.59.33.16,2.02,5.88,5.76,3.16ZM654.77,80.98l-49.95-.69c-2.41-.03-12.31-3.34-8.79,3.69,14.37-1.62,28.73-1.66,43.1-.66l15.64-2.34ZM651.57,58.21c.76-5.11-.69-3.78-4.32-3.77-19.88.05-46.59,6.01-65.32,3.34-3.94-.56-2.99,2.59-2.25,3.22l71.89-2.8ZM628.5,205.6c2.62-11.97-15.04-1.04-22.71-4.07l22.71,4.07ZM609.53,184.5l8.75.12.03-1.85-8.75-.12-.03,1.85ZM617.62,105.08c1.38-7.43-11.73-2.55-15.7-3.97-.49,3,3.06,2.11,5.01,2.6,3.45.86,7.13,1.23,10.69,1.38ZM494.59,129.89l60.47,4.83c8.79-4.81,10.52-.89,16.4-.45,7.49.56,27.52-2.86,31.88-10.42-32.78-3.15-64.38-1.71-97.1,2.66-2.67.36-10.59.77-11.65,3.37ZM591.58,85.8c2.69-7.28-6.53-6.6-12.76-7.07-22.21-1.69-45.28-.6-67.73-1.6,1.34.73,6.89,6.14,7.33,6.32,14.68,5.85,48.64,2.36,65.14,1.14,2.63-.2,5.54.27,8.03,1.21ZM577.91,60.98c1.6-7.2-8.12-1.34-10.47-2l10.47,2ZM359.08,167.82c5.76-1.17,11.39,1.36,16.65,1.72,34.36,2.33,76.17,8.52,110.05,6.92,8.59-.41,15.37-6.06,23.95-1.61l59.79-13.58c-58.59,3.98-117.39,6.52-176.24,5.96-8.39-.08-59.36-3.84-61.77-1.18-1.14,1.26,0,4.35-3.43,6.71-5.49,3.77-17.02,5.38-23.48,7.59l14.85,1.68,48.24-2.75c-4.06-6.13-11.09-.11-8.61-11.45ZM546.38,187.42l10.5.14.03-1.85c-5.07.83-11.83-5.59-10.52,1.72ZM537.49,196.76l10.51-.77c-2.26-5.89-12.63-.31-10.51.77ZM532.22,196.7c.63-8.96-14.59-.22-19.23-2.13-.45,3.3,3.95,1.83,6.08,1.96,4.37.26,8.8,0,13.15.17ZM509.26,80.88c3.99-5.92-12.1-3.53-13.94-3.96,3.31,7.64,8.69,2.5,13.94,3.96ZM502.48,192.51l-35.93-.49c-1.73-.02-16.77,4.27-19.43,5.33-1.01.4-5.89,2.06-3.46,3.85,5.61-1.24,12.12-2.88,17.75-3.36,9.12-.78,23.24.89,32.28-.7,3.03-.54,7.75-.76,8.79-4.62ZM499.98,120.51c.36-4.74.45-3.24-2.6-3.77-6.97-1.21-27.58-4.13-33.14-2.52-1.88.54-.5,3.87-1.42,5.24-2.58,3.87-29.78-2.56-36.49,2.88,1.95,3.18,4.75,2.78,7.74,3.06,22.69,2.1,43.62-3.18,65.9-4.88ZM489.2,139.28l10.5.14.03-1.85-10.5-.14-.03,1.85ZM459.44,136.98l10.5.14.03-1.85-10.5-.14-.03,1.85ZM411.27,196.92c9.91-5.11,18.35-3.34,28.13-7.19l-6.29-3.77-67.31,2.77-.16,11.38c11.54-2.92,28.79,3.09,39.15.61,4.29-1.03-.54-15.73,10.07-11.29l-3.6,7.5ZM291.79,218.01l61.34.85-32.26-6.22-11.88.45-17.2,4.92ZM334.14,197.75c1.41,1.54,16.83-2.63,17.62-7.3-6.69.62-18.81-4.1-17.62,7.3ZM330.58,197.7c.74-.65,2.61-6.13-.93-7.29-7.15-2.34-10.12,7.14-6.87,7.19,1.39.02,7.5.36,7.8.09ZM305.47,115.92l12.92-.04,13.4-3.35-12.92.04-13.4,3.35ZM314.97,189.94c-2.35,2.45,2.9,11.27,5.17,4.78,1.94-5.56-3.83-6.18-5.17-4.78ZM309.2,98.94c2.13-5.96-10.71-6.4-12.79-5.93-2.12.49-.38,3.88-2.07,3.86s-.24-2.69-1.15-3.34c-3.47-2.46-19.46.78-25.07.6-45.25-1.49-92.11-5.88-136.82,4.3-7.36,1.68.21,5.23,3.8,5.18,2.35-.03,3.82-2.48,4.9-2.47,1.75.01,5.75,4.61,12.2,3.34,2.4-.48-.8-6.47,2.74-5.74-.14,1.73-.5,2.13.91,3.26.51.41,11.48,3.69,12.12,3.69,5.87,0,9.94-4.96,10.59-4.76,3.63,1.14,4.95,3.65,10.8,3.35,23.33-1.18,42.66-4.18,66.3-2.16,16.56,1.42,36.57-4.11,53.55-3.18ZM302.18,163.24c-7.13-2.07-20.9,1.15-28.92-.4l27.08,4.22,4.42-.02c.07-1.19-1.99-3.63-2.58-3.8ZM193.26,245.04c32.93.14,67.21,1.69,99.94-1.45,1.91-.18,7.4.1,7.02-2.72-33.71-.05-67.32,1.35-100.83,2.38-2.13.07-6.5-1.52-6.13,1.79ZM210.5,139.23c28.92,3.7,58.23.67,87.64.28-19.51-3.58-39.3-.16-58.67-4.47l-28.98,4.18ZM278.34,176.14c2.61-2.69-.12-3.42-2.54-3.79-7.45-1.16-28.76.04-36.03,2.31l-14.1,8.34c9.98,1.45,19.47-2.77,28.39-4.01,4.98-.69,20.31,1.25,24.28-2.85ZM226.97,215.2c4.98,2.24,9.19-1.67,14.05-2.62-4.27-5.37-11.6-3.65-14.05,2.62ZM107.62,234.31c22.45-5.33,50.23-.1,74.35-1.28,16-1.97,33.24-.71,49.13-1.75,1.67-.11,4.88.03,4.45-2.67-36.29-3.15-73.03-3.25-109.58-3.51-7.7-.05-9.28-1.45-13.82-1.81-1.6-.13-15.59,1.13-17.61,1.5-7.27,1.35-8.48,7.75,1.61,7.72,5.04-.02,11.94-5.17,11.47,1.79ZM225.21,215.18c3.58-3.87.11-2.74-2.09-3.26-7.45-1.78-15.87-8.46-15.45,3.04l-5.95-5.65-43.1,4.04c7.68.1,63.17,5.54,66.6,1.84ZM217,175.29c.87-.9.48-5.12-2.54-3.8-22.35.4-46.27-.83-68.47.89-10.16.79-28.61,8.29-10.54,9.48,18.46,1.22,35.45.74,54.29.47,3.57-.05,8.21,2.17,10.28,1.77,1.81-.34,4.33-4.19,6.93-5.53,2.29-1.19,9.67-2.89,10.04-3.28ZM150.78,199.85c6.42-3.54,5.95,2.11,13.71.91,1.51-.23,12.4-4.02,11.06-7.09-19.94-.7-39.95.49-59.3,5.26-1.6,2.62-12.36,14.13-10.22,16.51,1.33,1.48,34.21-5.02,37.52-6.97.51-.3,2.37-5.94,7.23-8.62ZM95.64,78.95c1.17,1.19,27.74-1.7,32.19.2l41.47-4.84c-4.12.05-3.77-5.03-7.74-5.87-9.79-2.09-33.02,2.33-43.94,3.23-5.65.47-14.25-1.46-18.99.06-3.12,1-3.95,6.26-3,7.23ZM110.82,120.82c.51.59,13.84.72,14.07-3.57l-13.97-2.1-.1,5.67ZM115.27,179.59c.5-3.53.1-6.55-3.37-7.61l-.11,7.56,3.49.05ZM103.79,122.64c.64-.63.5-17.9.04-18.69-1.92-3.27-13.51,1.81-6.62-11.69-1.72.24-6.47-.61-6.97-.09-.77.79-3.67,21.7-3.12,22.68.78,1.39,15.02,9.4,16.67,7.79ZM96.38,150.95c-.85-4.96,2.11-8.04,3.7-12.22-.47-2.73-14.41-6.04-15.64-4.92-.68,5.5-3.07,9.41-1.19,15.09,1.99,6.03,2.64-1.5,2.84-1.63,2.54-1.67,6.27,5.32,10.3,3.69ZM90.28,196.05c.51-.51,2.68-14.33,2.18-14.86-5-5.35-15.92,9.42-10.72,16.89,2.08-1.87,7.79-1.29,8.54-2.02ZM87.29,165.8c1.03-1.1,1.21-7.43-3.26-5.52l-3.63,7.48c1.6-1.48,6.61-1.65,6.89-1.96ZM78.01,213.16c1.72,2.2,9.6-6.79,8.86-7.42-3.82-1.25-12.33,2.98-8.86,7.42ZM50.04,80.21c4.99-1.51,27.5,1.32,30.46-.05,2.59-1.19,3.59-4.42,4.69-7l-9.71,3.63c-2.06-8.11-6.86-1.94-11.22-1.29s-11.47-1.82-14.22,4.71ZM73.3,171.45c-.52-8.74-7-13.78-6.95-1.99l6.95,1.99ZM64.6,167.53l.05-3.77-5.24-.07-.05,3.77,5.24.07Z"/>
  <path class="cls-1" d="M1111.34,217.53c-6.2,6.51-4.92,4.7-13.91,4.7-8.99,0-8.99,1.74-17.97,1.74s-8.99,5.04-17.97,5.04-8.99,5.92-17.97,5.92-8.99-14-17.97-14-8.99-6.95-17.97-6.95c-8.99,0-8.99.04-17.97.04s-8.99,19.66-17.97,19.66c-8.99,0-8.99-.11-17.97-.11s-8.99-18.06-17.97-18.06-8.99,4.96-17.97,4.96-8.99,11.75-17.97,11.75-8.99-4.97-17.97-4.97-8.99-9.09-17.97-9.09-8.98,9.24-17.97,9.24-8.98-13.14-17.97-13.14-8.99,13.19-17.97,13.19-8.99-19.31-17.97-19.31-8.98,17.02-17.97,17.02c-8.99,0-8.99,5.9-17.97,5.9-8.99,0-8.99-3.67-17.97-3.67s-8.98,4.76-17.97,4.76-8.99-13.7-17.97-13.7c-8.99,0-8.99-3.07-17.97-3.07-8.99,0-8.99-4.88-17.97-4.88-8.99,0-8.99,11.93-17.97,11.93-8.99,0-8.99-12.56-17.97-12.56-8.99,0-8.99,17.51-17.97,17.51s-8.99,7.12-17.97,7.12-8.99-6.59-17.97-6.59-8.99,3.58-17.97,3.58-8.99-15.32-17.97-15.32-8.99,15.05-17.97,15.05-8.99-5.03-17.97-5.03-8.99-.48-17.97-.48c-8.99,0-8.99-10.68-17.98-10.68s-8.99,11.84-17.97,11.84-8.99-9.43-17.97-9.43-8.99,17.41-17.97,17.41-8.99-12.73-17.97-12.73-8.99-5.28-17.98-5.28-8.99,6.07-17.98,6.07c-8.99,0-8.99,1.96-17.98,1.96s-8.99-16.29-17.98-16.29-8.99,23.01-17.97,23.01c-8.99,0-8.99-14.57-17.97-14.57-8.99,0-8.99,9.44-17.97,9.44s-8.99,7.31-17.98,7.31c-8.99,0-8.99-13.92-17.97-13.92-8.99,0-8.99,11.99-17.98,11.99s-8.99-.81-17.98-.81c-8.99,0-8.99-17.26-17.98-17.26s-8.99,15.96-17.97,15.96-8.99-14.79-17.98-14.79c-8.99,0-8.99,1.94-17.98,1.94s-8.99,1.87-17.98,1.87-20.76,17.74-26.97,11.23c-6.51-6.82,15.03-18,15.03-27.42s-3.64-9.43-3.64-18.85-10.28-9.43-10.28-18.85c0-9.43,10.3-9.43,10.3-18.86s-7.72-9.43-7.72-18.85c0-9.43-3.1-9.43-3.1-18.86s2.42-9.43,2.42-18.86,4.5-9.43,4.5-18.86-14.19-20.76-7.69-27.58,18.14,21.98,27.13,21.98,8.99-15.99,17.97-15.99,8.99,14.26,17.97,14.26,8.99-3.93,17.97-3.93,8.99,5.64,17.97,5.64,8.99-23.68,17.97-23.68,8.99,7.26,17.97,7.26,8.99,11.47,17.97,11.47,8.99-19.99,17.97-19.99,8.99,2.56,17.97,2.56,8.99,19.15,17.97,19.15,8.99-18.54,17.97-18.54,8.99,12.27,17.97,12.27,8.99-3.09,17.97-3.09,8.98,2.33,17.97,2.33,8.98,2,17.97,2,8.99-3.72,17.97-3.72,8.99,3.83,17.97,3.83,8.98-17.92,17.97-17.92,8.99-.52,17.97-.52,8.99,14.93,17.97,14.93,8.98,6.55,17.97,6.55,8.99,5.59,17.97,5.59,8.99-12.29,17.97-12.29,8.99,3.06,17.97,3.06,8.99,4.29,17.97,4.29,8.99-14.75,17.97-14.75,8.99,8.31,17.97,8.31,8.99-7.43,17.97-7.43,8.99,5.78,17.97,5.78,8.99-14.14,17.97-14.14,8.99,10.04,17.97,10.04,8.99,5.07,17.97,5.07,8.99-1.67,17.97-1.67,8.99-6.87,17.97-6.87,8.99,6.71,17.98,6.71,8.99,1.64,17.97,1.64,8.99,8.29,17.97,8.29,8.99-6.94,17.97-6.94,8.99-15.06,17.97-15.06,8.99,19.18,17.98,19.18,8.99,4.16,17.98,4.16,8.99-12.36,17.98-12.36,8.99,13.48,17.98,13.48,8.99-21.19,17.97-21.19,8.99,9.86,17.97,9.86,8.99-7.59,17.97-7.59,8.99-2.59,17.98-2.59,8.99-4.01,17.97-4.01,8.99,11.82,17.98,11.82,8.99,5.36,17.98,5.36,8.99,4.9,17.98,4.9,8.99-22.41,17.97-22.41,8.99,27.25,17.98,27.25,8.99-7.35,17.98-7.35,8.99-6.14,17.98-6.14,6.19-1.27,12.4,5.23c6.51,6.82-3.22,4.1-3.22,13.52s7.3,9.43,7.3,18.85-6.13,9.43-6.13,18.85.91,9.43.91,18.86,16.8,9.43,16.8,18.85-20.15,9.43-20.15,18.86,7.43,9.43,7.43,18.86-2.18,9.83-1.33,19.22c.73,8.07,6.41,7.8-.1,14.63Z"/>
</svg>