<?xml version="1.0" encoding="UTF-8"?>
<svg id="Layer_1" data-name="Layer 1" xmlns="http://www.w3.org/2000/svg" viewBox="0 0 1094.77 235.78">
  <defs>
    <style>
      .cls-1 {
        fill: #fff;
      }
    </style>
  </defs>
  <path class="cls-1" d="M991.59,61.81c-1.16,5.14,6.4,2.26,7.28,7.18.6,3.37-5.46,15.95-10.61,11.94l6.25-9.89c-8.65.91-19.97-.23-28.39,1.13-10.85,1.75.52,20.33.46,22.25-.06,2.02-2.75,3.83-3.09,6.17-2.82,19.71-.65,34.93-8.06,55.47-1.26,3.49-10.29,24.25-16.02,18.51l4.05-15.27c-5.51,1.56-4.87,8.43-7.6,11.63-4.65,5.44-12.88,2.87-18.29,3.75-2.16.35-4.08,2.08-6.68,2.48s-16.92.77-17.55,1.39c-1.71,1.7,3.91,6.44-4.36,8.67-50.54,13.59-129.35-.69-182.39-2.92-79.5-3.35-170.03-1.26-249.81,1.98-88.32,3.59-180.89,21.13-268.66,16.37-15.92-.86-33.01-4.25-48.96-5.32-12.15-.82-39.08-3.86-48.9,2.59-3.16,2.08-9.48,13.23-12.56,5.7-.76-1.86.65-4.02.13-6.07-.71-2.79-2.93-5.09-3.01-8.46-.17-7.15,6.67-9.24,5.63-16.05-2.17.45-13.35-2.74-13.72-3.34-3.39-5.36,3.91-4.19,4.36-4.64.48-.48.67-5.44,2.09-8.06.41-.76,7.04-9.01,7.56-9.3,2.02-1.11,4.61,3.57,7.77-6.02-.07-3.26-25.67-4.31-24.37-14.03.08-.6,8.83-7.47,9.39-7.7,1.7-.67,2.51,1.75,3.76,1.79,2.22.07,6.5-3.63,10.02-2.32-3.08-5.15.84-9.78.2-15.33l-3.06,1.51c-.71-13.98,4.07-26.76,8.2-39.77-6,1.18-52.22-.42-52.12-3.04.45-3.15,9.21-12.65,11.91-12.56s4.82,3.49,10.49,3.05c7.12-.55,15.92-2.21,24.54-2.89,10.99-.87,21.88-3.43,33.03-2.61l-27.55-5.68c-4.69-8.04,6.87-4.96,4.79-11.49,6.67-1.06,3.98,2.86,6.81,6.2,5.37-5.71,3.02-1.34,4.14-.33,1.85,1.65,8.43-.62,11.41-.44,14.14.89,32.06,4.81,45.87,3.3,2.98-.33,2.33-3.03,3.01-3.18,4.49-.97,3.41,2.56,4.54,2.83,7.87,1.93,36.33-1.29,47.64-.6,4.66.28,8.95,2.67,12.62,2.84,43.39,1.91,87.54,1.04,131.26,2.36,2.45-11.12,13.67-6.59,22.52-7.44l-7.74,6.01,68.2,3.71c8.6,1.52,23.1-5.29,29.35-5.48,3.3-.1,4.71,2.74,7.2,2.86,6.89.34.72-6.4,5.08-7.19,4.83-.87,6.88,5.16,9.05,4.69,1.38-.3.29-2.74,1.8-3.09,7.79-1.82,18.88.9,25.83.51,15.7-.87,32.45-2.68,49.09-2.46,20.52.27,46.84-2.69,70.67-3.67,9.92-.41,19.97.65,29.88.39,2.5-1.84.03-2.78-2.22-3.1-4.26-.59-9.07.23-13.64-.37-24.28-3.19-49.18-9.62-73.68-11.55-20.49-1.62-30.06,1.46-51.64-2.85-5.06-1.01-11.15-.51-16.51-2.73-.34-2.21,2.69-2.04,4.31-2.52,15.29-4.6,24.1-.07,38.06,1.41,77.39,8.2,151.75,20.63,229.73,17.21,53.4-2.34,106.78-15.76,159.72-18.47,8.26-.42,21.82-1.15,29.1-.47,3.06.29,14.89,7.53,8.87,10.92-.89.5-17.07,3.66-19.91,4.13-19.34,3.15-43.09,5.14-62.85,6.94-38.06,3.47-76.69,2.82-114.14,9.44-.71,3.31-2.14,6.2-4.27,8.83-1.99,2.46-4.99,2.14-5.36,4.57l281.69-17.59c3.24,7.93-7.32,6.67-11.61,8.28-4.45,1.67-9.29,4.7-13.88,5.95-14.63,3.99-31.37,5.13-46.14,9.35ZM952.51,22.61c.51.5,12.93-.96,14.13-1.24,2.94-.7,2.63-3.65.25-4.35-1.25-.37-23.19.91-26.07,1.14-18.76,1.49-43.01,4.76-61.49,8.38-2.65.52-4.55-1.76-3.87,2.96,10.27-3.26,21.27-1.76,31.46-2.64,14.28-1.24,31.88-2.69,44.6-7.04,1.42-.19.34,2.16.99,2.79ZM848.92,62.9c8.35,8.2,22.19.49,31.89-.68,9.47-1.13,18.98-1.96,28.55-1.76l51.7-9.82c-37.6,2.6-75.28,5.18-112.14,12.26ZM954.04,113.42c2.38-2.25,1.62-11.17-2.86-12.3-1.15,1.7-1.13,16.06,2.86,12.3ZM879.24,89.37c24.88-.6,49.19,3.24,73.72.37,4.09-6.17,1.17-7.67-1.32-11.42-.85-1.28,1.17-4.19-2.27-3.23-18.89,3.39-37.56,8.35-56.67,10.26l-13.47,4.02ZM947.36,153.2l4.96-25.99c-2.15-.39-2.28,2.69-2.67,4.22-1.21,4.71-2.81,11.82-3.58,16.57-.26,1.6-1.37,5.57,1.29,5.21ZM925.26,102l22.87-3.99c-18.95-1.92-38.38-2.6-57.54-2.41-28.94.29-66.76.74-95.05,4.93-2.81.42-4.56-1.66-3.92,2.96,30.77-1.87,61.71,3.7,92.82,2.88,3.62-.1,7.02-1.32,10.65-1.54,6.65-.41,12.23,3.5,16.97-2.74,3.1,8.89,4.17-1.72,7.71-2.96,1.71.04-.24,2.58,1.5,3.09,3.89,1.14.9-3.58,3.84-3.01.02.79-.26,2.4.17,2.78ZM883.41,120.14c.67,2.86,2.38,2.87,4.85,2.8,11.47-.35,33.74-1.56,44.35-4.34,8.16-2.14,6.49-6.31,9.28-13-6.64-1.05-6.91,6.15-9.36,8.25-5.45,4.68-40.31,1.66-49.12,6.29ZM925.94,151.38c4.38,4.23,3.71-7.13,3.87-7.64,1.53-4.9,6.81-9.18,5.62-15.24l-21.49,2.79c1.25,3.09,14.6,2.61,15.26,3.31.41.44-.27,4.56-.07,6.06-6.99-.08-14.2,2.72-20.99,3.76-5.43.83-12.72.21-17.94.89-2.98.39-5.08,3.42-8.68.85l-.1,7.67c4.34-1.25,8.72-5.75,9.95.13l3.12-3.02c2.76,7.88,3.57.57,4.91.12,5.93-1.99,11.64.66,14.78.26,1.29-.17,1.48-2.95,2.68-3.74,10.11-6.67,8.18,2.93,9.08,3.8ZM866.52,141.09l25.83-2.42c-3.46.2-6.65-1.37-10.02-1.75-28.07-3.12-67.98-3.38-95.83,2.56-21.39,4.56-43.73,5.28-66.29,7.94-3.11.37-12.09-.05-10.56,4.04,28.47.12,56.61.6,85.13-1.91,6.1-.54,43.91-4.21,45.89-5.39,1.75-1.04.95-3.08,1.06-4.68,3.89.49,1.24,4.5,1.46,4.61,5.32,2.55,6.67-3.02,7.11-3.06,2.1-.18,4.41,1.83,5.81,1.77.95-.04,1.71-3.18,3.41-4.41,6.3-4.56,5.49,1.73,6.99,2.69ZM790.49,184.78c26.4,2.59,52.54-.42,78.98-.45l11.55-2.87c-5.57-2.18-7.85-.23-12.97,1.43-24.02.14-48.2-.2-72.19.45-1.87.05-5.69-1.24-5.37,1.44ZM878.33,153.79c-1.29-1.65.37-5.97.1-6.12-2.77-1.47-18.99,2.55-23.04,2.75l14.39,3.2c3.32-.89,1.11-10.17,8.55.16ZM868.09,118.38c-2.29-2.35-6.6,4.47-2.36,4.53,1.02.01,3.22-3.64,2.36-4.53ZM839.68,65.82c1.28-4.53-3.77-3.31-6.92-3.22-38.42,1.19-86.63,3.33-124.09,9.32-2.63.42-8.36.15-7.18,4.26l138.19-10.37ZM834.41,113.3c.52-4.82-.42-2.41-2.91-2.57-27.53-1.83-62.31-2.77-89.89-1.83-9.79.33-20.08,2.96-29.91,3.49,24.14,1.47,48.15,2.81,72.1,2.55,16.8-.18,33.77-1.15,50.6-1.63ZM784.57,48.05c.32-.48.8-4.33-.55-4.44-2.72,1.58-6.73,1.96-9.82,2-45.14.58-90.69,3.93-136.03,6.72-6.37.39-12,.31-10.09,7.51,11.19-.13,21.45,2.1,33.01,2.05,30.83-.13,66.58-4.03,97.35-7.17,1.79-.18,2.89,1.88,4.71,1.63,1.14-.16,20.78-7.35,21.42-8.31ZM744.18,95.18l13.85-4.39c-3.36-.05-6.83.58-10.08,1.35-2.57.61-4.46-1.61-3.77,3.04ZM677.55,143.34c18.58-.69,37.43-.82,55.99-2.3,1.89-.15,8.19-.45,8.49-2.92-18.06,1.04-36.42.91-54.46,2.32-2.14.17-9.25.6-10.02,2.9ZM686.9,132.73c3.81-.03,7.68.28,11.51.17,1.86-.05,5.68,1.24,5.36-1.44-2.86.31-5.76-1.31-8.41-1.35-1.4-.02-8.46.43-8.46,2.62ZM579.85,136.93c.88.5,17.44.78,20.21.76,22.32-.18,45.94-3.92,67.88-4.2,5.62-.07,11.79-1.16,17.43-1.53-4.41-2.61-14.05-3.82-19.14-4.12-7.33-.43-14.08,2.17-18.42,2.25-.7.01-5.79-3.46-9.27-4.03-33.23-5.39-63.21,1.76-95.48,7.35-13.36,2.31-26.85,4.45-40.31,6.01-.4,2.67,3.46,1.49,5.32,1.59,6.07.33,12.4.39,18.47.31,10.5-.14,33.98-.09,42.54-2.93,2.96-.98,3.63-4.24,8.17-4.26,2.73-.01,2.04,2.48,2.59,2.8ZM676.89,78.92c1.21-6.35-7.51-1.23-10.7-1.66l10.7,1.66ZM648.25,155.21c3.04-.81,10.87,2.12,12.27-1.33-3.04.81-10.87-2.12-12.27,1.33ZM624.68,84.32l7.65.11.02-1.5-7.65-.11-.02,1.5ZM616.61,113.36l6.13-.66c-2.14-3.35-2.87-1.31-6.11-.84l-.02,1.5ZM615.06,114.88l.05-4.6-7.66-.11-.08,4.6,7.69.11ZM599.89,102.39c3.56-.85,11.75,2.19,13.81-1.31-3.55.86-11.62-2.2-13.81,1.31ZM601.66,85.55l7.66-.65c-2.65-3.12-8.93-4.32-7.66.65ZM604.31,114.73c.25-.17,2.47-4.96-.88-5.94s-7.78.04-11.3-.34c.83,3.4,4.55,2.53,7.14,3.72.29.13,1.77,4.77,5.04,2.56ZM597.34,64.02l-43.71-.6c-2.11-.03-10.77-2.72-7.69,2.98,12.57-1.3,25.14-1.32,37.71-.5l13.68-1.88ZM594.52,45.57c.66-4.14-.61-3.06-3.78-3.05-17.4.03-40.77,4.83-57.16,2.65-3.45-.46-2.62,2.09-1.96,2.61l62.9-2.2ZM574.47,164.94c2.28-9.69-13.17-.86-19.88-3.32l19.88,3.32ZM557.85,147.83l7.65.11.02-1.5-7.65-.11-.02,1.5ZM564.86,83.51c1.2-6.02-10.27-2.07-13.75-3.23-.43,2.43,2.68,1.71,4.39,2.11,3.02.7,6.24,1,9.36,1.13ZM457.22,103.49l52.92,3.97c7.69-3.88,9.21-.71,14.35-.35,6.55.46,24.08-2.29,27.89-8.41-28.69-2.58-56.34-1.44-84.97,2.07-2.34.29-9.26.62-10.19,2.72ZM542.05,67.86c2.34-5.9-5.72-5.35-11.17-5.74-19.44-1.39-39.62-.53-59.27-1.36,1.17.59,6.03,4.98,6.42,5.13,12.85,4.75,42.57,1.96,57,.98,2.3-.16,4.85.22,7.02.99ZM530.07,47.75c1.4-5.83-7.11-1.09-9.16-1.63l9.16,1.63ZM338.68,134.09c5.04-.94,9.97,1.11,14.57,1.4,30.07,1.91,66.66,6.97,96.31,5.7,7.52-.32,13.45-4.89,20.95-1.28l52.31-10.94c-51.27,3.18-102.72,5.18-154.21,4.67-7.35-.07-51.95-3.16-54.06-1.01-1,1.02,0,3.52-3,5.43-4.8,3.05-14.89,4.34-20.54,6.13l13,1.37,42.21-2.18c-3.55-4.97-9.71-.1-7.54-9.29ZM502.6,150.14l9.19.12.02-1.5c-4.44.67-10.36-4.54-9.21,1.38ZM494.82,157.7l9.2-.62c-1.98-4.77-11.05-.26-9.2.62ZM490.21,157.64c.55-7.26-12.76-.19-16.83-1.74-.39,2.67,3.46,1.49,5.32,1.59,3.82.22,7.7,0,11.51.15ZM470.02,63.8c3.48-4.79-10.59-2.87-12.2-3.22,2.9,6.19,7.61,2.03,12.2,3.22ZM464.19,154.22l-31.44-.43c-1.51-.02-14.67,3.45-17,4.3-.88.32-5.15,1.66-3.02,3.11,4.91-1,10.6-2.32,15.53-2.71,7.98-.63,20.34.75,28.25-.54,2.65-.43,6.78-.6,7.68-3.73ZM461.93,95.9c.31-3.84.39-2.62-2.28-3.05-6.1-.99-24.14-3.37-29-2.07-1.64.44-.44,3.13-1.23,4.24-2.26,3.13-26.06-2.1-31.92,2.3,1.71,2.58,4.16,2.26,6.78,2.48,19.86,1.72,38.17-2.54,57.66-3.9ZM452.52,111.1l9.19.13.02-1.5-9.19-.13-.02,1.5ZM426.47,109.2l9.19.13.02-1.5-9.19-.13-.02,1.5ZM384.38,157.71c8.67-4.13,16.05-2.69,24.61-5.8l-5.51-3.06-58.9,2.18-.13,9.22c10.1-2.35,25.2,2.53,34.26.53,3.75-.83-.49-12.74,8.8-9.14l-3.14,6.07ZM279.84,174.69l53.68.74-28.23-5.07-10.39.36-15.05,3.97ZM316.88,158.32c1.24,1.25,14.72-2.12,15.41-5.9-5.85.5-16.46-3.34-15.41,5.9ZM313.76,158.28c.65-.53,2.28-4.96-.82-5.9-6.25-1.9-8.85,5.77-6.01,5.82,1.21.02,6.56.3,6.83.08ZM291.72,92.01l11.31-.02,11.72-2.7-11.31.02-11.72,2.7ZM300.1,151.97c-2.05,1.99,2.55,9.13,4.53,3.87,1.69-4.5-3.35-5.01-4.53-3.87ZM294.96,78.26c1.86-4.83-9.38-5.2-11.2-4.81s-.33,3.14-1.81,3.13-.21-2.18-1.01-2.71c-3.04-2-17.03.62-21.93.46-39.6-1.24-80.61-4.85-119.72,3.36-6.44,1.35.19,4.23,3.33,4.2,2.06-.02,3.34-2,4.28-1.99,1.53.01,5.04,3.74,10.67,2.72,2.1-.38-.71-5.24,2.39-4.65-.12,1.4-.44,1.73.8,2.64.45.33,10.05,3,10.61,3,5.14,0,8.7-4.01,9.26-3.85,3.17.93,4.34,2.96,9.45,2.72,20.41-.93,37.33-3.35,58.01-1.69,14.49,1.16,32-3.3,46.86-2.52ZM288.88,130.33c-6.24-1.68-18.28.92-25.3-.35l23.7,3.44h3.87c.06-.97-1.74-2.95-2.26-3.09ZM193.65,196.5c28.82.15,58.82,1.43,87.45-1.09,1.67-.15,6.47.09,6.14-2.2-29.5-.07-58.91,1.03-88.23,1.84-1.87.05-5.69-1.24-5.37,1.44ZM208.63,110.8c25.31,3.02,50.95.59,76.69.31-17.08-2.92-34.39-.17-51.34-3.67l-25.35,3.36ZM268.03,140.76c2.28-2.17-.11-2.77-2.22-3.07-6.52-.95-25.17,0-31.53,1.84l-12.33,6.74c8.73,1.18,17.03-2.23,24.84-3.22,4.36-.56,17.77,1.03,21.25-2.28ZM223.12,172.36c4.36,1.82,8.04-1.34,12.29-2.11-3.74-4.35-10.16-2.97-12.29,2.11ZM118.69,187.73c19.64-4.3,43.96-.04,65.06-.97,14-1.58,29.08-.54,42.99-1.37,1.46-.09,4.27.03,3.89-2.16-31.76-2.58-63.9-2.7-95.89-2.94-6.74-.05-8.12-1.18-12.09-1.48-1.4-.11-13.64.9-15.41,1.2-6.36,1.09-7.41,6.27,1.42,6.26,4.41,0,10.44-4.18,10.04,1.46ZM221.58,172.33c3.13-3.13.09-2.22-1.83-2.64-6.52-1.45-13.89-6.87-13.52,2.45l-5.22-4.58-37.71,3.23c6.72.09,55.28,4.54,58.28,1.55ZM214.35,140.02c.76-.73.41-4.15-2.23-3.08-19.56.3-40.49-.71-59.91.66-8.89.63-25.03,6.69-9.21,7.67,16.16,1,31.02.63,47.51.43,3.12-.04,7.19,1.76,9,1.45,1.59-.28,3.79-3.39,6.06-4.48,2-.96,8.46-2.33,8.79-2.65ZM156.43,159.85c5.61-2.86,5.21,1.72,12,.75,1.32-.19,10.85-3.24,9.67-5.73-17.45-.58-34.96.36-51.89,4.21-1.4,2.12-10.8,11.44-8.93,13.36,1.16,1.2,29.93-4.04,32.83-5.61.44-.24,2.07-4.81,6.32-6.98ZM108.07,61.88c1.02.97,24.27-1.35,28.17.19l36.28-3.88c-3.61.04-3.3-4.08-6.78-4.76-8.57-1.7-28.89,1.86-38.45,2.57-4.95.37-12.47-1.19-16.62.03-2.73.8-3.45,5.06-2.62,5.85ZM121.39,95.81c.45.48,12.11.59,12.31-2.88l-12.22-1.72-.08,4.59ZM125.34,143.41c.44-2.85.08-5.31-2.96-6.17l-.09,6.13,3.05.04ZM115.24,97.27c.56-.51.42-14.5.02-15.14-1.69-2.65-11.82,1.45-5.81-9.48-1.5.2-5.66-.5-6.1-.08-.67.64-3.19,17.57-2.71,18.37.68,1.13,13.15,7.63,14.6,6.33ZM108.78,120.19c-.75-4.02,1.84-6.51,3.22-9.9-.41-2.21-12.61-4.91-13.69-4-.59,4.46-2.68,7.62-1.03,12.22,1.75,4.89,2.31-1.21,2.48-1.32,2.23-1.35,5.49,4.31,9.01,3ZM103.48,156.72c.45-.41,2.33-11.61,1.9-12.04-4.38-4.34-13.93,7.62-9.37,13.67,1.81-1.52,6.82-1.03,7.47-1.63ZM100.84,132.21c.9-.89,1.05-6.01-2.86-4.48l-3.17,6.06c1.4-1.19,5.78-1.33,6.03-1.58ZM92.77,170.57c1.51,1.78,8.39-5.5,7.74-6.01-3.34-1.01-10.79,2.4-7.74,6.01ZM68.17,62.85c4.36-1.22,24.06,1.09,26.66-.01,2.26-.96,3.14-3.58,4.1-5.67l-8.49,2.93c-1.81-6.57-6-1.58-9.82-1.06s-10.04-1.48-12.44,3.8ZM88.61,136.78c-.47-7.08-6.14-11.17-6.08-1.62l6.08,1.62ZM80.99,133.6l.04-3.05-4.59-.06-.04,3.05,4.59.06Z"/>
  <path class="cls-1" d="M921.23,157.63c-6.49,6.3-5.13,4.85-14.17,4.85-9.04,0-9.04,1.74-18.08,1.74s-9.04,5.04-18.09,5.04-9.04,5.92-18.09,5.92-9.04-14-18.08-14-9.04-6.95-18.09-6.95-9.04.04-18.09.04-9.04,19.66-18.08,19.66-9.04-.11-18.09-.11-9.04-18.06-18.09-18.06-9.04,4.96-18.09,4.96-9.04,11.75-18.09,11.75-9.04-4.97-18.09-4.97c-9.05,0-9.05-9.09-18.09-9.09s-9.04,9.24-18.09,9.24c-9.05,0-9.05-13.14-18.09-13.14-9.04,0-9.04,13.19-18.09,13.19s-9.04-19.31-18.09-19.31-9.04,17.02-18.09,17.02-9.04,5.9-18.09,5.9-9.04-3.67-18.09-3.67-9.05,4.76-18.09,4.76-9.04-13.7-18.09-13.7c-9.04,0-9.04-3.07-18.09-3.07s-9.04-4.88-18.09-4.88-9.04,11.93-18.09,11.93-9.05-12.56-18.09-12.56-9.05,17.51-18.09,17.51-9.05,7.12-18.09,7.12-9.05-6.59-18.09-6.59c-9.04,0-9.04,3.58-18.09,3.58s-9.04-15.32-18.09-15.32-9.05,15.05-18.09,15.05-9.05-5.03-18.09-5.03c-9.04,0-9.04-.48-18.09-.48s-9.05-10.68-18.09-10.68c-9.05,0-9.05,11.84-18.09,11.84s-9.05-9.43-18.09-9.43c-9.04,0-9.04,17.41-18.09,17.41s-9.05-12.73-18.1-12.73-9.05-5.28-18.1-5.28-9.05,6.07-18.1,6.07-14.02,7.28-20.52.98,15.24-11.27,15.24-20.05c0-8.78-23.01-8.78-23.01-17.56s14.57-8.78,14.57-17.56-9.44-8.78-9.44-17.56-9.86-20.32-3.56-26.44,17.66,10.42,26.7,10.42,9.04-11.99,18.08-11.99,9.04.81,18.09.81,9.04,17.26,18.09,17.26,9.04-15.96,18.08-15.96,9.04,14.79,18.09,14.79,9.04-1.94,18.09-1.94,9.04-1.87,18.08-1.87,9.04-15.08,18.09-15.08,9.04,18.46,18.09,18.46,9.04-3.64,18.09-3.64,9.04-10.28,18.09-10.28,9.04,10.3,18.09,10.3,9.05-7.72,18.09-7.72,9.04-3.1,18.09-3.1,9.05,2.42,18.09,2.42,9.04,4.5,18.09,4.5,9.04-11.18,18.09-11.18,9.04,25.91,18.09,25.91,9.04-15.99,18.09-15.99,9.04,14.26,18.09,14.26,9.05-3.93,18.09-3.93,9.04,5.64,18.09,5.64,9.04-23.68,18.09-23.68,9.04,7.26,18.09,7.26,9.04,11.47,18.09,11.47,9.05-19.99,18.09-19.99,9.05,2.56,18.09,2.56,9.05,19.15,18.09,19.15,9.05-18.54,18.09-18.54,9.04,12.27,18.09,12.27,9.04-3.09,18.09-3.09,9.05,2.33,18.09,2.33,9.05,2,18.09,2,9.04-3.72,18.09-3.72,9.05,3.83,18.09,3.83,9.05-17.92,18.09-17.92,9.05-.52,18.09-.52,9.04,14.93,18.09,14.93,9.05,6.55,18.1,6.55,9.05,5.59,18.1,5.59,9.05-12.29,18.1-12.29,8.49-4.51,14.99,1.8-5.65,5.57-5.65,14.34c0,8.78,14.75,8.78,14.75,17.56s-8.31,8.78-8.31,17.56,6.57,8.34,7.41,17.08c.7,7.36-2.7,7.9-9,14.02Z"/>
</svg>