<?xml version="1.0" encoding="UTF-8"?>
<svg id="Layer_1" data-name="Layer 1" xmlns="http://www.w3.org/2000/svg" viewBox="0 0 1094.77 235.78">
  <defs>
    <style>
      .cls-1 {
        fill: #fff;
      }
    </style>
  </defs>
  <path class="cls-1" d="M827.92,202.73c-1.34,1.32-5.18-2.57-3.86-3.86s5.18,2.57,3.86,3.86Z"/>
  <path class="cls-1" d="M1044.56,201.54c9.75.12,19.53.99,28.92,3.96-.12,14.61-15.04,12.78-25.44,12.99-3.27.07-5.58-2.78-6.86-2.78-2.84.01-8.1,6.09-14.27.16l2.24,9.32-5.46,1.56c-57.04-4.8-114.57-14.59-171.43-13.64-7.93.13-17.19,3.47-23.29,3.35-11.66-.22-26.49-4.11-37.75-5.1-120.82-10.58-246.04-14.71-368.3-13.89-58.95.4-118.3,5.18-176.9,3.14-50.59-1.76-99.75,15.43-149.58,11.13-6.56-.57-26.53,3.51-27.97-7.24-.3-2.27.54-3.55,2.32-4.27,3.55-1.44,26.42-2.7,27.35-3.83.5-.61-1.03-10.67-.83-13.22-7.16,7.88-5.78,19.33-15.8,4.65-3.47,3.77-7.82,2.59-11.43,4.44-5.87,3-18,14.73-22.88,14.76-1.4,0-9.94-7.88-9.83-9.78.39-6.76,11.42-8,15.79-11,18.55-12.74,12.32-22.62,22.54-35.2,2.17-2.67,5.98-3.79,8.16-6.97,5.33-7.76,5.01-22.89,4.07-32.31-5.16.17-29.03,3.7-32.05.04-7.09-8.6,25.15-11.27,29.55-13.16l-22.06-2.46c-5.28-8.14,19.74-11.81,24.53-12.82.26-7.47-3.47-14.44-4.36-21.51-.35-2.76,1.56-6.43.93-9.2-.18-.81-9.83-6.41-10.78-11.27-1.35-6.9,6.5-2.8,8.93-3.14,57.59-8.07,131.69-6.95,190.23-1.8,14.05,1.24,29.82,6.04,42.83,6.57,62.47,2.59,135-3.09,198.65-4.35,5.72-.11,18.87-.05,23.52-1.37,1.99-.57-.5-5.45,1.48-6.03l201.19-4.51-28.66-6.23c-7.37-17.49,6.13-8.81,13.59-8.14,51.43,4.58,104.2,9.51,155.61,9.66,3.92.01,7.67-3.1,13.19-2.63,4.64.39,10.27,4.67,15.76,4.5,31.5-1.01,63.89-4.42,95.98-4.46,5.12,0,19.34-5.39,19.18,5.75-.13,8.75-11.37,6.24-12.64,7.9-.97,1.27,2.25,26.23,1.68,30.84,1.06,3.47,27.81,1.07,21.96,11.3-2.25,3.94-13.42,1.56-14.28,2.64-.58.74.83,16.79,1.23,19.79,1.9,14.26,5.44,35.69,9.23,49.25,1.26,4.5,11.26,31.81,13.04,33.23,8.08,6.42,26.33-1.39,33.8,8.85.1,1.65-10.28,9.02-12.2,9.3-5.3.79-23.81-13.62-22.44,3.2ZM927.49,189.69c32.85,2.79,66.07,4.05,98.49,10.29l.88-12.51c-29.2,1.01-57.72-2.44-86.99-1.49-1.15.04-2.54-1.78-3.38-1.66l-9,5.37ZM1002.76,179.44c7.4-.58,14.66-1.41,21.95.57l-6.05-3.47-15.9,2.91ZM1022.22,166.91c-4.64-9.7-4.85-19.36-6.01-29.92-5.26,3.38-2.75,19.57-3.63,21.12-1.95,3.46-10.51-.06-7.31,6.98,2.19,4.83,12.92,1.47,16.95,1.82ZM974.09,54.31c-11.97,1.25-24.15,1.08-36.13,2.19l34.8,3.56c11.03.08,23.99-1.51,33.93,3.65-1.94-6.3.06-19.97-6.42-22.34-4.51-1.65-1.06,5.77-2.24,7.48-2.53,3.69-19.4,4.97-23.93,5.45ZM937.24,100.08c22.21-1.11,44.58,2.33,66.84,3.6,5.75-.76,3.6-8.76,3.38-13.51l-1.33,5.74c-20.98.62-42.05-.31-63.14,1.95-2.04.22-6.34-1.05-5.74,2.22ZM983.76,32.86l18.58.77c-.23-3.22-5.75-3.2-7.77-3.31s-10.59-.86-10.81,2.54ZM951.7,116.29c6.52,9.75,16.38,5.45,24.8,6.08,10.86.81,22.78,8.13,23.91-9.05-4.51,4.46-10.02,3.34-15.78,3.69-1.23.07-2.78-1.96-4.78-1.89-8.75.31-18.34,4.19-28.15,1.17ZM1002.61,149.16l-.36-5.64c-1.22-1.3-7.09,3.34-8.1,5.23l8.46.42ZM1001.95,166.25c.32-.43-.43-4.12-.36-5.65-6.35,5.78-14.55-3.36-19.97,4.06,2.28.31,19.68,2.47,20.32,1.59ZM991.6,134.67c2.69-2.59-.41-3.41-2.73-3.6-6.19-.49-13.15-.17-19.44-.71,4.91,8.97,14.07,3.91,22.17,4.31ZM975.76,179.18l11.75-.71-.11-1.85-11.75.71.11,1.85ZM914.81,91.99l46.21-2.8c.49-.03,9.22-2.57,9.01-4.31l-52.21,1.27,1.95,3.64-4.95,2.21ZM943.56,148.96l23.53-1.43-.11-1.89-23.53,1.43.11,1.89ZM915.85,108.95c4.29-.35,43.95,1.57,43.76-1.69l-27.85-1.23-15.91,2.92ZM874.1,143.69l87.19-8.11c-5.68-11.28-13.1-6.24-21.47-6.39-9.53-.17-19.17.24-28.39.19-9.36-.05-17.86-4.5-28.05.51,1.17,2.95,6.43,1.66,3.06,7.47-2.89,4.98-14.26-1.42-12.35,6.32ZM896.52,68.48l28.57-1.73-.11-1.89-28.57,1.73.11,1.89ZM900.49,189.43l13.31-2.66c-3.15-.56-11.72-1.33-13.31,2.66ZM881.41,69.37l10.07-.61-.11-1.85-10.07.61.11,1.85ZM898.79,189.54c.23-.3-.25-2.58-.22-3.76l-8.38.52.11,1.85c1.92-.59,7.97,2.08,8.5,1.39ZM887.26,194.03c.29-11.9-1.51-5.77-7.36-6.3-6.7-.6-13.24-3.01-20.08-1.48l3.57,3.53-16.78,1.06c.49,3.04,7.35,3.06,9.47,3.18,10.02.57,21.08-.63,31.18,0ZM872.41,143.79c-.1-3.76.63-3.87-2.75-3.53-17.02,1.75-34.12,2.1-51.24,3.04l18.16,2.48,35.82-2ZM822.51,99.46l26.98.26-14.52-2.87-12.47,2.61ZM749.07,56.6c.7,3.24,3.56,3.13,5.87,3.7,13.87,3.42,32.32,1.89,46.78,1.74,2.78-.03,4.53,1.58,6.55-2.42l-59.2-3.01ZM767.02,74.43c1.21,9.84,6.62,2.5,11.03,2.15,6.99-.56,14.08.82,21.75-.57,1.73-.32,7.86-1.22,7.55-4.02l-40.33,2.44ZM782.87,113.24l16.56-4.77c-3.53,1.82-17.84-2.91-16.56,4.77ZM476.73,154.5l317.04-.27-13.01-2.75c-83.99-1.88-169.39-5.22-252.83-2.04-14.74.56-30.84,1.28-45.45,2.85-2.04.22-6.34-1.05-5.74,2.22ZM773.59,127.04l10.07-.61-.11-1.85-10.07.61.11,1.85ZM623.99,107.71c45.04,2.49,90.41,3.09,135.49,3.76,6.63.1,16.69,4.73,21.53-.96-1.1-1.53-4.63-2.26-6.29-2.32-47.54-1.55-96.9-12.53-144.51-5.37-3.2.48-7.77-.08-6.22,4.89ZM737,163.35l10.07-.61-.11-1.85-10.07.61.11,1.85ZM710,163.09c3.61-.31,7.32-.23,10.93-.64,2.04-.23,6.33,1.06,5.74-2.22-3.61.31-7.32.23-10.93.64-2.04.23-6.33-1.06-5.74,2.22ZM709.07,64.68c.46-5.39-1.17-3.21-4.25-3.78-21.81-4.05-41.1,3.55-63.33-2.38l-32.23.87c.85,3.42,3.51,3.29,6.05,3.47,24.06,1.76,51.06,3.9,74.54,2.93,6.08-.25,12.77-3.3,19.23-1.12ZM694.76,162.12c3.26-1.24,12.09,1.7,13.31-2.66-3.26,1.24-12.09-1.7-13.31,2.66ZM550.76,123.56c.23-.44,5.12-1.08,4.8-4.09-16.09-3.16-32.66-1.81-48.95-.82l15.76,3.37c7.11,2.67,6.88,8.16,7.95,8.49,2.88.9,23.05,1.42,24.25.34-.48-2.11-5.09-4.85-3.8-7.29ZM502.1,99.94c4.08-2.7,39.33,5.1,38.72-1.38l-21.14-1.63-17.58,3.01ZM360.14,178.62c20.57.65,41.13-.99,61.6,2.05l88.39-3.56-26.28-2.16c-35.34.95-70.84.93-106.12.64l-17.6,3.03ZM370.8,104.11c41.09,2.88,82.1,6.54,123.22,2l-39.84-3.23c-17.03,3.7-32.47-2.46-49.07-2.71-8.84-.13-19.71.76-28.57,1.71-2.04.22-6.34-1.05-5.74,2.22ZM465.51,136.25l8.39-.51-.11-1.85-8.39.51.11,1.85ZM441.87,135.78l10.07-.61-.11-1.85-10.07.61.11,1.85ZM387.79,78.48l45.37-2.75-.11-1.89-45.37,2.75.11,1.89ZM288.84,143.2c1.72,4.05,8.02,4.41,11.43,4.76,14.39,1.49,32.96,2.97,47.24,3.01,24.52.05,48.52-5.68,72.96-6.32.19-3.32-3.92-1.54-5.97-1.51-17.38.25-34.84,1.16-52.21,1.25-18.64.1-45.79.83-62.61-1.77-3.46-.54-7.32.61-10.84.58ZM370.99,79.47c3.82-1.34,13.06,1.71,14.99-2.76-3.81,1.35-12.92-1.73-14.99,2.76ZM209.29,138.52c18.77-.49,37.62-2.82,56.33-3.51,8.47-.31,22.75,4.93,29.25-3.54-14.91.52-29.73-.12-44.73.71-9.53.52-18.89,1.1-28.54,1.71-2.95.19-11.27.91-12.3,4.63ZM210.3,43.76l11.75-.71-.11-1.85-11.75.71.11,1.85ZM204.6,61.15l10.07-.61-.11-1.85-10.07.61.11,1.85ZM191.7,42.99l10.07-.61-.11-1.85-10.07.61.11,1.85ZM175.02,44.13c.93-1.2,5.58,1.37,4.79-2.27-26.27-2.91-53.63,4.41-79.3-.9-.68,4.87,1.31,3.24,3.44,4.7,4.29,2.95,15.34,7.69,20.11,7.27,4.04-.36,6.2-5.04,9.47-4.34,4.43.94,4.34,7.8,5.35,8.65s16.65,1.66,19.07,1c2.58-.7,4.36-3.66,6.72-4.15,3.08-.64,6.79,1.7,8.25,1.23,4.1-1.32,1.24-10.08,2.1-11.19ZM169.33,175.07c3.7,6.66,13.01,1.98,18.7,2.62l-9.83-4.47-8.87,1.85ZM155.78,173.99c1.59,4.71,6.63,3.47,10.3,3.13l-.11-1.85-10.19-1.28ZM121.68,140.04c4.83-1.7,21.23-7.9,23.88-10.8,2.19-2.4,2.55-4.44,1.96-7.78-.3-.35-9.23,4.85-5.13-1.58.45-.71,4.1,1.31,3.22-2.07-11.54-4.26-6.73.5-10.67,6.18l-13.26,16.06ZM131.72,194.36c2.09-6.02-5.59-10.87-10.08-12.62-5.4-2.1,2.17,13.12-6.96,9.89,3.18,6.36,11.69,2.29,17.04,2.73ZM105.65,125.88l10.94-13.9-13.55-1.08,2.61,14.98ZM111.72,64.61c3.49-7.8-11.44-7.05-15.45-10.13.59,6.16,3,10.75,1.02,16.97,1.99,1.79,13.69-5.18,14.44-6.84Z"/>
  <path class="cls-1" d="M906.22,162.42c-6.76,6.17-8.7,13.97-17.85,13.97s-9.15-10.04-18.3-10.04-9.15-5.07-18.3-5.07-9.15,1.67-18.3,1.67-9.15,6.87-18.3,6.87-9.15-6.71-18.3-6.71-9.15-1.64-18.3-1.64c-9.15,0-9.15-8.29-18.3-8.29-9.15,0-9.15,6.94-18.3,6.94s-9.15,15.06-18.3,15.06-9.15-19.18-18.3-19.18-9.15-4.16-18.3-4.16-9.15,12.36-18.31,12.36c-9.15,0-9.15-13.48-18.3-13.48-9.15,0-9.15,21.19-18.31,21.19s-9.15-9.86-18.3-9.86-9.15,7.59-18.3,7.59-9.15,2.59-18.3,2.59c-9.15,0-9.15,4.01-18.31,4.01s-9.15-11.82-18.3-11.82-9.15-5.36-18.31-5.36-9.15-4.9-18.31-4.9c-9.15,0-9.15,22.41-18.31,22.41s-9.15-27.25-18.3-27.25c-9.15,0-9.15,7.35-18.31,7.35s-9.16,6.14-18.31,6.14-9.16-7.63-18.31-7.63-5.61,7.39-12.38,1.22c-6.17-5.64-4.43-1.86-4.43-10.22s6.13-8.36,6.13-16.71-.91-8.36-.91-16.72-16.8-8.36-16.8-16.72,20.15-8.36,20.15-16.72-14.46-9.13-8.29-14.77c6.76-6.17,7.37,2.04,16.52,2.04s9.15,1.37,18.3,1.37,9.15-16.91,18.3-16.91,9.15.68,18.3.68,9.15,4.66,18.3,4.66,9.15-2.67,18.3-2.67,9.15-4.81,18.3-4.81,9.15.14,18.3.14,9.15,15.27,18.3,15.27,9.15-2.28,18.3-2.28,9.15,8.16,18.3,8.16,9.15-6.16,18.3-6.16,9.15-1.4,18.31-1.4,9.15-8.91,18.3-8.91,9.15,14.07,18.31,14.07,9.15-2.09,18.3-2.09,9.15-11.96,18.3-11.96,9.15,18.73,18.3,18.73,9.15-5.04,18.31-5.04,9.15,6.13,18.3,6.13,9.15-15.16,18.31-15.16,9.15,6.67,18.31,6.67,9.15,1.35,18.31,1.35,9.15-1.58,18.3-1.58,9.15,2.55,18.31,2.55,9.16-13.55,18.31-13.55,9.16,13.09,18.31,13.09,10.84-9.74,17.6-3.57c6.17,5.64,6.03,7.58,6.03,15.94s-8,8.36-8,16.71,7.98,8.36,7.98,16.72-3.82,8.36-3.82,16.72-13.08,10.61-11.37,18.79,15.61,8.52,9.44,14.16Z"/>
</svg>