<?xml version="1.0" encoding="UTF-8"?>
<svg id="Layer_1" data-name="Layer 1" xmlns="http://www.w3.org/2000/svg" viewBox="0 0 2388.1 96.56">
  <defs>
    <style>
      .cls-1 {
        fill: #fff;
      }
    </style>
  </defs>
  <path class="cls-1" d="M26.94,58.15c5.89-1.97,12.42-3.95,18.57-4.86,5.75-.86,5.84.57,11.85-2.11.36-.16,2.48,5.19,6.47.99l-1.98,4.98h2.99c-2.7-6.1,4.95-5.99,1.99-10.96,3.87-.9.63,5.33,3.5,5.97,2.54.56,2.08-4.17,4.1-4.86,2.43-.84,5.83.46,8.37.39-.95,3.43-4.24,1.08-1.99,5.47-1.75.67-6.78,1.14-7.76,2.24-1.55,1.74.45,6.02-4.22,4.76l-.5-3.01c-2.56,5.88-12.02,1.49-16.76,2.18-1.95.28-3.49,3.15-5.21.82-.2-.28.54-1.63.35-1.84-3.48-3.7-9.48,2.31-12.56,2.69s-4.23-2.32-7.2-.84v-1.99ZM71.82,55.17h-3.98s0,.98,0,.98c2.12.47,3.09,1.72,3.98-.98ZM55.86,58.14c-.34-1.44-1.61-2.29-2.99-1.98v1.98s2.99,0,2.99,0Z"/>
  <path class="cls-1" d="M26.94,40.2c8.53-1.32,6.08,1.38,9.97,6.97h-9.97s0-6.97,0-6.97Z"/>
  <path class="cls-1" d="M1081.35,51.05c.37.23,4.4-1,5.82.11-1.99-2.72.64-2.44,3.47-3l1.01,3c6.36-5.57,10.79-1.53,4.5,4.98,3.36,1.47,6.34-1.02,9.49-1,3.3.02,10.57,1.35,13.98,1.61,1.08.08,5-2.07,7.46-.59l-.49,2c2.14.3,6.9-2.6,8-2.64,1.28-.05,2.15,1.35,2.98,1.64.61.21-.07-2.06,1.91-2.09,2.9-.05,6.33,2.76,7.04,2.73s1.71-1.53,3.04-1.59c1.17-.06,8.36-.06,8.78.06,1.85.54,1.82,2.32,1.65,3.88-4.21-2.06-11.13,2.2-12.46-2l-.96,1.84c-6.29-.93-12.68.26-19,.24-7.17-.02-20.49.3-27.04-.42-3.38-.37-7.97-.12-9.35-3.64l5.98,1.49c-1.44-2.44-3.64-1.99-5.65-2.87-.35-.15-.38-1.59-.96-1.67-1.99-.28-4.69,2.26-7.89,2.16-1.83-.06-1.6-3.84-3.45-2.1-.13.12,1.12,2.9,1.67,3.04,3.44.88,7.99-3.11,9.3,2.92-2.25-.29-5.24.51-7.31,0-.77-.19-.68-2.01-1.23-2.04-1.31-.06-3.41,1.63-5.17,1.81-1.54.15-10.05.46-10.69.31-1.37-.34.79-4.02-2.52-3.05-.45,1.15,3.56,6.73,1.49,6.98-.76.09-3.35.11-3.48-.01-1.9-1.76,1.8-2.94,1.99-3.97l-7.46-1.02c-.71,1.42,1.53,3.02-1.17,3.86-.44.14-9,.5-9.3.13-.23-.28.29-1.92-.24-2.69-.92-1.36-5.73-1.17-6.27-4.29.17,3.11-2.13,3.51-5.01,2.79-.68-.17-.14-2.5-1.96-1.78-4.36,1.74-.26,4.77-.52,4.97-3.18-1.71-5.49,3.04-6.98-.98l3.98-.99c-2.04.34-2.68-2.47-3.22-2.79-1.05-.6-10.62.65-12.72.78l-.02-4.99c-2.23.11-.88,3.07-1.93,3.54-.76.34-2.07-.46-3.29-.25-2.32.4-4.28,1.85-7.73.69v4s-2.51-3.01-2.51-3.01c-6.48.66-3.23,2.77-3.47,3-2.01,1.88-1.91-2.1-2.5-2l-1.49,2c-.71-5.78-2.78.83-3.02,1-.39.27-4.33-6.37-7.95-3.98.25,2.16,4.8-.23,2.47,3-2.24.29-5.75-1.5-7.53-1.51s-4.01,1.69-6.22,1.32c-1.65-.28-2.88-2.13-4.69-2.45-2.16-.38-4.23,1.98-7.98.62l.48-3.97c-2.6-.96-.7,3.32-2.4,4.56-2.69,1.96-6.65-1.35-8.73-1.37-1.92-.02-7.21,2.73-11.42,1.27-2-.7-1.93-2.5-2.44-2.52-2.21-.06-5.78,3.01-7.91,2.98-3.04-.04-7.95-1.03-11.92-1-17.47.13-34.85.66-51.96.07-1.34-.05-7.44-.37-8.18-.67-1.61-.66-.88-2.32-1.75-2.35-3.2-.09.19,2.79-.5,3.99l-4.47-3.98c-1.42,3.55-17.49,2.94-18.47,1.98-.33-.33,2.53-2-.48-1.99-1.17,0,.26,2.7-1.05,3.07-10.24.57-20.72-.77-30.91-.57-1.47.03-2.81.65-4,1.49-1.73-5.31-1.19,3.28-2.87-1.89-7.95.87-20.09,4.07-26.51-1.59,1.66-.86,6.93-2.46,5.99.49h.97s.14-1.77.14-1.77c4.63.76,10.07-.85,14.55-.93,12.74-.23,27.99,1.16,41.57.61,2.47-.1,7.26-2.04,9.02-1.92.61.04.51,1.98,1.17,2.09,1.82.3,4.11-1.6,6-1.75,4.27-.34,13.26,1.83,16.64-.26.9-.55.99-2.45,2.31-2.88,1.77-.58,7.63-.36,9.89-.22,6.9.41,16.24,2.2,22.88,2.55,2.95.15,12.51-1.21,14.82-.38,1.21.44,1.62,1.71,1.67,2.87,1.6-.09,1.43-2.8,2.68-3.05.36-.07,7.01-.19,7.26.07.4.4-.64,2.51.51,2.99,2.38.99,1.12-2.57,1.5-3,.34-.39,9.1.16,10.32.35,1.53.24,2.6,1.53,3.16,1.64.52.11.26-1.64,1.19-1.96,5.66-1.96,12.14,1.41,17.29,1.45,12.8.1,26.03-1.8,39.2-1.13,1.13.06,2.28,1.34,3.13,1.28s1.92-1.87,2.98-1.65c1,.2,1.15,2.94,2.11,3.09,2.4.37,6.06-4.18,7.38-3.07.26.22-2.71,6.08,3.01,2.49l-2-1.48c1.25-.09,2.35-.89,3.6-.98,4.65-.31,8.91.58,13.05.7,2.52.08,9.32-3.49,10.77,1.27.74-6.2,3.71-1,4.09-.95,1.39.19,8.09-2.49,11.82-2,5.05.67,5.92,7.35,8.02,6.92.51-.1,1.86-5.97,7.1-6.94,4.18-.78,3.39,1.85,3.89,1.98,2.93.75,2.24-1.86,3.17-2.03,1.2-.22,2.94.87,4.91.22,1.85-.62,1.34-2.07,1.45-2.14,2.12-1.26,2.53,2.46,3.11,2.82ZM862.75,52.17c-.71-.62-3.97.49-3.96,1.49,0,2.47,5.97.27,3.96-1.49ZM1068.21,53.17h-1.98s0,3.98,0,3.98c1.98-.53,2.24-2.12,1.98-3.98ZM969.48,58.15c2.69-.89,1.44-1.86.98-3.98h-.98s0,3.98,0,3.98ZM1050.26,55.17l-3.98.49,2.5,2.49c2.16.49,1.47-1,1.48-2.98Z"/>
  <path class="cls-1" d="M114.02,39.86c2.52,1.83,6.23-.07,9.23-.18,3.91-.13,9.57.55,13.9.62,1.85.03,3.99-1.19,4.9-1.13s1.27,3.51,3.21,3.9c1.7.34,3.48-2.21,5.09-2.63,5.99-1.58,13.83,1.11,19.68,1.24,16.23.37,32.69-.1,48.94-.03l3.45,2.04-1.98,1.48c1.63.1,6.2,4.25,5.98.51-.18-2.96-2.94-.53-3.99-3.48,5.67-.58,9.39-.07,8.49,5.98,4.66-1.07,1.05-3.16.9-4.49-.52-4.66,5.05-1.67,7.56-.49l-3.97.99c-.73,3.95,4.02,1.16,5.98.98.37-.55-2.97-4.1,2.5-3.86,2.93.13,4.53,2.34,5.47,4.86l-5.98-2.97c1.71,4.06-1.86,6.87-5.57,6.9-.49,0-.23-1.98-.93-1.97-3.87.05-5.62,2.14-13.27,1.3-4.97-.54-2.81-1.05-3.67-1.28-3.23-.87-1.52,3.38-5.5,1.03l.5,2c-5.9-1.44-14.2.48-19.79-.34-1.33-.2-2.98-1.66-3.16-1.65-1.02.05-1.02,2.72-2,2.98-2.1.57-1.23-1.95-2.05-2.08-1.87-.29-3.5,1.62-4.91,1.68-1.88.08-4.95-2.4-7.48-1.59v.98s2.98,1,2.98,1c-2.59-.81-9.14.72-10.51-.98-.15-.19,1.28-5.49-1.44-3-.58.53-.31,2.84-.24,3.74.22,3.23-4.29-.11-5.85-.27-13.52-1.42-30.42,1.49-44.32.54l-3.45-3.01c.25,4.76-4.44,4.87-8.35,4-.65-.15-1.26-5.17-3.14,0-1.79-1.98-4.67-5.1-.51-5.48,1.12-.1,1.77.91,2.45.93,9.24.26,18.18-.81,26.94-1.5,3.1-.24,9.13-.37,12.1-.03,2.19.25,1.08,2.44,1.91,2.08,5.7-5.83,15.05-.52,22.45-2.99.71-4.15-3.48-.48-5.37-1.07-1.17-.36-1.57-3.78-5.08-2.92l.49,1.99c-1.01.91-14.56.56-16.26-.01-.76-.25-.95-3.68-2.7-1.96-.82.8,2.84,2.79-.51,3.02-4.02.28-9.76-1.72-13.95-1.82-6.65-.17-24.29,2.41-29.66.73-.85-.27-.78-1.82-1.2-1.8-2.41.1-6.21,2.78-8.85.9-.95-.68-.62-1.96-.71-2.02-.52-.33-1.63,1.56-2.74,1.81-1.88.41-4.17-.64-6.22.17,2.14-3.18-1.65-.64-.99-3.98,5.97,2.32,10.26-.01,15.96,1l-.5,2c3.25-1,5.03-5.05,7.98-1.01.89-3.4,1.53-.85,4-.93,2.85-.09,7.88.13,9.94-.06,1.61-.15,3.04-2.29,3.49-1.99.07.05-.15,1.29.33,1.65ZM181.01,45.72c-1.52-1.03.41-1.87-3.46-.52.55,2.1,2.71,2.13,4.48,1.99,1.49-.85-.36-1.03-1.02-1.47ZM215.44,45.2l-3.98.48c1.42,2.16,1.88.82,3.98.49v-.98Z"/>
  <path class="cls-1" d="M1354.47,56.16c.21-.76-.27-2.76,0-2.99.75-.66,17.06-.28,19.95-.99,1.6,3.03-5.22,1.21-2.98,3.98,1.25,1.55,4.7-3.31,4.98-3.48.47-.31,9.5-.74,10.32-.56,1.19.27.18,1.94,1.15,2.06.76.09-.03-1.53,1.9-2.21,2.78-.98,4.46.9,6.71.73,1.23-.1,3.05-1.52,3.37-1.5,1.67.13.67,4.21,2.47,3.96-.55-6.51.77-2.91,4.45-3.09,8.4-.4,19.21-1.68,27.17-1.71,2.08,0,2.63,2.38,3.8,2.53.58.07,6.02-2.95,9.86-1.6,1.74.61.91,3.06,2.6,2.87l-.99-3.97c1.95-.59,2.67,2.13,4.29,1.82.74-.14,1.6-1.43,2.48-1.56,3.38-.5,6.77.08,10.18-2.26.58.66-4.19,5.82,4.49.98l-.5,2c3.79,1.27,2.85-2.93,5.49-3,.33,0,2.69,4.08,3.05,4.06,1.76-.11,8.52-4.47,11.42-4.03-.91,4.82-6.66,2.71-6.98,2.99-.48.42,2.8,2.93-1.13,3.49-3.54.5-1.48,1.2-3.27,2.12-1.56.8-32.08,1.97-34.83,1.35-.79-.18-.75-1.88-1.19-2-3.22-.91-2.47,2.45-4.08,2.93s-9.52-2.11-12.36-.92l2.02,4.97c1.51.39.69-1.4,1.64-2,4.49-2.87,4.26.8,4.98,1.01,4.06,1.21,3.55-2.56,4.89-2.87,1.9-.44,10.73,1.13,12.91,1.39,2.06.25,16.48.83,17.8.49,1-.26.81-2.68,6.95-.97.86.24.67,1.87,1.11,1.86,4.29-.15,8.74-1.13,14.2-1.26,2.8-.07,15.15-1.11,16.69-.7,1.11.29.48,3.42,2.09,4.05,1.59-1.48,1.59-3.62,4.01-4.02,5.83-.96,17.43.07,23.63.36,1.54.07,2.27,1.55,3.75-.8-1.14-1.66-2.99-1.18-4.65-1.87-.35-.15-.38-1.65-.87-1.67-2.64-.1-5.14,4.58-8.84,1.96-.9-.64-2.89-6.97-3.58-8.89-2.83.31-.69,3.7-.99,3.98-.41.38-4.44-1.08-4.8-.79-.15.12-2.14,3.1-2.16,3.29-.28,2.97,6.09-1.15,6.97-.49-2.01,3.16.62.91.99,2.97-5.89-1.02-12.73.3-18.32-.02-1.84-.11-3.48-1.45-5.24-1.65-1.13-.13-3.93,1.12-4.35.69-.28-.29-.38-2.38.68-3,3.12-1.85,5.79.75,7.78.59,1.09-.08,3.4-2.39,5.5-1.58-.61-2.58-14.1-.17-13.94-2.48.24-3.48,4.17-.89,4.44-.9,1.37-.03,4.17-3.33,7.56-1.1.8.52.98,4.16,2.94,2.49.36-.31-.82-2.37.99-1.98l-.98,4.97,6.97-3-3.98-2.97c3.79,1.87,7.13.18,10.35.34,4.65.22,1.68,4.24,2.72,5.54.38.48,10.55,1.73,12.22,1.74,1.89.02,4.23-1.68,5.99-1.39.3.05,5.19,2.68,5.4,2.91.6.67-1.18,4.96,6.21,1.8l-3.98-1.97c1.93.71,4.35-.89,5.56-.92.49-.01-.17,2.93,3.4.9-2.92-3.53-7.21-7.11,1-6.96,1.76,3.72-4.83-.33-2.98,2.48.62.94,2.16.99,2.74,1.81,1.3,1.83-1.64,3.27,3.26,2.19.46,2.09-2.5,2.02-2.92,2.62-.87,1.26,4,4.95-3.07,3.84l.48-2.01c-1.86.06-2.72,2.49-4.19,2.88-6.96,1.87-6.01-6.29-12.24-6.84l1.01,4.98,1.97,1c-2.8-.18-7.03,1.44-9.45,1.6-.65.04-1.62-1.42-2.83-1.38-1.44.04-2.94,1.5-5,1.48-2.98-.03-5.8-2.73-7.15-2.72-.65,0-.35,2.09-1.01,2.07-1.5-.04-2.19-1.64-2.99-1.71-1.23-.11-3.05,2.37-5.07,2.67-3.24.48-9.63-1.39-12.9-1.11-2.1.18-3.62,2.02-4.8,1.92s-2.83-1.67-5.16-1.87c-2.86-.26-5.58,1.19-6.92,1.1-.61-.04-.54-2.06-1.11-2.1-1.48-.11-6.06,2.56-8.97,2.59-6.85.07-16.56-1.46-23.85-1.57-9.04-.14-20.85,1.51-29,.88-2.52-.19-6.29-2.61-7.94-2.44-2.71.29-1.24.98-6.12.93s-18.99.73-22.82-.25c-1.91-.49-1.55-1.99-1.92-1.96-1.24.08-8.92,2.39-9.54,1.87-.21-.18.94-1.56.51-2.91-.18-.55-2.72-4.02-3.01-4.05-1.43-.15,0,5.65-4,6.04-1.28.12-9.63-1.08-10.54-1.57-.44-.24-.55-2.74-1.92-4.49-1.03,3.74-1.33,5.56-5.98,4.98-.54-.39,2.52-2.56,1.99-2.97-2.01-1.57-2.99,1.92-4.43,2.07-3,.3-5.41-.98-7.12-.99-.57,0-.15,1.94-.93,1.94-1.23,0-2.55-1.75-4.92-2.09-4.19-.6-8.37.84-12.02.86-3.6.02-14.42.19-16.51-.23-1.61-.32-2.58-2.64-4.43-2.58l.5,2c-1.97,1.41-6.08-.59-6.46-.56-.86.07-1.83,1.28-3.07,1.51-5.57,1.02-2.34-1.26-2.99-2.97-.48-1.26-3.16-2.3-3.45-3.95,5.77-.08,2.97,1,4.16,2.73,1.43,2.08,5.55-1.01,7.79-1.36.63-.1,6.2-.23,6.52-.17.22.04,2.44,3.46,3.42,2.77.19-.13.29-1.99,1.01-2.48,4.51-3.1,2.52,3.82,4.54,4.49.8-1.88,1.25-2.34,3.5-2l-.99-1.96c5.27-2.07,8.6,1.34,13.95-.03l-1.01-1.98c2.52.31,5.67.33,7.97,1.45,3.01,1.47,4.99,5.58,7.99,4.03l-3.97-3,4.96.49-.99-2.98c3.08-.02,6.73-1.05,7,2.98h.97s.01-1.98.01-1.98c1.91-.53,1.94.65,2.99,1.99ZM1449.22,57.15l-1.01-2.98-2.98,1.01c-.89.73,2.66,2.24,3.98,1.97ZM1423.29,57.14c-.89-2.69-1.86-1.44-3.98-.98v.98s3.98,0,3.98,0ZM1403.34,60.14l-1.01-2.98-3.97,2.5c1.27,1.5,3.37.81,4.98.48ZM1409.32,60.14c2.26,1.55,6.4-2.83,1-2.98.46,1.05-1.28,2.79-1,2.98ZM1362.44,60.14c-.76-3.04-6.83-2.56-4.98,0,.15.2,3.57-1.19,4.98,0Z"/>
  <path class="cls-1" d="M1167.96,50.18l-.5,2c3.19-2.28,5.81-1.58,9.47-2l-1.01,1.98c3.5,1.43,4.16-1.89,4.43-1.87,3.48.24,6.64.8,10.03,1.42.81.15,2.06-.71,2.8-.58,2.32.42,1.41,9.78,7.68,6.01.58-.67-6.91-5.37-2.49-6.97.86-.31.13,1.94,1.09,2.07,1.11.15,2.66-.94,4.02-.95,5.72-.07,11.6.5,17.33.88-1.21,2.08-4.46,2.63-3.98,5.97l6.97-1-2.97-3c2.58-4.47,8.78-.12,12.95-1.98l-1.93,2.62c2.26,2.21-4.01,5.13-.55,6.35.44.16.66-2.86,3.15-2.8,1.48.04,3.36,2.48,4.32,1.8.2-.14,1.32-4.09.89-4.82-1.03-1.76-5.58-.22-4.86-3.15,3.82-1.48,6.31,2.38,8.49,2.97,2.62.72.99-2.47,1.48-2.98.29-.3,4.65,1.46,5.97,1.01.26,1.91-2.08.28-3.1,1.58-.69.87-.87,3.18-.88,4.39l.99-2.98c1.41-.88,9.4,4.53,8.98-1l-2.99-.99c3.16-2.28,5.2.53,6.49.62.92.06,2.26-1.45,3.91-1.51,2.22-.08,6.44,1.82,8.12,1.78.3,0,1.08-5.14,2.86.09,4.62-3.45,4.41-.4,4.72-.34,1.15.25,3.69-.85,4.79.82-1.37,1.46-1.82,2.67-.99,4.49-2.54.86-2.53-2.52-3.1-2.86-.32-.19-1.98,1.03-3.18.74-1.35-.33-3.47-4.46-5.52-1.59-.81,1.13,1.01,4.75-3.42,1.67-.7-.48-.84-1.83-1.27-1.96-3.79-1.09-1.2,1.6-2.42,2.55-.46.36-2.46-.17-3.54.34-1.9.88-3.13,2.85-4.91,3.01-10.95.94-25.68-.58-36.97-.97-3.76-.13-3.86,2.76-5.99-1.91-.57,3.05-6.4,2.37-8.95,1.97-3.34-.52-1.72-3.45-4.92.11l-32.49-1.1,1.98-1.97c-2.63-1.99-6.51,3.16-7.97,1.98-.9-.72,2.35-3.95,2.59-3.96,1.93-.06,4.95.93,7.86.69,4.8-.4,9.78-.61,14.48-1.72-2.17-3.47-6.98.92-10.23-.21-1.82-.63-3.05-3.66-4.57-2.58-.19.13,0,1.65-.81,1.84-.59.14-11.17.2-11.74.04-.94-.28-.3-1.89-.88-2.74-.49-.71-2.08.26-1.67-1.31h11.97ZM1206.85,57.14l-3.98-3.98v3.98s3.98,0,3.98,0ZM1214.83,58.15c.98-.94-1.29-4.86-2.98-4.98.53,1.1-1.3,2.8-1.02,2.98.42.28,2.16-.15,3,.02l-2,1.49c.03.88,2.89.6,3,.49ZM1192.88,54.17c-2.92,1.05-7.13-.27-5.97,3.99,1.92-1.86,6.27-.38,5.97-3.99ZM1228.76,54.2c-2.99-1.85-1.77,4.39,2.03,2.94-.66-.56-1.88-2.85-2.03-2.94Z"/>
  <path class="cls-1" d="M378.02,56.16c-4.2.12-9.5.69-14.52.87-.62.02.02-2.12-1.86-1.91s-3.13,1.85-5,1.92c-3.3.12-9.42-1.44-13.19-1.49-8.15-.12-17.34.83-25.59.24-2.49-.18-8.26-.42-10.18-.81-.85-.17-.06-2.14-.96-1.8-2.09.79-2.23,4.58-5-1.01-3.18-.68.62,3.26-.98,2.97-3.87-.68-7.72-.03-10.48-3.48l5.97-1.5-3.97-2.98c2.18-.15,7.82,1.18,9.35.97.7-.1.53-1.76,1.29-1.95,3.97-1.01,7.96,2.82,8.79-1.01,3.86,2.81,1.11,2.58.51,5.98l50.31-.05c1.1,3.99,1.28.17,4.98.01,2.66-.12,7.11.94,9.53,2.04-.78,1.02-2.37.62-1.99,1.98l2.99,1.01ZM311.19,49.18c-2.08.46-6.78-1.58-5.99,1.99,1.2.08,2.76-.42,3.82.24.58.36-.46,2.19,1.17,1.75l1-3.98Z"/>
  <path class="cls-1" d="M377.02,53.17c.2-.26-.29-1.71.03-1.98.51-.43,11.27,1.09,13.39-.06.37,4.28,2.94,2.95,6.53,4.02l-4.97-2c-.08-1.28,3.11-2.24,4.01-2.45,6.69-1.55,36.02-.03,38.71-2.74.46-.46-.19-2.21.74-2.87,1.73-1.24,8.96-2.62,9.39,1.08l-4.98,1c4.72-1.86,6.11,2.04,6.5,2.06,2.36.1,5.26-4.6,10.81-3.06,1.15.32-.17,2.55,2.13,2.02.96-.22.11-1.71,1.12-1.97,1.78-.45,7,.04,9.35-1.02-1.49,5.33-1.06,8.37,4.98,8.98l.02-3.01,5.97,1.01c-.42,7.28-6.91,3.94-11.97,4.97,2.37-2.55-2.82-3.26-4.97-4.98.68,6.39-5.29,5.91-10.08,4.56-2.4-.68-1.82-3.07-4.41-3.62-2.86-.6-2.24,1.42-3.19,2.01-4.5,2.8-3.79-2.31-5.86-2.83-1.56-.39-3.86,1.69-4.93,1.88-.48.08-.39-1.92-.88-1.91-2.17.02-6.53,1.61-9.19,1.77-16.03.95-31.47,1.7-47.24,2.13l.99-2.99c-.61-.14-1.58.18-1.99,0ZM438.85,49.17l-.49-2.98c-1.06.91-1.82,1.51-1.5,2.98h1.98Z"/>
  <path class="cls-1" d="M2326.92,66.13c-1.8.88-3.61,2.66-5.75,2.86s-2.87-1.42-3.74-1.49c-2.72-.22-15.46.94-20.8.93-1.54,0-3.24,1.64-4.98,1.46-2.25-.23-3.89-3.77-7.95-2.77-.74.18-.61,1.91-1.32,2.04-.48.09-9.19-.83-9.7-.97-1.15-.31-.53-3.51-2.11-4.03l-1.02,3.98c-4.79-1.2-10.57-.2-14.99-.47-2.69-.17-8.44-1.92-10.9-2.1-1.9-.14-4.02,1.46-5.09,1.51-.43.02-.36-1.97-.97-2.01-2.64-.16-5.1,3.71-6.44-1.93h3c-2.35-6.17,1.94-3.76,2.54-4.92.21-.41-.89-4.06.95-4.05,1.58.01,1.21,9.61,3.01,9.95,3.14.58,1.08-3.71,2.4-4.52,2.39-1.48,6.31-1.04,5.07,2.53,5.37-2.7,11.97-1.46,17.94-.99.39,1.48-1.33.92-1.88,1.56-2.36,2.75-1.22,4.58,1.87,2.93-2.87-2.75,2.8-4.56,5.54-4.62,3.51-.07,2.23,1.94,2.47,2.1.63.41,1.57-1.7,2.45-1.69.57,0,1.54,1.45,2.98,1.54,3.18.2,12.76-1.46,12.52,2.14h.97c-.43-3.87,3.93-1.12,6.51-.99,1.98.1,8.69-.39,9.46.01.13.07-1.31,2.96.5,2.96s.37-2.89.5-2.96c2.15-1.12,7.96,1.02,10.39.92,5.02-.21,3.84-4.12,6.56,1.06,1.54-.75,2.76,1.6,1-2.99,4.63,1.62,8.31-.98,8.97,4.97-2.27-.94-7.07,1.16-8.4.87-1.66-.37-1.2-2.13-1.58-2.85ZM2304.98,68.12c-.89-2.69-1.86-1.44-3.98-.98v.98s3.98,0,3.98,0Z"/>
  <path class="cls-1" d="M2036.68,40.21c-1.1,4.55-3.97,7.23-8.56,7.88-2.41.34-19.18.71-20.61.07-1.26-.57-.33-2-1.24-1.98-.48,2.87-4.38,2.41-7.04,2.07-1.42-.18-3.36-3.71-4.35-3.02-.17.12-.27,2.33-2.32,3.24-1.45.64-4.78-.57-6.73.72l6.98.99-1.01,1.98h3.99c.14,3.21-1.74,2.72-3.98,1.99v4.01s-1.02-3.52-1.02-3.52l-1.97-.47v5.98s-3,0-3,0c-.2-4.72,6.25-8.67-2.99-5.99,1.21-2.62-.24-3.32-2.99-2.97-.48,1.75,2.23.47,1.99,1.48s-1.67,2.79-2.98,2.51l2.98,1.97c-4.41,1.3-5.88,3.37-11.48,3.08-8.01-.42-2.29-4.53.02-3.89.19.05,1.82,3.6,3.48,1.82,2.14-2.29-3.79-4.34-4.54-6.03-.7-1.6.56-3.25.08-4.01s-2.41-.8-2.52-.94c-2.97-3.68,22.76-3.21,24.24-3.31,1.69-.12,3.43-1.41,5.27-1.57,4.82-.44,12.82-1.88,15.88,1.92,1.17-.56-.31-2.43,1.48-1.99,0,4.35,6.59,2.71,8.98.99-1.55,4.43,3.46,2.93,4.01,1.49.76-1.99-4.24-1.56-2-3.47,2.74-2.34,4.2,3.94,4.56,4.04,2.9.85,4.88-1.34,3.41-3.05-.42-.49-3.98,1.25-2.99-1.99h6.98ZM2001.77,43.2h-3.98s0,1.47,0,1.47c2.62,3.02,2.83,1.49,3.98-1.47ZM1984.82,48.19l-9.97.97c2.89,1.68,7.71,2.44,9.97-.97Z"/>
  <path class="cls-1" d="M1870.12,51.17c.59-.32.92-1.83,1.1-1.91.57-.27,9.52,5.78,3.89-5.06,6.26-1.63,12.56.55,18.94,0l-3,.99.8,1.5-2.77.5c1.53,2.12,2.98.22.99,3.97h3.99s-.99-2.97-.99-2.97c3.96-.05,4.86-.9,2.98,2.98,5.23-1.3,2.02,3.9,3.04,4.96.86.89,7.33-.67,7.94,2.02-1.09-.42-3.53,1.05-3.84.82-.11-.08-.39-3.84-2.14-1.8-.32.38,1.45,2.59.99,2.98-2.55-1.1-6.28.52-8.33.05-.8-.19-.57-2.22-1.12-2.04-6.09,1.97-8.79,1-14.97,1.01-5.09,0-7.14,2.31-11.47-2.01-.2,1.09.91,3.53-1.49,3-.61-.13-.07-1.72-.51-3,.71-1.17.94-2.86,1.06-2.96.43-.37,2.22.9,3.29.72,1.84-.31,4.89-4.84,2.64,1.25,4.69-2.67,2.44-3.24-1.01-4.98ZM1889.07,45.2c-1.7-1.91-2.54,2.72-3.53,2.98-1.92.51-4.24-3.12-6.43-.51,2.67,5.74,4.65,1.85,9.97,2.49-1.71-1.58.17-4.77,0-4.97Z"/>
  <path class="cls-1" d="M1818.25,57.15c3.07-1.31,1.71-1.77,2.01-1.99.52-.38,1.89,2.04,3.46,2.01,1.27-.03,2.4-1.74,4.06-1.99,3.64-.54,13.52-.65,16.93.16.67.16.26,1.7.95,1.67.61-.03,1.81-1.25,2.42-.79.48.36-.62,2.35,1.08,1.92-1.2-5.4,4.54-1.49,7.99-2.99l-2.99-3.97c1.05.5,6.94-3.1,6.96-3.5.02-.24-2.92-2.62-1.97-4.48,2.76-.91,6.68,2.65,5.99-.99,1.58-.34.4,1.26,1.78,1.95.66.33,1.95-.13,2.2.05.3.22-2.42,5.1-3,5.96,1.83-.39,2.61.31,3.99,1.01-1.53.83-3.41,1.2-4.98,2-.99-2.62-.42-3.71.99-5.97h-3.99c2.32,2.61-.99,6.13-.98,6.48,0,.29,2.04.77,2.97,3.48-.12.2-.99.3-1.41.98s1.48,3.22-2.09,2.04c-.66-.22.23-2.51-1.98-2.04-.52.11-1.05,5.19-3,0-.99.04.42,1.8-1.92,2.09-6.18.78-12.36-1.57-18.52-1.09l.99-2.98c-3.72.49-2.25,2.69-2.51,2.99-3.19,3.75-12.36-2.95-15.43.99.06-.97-.13-2.03-.01-2.99-3.5,1.5-9.75,3.77-13.67,3.76-1.63,0-4.91-2.58-8.27-.77-.26-.18.75-1.39,1-1.98-1.33.47-3.34-.13-4.51,1.98l-.99-2.99-5.02,3.03-20.8-.97-2.09,2.93c-1.02-.88-8.47-5.01-8.98-5.01-.58,0-.27,1.62-1.22,1.97-2.63.95-6.5.54-9.25.06-.78,3.72,4.65,1.41,6.47,1.99v2.01c-1.81-.86-8.37-1.66-9.49-2.64-3.35-2.95.44-5.86-7.97-3.37l-.99-2c1.21,3.27-1.39,3.79-1.64,4.27-.2.38.49,1.18.28,1.45-4.88,6.51-5.36-6.03-8.14-6.72-1.51-.37-12.75,5.36-4.98,7.01,4.46.95,1.1-3.99,3.99-3.01,1.8.61,1,3.52.4,3.89-.86.52-16.8-.1-16.86-1.4l3.99-3.01-2.98-.49c-.87-3.3,3.3-6.31,5.81-4.79.49.3.82,2.7,1.65,2.78,1.17.12,11.34-8.51,12.97-1.98,3.78-6.17,10.56-.33,14.97-3.98,1.33,2.88-1.27,4.14-3.49,4.48,1.98,2.27,4.89-.65,5,3.49,1.65.63.5-2.17,1.47-1.99.88.16,2.81,1.64,2.51,2.98,2.04.3.04-2.45,1.59-3.04,1.06-.4,17.15-.54,19.29-.44,2.98.14,9.94,2.44,11.51,2.52.4.02,3.24-5.73,5.99-.02,1.38-3.55,8.74-1.39,12.46-2,.4,1.44-.58,2-.99,2.99,3.23-1.15,1.9-1.81,2.99-2.52,1.32-.86,8.53.96,10.97-.47l-.98,3.98c3-3.37,3.85-4.86,8.97-3.98.4.25-.93,1.45-1,1.98Z"/>
  <path class="cls-1" d="M2074.58,41.19l-6.98,1.02c2.74,4.94,4.19.11,4.65,0,1.87-.44,4.32.23,6.32-.02-1.31-3.02-5.13-.43-3.98-4.98,4.15,3.21,11.56-2.49,13.45,2.01,3.19-6.24,2.24,3.63,5.48,3.98-.87-2.97,1.3-4.17,3.81-2.73.53.3-.45,2.15,1.18,1.72l1-3.98c1.5,3.08-.78,4.7-2.45,7.06l-10.5,1.9c5.38-1.14,9.69,1.38,14.5,2.06,9.39,1.34,20.76,1.65,31.03,2.62,3.47.33,11.04-.23,13.8.26s2.21,2.79,2.53,3.05c.26.22,3.38-2.63,6.27-2.65,3.19-.02,10.25.84,10.67,4.63-1.6-.14-3.14.84-4.65.94-2.03.13-16.83.26-17.69.04-1.14-.3-.13-1.94-1.11-1.97s-.16,1.42-.68,1.75c-3.23,2.06-27.22-2.72-32.74-.75v-2.97c9.76,2.23,7.31-2.2-1-1.01l.5-1.99c-2.29-1.03-3.87,2.23-3.31,3.51.36.84,2.68-.17,1.82,2.48l-11.97-1,.99-4.98c-2.36.99-4.76-.07-6.96-1,1.2,3.76,1.41,4.8-1.99,6.97l-1-3.99,1.99-1.98-13-2.47c-1.15-.76.13-2.45.02-2.51-1.13-.64-8.31.61-8.94-.05-.4-.42.64-4.21-1.62-4.8-.95-.25-3.42,1.56-4.92-.13-1.76,2.24.6,2.16,2.53,1.98.25.19-3.52,3.73,2.97.99v2.99c-4.21-.89-7.86,1.16-12.25-.05-.34-.09-4.92-5.91-2.69.04h-3c1.74-2.59.38-1.65-1.98-2.99v3s-7.99,0-7.99,0c.25-5.94,2.89-5.87,7.49-3.01,2.1-.72.1-4.6,2-4.96,4.26-.82,2.23,4.76,2.48,4.97.27.22,5.47-1.18,6.98,0v-2.97s-4.98.98-4.98.98v-2.97c7.93,2.72,18.87-5.97,23.94,1.98ZM2134.43,54.17c1.02,3,3.09,1.78,2.98-1.01l-2.98,1.01Z"/>
  <path class="cls-1" d="M2182.12,54.48c.31.23-.04,1.86.66,1.68,4.7-1.24,6.93-1.75,12.07-1.92.57-.02.16,1.97.93,1.95,1.39-.03,1.95-1.56,3.54-1.58,1.97-.02,6.84,2.5,7.46,2.42.98-.12.94-2.62,2.15-2.9,4.71-1.08,9.47,2.44,12.26,6-2.72-.57-6.53,2.15-8.41,2.03-1.12-.07-2.14-1.44-3.08-1.49-9.39-.52-19.2.91-27.89-3.53l1.48,2-3.5-1.99c-4.26,2.63-14.9,4.63-13.46-2.98,1.92.51,15.15-.16,15.78.31ZM2200.21,56.16c-.22-.21-5.13,1.08-5.93,1.49l6.97,1.49c-.58-.6-.93-2.87-1.04-2.98Z"/>
  <path class="cls-1" d="M1618.78,53.16c-.33.27-2.2-.16-3,.01,2.52,4.63,10.42-2.04,12.97,2.97l-4.51-.97-.48,1.97,7.47,1.01c1.42-.57-1.5-2.07-1.47-2.51.06-1.03,4.82-4.05,6.75-3.16.19.09,1.6,2.89,3.19,2.67.68-8.25,4.98-1.27,8.44-1.13s6.13-2.87,9.52-2.86l-2.47,3c1.42-1.41,5.12-.03,5.35-.16.79-.45,1.42-6,3.84-.9l8.23,2.53c-3.86,2.81-7.91,2.54-11.97,2.5l1.01-1.98c-5.44-.26-7.84-2.6-5.98,4.46-3.74,2.29-3.18-1.78-4.01-4.46-1.7-.46-.43,1.99-1.55,2.05-1.58.08-5.78-1-3.43-3.04-2.56.24-3.13,2.4-6,.99l1.01,1.98c-4.89-2.26-2.41,4.1-7.98.99-.44-1.62,1.71-.62,2.01-1.47.59-1.64.15-3.09-2.01-2.5,0,6.92-4.36,2.33-7.31,2.91-1.04.21-1.38,3.08-2.17,3.05s-1.17-2.49-1.64-2.78c-.24-.15-3.32,1.37-4.35-1.19,1.35,6.13-2.59,1.41-5.97,1.42-1.61,0-3.72,1.65-4.36,1.44-.25-.08-1.45-3.07-3.63-3.86-.76-.27-.47,2.37-2.13,2.9-3.38,1.08-6.26-.41-6.34-3.9,5.94,1.86,4.76-2.92,5.53-3.07,1.1-.22,7.81-.21,8.78.05,1.14.3-.15,2.56,2.13,2.02,1-.24.29-1.51.7-1.68.95-.41,3.98.54,5.32-1.3.84-.12.57,1.91.49,1.98Z"/>
  <path class="cls-1" d="M544.58,51.18c.52-.27,2.12.13,3,0l-.5,1.99c2.12.67,1.1-1.76,2.13-2.01,4.09-.97,12.34-.01,13.32,4.99-3.51-.09-7.91,1.02-11.27,2.03-1.34.4-.07,2.47-1.69,1.96-.58-5.51-4.42.67-6.49,0-2.29-.74-.44-2.63-.5-3.98l1.98-.99c-1.65,1.17-7.71-.31-7.97,0-.36.44.37,3.23-.02,4.01-.18.36-6.68-.73-7.96-.02-.5-1.69,2.25-.54,2-1.47-1.05-3.89-6.9-2-1.99-4l-4-.51c.47-2.11,1.78-1.57,3.19-1.71,5.06-.5,12.26-.7,16.26,2.7,1.87-.77.36-2.89.49-2.96ZM533.59,52.18c-.12-.1-2.11-.37-1.99.51,2.18,3.65-.22,1.35-.98,3.46h4.98c-.89-.76-1.84-3.83-2.01-3.97ZM552.56,54.17c-1.38-.31-2.65.54-2.99,1.98h2.99s0-1.98,0-1.98Z"/>
  <path class="cls-1" d="M488.73,55.16c-1.14-.96-2.36-3.54-3.98-4.49,4.37-3.49,3.76.36,4.49.52,2.31.51.99-1.71,2.13-2.02.52-.14,10.09-.09,10.69.07.75.2.48,1.65,1.1,1.74,7.84,1.1,22.68-6.11,20.47,8.16-4.57-.02,1.06-5.52-5.98-3.99l2.99-2.01c-1.01-3.28-4.14-.46-6.77-.19-1.33.14-3.1-.93-3.2-.8-.3.39.53,4.45-1.55,4.99-1.35.35-8.06-3.48-8.42-2.99-2.63,3.55,4.07,2.03,2.98,4.98-1.71.57-2.37-1.5-3.62-1.73-1.96-.36-3.32.87-7.35-.26.16-.3-.08-1.38,0-1.99-1.32.03-2.66-.07-3.98,0Z"/>
  <path class="cls-1" d="M488.73,55.16c1.87,1.57,1.73,1.36,3.99,1.99-1.04,1.89-9.19-.31-9.97-1.01-.41-.37-.36-2.68,1.43-1.93.66.28,1.26,1.48,2.25,1.71,1.16.27,1.91-.74,2.3-.76Z"/>
  <path class="cls-1" d="M577.49,52.18c.51,1.43-3.96.81-1.98,2.98.72.79,3.46-2.91,3.69-2.96,2.95-.63,7.11.37,10.26-.03.93,2.87-1.79,1.44-2,2.5-.54,2.66,2.27.48,2,2.48-3.78-.07-6.48-3.08-7.98,1.52l2,1.47-3.98-1.49c-.23-.5,3.86-.51,1.98-2.49-.85-.89-2.99,2.62-3.19,2.7-.71.29-3.88-1.11-5.29,1.27-1.94-.56.57-3.7-2-2.99-2.15.6-2.76,2.41-4.22,2.85-2.02.62-8.6-.58-11.23.15,2.55-5.35,8.58-.53,11.96-3.49-3.33-.87-4.81-2.18-5.98-5.47l15.95,1Z"/>
  <path class="cls-1" d="M695.19,56.12c.11.12,2.2.31,2.98,1.04l1.99-3c-.03,5.3,2.15,3.13,6,2.99l-1.02-1.98h3.03c-1.8-.69,1.25-4.04,1.5-4.03,3.06.09,4.37,5.42,6.12,5.94.64.19,11.23-2.77,10.33-4.9,1.94-.34.44,2.32,1.03,2.92.45.46,2.93-.11,3.95.07-2.45,4.87-3.45,5.64-6.97.99.45,6.11-9.64,4.27-13.26,2.26l-18.67.72,2-3.98-3-.5,2.5-3.51c3.97-.02,1.24,4.68,1.49,4.96Z"/>
  <path class="cls-1" d="M626.2,52.37c.18.07.77,2.55,2.68,2.8,1.57-3.61,4.7-2.98,2.48.98,1.74.97,4.7-2.27,4.97-1.99.66.69-.46,2.45-1.66,2.83-3.86,1.22-15.07-1.49-19.65.13-1.35.47,1.16,3.48-5.16,4.06-2.81.26-7.04.39-7.35-2.71-.18-1.82,1.44-.91,1.88-2.06.35-.91-.27-2.89.04-3.22.42-.45,10.77-.91,12.34-.91,1.48,0,3.28.88,5.11.99,1.55.09,3.8-1.08,4.31-.9Z"/>
  <path class="cls-1" d="M1575.9,51.18c.2.21-1.47,5-.81,5.82.09.12,2.7,1.29,2.78,1.16.45-.69-.96-3.3,1-3-.04,3.44-.9,4.59,3,3.97.47-1.71-1.93-.51-1.9-1.4.04-1.21,1.63-3.64.91-5.57,3.07-.84,1.09,3.08,4.49,2.02.44-.14.64-5.28,3.99.98l.49-2.99h4.98c.46,1.68-1.9.5-2.04,1.5-.34,2.45,2.3,3.22,2.04,5.47-3.09-1.15-5.43,1.69-7.52,1.97-1.22.16-2.67-.85-3.82-.68-2.97.46-6.51,3.01-10.59,1.7l2-1.49c-.36-.93-3.85-2.31-3.98-2.51-1.55-2.4,3.12-1.85,1.96-2.96-.97-.93-4.4-2.4-4.98-4.99.48-.35,7.71.7,7.99.99ZM1585.7,56.35c-1.39-.59-2.51.5-2.82,1.79l4.98,1c-.32-.52-1.99-2.72-2.16-2.79Z"/>
  <path class="cls-1" d="M2055.42,51.39c.25.14.19,1.77.78,1.81,2.44.18,9.31-1.54,12.79-1.01.91.14,6.52,1.93,5.6,3.96-2.55.96-6.54-1.32-8.37-1.06-.67.1-.6,2.1-1.13,2.12-1.11.04-3.29-1.61-5.57-1.76-3.79-.26-22.86,1.71-23.83.7-.14-.14-.1-2.67.13-3.36,1.05-3.17,5.73-.58,8.34-.55,1.85.02,10.77-1.12,11.26-.85Z"/>
  <path class="cls-1" d="M377.19,43.97c.85.52,1.9.15,2.82.21.51-1.75-2.4-.48-1.99-1.48.83-2.02,3.37-.94,4.97.01,2.8,1.67-1.06,1.33-1.02,2.05s1.19,2.19,1.04,2.42c-.71,1.12-17.04-.36-19.95.99l1.98-2.49c-3.55-3.34-5.16-1.52-2.98,2.48h-2.99c2.82-4.32-1.92-2.12-1.99-5.97,4.11-.37,15.98-2.4,18.97-.48.67.43.79,2.03,1.14,2.25Z"/>
  <path class="cls-1" d="M1937.94,48.17l-8.98-1c2.13-6-2.31-.08-2.65,0-2.95.62-10.85-.4-12.69.1-.97.26-4.51,7.93-2.62-1.08-1.83,1.55-15.85.6-15.93-1.5-.07-1.83,3.26-1.18,4.22-1.19,8.94-.03,21.49-.08,30.15.71,2.42.22,8.84.54,8.49,3.97Z"/>
  <path class="cls-1" d="M268.96,42.6c.38.19.25,1.66.86,1.63,1.63-.07,2.68-2.34,4.96-2.09.33.04.82,3.95,2.5,2.05.29-.33-.31-2.67.02-2.97.35-.32,7.75.64,9.42.71,3.93.17,7.19-1.71,11.51,1.76-3.57,3.36-3.69-1.17-6.97-.48-.46,1.95,2.2-.05,1.98,1.98-2.54-.41-4.52-1.16-6.49,1l-1-3c-2.66-.43-4.95,2.51-7.09,2.72-2.62.26-12.53.35-15.22,0-10.42-1.37-2.99-7.52,5.52-3.3Z"/>
  <path class="cls-1" d="M1693.58,51.18l-.99,2.98c2.91.66,1.28-1.87,3.92-2.52,2.27-.55,5.66.59,8.05.54l-1.01,5.97-3.97-2.99c2.3,4.78-2.81,10.85-5,4l3.98-2-11.04-.45c-2.43-6.1,1.5-5.24,6.06-5.53Z"/>
  <path class="cls-1" d="M46.88,41.2c-.11-5.12,3.2-1.15,5.53-1.02,1.23.07,10.11-1.4,10.43-.98.28.37.28,2.44-.58,3.08-2.96,2.18-9.25-.83-12.87-1.59-.92-.19-2.08.58-2.51.5,0,.37.75,1.04.98,1.5-3.29-.08-4.39,2.44-1.3,3.36,2.48.74,8.66-1.33,12.3,1.11.26-.14-3.43-4.18,3.91-.37l3.05,3.36c-8.11-1.19-16.02.17-23.93-2l1.99-4.97-3.98-.02c-.4-1.76,1.56-.62,1.91-1.04.29-.35-1.11-2.06-.91-2.93.71-.7,4.69,1.74,5.98,1.99Z"/>
  <path class="cls-1" d="M1124.29,48.92c1.24.69,2.6-.53,3.89-.25s2.85,2.37,3.38,2.35c.67-.02,1.54-1.93,2.44-2.29s2.18.45,3.24.16c1.77-.48,3.24-2.53,5.77-1.71l-2.98,3.98c2.4-1.09,5.7-.67,6.97,1.99-2.69.92-8.48-2.06-10.3-1.75-1.28.22-2.44,2.28-4.13,2.38-2.08.13-5.15-2.81-5.49-2.6-.11.07.36,1.6-1.22,2.32-2.9,1.31-5.69.5-7.75-1.83.78-1.74,3.34-.35,3.97-2,.38-1.02-2.49.28-1.99-1.48,4.95-1.74,3.51.34,4.21.73Z"/>
  <path class="cls-1" d="M741.27,54.84c.15.1,3.18.78,3.62.57l1.15,1.74c-2.26-4.69,8.54-3.41,9.54-2.04,3.88,5.3-7.67,2.84-9.08,3.4-1.54.61-1.17,2.9-1.94,2.63-2.77-.95.98-4.94-1.98-3.97-2.42.8-5.03,4.11-5.84,3.84-2.77-.89-4.02-3.18-4.65-5.84l4.98-1.02.99,3.99,2-4.49c1.52-1.49.71.87,1.21,1.18Z"/>
  <path class="cls-1" d="M174.55,54.17c-2.92,2.96,2.8,3.52.99,5.97-.22.3-6.61.03-7.4-.03-1.17-.08-2.17-1.37-3.06-1.48-3.22-.39-6.41,3.08-9.47-.48l-.5,1.99-5.49-4.49c4.21-3.11,6.4,4.85,8.47-.49l3,2.97c1.82-.7.37-2.89.5-2.96.48-.26,1.68.59,2.53.47,1.73-.25,9.83-2,10.44-1.46Z"/>
  <path class="cls-1" d="M1959.88,56.16c2.44,2.03-7.76,3.95-8.59,3.99-2.57.12-3.22-2.05-4.86-2.03-.89.01-.31,1.82-.52,2.01-.46.42-1.93-2.03-3.45-2-1.25.03-2.41,1.72-4.08,1.96-1.86.27-5.15-.74-7.41.05.55-7.29,7.74-2.96,12.36-3.08,4.96-.13,10.89-2.67,16.56-.89Z"/>
  <path class="cls-1" d="M1945.92,45.2c1.95,2.18-2.49,1.53-1.98,2.96,3.16-.56,1.36,2.29,2.48,4.01,1.01.02.7-7.87,4.48-6.99l-.5,6.98c3.17-1.42,1.27-5.72,1.5-5.99.2-.23,5.01-.85,5.98-1v8.97c-2.19-.68.33-3.63-3.51-3.57-2.45.04-2.29,2.37-3.16,2.56-2.62.6-6.44-.36-9.28,0-.44-1.82,2.06-.35,2.01-1.5-.06-1.38-2.77-4.89-2.01-7.46.27-.24,3.85.85,3.98,1.01Z"/>
  <path class="cls-1" d="M660.28,58.15c-7.16-1.98-20.01,3.33-22.94-4.97,1.05-.86,4.51,1.86,5.53,1.98.45.05.03-2.04,1.92-2.12,2.66-.1,3.97,1.62,5.04,1.7,1.96.16,7.26-2.4,10.45-.58l.49-2.98c3.11,2.54-2.96,3.49-.48,6.97Z"/>
  <path class="cls-1" d="M196.49,54.17l-1.98,1.97c1.49,1.24,6.71-.21,6.97.02,1.32,1.14-2.81,4-6.28,3-1.48-.43-2.39-6.4-4.19-1.02l-2.98-2.98-1.52,4.98c-5.54-1.75-8.87,2.58-9.98-5.48l19.96-.5Z"/>
  <path class="cls-1" d="M603.42,53.17l-3.98,4.49c6.71,3.29-5.88,3.31-8.97,2.48-.46-1.69,2.08-.47,2.05-1.54-.04-1.53-2.45-4.41-.11-5.98,3.51-2.36,7.63,1.9,11.01.55Z"/>
  <path class="cls-1" d="M1118.08,49.19l-3.99,1.99,1.01,2.97-5.5-2.97-.48,2.97c-2.16-.95-6.78,1.07-7.72-1.63-1.96-5.62,5.26-3.8,8.65-3.85,2.37-.04,4.45-1.78,8.05.51Z"/>
  <path class="cls-1" d="M1685.6,57.15c-1.77,2.07-2.24-4.11-3.98-1.98-.17.21-.15,4.59-.01,5.48.22,1.34,5.12-2.32,3.99,1.49-2.6.2-4.9-1-7.5-1.03-4.71-.07-7.09,2.68-9.45-2.46,3.64-2.47,3.57,2.3,6.98,1.49-1.01-1.03-.1-3.71-.23-3.86-.42-.48-2.18.57-1.76-1.1,3.26-2.55,2.91-.99,6.42-.95,1.32.01,3.07-1.13,3.97-.96,1.46.28,2.11,3.25,1.57,3.89Z"/>
  <path class="cls-1" d="M2231.17,55.17c-2.81,4.09,1.05,4.1,1.04,4.49-.06,2.41-3.01,7.18-6.02,5.48.69-4-.59-9.18-4.99-6.98v-3.01s-2.51.99-2.51.99l-.48-1.97,12.96,1Z"/>
  <path class="cls-1" d="M83.79,48.17c1.73-2.09,2.24,4.09,3.98,2,.28-.34-1.26-5.05,5.33-2.66,7.89,2.86-8.5,7.8-9.8,7.65-2.43-.29-.63-1.95-.51-2.47.2-.92.85-4.34,1-4.52Z"/>
  <path class="cls-1" d="M147.62,60.14c-1.55.93-3.39-2.47-3.97-1.98-.1.08.32,1.78-.67,2.03-1.71.42-7.52-.94-10.32.95-1.35-5.93,12.69-6.94,14.96-5.5,1.8,1.14-1.5,3.1,0,4.5Z"/>
  <path class="cls-1" d="M2134.43,43.2v2.98c-2.91-.21-5.71,1.33-6.49-2-1.06,3.94-8.07,2.17-10.47-.49,5.43-3.13,11.14.26,16.96-.49Z"/>
  <path class="cls-1" d="M1852.16,47.18h3.49s-.5-1.98-.5-1.98l3,2.97h-7.99s.5-1.99.5-1.99c-2.68-.93-2.28,1.82-3.14,1.99-4.61.93-5.12-1.21-6.33-4.97,3.67-.18,7.55.7,10.96-1.01v4.99ZM1847.17,45.19c-1.38-.31-2.65.54-2.99,1.98h2.99s0-1.98,0-1.98Z"/>
  <path class="cls-1" d="M2360.83,63.14c1.96,6.92-11.99,4.26-11.94,2.49.09-3.2,9.68-2.59,11.94-2.49Z"/>
  <path class="cls-1" d="M1773.37,52.16c-4.26-.24-10.28.1-13.95,2l-1.01-4.98c5.5,1.4,11.15-3.05,14.96,2.97Z"/>
  <path class="cls-1" d="M118.69,60.14c-1.78,2.37-11.76-2.89-14.47-1.01l-.48-1.97,6.97,1v-3c1.83-.77,9.69,2.71,7.98,4.98Z"/>
  <path class="cls-1" d="M2019.7,50.17c.64.48.35,6,3.01,3.51l1.01-2.5v3.98c-5.1,1.02-4.87-2.07-6-2.98-1.88-1.51-1.81,1.72-3.21,2.3-1.26.52-4.6-.07-6.23.7l.38-1.52c-.26-1.38-2.51.89-2.87.51-2.94-3.09,4.94-2.34,5.3-2.39,1.71-.23,8.28-1.87,8.63-1.6Z"/>
  <path class="cls-1" d="M2149.13,43.56c3.24,1.86,1.09.06,4.87-.05.98-.03,7.1.42,7.36.68,1.23,1.21-.9,3.91-2.52,4-.38.02-.4-1.94-1.11-2.05-2.49-.39-8.42,1.59-11.34,1.03-.39-1.81,1.67-.63,1.99-1,.21-.24-4.53-5.64.74-2.61Z"/>
  <path class="cls-1" d="M347.1,42.21l-1.99,2.97,6.47,2.02c1.8-1.34-.99-.8-1.25-1.14-.13-.17.78-2.85-.24-3.86,5.92-1.97,4.49,5.4.1,6.51-3.33.84-2.7-3.9-5.09-2.52-.23.13,2.35,2.55-.48,1.99l-1.5-2-.99,1.99c-.22-3.63-3.1-3.15-5.99-2.99.9-5.69,1.05-3.14,4.45-2.98,2.17.1,4.35-.05,6.52,0Z"/>
  <path class="cls-1" d="M2249.12,51.18l-2.99,2.97c2.8.14,2.32,2.2,3.49-.98,6.89,5.1-6.84,5.87-8.46,2.48-.97-2.04,3.57-1.09,3.7-3.46l4.26-1.01Z"/>
  <path class="cls-1" d="M676.06,51.48l6.16,5.67c-2.08.45-3.63-2.1-5.43-2.05-.9.02-.78,2.6-1.96,2.81-1.06.19-4.68-1.52-6.56-.75l2.01-2.97,2.47,1.97c3.02-1.86-.53-2.81-.48-3.47.07-.94,2.8-2.24,3.79-1.19Z"/>
  <path class="cls-1" d="M1850.17,50.18c-.3,1.24-4.52,2.66-5.48,2.8-2.73.41-6.56-1.23-9.47-.83,3.45-5.06,10.01-1.71,14.95-1.97Z"/>
  <path class="cls-1" d="M125.68,55.17l-1.99,2.97c5.74,1.69,3.04-.23,5.97-2.98l1,4.98-10.97-1c-.54-.48,2.47-2.42,2-2.97-.32-.37-2.38.82-1.99-1h5.98Z"/>
  <path class="cls-1" d="M1962.89,54.16l-.02-4-1.98,1.01c.53-2.72-2.48-7.4,1.51-6.68,3.92.71,3.71,7.96.48,9.66Z"/>
  <path class="cls-1" d="M476.75,49.17l3.99.02c-.91,3.35-7.85-.23-8.7-1.29-.14-.17-1.42-3.58-1.27-3.7,1.5-1.16,9.22,1.49,5.98,4.97Z"/>
  <path class="cls-1" d="M2102.52,43.2c1.99-1.79,3.29,2.05,3.5,2.03,1.39-.15,5.96-2.25,7.46-3.03.44,2.03,2.06,4.72-1.23,4.79-1.01.02-12.6-1.2-9.72-3.79Z"/>
  <path class="cls-1" d="M2210.44,48.87c2.68,1.73,2.78-1.42,3.27-1.56.74-.21,6.33,1.6,8.49-.12-1.26,2.13-1.99,7.32-3.03,2.01-3,2.83-7.1.21-10.93.97,1-5.64,1.98-1.44,2.2-1.3Z"/>
  <path class="cls-1" d="M1796.3,49.19c-.27,1.99-3.08-.06-1.03,2.92-11.78,3.8-8.89-5.65,1.03-2.92Z"/>
  <path class="cls-1" d="M385.01,46.18c3.01-5.18,5.65-.95,7.47-.95.76,0,.36-1.59.65-1.81.48-.38.11,1.26,2.99-1.02,1.96-1.55,4.56,2.8-.67,3.79-3.29.62-7-1.09-10.44,0Z"/>
  <path class="cls-1" d="M1915.99,59.14c-.76,1.01-7.04,1.1-7.9-.06-.12-.16,1.13-2.61-.07-3.91.77.33,9.9,1.41,7.97,3.97Z"/>
  <path class="cls-1" d="M2033.69,51.18v3.97s-7.97,0-7.97,0c-.79-5.65,4.4-2.77,7.97-3.98Z"/>
  <path class="cls-1" d="M2003.76,52.19c1.96,2.41-6.64,2.23-6.97,1.97-.08-.06.83-1.64.53-2.04-1.16-1.53-4.33.26-3.51-2.94,2.09,1.03,8.63,1.38,9.96,3.01Z"/>
  <path class="cls-1" d="M1826.23,53.16c-2.93.22-7.89-.05-7.97-3.97,4.12-.37,6.7-.44,7.97,3.97Z"/>
  <path class="cls-1" d="M214.44,58.14c-.36.54-7.59,1.39-5.97-2.47,1.51-3.61,8.01-.6,5.97,2.47Z"/>
  <path class="cls-1" d="M2346.87,63.14c-.51,4.71-2.71,5.83-6.97,3.97-.79-1.02,5.37-4.53,6.97-3.97Z"/>
  <path class="cls-1" d="M2077.32,52.52c.38.21-.07,2.35,2.76,1.66.22-.05,1.16-3.65,3.49-2.01.15.11-2.08,1.96,1.01,2.47.33,2.19-4.81,2.92-5.79,2.35-.35-.2-2.36-3.99-4.19-4.33.23-1.05,1.97-.55,2.73-.14Z"/>
  <path class="cls-1" d="M1929.96,56.16c.83.71-1.62,3.6-2.51,3.97-1.4.59-2.74-3.93-5.46-2.99.89-2.26,6-.42,7.97-.98Z"/>
  <path class="cls-1" d="M69.82,40.21l-2,1.48,3,.99c-4.7,4.16-3.5.14-4.93-1.82-.67-.92-2.4-.12-2.04-1.65l5.97,1Z"/>
  <path class="cls-1" d="M1831.16,43.31c.22.3-.82,2.78.05,3.86-.93-.28-4.78-.86-4.96-1.03-.14-.14,1.26-2.58-.02-3.93.48-.34,4.66.73,4.93,1.11Z"/>
  <path class="cls-1" d="M2194.27,48.17c-1.95.28-7.68,1.58-7.96-1.49-.18-2.03,7.77-.68,7.96,1.49Z"/>
  <path class="cls-1" d="M1557.93,53.16v2.99s-4.98,0-4.98,0c.12-3.22,3.07-7.39,4.98-3Z"/>
  <path class="cls-1" d="M2234.17,49.19c-.11,1.95-6.43,3.5-6.98,2.98.44-5.99,2.31-2.63,6.98-2.98Z"/>
  <path class="cls-1" d="M334.13,47.17c-1.51,1.34-5.6-3.98-2.98-5.97s3.26,5.72,2.98,5.97Z"/>
  <path class="cls-1" d="M329.14,43.2l-3,1.49,3,2.49c-3.35-.39-3.77-4.06-5,1-5.49-4.16.93-5.26,5-4.98Z"/>
  <path class="cls-1" d="M1571.89,59.15c1.14,1.97-4.31,4.72-4.97,3.98-.71-6.12.79-2.91,4.97-3.98Z"/>
  <path class="cls-1" d="M1546.96,50.19c.99,1.33-3.73,5.49-5.96,1.48.74-1.87,5.12-2.61,5.96-1.48Z"/>
  <path class="cls-1" d="M2144.1,44.49c.36.33,1.41,2.58,1.3,2.68h-4.98c-.7-3.89.44-5.64,3.68-2.68Z"/>
  <path class="cls-1" d="M95.75,56.17l-3.01,3.97c-3.54.39.7-1.98-3.96-3.48l6.97-.49Z"/>
  <path class="cls-1" d="M321.17,41.21c-.6,2.95-6.62,2.33-5.98-1l5.98,1Z"/>
  <path class="cls-1" d="M89.77,60.14l-8.97-.98c3.74-.7,6.38-3.73,8.97.98Z"/>
  <path class="cls-1" d="M1693.58,62.13c-1.37-1.49-6.33,1.3-5.97-1.47,2.06-2.94,4.83-1.16,5.97,1.47Z"/>
  <path class="cls-1" d="M666.26,54.17c-.79,5.37-3.76,5.59-3.98,0h3.98Z"/>
  <path class="cls-1" d="M1539.98,49.18c.21.22-.11,2.18,0,2.98l-4.97-1c-1.27-.81,4.39-2.6,4.98-1.98Z"/>
  <path class="cls-1" d="M1781.35,49.19l-1.98,1.97c4-.3,4.69-2.65,5.98,1.99l-11.96-2.99,7.97-.98Z"/>
  <path class="cls-1" d="M2184.29,46.18v2.99s-6.97-1.01-6.97-1.01c.78-2.68,5.06-.38,6.97-1.98Z"/>
  <path class="cls-1" d="M2138.41,43.19c.14.15,1.17,3.86,1.01,3.98-.91.65-3.36-.24-3.97-1.48.66-.91,1.41-4.06,2.96-2.5Z"/>
  <path class="cls-1" d="M1010.36,58.16c1.87,1.88-1.03,4.17-3.98,1.98,0-1.7,3.33-2.64,3.98-1.98Z"/>
  <path class="cls-1" d="M1663.65,59.15c2.2,2.97-5.95,1.88-6.97,1.98-.23-1.7,1.99-.96,3.21-1.23.53-.12,3.64-.91,3.76-.75Z"/>
  <path class="cls-1" d="M1809.27,49.18c.74,3.92-4.03,1.22-5.97.98.37-2.21,4.35.71,5.97-.98Z"/>
  <path class="cls-1" d="M1152,50.18c-1.47,4.82-3.65,4.15-2.98-1.01l2.98,1.01Z"/>
  <path class="cls-1" d="M256.33,43.2c1.1,1.25-3.59,6.53-2.98-1l2.98,1Z"/>
  <path class="cls-1" d="M2167.33,45.19c.12.1.34,2.23,1.01,2.98h-2.99s0-2.98,0-2.98c.61.06,1.79-.16,1.98,0Z"/>
  <path class="cls-1" d="M290.24,48.19l-2.01,2.97c-.7.41-2.51-1.86-1.97-2.97h3.98Z"/>
  <path class="cls-1" d="M1963.76,57.28c.12.09.66,2.31,1.11,2.85-1.9.41-2.69-1.28-3.98-2.49.08-.91,2.53-.63,2.88-.37Z"/>
  <path class="cls-1" d="M792.93,60.15c1.04.97-1.87,4.55-2.98,1.48-.75-2.11,2.61-1.82,2.98-1.48Z"/>
  <path class="cls-1" d="M1799.31,52.16c-.34-.37-.63-3.73,1.48-2.98,3.08,1.1-.51,4.02-1.48,2.98Z"/>
  <path class="cls-1" d="M1817.25,50.19c.16.19-.06,1.36,0,1.98-8.28-1.85-1.99-4.42,0-1.98Z"/>
  <polygon class="cls-1" points="761.01 62.14 756.04 62.13 756.04 61.15 761.01 60.15 761.01 62.14"/>
  <path class="cls-1" d="M38.91,40.21c.2.16-1.46,4.51-2.99,2.98-.94-.95,1.76-3.97,2.99-2.98Z"/>
  <path class="cls-1" d="M1836.2,43.2v.97c-2.18-.37-2.16,1.09-2,3h-.98c-.1-3.49-.9-4.56,2.98-3.97Z"/>
  <path class="cls-1" d="M273.29,49.19c-1.15,3.78-2.23,4.03-2.99,0h2.99Z"/>
  <path class="cls-1" d="M1490.11,57.15h-2.99s1.01-2.99,1.01-2.99c.41-.48,2.62,1.75,1.98,2.99Z"/>
  <path class="cls-1" d="M1833.21,49.19v.97c-1.84.64-3.13.64-4.97,0v-.97s4.97,0,4.97,0Z"/>
  <rect class="cls-1" x="2240.16" y="51.18" width="2.98" height="1.98"/>
  <path class="cls-1" d="M1748.43,53.16h-1.98c-.32-1.47.44-2.07,1.5-2.98l.49,2.98Z"/>
  <path class="cls-1" d="M2207.24,49.17h-2.99s0-1.98,0-1.98c1.38-.31,2.65.54,2.99,1.98Z"/>
  <path class="cls-1" d="M99.74,56.16v1.98c-1.47.32-2.07-.44-2.98-1.5l2.98-.49Z"/>
  <path class="cls-1" d="M1822.24,45.18c.6-.65.99-3.2,1.49-2.98,2.41,1.08.97,3.3-1.49,2.98Z"/>
  <path class="cls-1" d="M1004.37,61.14l-2.98-2.98c1.82-.34,3.31,1.09,2.98,2.98Z"/>
  <path class="cls-1" d="M313.18,44.19l-2.98-2.98c1.82-.34,3.31,1.09,2.98,2.98Z"/>
  <path class="cls-1" d="M796.92,60.16c-.34,1.44-1.61,2.29-2.99,1.98v-1.98s2.99,0,2.99,0Z"/>
</svg>