<?xml version="1.0" encoding="UTF-8"?>
<svg id="Layer_1" data-name="Layer 1" xmlns="http://www.w3.org/2000/svg" viewBox="0 0 2388.1 96.56">
  <defs>
    <style>
      .cls-1 {
        fill: #fff;
      }
    </style>
  </defs>
  <path class="cls-1" d="M29.21,48.41c4.69-1.42,4.49,2.97,7.98,1-.98,2.72,1.21,3.41-2.98,2.99l1.98,1.97h-6.98s0-5.97,0-5.97Z"/>
  <path class="cls-1" d="M2243.42,44.43c.57.02,8.28-1.65,9.08-1.55,2.48.29,5.4,3.59,8.22,3.29,1.45-.16,3.12-1.72,4.86-2.02,8.69-1.48,19.4-1.18,28.26-.56,1.21.08-.33.72,5.2.12,4.81-.52,10.3-.09,15.2-.27l-1.01,1.98c2.12-.22,4.54.33,6.57.1,2.16-.25,1.12-2.49,1.91-2.08,4.51,2.35,2.42.67,5.95,1.01,1.77.17,2.99,2.34,4.95,2.06,1.47-.21-.07-4.74,5.57-1.06l-1.98,4.96c1.05-.81,5.44-2.63,5.77-3.21,1.43-2.47-2.32-4.71,5.19-3.76l-.99,2.98,4.96-1.96c-.24,3.47,2.16,1.22,4.16,1.49,1.42.19,2.83,1.42,3.39,1.49.49.06.14-3.27,2.43-1.99l2.02,5.97c-4.05,1.29-8.09-.05-11.48,0-5.56.09-17.08,1.62-21.69-.08-.76-.28-.72-1.78-1.19-1.78-1.77-.01-5.55,1.77-8.09,1.9-23.82,1.17-47.91-.25-71.87.07-6.12.08-40.39,2.48-43.33,1.35-.83-.32-1.58-2.16-2.43-2.23-1.05-.1-2.81,2.28-4.15,2.51-1.41.23-3.74-.96-5.83-.81-5.17.36-10.29.94-15.46,1.09.53-3.74-.65-3.15-3.99-2.99l2.98,2.98c-3.39-.49-7.04-.06-10.51.05-13.19.43-26.19-.48-39.96-.93-3.83-.13-11.68,2.91-12.86-1.13.58,2.56-11.36,3.07-11.98,2.87-2.86-.94-6.65-1.77-11.07-1.75-13.19.07-26.77,1.51-39.55-1.34-1.74-.39-3.06-1.83-5.26-1.87-1.89-.03-1.06,3.4-4.84,1.98-1.86-.7-.61-4.74-6.38-2.18-1.3.57-.69,2.14-2.65,2.37-9.04,1.09-19.67-.52-28.81-.69-37.12-.7-74.7-1.87-111.77-2.15-11.82-.09-23.71,1.01-35.52-.22l.5-1.99h-4.48s1.98,1.99,1.98,1.99c-4.57-1.16-10.56,1.31-14.47,1.1-2.49-.13-4.25-2.67-7.46-1.1,2.59-4.89-2.61-3.35-6.41-4.06-4.88-.92-10.84-1.4-15.99-1.43-2.8-.02-10.65,1.06-12.86.58-1.16-.25-.19-2.1-1.14-2.08s-.03,1.97-1.02,2.07c-1.82.18-3.05-1.46-4.8-1.8-1.87-.36-3.95,1.58-6.1,1.77-4.59.42-8.65-.38-13.06-.82-.85-.08-2.34.9-2.44.8-.19-.18-.43-5.19-1.5-5.01-.56,4.23-4.32.32-5.36,1.08-.95.7-1.26,4.57-5.82,4.77-3.13.14-1.4-6.13-4.36-3.17-3.65,3.64-10.31,3.11-15.46,3.23-.62.02-.15-2.13-.9-1.92-1.98.56-2.98,2.85-6.5,1.01,3.28,3.44,4.43,6.91-1.57,7.9-5.51.91-5.98.49-5.42-4.92-2.22.35-1.34,3.2-2.64,4.09-.57.39-7.5.9-8.76.92-7.86.13-17.04-.96-24.99-1.12-2.03-.04-4.57,1.36-5.89,1.16-.67-.1-.63-2.11-1.05-2.06-1.67.18-4,3.12-6.84,1.03-1.05-.77-.07-2.62-2.17-2.03-.46.13-4.13,7.28-7.49,2.01l5.97-2c-3.68,2.91-8.02-.99-8.48-.98-.86.02-1.65,3.45-2.92,3.64-2.36.36-8.33-.8-10.98-.7-3.5.13-7.44,3.46-6.55-1.96-1.81-.39-.63,1.66-1,1.99-.55.48-2.31-2.75-3.97-2,.21,7.74-7.48,2.28-10.45,2.42-2.27.11-8.98,1.78-11.35.38-.64-.38-.62-3.26-2.63-2.81-1.15,3.72,2.74,4.67-2.49,5.99-.36-.45,3.79-9.58-4.99,0,1.91-4.92-1.12-3.01-3.72-4.31-.19-.1-.4-3.12-2.27-1.66-.17.13,1.1,1.91,1.01,1.98-6.86.73-4.85-1.07-5.99-5.96l12.96-1.01c.02,1.92-4.28,1.3-4.98,2-2.07,2.08,6.05,3.9,5.98.99l-3.98-1c2.81-.4,6.28,1.01,8.95.59,1.52-.24,2.7-1.89,4.48-1.66.59.08.44,2.25,1,2.07,2.88-.92,6.05-.94,6.35-1.11.74-.43.2-3.52,3.66-2.92.46.08.4,2.07.99,2.06,1.48-.03,2.13-1.54,3.24-1.86,3.85-1.09,5.53,2.82,7.71,2.85.5,0,2.43-4.85,8.21-4.79,3.73.03,2.06,3.83,2.79,3.78.78-.05,1.83-.68,3.04-.77,4.52-.35,1.02-.14,3.4-1.72,2.56-1.7,6.6-.01,9,1.48l.02-2.99,8.45-.02c1,1.1-1.46,1.59-1.49,3.5-.05,3.16,2.74-1.78,2.95-2.02,1.66-1.92,7.49-.69,10.33-.89,2.25-.16,13.41-1.62,14.1-1.44.32.08,3.09,3.66,5.05,3.85.53-2.06.59-4.45,3.49-2.98.2.1-2.49,4.26,1.98,3.98l-.99-3.98,4.98-.02c-1.79-4.04-14.38.39-16.95-2.99s5.15-2.39,5.51-2.45c18.04-2.85,47.16,1.25,65.8,1.97,4.95.19,18.01-2.27,21.87.39.67.46.79,5.9,2.53,2.34.62-1.27-.04-3.48,3.56-3.19,3.22.26,2.39,3.79,4.96,4.03,3.36.32,2.36-1.83,3.46-2.55.76-.49,8.1-.51,9.55-.39.77.07.28,1.7.46,1.84.3.23,4.14-3.21,6.98-.98l-.5,2c2.02.45,2-2.38,2.64-2.81.6-.4,12.33,1.66,14.31,1.78s5.94-1.41,7.9-.74c2.03.69.33,2.81,2.08,3.75.67.23.53-1.69,1.53-2.4,4.75-3.37,3.73.21,3.96.4,2.05,1.63,1.97-2.04,2.54-2.03,3.14.02,8.33.97,11.89,1.11,3.9.16,10.1-.82,15.06-.14,1.98.27,1.27,2.15,1.93,2.12,1.59-.07,2.52-2.09,4.96-2.13,2.64-.03,6.63,2.73,10.09,3,15.1,1.18,30.77-.13,45.81.04,32.66.36,62.97.71,95.6-1.27,11.42-.69,24.75-2.6,36.13-2.57,3.35.01,7.75,1.99,10.8,1.82,4.05-.23,7.63-4.18,12.05,1.06,3-4.69,12.9-1.5,18.38-1.51,8.64-.02,18.45-.05,27.02,0,6.19.03,12.66-1,18.91-.47l-1.99,2.48c4.16,4.22,2.54-1.03,3-1.48.27-.27,2.99.53,4.11.41,9.97-1.12,17.49-.89,27.34.21,2.94.33,4.95-1.32,8.36.94,3.64,2.41.92,3.32.58,6.43,2.73-2.15,16.82.61,17.42-.02.25-.26-.29-2.92.46-4.02,2.16-3.17,17.9-.08,21.5.04-.59.23-1.11,3.07-.99,3.98l3.98-2c.04-1.23-2.3-2.26-2.99-1.98ZM2123.73,43.42l-2.98-2.98c-.33,3.24-.26,3.31,2.98,2.98ZM1687.87,47.41c-1.58-2.82-4.56-5.25-7.97-4.97.18,1.14-.76,2.8.74,2.97,3.86.44,3.42,2.53,7.24,2ZM1723.77,43.44l-4.42-.88-4.54,4.85,8.97-3.97ZM1675.9,45.43c-.32-.36-3.57.74-3.98,1.49,2.23,3.55,5.78.55,3.98-1.49ZM1866.4,45.43l-2.98.49c.91,1.06,1.51,1.82,2.98,1.5v-1.98ZM1880.37,45.43h-3.98v1.98h3.98v-1.98ZM2163.63,49.4c-1.08-4.06-6.43-.94-4.98,1.01.15.2,3.57-1.71,4.98-1.01ZM2183.57,47.43h-5.97s0,.98,0,.98c2.12.35,3.88.76,5.97,0v-.97ZM2202.53,47.43l-4.98.48c1.29,1.21,2.08,2.89,3.98,2.49l1-2.98ZM2236.44,47.43h-3.98s0,.98,0,.98c2.12.47,3.09,1.72,3.98-.98ZM2101.79,49.42l-2.98.49c.91,1.06,1.51,1.82,2.98,1.5v-1.98Z"/>
  <path class="cls-1" d="M324.23,44.2c.28-.16.07-1.83.72-1.81,1.36.04,2.05,1.47,2.96,1.6,1.19.17,10.06-1.42,12.93-1.48,6.15-.12,14.01.59,21,.72,2.35.04,8.62-1.32,10.81-.83.83.18.57,2.06,1.17,2.06,1.66-.01,2.72-2.42,4.97-2.08.67.1.24,2.38,1,2.05,5.58-2.48,16.34-1.35,22.98-1.27,5.14.06,11.78-.96,16.77.26,1.03.25.25,1.91,1.16,2.02l.49-2,9.72,1.26c-.53,2.36,4.92,4.4,3.25,6.71-.34.48-9.25-1.44-10.46-1.51-.83-.05-3.21.04-4.93-.02-3.44-.13-5.72,2.63-6.04-2.45-1.67.63-2.04,4.83-3.09,4.98-1.63.23-6.79-1.49-7.85-1.49-13.53-.03-34.72,3.3-47.72,1.05-5.34-.93-.27-1.27-.7-5.54-1.74.62-4.12,1.54-5.93,1.52-1.64-.02-2.35-1.49-2.54-1.5-.42-.02-2.2,1.56-.52,2.49s5.88-.49,5.01,1.97c-.22.63-3.59,2.22-4.5,2.37-.34.06-6.55.2-6.88.14-.72-.12-.52-2.16-1.06-2.02-1.2.32-4.06,2.51-5.87,1.98-.76-.22-.59-1.86-1.06-1.86-4.79.03-11.01,1.9-17.07,1.7-2.26-.07-5.43.13-6.68.03-1.76-.14-4.71-1.79-6.26-2.84l-1.47,1.98c.08-6.25-10.24-3.89-7.99-1,1.32,1.7,5.98-1.55,4.99,2-2.24-.1-12.88,1.02-14.04.5-1.32-.6-2.4-4.23-3.43-4.48-1.91-.46-2.03,2.35-3.17,3.05-1.59.97-11.24,1.53-12.28.93-.17-.1,1.54-3.72-1.49-2.98-1.18.29-1.54,4.04-3.97,4.02-1.04-.01-2.03-1.39-3.04-1.5-3.99-.46-9.1,2.47-8.96-2.53-1.67,6.64-11.83,1.48-13.82,2.02-.73.2-.6,1.95-1.22,2-.57.05-4.8-1.17-5.4-1.57-1.24-.82-.16-2.83-2.49-2.45-.96.16.78,3.61-1.15,4.05-3.98.91-13.4-2.58-16.7-2.11-.68.1-.57,2.02-1.23,2.11-2.47.33-12.05-1.72-14.42-1.55-2.71.18-5.81,2.19-8.91,1.49.51-.96,1.91-2.51-.5-2-3.97.83-3.1,5.04-4.02,5.02-.79-.02-1.94-.9-3.06-.88-13.3.17-26.47.18-39.8.12-4.8-.02-9.63.75-14.45.73l.99-2.98c-1.92-.09-4.13,2.89-4.41,2.87-.7-.03-1.88-1.04-3.08-.92-5.78.59-20.12,2.35-24.8,1.1-1.17-.31-.46-4.38-3.1-4.06-.18.82,3.06,4.92,0,4.97-3.53.06-2.26-4.69-2.5-4.97-2.36-2.78-1.17,3.69-2.63,4.04-2.98.72-15.23,1.03-15.83-3.05-1.87-.72-2.1,2.87-2.92,2.88-2.23.02-7.28-1.51-10.04-1.86-1.71-.22-8.41.7-8.45-1.5,0-.28,3.17-2.79.98-5.48,3.82-1.24.46,5.17,3.47,3.97.91-.36,1.76-1.74,3.71-2.26,4.45-1.21,11.18-.34,15.22-.73,1.73-.17,3-2.34,4.95-2.06,1.09.15.47,3.61,4.06,3.1.3-.04.45-2.71,5.02-2.52,1.78.07,7.05.78,6.95,2.5,4.86-5.24,4.41-1.14,6.99,0,.82.36.02-1.51,1.2-1.95,4.59-1.69,7.26.58,8.8.53.59-.02,1.26-.96,1.94-.99,10.09-.35,21.11-1.75,30.4,2.49-2.82,3.87,3.77,1.4,3.03-.06l-3.47-3.03c22.91.17,45.62-1.84,68.81-1,1.59.06,5.7-1.31,6.98-.77.32.13,4.53,4.99,5.48,3.79.7-.9-1.83-3.08,3.57-3.89,6.92-1.04,6.51,2.02,6.89,1.89,6.6-2.18,6.54-2.71,12.99-.24,1.6.61,6.32-1.87,8.67-2.17,2.6-.34,22.75-.22,23.76.41.2.12-2.32,3.91,1.48,3.99l-.49-3.99c3.45-.48,7.39-1.26,10.84-1.42,7.75-.36,18.64,1.7,25.5,1.43.59-.02.02-1.6,2.05-2.06,3.69-.83,12.69,1.16,13.27.82ZM321.44,45.43c-2.55-.63-3.29,4.45-3.97,5.98,4.28-.41,4.33-1.6,3.97-5.98ZM191.78,47.42h-2.98c.68,5.29,2.3,5.29,2.98,0ZM118.16,50.07c-.48-.27.44-2.08-1.17-1.65v3.98s3.97,0,3.97,0c.51-3.3-2.1-1.93-2.8-2.33ZM145.23,52.03c-.6-.34,0-1.95-.81-1.62s-3.31,3.27-2.49,3.98h6.98c-.35-1.83-2.32-1.61-3.67-2.36ZM271.58,50.42c-1.86-.27-3.46,0-3.99,1.97,1.86.27,3.46,0,3.99-1.97ZM132.93,52.41h-4.98s0,1.98,0,1.98l4.97-1.01v-.98Z"/>
  <path class="cls-1" d="M940.83,48.41c-.26,1.01-.87,3.84-1.01,3.99-.28.31-7.99.09-8.4.03-.86-.13-.38-1.62-.95-2.65-.24-.43-1.5-.32-1.47-.85.16-2.79,2.1-4.73-3.12-1.01,7.64,5.97-13.38,4.37-16.96,5.47.88-1.71,1.28-3.37-.98-3.98.86,2.47-2.63,5.05-4.51,4.95-.6-.03-1.36-.76-.77-1.94.06-.12.9.05.98-.18.65-1.86.49-4.82-2.19-3.82-3.63,1.35,3.16,7.68-4.49,5.96l1.5-3.97c-3.27,6.02-6.89-1.6-9.48,2.98l2.98,1c-5.51-.59-10.95.34-16.44,1.02-1.36-.55,1.26-1.83,1.43-2.59.74-3.45-3.44-1.6-4.49-1.55-.4.02-.1-2.7-3.58-1.27-2.32.95-1.75,3.18-4.35,2.43-.9-.26.16-2.46-1.48-2.02-.92,4.97,2.36,2.41,5.31,2.35,1.23-.02,2.73.94,4.03.72,1.15-.2-.05-2.51,1.61-2.07.84,5.87-1.06,3.09-3.99,4.45-2.43,1.13-3.61,2.93-6.55,3.43-6.81,1.16-22-1.46-29.76-1.71-9.99-.32-18.62-.46-29.12-1.06-6.17-.35-12.1,4.16-9.37-6.11h-2.97s.98,6.99.98,6.99c-2.82-.89-6.79-1.57-9.7-1.72-10.81-.54-23.93.2-35.55-.39-3.98-.2-13.37-2.85-16.64-2.61-2.82.2-4.9,2.5-8.43,2.76-4.08.29-9.68-1.05-13.94-1.1-5.01-.05-12.07.98-16.76.63-4.06-.31-6.46.15-6.69-4.55-3.18-.8-1.35,1.94-2.15,2.75-2.21,2.25-6.22-.28-7.75-.29-7.81-.04-16.55.5-24.54.41-7-.08-14.23-2.41-20.9,1.12l-1-3c-1.84.74-.37,2.91-.5,2.98-.6.31-11.93.63-13.5.53-25.02-1.51-50.73-3.62-76.21-4.17-4.76-.1-10.91,2.87-12.52-1.35-.16,2.52-6.59,2.22-8.91,1.99-1.27-.13-2.2-1.52-3.87-1.64-14.63-1.03-38.64,5.21-51.36-1.2-4.95-2.5-3.11,1.74-4.67,1.85-.22.02-1.66-2.3-3.95-2.03-.51.06-.42,1.84-1.21,2.03-3.42.84-7.5-.69-10.68-.67-4.55.02-2.32,3.69-6.75-1.7-.47-.58-3.57-.78-.33-3.62,1.89-1.66,2.92.05,5.02.04,3.96-.02,13.17-.01,16.72,1,1.07.31.39,2.34,1.16,1.98,4.5-2.11,11.55-2.22,16.94-2,1.85.07,3.64,1,5.5,1.01h-4.97c-.12,4.79,5.17,1.2,6.41,1.1,1.06-.09,3.21,1.25,3.55.89-.54-5.2,1.25-1.98,4.49-1.97,6.25.04,4.1.9,5.07,1.04,1.74.24,3.37-1.45,4.94-1.57,10.18-.74,21.17.64,31.26.91,3.21.09,6.75-.89,10.11-.41.45.34-1.91,2.72-.49,2.99,2.96.56-.4-4.44,4.48-2.99l-1.99,2.97c6.54,2.47,2.21-2.11,6.47-2.99,5.14-1.06,6.68,1.12,10.01,2.01.7.19.23-1.78.93-1.84,8.64-.76,17.63,1.12,26.05,1.77.43.03.32-1.74,1.09-1.92,3.24-.78,6.37,1.15,9.55.81s5.47-3.07,7.53-3.61c1.57-.41,3.09.51,4.35.26,10.04-2.02,3.82-.76,10.35.53,4.28.85,12.3-1.61,14.77-.87s2.35,4-.32,4.37c3,3.65,8.17.05,5.98-3.48l21.46,1.46c24.25-.75,49.46,1.67,74.05,3.25,6.19.4,13.15-.81,18.72-.55.21,0,1.49,2.61,2.96,2.81l.5-2.99,4.48,2.01c-.53-5.95,2.62.98,3,.97.82-.02,1.1-2.85,2.18-3.05,1.17-.22,3.09.67,4.64.72,1.21.04,2.74-.98,4.03-.71.88.18.56,1.98.65,2.04.57.39,1.48-1.52,2.44-1.62,1.11-.11,2.68,1.23,4.14,1.33,6.42.43,6.72-.1,11.99-1.34,5.82-1.37,15.96,3.25,22.29.66-2.85,4.3,3.75,4.84,1,0,3.96,1.91,6.86.18,10.43.1,1.61-.03,3.24.77,4.96.66,6.64-.4,13.49-1.4,20-2.78.22,0,.08,4.78,2.51,3,.69-.51-3.54-1.75,2.8-2.64,9.71-1.38,20.41-.65,29.45-1.7,1.45-.17,2.71-1.47,4.24-1.68,1.14-.16,2.56,3.07,4.96,2.98.76-.03.53-2.24,1.88-2.59,2.59-.67,8.85.57,12-1.31,2.74,1.32-.39,3.36,1.03,4.97l2.49-3.99c1.6-.37.52,1.05,1.48,2.02,3.11,1,2.58-2.53,4.1-2.95,1.11-.31,8.18,1.28,10.75,0,3.01,1.91-1.94,4.74,3.61,3.9l-.99-3.97c2.3.18,8.59-1.08,8.97,1.99-.41.29-1.79-.02-2.52.94-.58.77.56,1.9.52,2.05ZM907.92,48.41c1.51,1.51,4.25-2.97,1.49-2.97-.66,0-2.06,2.39-1.49,2.97ZM607.69,47.43c-.23-.23-3.2-1.11-3.98-1,.49,1.92,2.2,2.25,3.98,1.97-.05-.32.14-.83,0-.97ZM573.78,48.42c-.97-1.04-4.55,1.87-1.48,2.98,2.11.75,1.82-2.61,1.48-2.98Z"/>
  <path class="cls-1" d="M942.82,45.42c.5-.36.6-1.49,1.81-1.9,2.26-.77,15.9-.75,19.51-.8,1.04-.01,2.31,1.54,3.94,1.48,1.78-.07,3.63-2.05,5.65-1.76-.89,2.22-.12,6.05-1.52,7.95-1.85,2.51-4.43,1.13-3.47-1.98l-2.97,2-2.5-4.97c-3.61,2.86,2.52,1.76,1.49,4.97-4.23-1.99-5.77.8-9.99-1.45-2.04-1.09-.3,1.91-1.47,1.45-2.17-.85,1.04-3.76-2.49-2.99-.01,1.28-.24,3.45-1.51,3.99-1,.42.26-2.5-1.48-1.98.44,3.63-1.39.59-2.8,1.18-.2.08-1.14,3.62-3.18,1.81-.15-.14-1.06-3.79-1.01-3.99.04-.17,2.27-.78,1.99-2.99Z"/>
  <path class="cls-1" d="M1284.73,41.7c.48.29-.24,1.54.71,1.74,2.31.49,1.07-1.49,1.97-1.83,3.42-1.26,3.64,5.89,5,.82,4.78,4.74,2.66.15,3.01,0,3.43-1.46,7.84.82,11.07.89,1.8.04,3.42-.96,4.92-.93,4.53.08,8.7,1.05,13.41.05.28.23-2.55,4.92,1.49,4.99,1.2.02-.5-3.89,2.17-4.85.88-.32,17.4.54,18.64.83,1,.24.25,1.92,1.15,2.03l.49-2c3.24-1.44,5.8-.03,8.53.01,4.37.08,16.64-.65,19.88-.01,2.97.58,6.58,5.73,11.48,2.99.85,3.56-2.86,1.33-3.99,2-.11.06,1.18,1.72.04,2.51-.27.19-5.84.58-6.5.53-20.93-1.66-43.12-1.88-64.48-1.52-2.44.04-6.13,2.24-9.83.45.9-2.42,2.46-4.61-1.49-3.98l1.49,2.49c-.63,1.19-3.37,2.07-4.72,2.25-.99.13-10.31.04-11.6-.07-5.89-.49-10.78-.59-17.03-.72-1.68-.03-3.6,1.27-4.93,1.09-.65-.09-.63-2.09-1.12-2.11-2.76-.14-4.64,4.97-6.97-.96-.93.04-.02,1.76-1.14,2.03-2.85.7-10.17.15-13.67.32-13.18.63-26.57,1.51-40.02,1.69-20.17.28-39.89-.49-59.87-1.86-2.83-.19-6.04-.09-8.85-.46-.3-.04-8.84-3.24-4.53-.28.84.58,2.23.13,1.9,1.54-2.75,1.66-4.36-.85-6.52-.96-3.31-.18-11.08,1.23-13.87,1.03-.68-.05-.41-2.25-1.03-2.06s-1.48,1.43-2.42,1.57c-.25.04-4.9-.39-5.03-.61-.33-.55.09-2.12-.05-2.94l-1.98.48.98,2.5c-3.02-.32-6.65.46-9.54.09-1.46-.19-2.62-3.7-6.41-2.06l2.98,1.97c-6.04.61-12.62-.57-18.48-.49-4.83.06-5.05.23-10.1-.17-4.8-.39-8.82,1.87-13.31-2.81,3.69-.03.09-3.14,1.51-3.5.99-.24,11.08-.42,11.47,0,.43.46-.95,5.61,1.99,5.98-1.74-4.58-.18-5.18,4.11-5.68,12.98-1.51,35.65.96,49.26,1.79,2.31.14,4.39-1.05,6.03-.98,3.2.15,4.66,3.94,4.99,3.93,1.57,0,3.53-2.02,5.34-2.44,2.12-.5,14.1-2.1,15.06-1.6-3.03,4.36,6.27.35,7.76.18,2.89-.33,16.66-.72,18.22.3,1.17.76.13,3.04,2.43,2.51,1.04-.24.03-2.97,4-3.12,2.85-.11,4.04,1.77,5.76,1.85,7.04.32,16.71-1.22,24.16-1.16,6.92.05,27.27,2.18,32.79.28,1.23-.43,1.28-2.2,2.39-2.81,1.97-1.09,15.41-1.66,17.57-1.08,1.17.31.46,4.38,3.1,4.06l-1.49-3.99c4.56,1.38,18.45-1.75,21.74.26Z"/>
  <path class="cls-1" d="M1517.32,46.42c3.7-.2,14.68-2.66,17.25-1.02.64.41.58,1.96,1.37,2.04.33.03,6.29-.12,6.61-.21,1.55-.4,2.34-2.47,3.22-2.8,1.91-.7,2.65,4.48,5.45,4.97-.15-6.05,4.21-5.89,9.5-4.99,4.66.8.51,3.06.51,3.5-.01.53,2.06,2.02,2.97,1.49.24-.14-1.22-3.49,1.8-4.93,5.06-2.41,16.23,1.15,22.14-1.04,2.37,3.32-5.96,7.79-5.96,8.47,0,1.17,3.21.81,2.97,2.48-3.43,1.64-6.38-.18-9.96,0l4.98-1c-1.6-3.32-6.89-1.49-7,2-3.29-1.4-1.03-1.92.02-3.98-2.54-.35-5.04.33-7.53.45-.57.03-1.39-1.08-1.91-1.03-1.24.12-2.47,2.29-4.92,1.52-2.79-.88-.08-5.13-2.09-6.92-1.91,1.09-1.9,3.21-2.88,4.66-.36.54-1.51.27-1.6.34-1.15.97,3.52.68,1.99,2.97-2.26-.82-4.37,1.51-5.67,1.69-2.16.3-4.73-1.7-6.85-1.58-1.12.06-9.02,3.19-9.41,2.89-.22-.16-1.03-4.06-2.01-4.98l4.98-1.02c-1.44-3.69-2.19-.2-4.42-.07-2.36.14-5.45-2.19-8.58-.45-1.25.41-.06,3.39.06,3.52.33.38,8.65-2.98,6.96,2.99-4.42-2.11-4.03,1.04-4.49,1.04-1.59-.02-2.22-1.72-3.16-1.9-1.59-.31-2.37,2.45-4.32,1.86l.5-2c-4.02,2.54-4.95,2.53-8.96,0l.5,2c-3.06-.76-6.59,1.03-9.29.79-2.9-.26-1.89-2.35-3.67-2.77.09.74.2,1.66-.71,1.96-3.14,1.04-21.29,3.61-23.55,2.06-.93-.64-.61-1.97-.7-2.03-.31-.2-4.54,3.49-6.96,1.98.21-3.91,6.3-3.69,9.33-3,.75.17.55,3.4,2.64,2,.15-.1-1.31-2.35.51-2.98,4.24,2.54,7.79-.08,11.34-.37,3.87-.32,7.74.13,11.57-.65,1.75-.35,2.98,1.07,2.49-1.97-7.55,2.1-3.91-.65-4.98-2-2.19-2.77-1.85,2.86-1.99,3-.55.51-3.45-.89-4.59-.9-1.4-.02-2.72.74-3.88.69-7.42-.32-15.11-1.21-22.44-1.8.73-1.7,2.72-.94,2.04-3.9,7.22.13,14.24.38,21.45.93,6.34.49,3.89-1.1,10.93,1.99.62.27.16-1.38,1.24-1.93.71-.36,2.2.06,3.24-.59,1.69-1.05-.37-4.37,4.51-.48.63-3.15,3.13-1.03,5.47-1-1.53,4.17,2.04,4.54,4.98,5.98-.65-1.58-.56-4.82-.99-5.98ZM1573.17,45.43c-2.1-2.15-5.68.07-.49,1.98.86.13.56-1.9.49-1.98ZM1570.18,47.43c-.67-.79-4.98-1.44-4.98.97,1.68.39,7.36,1.83,4.98-.97ZM1544.24,49.42h-5.97s0,.98,0,.98c2.12.35,3.88.76,5.97,0v-.97Z"/>
  <path class="cls-1" d="M1517.32,46.42c-1.73.09-2.42.02-3.99,0,.44-1.19,1.74-1.13,2.5-1.97.72.55,1.18,1.12,1.49,1.97Z"/>
  <path class="cls-1" d="M1456.4,48.31c.25-.25.02-1.34.09-1.88,1.67-.46.48,1.9,1.55,2.07,2.29.35,4.12-2.28,6.41-2.07l-3.98,2,2.98,3.98-75.79-1.5,3.99-.5c-2.91-5.51,5.62-3.81,9.29-2.98,1.14.26.69,5.96,4.16-1.98l51.29,2.86Z"/>
  <path class="cls-1" d="M1016.4,44.17c.34-.19-.1-1.96,1.7-1.85,1.58.09,2.69,1.11,4.1,1.55s2.22-1.53,3.9,2.53c1.89-.78.37-2.89.5-2.96,1.58-.79,5.32-.34,5.48,1.98,2.7-4.33,5.3-1.86,9.49-1.99-2.94,3.78,2.92,3.35,1.98,5.47-.84,1.88-7.4,1.98-7.97,1.51-.42-.35,2.22-9.24-5.67-.15l-28.23,1.14c.97-2.24,5.54-3.78,6.97-4.99.58-.49-3.45-2.44-2.99-3.97,2.72-.82,8.81,2.78,10.74,1.73ZM1023.61,45.43h-1.98c-.32,1.47.44,2.07,1.5,2.98l.49-2.98Z"/>
  <path class="cls-1" d="M1004.66,42.44c.31,1.57-1.8.9-2.5,1.99-1.15,1.77.66,4.04-2.98,4.96l-1.5-4.96c-2.34,1.93-1.91,3.93-5.97,2.98l-.48-2.96c-4.34,1.01-.88,3.05-1.51,3.96-2.74.79-4.92.29-3,3-2.82.15-4.12-2.41-6.98-.99l1.99-3.49c-4.37-.93.62-5.23,3-3.48.27.2-2.87,4.75,2.98,3.97l-.99-4.98h17.94Z"/>
</svg>