<?xml version="1.0" encoding="UTF-8"?>
<svg id="Layer_1" data-name="Layer 1" xmlns="http://www.w3.org/2000/svg" viewBox="0 0 2388.1 96.56">
  <defs>
    <style>
      .cls-1 {
        fill: #fff;
      }
    </style>
  </defs>
  <path class="cls-1" d="M26.94,47.08c8.66-1.28,17.8-.69,26.63-.67,9.52.02,20.6.72,30.67.71,3.92,0,6.84-3.55,9.03,1.95,1.68-3.7,9.84-1.75,14-1.95,3.36-.16,7.51-1.71,10.96-.81.55.14.51,1.66.98,1.78,2.88.76,2.19-1.42,3.19-2.04,2.47-1.54,7.33,1.2,10.26,1.02.51-1.76-2.37-.46-1.99-1.48.88-2.34,11.41-.16,13.83-.11,22.95.46,46.4.19,69.6-.03,5.24-.05,7.95,2.28,9.98,2.47,1.07.1,5.42-3.34,7.32-1.83.28.22-2.11,4.45.52,4.97,2.98.59,1.44-3.37,1.93-3.97,2.61-3.24,6.77,1.76,4.55,4.96,3.45.98,5.1-6.01,5.52-6,6.27.68,13.69,1.67,19.9,1.82,12.81.3,25.91-.5,38.77.55,1.34.11,3.84,2.04,6.61.66l-.99,2.98c10.75,2.3,6.13-1.39,7.99-3.99.31-.44,8.57,1.85,10.52,2.03,1.85.18,3.61-.98,5.51-.6,2.35.46,1.78,2.47,1.93,2.56.51.31,1.74-1.82,3.4-1.91,8.85-.5,20.42,2.2,29.05,1.98,2.32-.06,5.25-3.35,8.19.2.18.22,1.39,5.43,1.19,5.65s-3.51,1.34-3.96,1.07c-.17-.1.76-1.58.51-2-.45-.75-7.52-1.82-9.01-1.82-11.44.04-23.64-1.15-35.42-1.72-3.35-.16-6.53.97-10-.02-1.65,8.02-8.85,3.19-14.84,3.08-24.99-.47-53.63-2.83-78.31-2.54-3.66.04-12.09,1.92-12.86,1.84-1.81-.17-3.06-2.71-6.09-2.83-20.98-.86-41.48,2.41-62.03,1.86-10.61-.28-21.34-.78-31.78-.92-5.03-.07-10.47,3.18-12.97-2.9-1.19.25.24,2.81-1.02,3.05-4.93.95-4.67-2.18-4.95-2.05-9.6,4.18-26.56,1.08-37.29.63-7.24-.3-13.91.62-19.56.35-2.19-.11-4.89.4-6.81,0-.83-.17-.68-2.68-2.68-1.98v-3.99ZM195.5,49.06c3.59,3.29,8.52-3.25,0-.97.05.32-.14.85,0,.97ZM218.44,47.09h-3.98s0,.98,0,.98c2.12.47,3.09,1.72,3.98-.98Z"/>
  <path class="cls-1" d="M1560.93,57.05c2.8-.32,2.18-5.5,4.95-3.01l1.04-3.97c-3.58.41-6.92-1.03-10.45-1.08-4.87-.07-8.92.47-13.98.41-5.57-.07-10.17,3.77-10.47-4.32,4.44.12,8.66,2.67,12.48-1.01,1.43,5.15,5.62-.71,7.9.01,1.21.38,1.3,2.61,1.67,2.88.55.4,11.21-1.69,13.48-1.75,3.77-.11,8.46.7,11.98.73,4,.03,10.98-3.21,10.84,2.14,2.21-6.04,4.64-.36,7.91-.93.23-.04,2.42-5.54,2.08-.06,1.38-.09,2.59-1.04,3.99-1.06,17.84-.31,31.46,1.14,48.65,2.74,3.96.37,8.95-.44,13.22,1.26,2.06,3.19-3.85,5.42,3.97,5.99,8.84.64,9.21-.78,18.95,2.04.54.15.43-2,1-2.07,1.79-.22,4.45,2.47,6.94,1.59,1.88-.67,2.51-2.82,4.2-3.32.56-.17,11.02-1.34,11.59-1.25,1.63.27,4.73,9.12,5.67,2.06l-2.99-1.99c2.31,1.79,10.59-1.42,10.96-1.01s-1.35,4.55,3.5,3.02c1.07-.34.19-2.66.5-3.02.22-.27,5.39,1.24,6.98.02-1.28,5.35-6.6,3.62-10.97,3.99l2.51,2.97.74-1.5c-.47-.89,2.63-.57,2.73-.48,1.31,1.18-3.68,3.35-.51,4.95,8.1-3.22,2.32-2.93,2.51-3.46.71-2,5.74-2,3.99-6.48,5.85-.06.99,6.53,5.47,4.97,1.78-.62-.35-3.7,2.49-3l-1.98-1.97c4.77-2.18,4.51,4.04,5.57,4.02,4.26-.09,3.11-3.94,3.95-4.1,1.84-.35,4.14.61,5.94.5,3.35-.2,14.05-2.52,16.27-.25,1.48,1.51-1.07,6.81,4.18,3.31-2.77-1.59-3.57-1.94-2.98-5.49,2.56.84,5.46.72,7.99,1.47,1.98.59,4.4,3.39,5.96,2.02l-1.99-2.49c2.44-.22,4.71.29,6.5,1.99,1.04-4.66,11.08.1,12.94.04.61-.02.06-2.78,1.99-2.04,1.42,4.85,6.27,8.21,5.99,1,3.75-.17,5.06,5.74,6.01,5.97,1.7.41,2.51-2.44,3.94-2.62,1.29-.16,3.49,1.26,5.17,1.29,7.64.13,15.11-.19,22.37-.18,3.47,0,10.42-2.28,14.21-1.51.78.16.71,2.05,1.18,2.08,2.04.11,3.84-3,6.92-3.09,2.56-.07,6.33,2.21,7.96,2.09.69-.05-1.1-1.47,5.07-1.23,5.37.21,3.17,1.13,4.05,1.25,1.84.27,3.38-1.53,4.88-1.63,1.9-.13,3.82,1.38,5.08,1.49.28.03.25-3.2,4.77-1.94.22.06,2.62,5.3,2.15,0,4.92,1.66,9.84.07,14.91.07,3.75,0,19.89,1.53,21.48-.09.25-.26-2.11-5.6,2.49-5.51,1.31.03,2.61,1.08,3.95,1.07,9.75-.1,26.04-1.88,34.9-.45,1.77.29,2.58,1.9,4.04,1.98.68.04-.02-2.06,1.96-2.15,33.43-1.36,71.86,2.03,105.76,2.92,4.54.12,6.67.42,11.12.34,9.53-.16,18.81,1.18,28.28-.17l-2.99-2.97c2.73-.34,2.38-2.07,3.48.98.67-1.08,3.66-7,4.06-7.06,2.35-.38,6.52,1.97,9.42,1.09l.48,1.98c5.07-6.63,15.92,3.02,21.97-3.98.95,3.38,1.72,1.16,3.78,1.39,3.82.43,11.79-.26,10.68,4.59l2.59-3.92,21.94,1.84c23.74.5,49.74,1.03,71.76,5.02,4.1.74,7.82-.9,10.91-.73,14.21.78,28.86,5.42,42.86,5.75,3.04.07,5.94-2.94,6.99,1.04,3.07-3.24,5.05-.96,8.24-.23,4.61,1.05,6.35-1.86,5.27,5.64-.13.92-5.38.83-6.35.58-.83-.22-.56-2.19-1.13-2.01-6.36,2.08-4.04.49-9.41.49-19.47.01-39.74-.46-59.43-.5-4.03,0-12.32-1.28-15.78-.63-1.09.21-1.74,1.65-3.16,1.68-.67.02-.33-2.09-1.01-2.07-1.48.04-2.11,1.6-3,1.67-.81.07-1.88-1.17-2.91-1.18-4.25-.04-11.27,1.02-15.08.65-1.97-.19-1.26-2.14-1.93-2.13-2.11.02-2.88,2.74-3.97,2.76-.34,0-3.77-2.08-6.45-2.21-1.37-.06-2.93,1.26-4.83,1.3-7.49.16-15.18-.69-22.67-.74-13.16-.09-27.04-.13-40.91-.15s-26.61-.61-39.87-.86c-6.85-.13-14.31-1-20.93-1.07-4.99-.05-5.64,3.05-6,3.02-1.52-.09-2.42-1.89-4-2.04s-3.34,1.11-4.97,1.01c-24.71-1.46-50.17-1.24-73.75-1.54-2.48-.03-5.07-1.28-7.55.02-2.18,3.38,4.78.17,2,4.51-.23.36-6.77-.74-8.42-.62-3.71.25-8.78,1.62-12.06,1.65-1.64.02-11.68-.75-12.72-1.01-1.11-.27-1.42-3-2.19-3s-1.07,2.72-2.19,3c-4.09,1.02-19.35-.65-24.62-1.13-2.09-.19-5-1.77-6.16-1.81-.44-.02-.28,1.62-1.07,1.86-.66.2-3.11-.66-4.36.06l.5-2c-4.8,3.95-5.97.84-9.13.31-4.17-.7-17.32-.44-22.97-.82-2.67-.18-6.01,2.17-9.07,2.29-2.43.1-3.83-1.4-6.24-1.44-2.37-.04-7.43,1.8-8.37,1.56-1.58-.39-.86-3.13-2.53-2.89-.52,5.3-4.09.9-7.01,2.43-1.72.9-1.85,3.42-2.01,3.55-.21.16-3-1.82-4.56-1.99-4.01-.45-11.42,2.37-14.88-1-1.87,5.06-2.24.52-3.21.03-.55-.28-5.57-1.83-5.96-1.84-4.19-.11-.94,4.8-4.29,3.8.29-4.76-.28-2.12-2.33-2.35-3.88-.43-9.34-1.07-13.09-1.69-1.61-.27-2.94-2.12-4.01-1.95-3.39.53.71,4.28,3.47,3-.85,6.07-4.91.46-5.48.23s-3.83.39-4.41-.35c-.23-.3-.3-6.09-3.57-5.88-2.5,2.69,2.31,2.83,1.48,4.48-1.42,2.81-3.52-1.29-4.97,3.01-.41,1.2,3.4-.51,2.98,1.48-3.84.69-7.31-1.01-11.43-.92-3,.07-16.12,2.76-17.48.92-.38-.51,1.73-2.21,1.64-3.45-.07-1.01-2.53-3.39-1.65-5.52-1.93,2.03-1.53,3.97-4.96,4.99-1.55-1.5-.78-4.84-1.01-4.98-.94-.54-5.79.37-7.48-.01-1.76,1.85,3.08.65,3.49,1.01,1.92,1.69-1.97,2.06-2.06,2.6-.3,1.79,1.07,3.58,1.06,5.36-2.69-1.78-5.71.63-6.47.61-.67-.01-1.46-1.16-2.27-1.3-2.19-.36-4.04,1.16-5.22-2.29l3.99.98-1.01-1.97c.22-.31,7.67-.9,5.48-4.02l-5.47,1.02,1.98,1.98c-7.02-2.64-4.83,2-5.92,2.56-.94.49-2.39-.46-3.1,0-.66.42-.61,2.26-1.64,2.51-.3.07-6.14.22-6.27-.06-1.58-3.25,4.61-2.9.49-5.97-2.18.6-3.24,5.74-3.52,5.97-.18.14-2.75-1.07-4.41-1.07-2.54,0-6.32.99-7.92.8-1.51-.18-3.3-2.15-6.06-2.77-.69-.15-3.65-.26-2.02,1.05l3.48.98c-3.56,2.05-3.78-1.28-5.5-1.98s-1.46,1.46-1.74,1.62c-4.8,2.92-.59-4.6-3.23-6.63.1,2.59-3.13,1.68-3.49,2.01-1.11,1.01,2.7,3.38,1.99,4.98-2.92,1.23-5.62-1.8-7.42-1.89-3.49-.17-12.48,2.28-15.23.55-.59-.37.12-1.64-.79-1.66-.45-.01.02,2.36-4.6,2.4s-5.11-.91-8.37-2.39c-.81-.37-.11,1.76-1.13,2.01-5.08,1.24-12.92-.04-18.32.97.46-1.25,2.02-2.14-.5-2.01-2.82.14-6.49,2.58-8.84,2.1-1.46-.3-1.34-4.79-1.65-5.07-.09-.08-1.46.9-2.3.69-1.21-.31-1.67-1.65-3.15-1.7-.45-.02-1.3,6.51-5.95,6.05-3.28-.32-4.07-2.96-1.55-5.03-5.78-.79-2.77,3.72-2.99,3.97-1.8,2.05-1.94-1.97-2.49-2l-3.49,2c-.37-1.28,5.87-3.45,3.98-4.97-.72-.58-3.18,1.29-4.46,1.55-1.63.33-3.2-2.22-4.01,1.45-1.04-5.42-4.66-4.08-2.5.98-3.62-2.85-5.73,3.09-7.48,2.97-2.88-.2.58-11.16.51-12.94l15.95.51c-1.18-1.79-2.8-1.29-4.49-1.52-2.25-.3-14.55-.86-15.27.25-.62.96.66,3.07-1.16,2.76,1.12-6.7-8.96-1.92-10.98-3-.13-.07,1.37-2.36-.5-2.98-.27-.09-.98,3.56-4.48,2,4.44,7.96,3.15,3.26,6.69,2.18,3.21-.98,10.13,1.09,11.83,3.77.84,1.33-3.04,6.05-1.57,9-2.28-.93-5.27.32-7.52-.46-1.18-.41-1.88-1.93-3.18-2.32-1.73-.52-7.65.01-9.72-.21-1.29-.14,1.35-1.8-.03-2.01l-1.49,4.99c-2.63,1.08-1.71-2.02-2.55-2.04-1.52-.03-4.26,1.84-6.42,1.05l.98-6.98c-4.17,2.65-4.41,4.56-9.96,3.98-.35-1.26.79-2.18.99-2.99-1.92.22-5.08-3.36-7.01-2.5-5.45,2.42.95,5.9,5.02,3.51-1.02,2.5-1.88,4.6-4.99,3.97l1.01-1.97c-4.83.44-3.7-3.71-4-4.01-1.82-1.84-5.32,5.94-7.48,1.99l1.5-1.01c-4.38-7.44-3.06,9.76-7.98,5.98-.47-.36,3.28-4.71,2.99-4.97l-3.99-2,3.99-.99c-2.28,2.02-4.94-3.14-5.98-1.99-.2.22,1.63,3.36.99,3.97-.31.3-4.04-.69-4.48,3.99l-2.49-1.49c.75-1.79,4.13.44,2.98-1.98-1.82-3.84-7.67-.02-5.97-6.5,3.73.08,5.59.8,5.99,4.98,3.1-.39.45-4.45.99-4.98,10.21,1.79,20.62,1.31,30.91,0,1.06,2.99-1.62,2.75-1.96,3.71-.28.81.11,1.72-.03,2.28ZM1577.88,51.06l-3.51-2.97-.47,1.97-5.99.02c2.05,5.14,5.83.34,9.97.98ZM1632.74,48.08c-4.12-2.91-3.62,5.09,1.99,3.97.3-1.56-1.7-.93-2.47-1.95-.44-.59.56-1.96.47-2.02ZM1623.77,56.05c.68.67,4.95-1.82,4.96-2.49.06-2.79-5.82-.62-4.96,2.49ZM1788.06,54.33c-5.15-5.57-4.2,5.48,1.26,4.72.06-1.52-.2-3.57-1.26-4.72ZM1658.68,54.06c-1.51,1.51,2.97,4.25,2.97,1.49,0-.66-2.39-2.06-2.97-1.49ZM1725.49,56.06c-2.2.33-5.13-1.99-5.98.98,4.86-.84,1.01,1.7,3.98,3l2-3.98ZM1594.84,61.03l-1.49-3.97c-2.62,2.4-2.4,4.79,1.49,3.97ZM1844.19,61.03c2,.98,6.16-2.57,4.97-3.98-.22-.26-4.89,2.91-4.97,3.98ZM1798.3,59.05c-2.21-1.57-4.36,2.61-3.98,2.98,1.8,1.78,1.94-1.77,2.5-1.74,1.68.12,1.9,1.8,1.48-1.24ZM1963.87,60.05c-1.38-.31-2.65.54-2.99,1.98h2.99s0-1.98,0-1.98Z"/>
  <path class="cls-1" d="M1102.13,59.04c-.21.13.9,3.2-3.42,1.93-2.4-.71-.41-3.52-.57-4.91l-2.48,1.99c-2.56-1.14,1.08-4.8-1.99-3.99-.31.08-3.08,4.15-4.49,4.5l3.98,2.48c-3.6-1.06-8.13.19-11.43-.06-1.89-.14-4.25-2.5-7.52-.93,2.09-3.6,5.14.14,2.98-4.98-3.71,3.4-5.16,1.78-7.97-1.5l1.49-1.5c-6.08-.71-.58,5.92-1.5,6.99-4.91-3.24-11.52-1.55-17.1-1.55-1.38,0-3.04-1.11-4.48-1.1-2.92.02-7.47,2.13-9.68,1.69-.73-.15-.6-1.99-1.28-2.08-1.6-.22-6.48,1.49-9.04,1.61-6.89.34-15.61-.98-22.8-1.11-1.09-.02-2.12,1.39-3.78,1.28-.33-.02-6.13-1.75-6.39-1.96-.6-.47-1.66-3.25-1.25-3.76,2.56.87,4.69,2.54,7.43,3.03.84.15,4.77.65,4.52-1.03l-5.97-.02v-.98c3.43-1.64,10.53,1.61,12.45,1.55.94-.03,7.94-2.14,8.49-1.57.39.41-.64,2.75.51,3,3.98.88,4.9-5.04,0-5.51-2.1-.2-4.78,1.35-7,1.31-2.66-.05-13.28-.38-14.81-.78-1.05-.27-.22-1.76-1.15-2.02-2.88-.78-.08,3.76-2.97,2.99-2.26-.86-2.13-5.9-4.58-3.34-5.1,5.34,1.81,3.75,2.06,8.33-4.73-2.39-11.83,1.17-15.35.98-.22-.01-2.97-2.78-2.59-3.46.71-1.29,2.63-1.22,2.98-1.52,1.29-1.09-2.73-.32-2-2.47.4-1.16,2.58-.12,3-.51s-1.39-3.52-1-3.98c1.61-1.88,2.11,1.89,2.62,2,4.96,1.06,1.8-1.05,3.86-2.99,1.48,4.14,14.92-.62,15.46-.02v3.01c4.49-3.73,8.7-2.86,14.19-2.73,1.7.04,3.59,1.38,5.29,1.3,1.56-.07,3.98-2.65,6.25-.4.19.19-1.05,2.68,1.2,2.82-1.03-6.66,6.16-1.32,7.5-1.32.75,0,7.97-5.57,9.5.85,1.09,4.54-7.18,3.78-8.02,4.47-3.23,2.67,6.26.36,4.5,2.99,2.72.86.96-3.37,1.49-3.99,2.09.34,3.34,2.22,3-.99l2.97,2.98c-.51-2.44,2.39-4,1.86-5.88-.04-.16-4.16-.22-.34-2.09,1.99-.97,1.52,1.99,1.49,2.99,1.64-.16,3.47-2.6,4.49-3,.76-.3.81,3.57,2.98,2.99,1-.27,1.08-2.87,2.19-3.07,1.77-.31,4.25,1.57,6.3.06-1.12,4.29,3.29,3.91,5.99,1.5l-2.98-1.48c3.48.61,7.14-.1,10.45-.04,4.42.08,11.09.61,14.87,1.07.64.08.31,2.97,3.96,1.95.99-.28-.16-2.4,6.16-2.02,13.34.79,28.06,3.27,40.89,3.57.65.02,3.67-1.64,5-1.38.72.14.47,4.21,1.88-.11,3.83,1.23,13.92,2.25,17.8,1.71,4.38-.61,7.85-3.83,13.69-1.75-.45,2.77-6.95-1.27-5.97,2.98,3.11-1.72,4.7.91,6.47,1.04.74.05-.08-3.13,2.5-2.02-1.79,3.31-.77,4.33,1.98,1.49l-2.97-3.48c2.04.42,8.81-.67,9.89.07s-.02,4.51.17,4.75c.64.84,8.28,2.63,9.89,3.16-.49,2.26-7.97,4.96-8.97,3.98l-.52-5c-1.69.98-5.28.6-6.52,1.48-1.61,1.13.34,4.66-3.44,3.55-.35-.1-.54-2.06-1-2.07-2.65-.07-6.36,4.64-12.02,2.25-5.14-2.18-.44-3.4-.42-3.69s-3.55-.88-2.02-4.49c-4.56,1.4-5.82,2.17-5.97,6.97,1,.61,6.84-3.39,5.99,1-6.89,1.55-13.05.11-19.96,0l1.01-1.97c-2.23-.52-4.56-.94-6.7-1.8-1.21-.49-4.63-4.37-4.28-.71.2,2.05,2.9.85.99,5.49-2.08.78-3.57-1.66-4.68-1.84-1.41-.23-2.87,2.53-4.21,1.76-.3-.17-3.74-4.94-3.08-5.9-3.66,3.57-2.86.18-5.62-.69-2.21-.7-6.51,0-7.33,2.67,3.13,1.36,10.93-1.83,10.96,3-1.66.28-6.1-1.33-7.33-.94-2.11.68,1.51,1.39-5.16,1.12-1.05-.04-3.05,1.1-3.44.82-.17-.12-1.23-3.75-1.02-3.99.44-.5,3.88,1.32,2.99-2-1.05.83-3.81-.1-3.9.07-.66,1.2.7,3.3-3.06,3.91.02-3.58,3.08-5.67-2.01-4.98l-1.98,2,2.98,1.97c-1.02.24-3.47-.31-3.98.01v-1.99s-2.99,0-2.99,0c.34,1.45,1.61,2.27,2.99,1.98ZM1034.3,50.07h-1.98c-.32,1.47.44,2.07,1.5,2.98l.49-2.98ZM1060.23,52.07l-3.97-1.01v2.99l3.97-1.01v-.98ZM1080.19,54.05c1.51,1.51,4.25-2.97,1.49-2.97-.66,0-2.06,2.39-1.49,2.97ZM1098.14,51.07c-1.51,1.51,2.97,4.25,2.97,1.49,0-.66-2.39-2.06-2.97-1.49ZM1193.88,56.05c2-1.44-.47-7.31-2.99,0,.83-.12,2.65.25,2.99,0ZM1088.16,55.06c-.75-.66-4.31-.17-2.98,1.99h2.97c-.04-.63.14-1.87,0-1.99ZM1177.92,55.06c-3.21-.87-2.5,3.23-.49,4.98l.49-4.98ZM1136.04,57.06h-3.98s0,.98,0,.98c2.12.47,3.09,1.72,3.98-.98Z"/>
  <path class="cls-1" d="M1529,46.1c.12.16-1.29,2.61.01,3.96-4.32-.4-8.35-2.1-11.96,1.51,8.79,1.34,3,3.46,2.93,6.92,0,.3,4.18,2.66,4.05,4.53-4.38,1.5-2.29-2.89-3.54-3.01-4.16-.42-4.75,1.93-5.05,1.97-.22.03-4.21.21-4.37.05-2.19-2.21,6-2.53,4.47-5-3.41,1.76-5.96.05-9.46.02l3.98,2.98c-3.23-.2-3.75,3-7.52,2.55-2.49-.3-3.65-2.99-4.91-3.16-3.07-.4-2.35,1.22-8.04-.38-.67-.19-.3,2.18-.95,2.01-2.52-.65-5.92-3.03-8.98-3-2.39,3.65,3.15.59,3.47,2.99-5.83,1.92-4.94-2.95-5.49-2.99-2.26-.17-1.83,2.7-3.18,3.02-2.02.48-5.05-.34-7.27-.03l1.99-2.48-3.98-2.49v4.98s-8.99-1.99-8.99-1.99l-.99,1.99c.6-6.94-4.56.07-6.7.8-3.89,1.32-3.24-1.9-3.75-1.81-2.64.47-5.84,3.61-11.19,3.66-4.23.04-12.43-1.36-16.72-1.47-8.57-.23-16.93-.19-25.48.81l.5-2c-6.93,3.65-11.4.25-18.44.02l1.99,1.97c-3.42.91-3.26-.84-5.41-2.05l.42,2.05c-2.69.44-5.7,1.56-8.28.03-.66-.39-.6-2.03-1.26-2.03-3.59-.03-4.39,3.38-7.4-2.48,4.23-1.64.74-.54,0-2.48l3-.02-1.02-1.98c3.82.38,10.09-1.93,10.06,3.42,0,1.1-2.51-.15-2.07,1.55,5.5,1.27,1.67-3.53,1.98-3.97,1.3-1.81,17.38.53,20.62.62,10.26.26,21.39-1.56,31.25,2.36,1.84-4.91-5.72-2.33-6.98-4-.09-.13.9-2.86,1.02-2.97.15-.14,2.86,1.43,3.98.98l-1-1.97c7.75-2.87,15.93-.32,23.49-.56.89-.03,2-1.15,3.53-1.17,4.56-.07,12.36-.71,16.34-.31,1.33.13-.83,4.02,2.52,3.03.11-.77-.51-2.89.55-3.06,2.19-.35,8.91-1.36,7.45,1.06h.97c-.44-3.59,2.85-1.3,5.16-1.53,5.32-.53,8.07-.33,13.37-.4,1.67-.02,4.23-1.2,4.42-1.06.21.15,1.3,4.62,1,4.99-.24.29-1.51-.85-2.36-.76-1.03.11-2.97,2.13-.11,1.79,1.06-.04,5.07-.61,5.47-1.04,1.76-1.91-3.76-2.05-1.99-3.96.98-1.06,15.38-.45,18.09-.58,2.37-.11,15.35-2.37,16.8-.42ZM1504.06,54.06c.28-1.78,1.88-4.02-.5-4.97-2.41-.96-2.96,4.39.5,4.97ZM1484.99,50.22c-3.37-1.96-5.09,4.54-4.85,6.83,5.96,1.18,3.71-1.38,6.98-3.47-1.16-.42-1.84-3.18-2.13-3.35ZM1475.15,51.07c-.98.16-3.68-.27-3.98,0-1.82,1.61,4.39,4.96,3.98,0ZM1425.28,52.07c-.55-.56-5.01.06-4.98,1.98l4.98,1.01c-.09-.8.2-2.79,0-2.99ZM1450.4,53.8c-.45-.4.19-2.07-.68-1.73l-2.49,3.98c2.91-.25,4.51-2.66,5.47,1l3.5-3.98c-1.7-.3-4.4,1.97-5.8.73ZM1469.05,53.19c-.35-.26-2.79-.55-2.88.37,1.29,1.21,2.08,2.89,3.98,2.49-.45-.55-.99-2.76-1.11-2.85ZM1493.1,55.05c-2.58-4.72-3.72-.67-4.31-.34-1.19.66-2.94-.34-2.66,1.33,4.24,1.26,3.32-3.13,6.97-.99ZM1430.26,55.06c-1.87-1.53-3.15,1.86-.47,2.98,2.36.99.65-2.83.47-2.98ZM1381.4,56.06c-1.51,1.51,2.97,4.25,2.97,1.49,0-.66-2.39-2.06-2.97-1.49Z"/>
  <path class="cls-1" d="M589.47,50.07c10.22-3,30.14-1.87,41.46-1.88.33,0,.55,2.85,5.41.89.35,2.05-2.91.17-3,1.49-.22,3.17,3.95,4.41,3.98,4.96,0,.13-.88,2.41-.99,2.49-.89.72-4.23-.9-5.58-.9-5.31,0-9.48-.37-14.82.95l-35.44-1.05c-.52-1.43,3.98-.82,1.98-2.98-.84-.9-3.93,3.72-5.44,4-3.34.62-7.1-.67-10.04-.53-1.47.07-2.8,1.17-4.08,1.17-3.67.03-7.69-.37-11.34-.67l3.98-2.97c-4.08.72-4.39,2.5-8.46-.03-.7,6.38-8.45,2.71-12.99,2.57-2.27-.07-4.69,1.3-6.03,1.32-.27,0-3.8-3.6-3.94-3.83-.59-.96,1.26-2.67.02-3.02l-5.48,6.97-3.48-4.02.47,1.52c-2.98,3.94-8.04-.3-10.45-.07-.87.08-2.1,1.51-3.99,1.66-10.49.84-5.65-5.94-6.51-7.07l-2.98.99c2.14-3-1.12-1.5-1.01-2.49.25-2.16,11.91,1.17,13.48,1.01,1.26-.13,3.32-2.35,5.48-1.5l-2,2.96c1.51.07,7,5.28,6.96,1.51,0-.27-3.23-2.76-.33-4.55.97-.03,5.18.85,5.34,1.07s-2,3.61-.5,3.98c3.08.76,1.24-4.85,1.48-4.98,2.26-1.22,21.11.67,25.5-1.09,4.29,4.6,4.54.03,4.94.03,2.16,0,5.37,3.45,8.98.08,1.65.61.51,2.67.67,2.83,1.74,1.79,4.49-.05,3.81-.86-.31-.37-2.39.81-1.99-.99,8.71-1.83,18.11.34,26.91-1.01.04.66-.03,1.33,0,2-.54.16-1.67-.23-1.98.03-.11.1.95,1.88-.02,2.95,2.57.52,2.13-.64,1.99-2.98ZM503.68,53.08c-.19-.21-3.01-.62-3.49-1.99l-3.48,3.96c.28-.54,9.43.75,6.97-1.97ZM557.56,56.05c.78.62,2.38-.59,2.97-1.49-3.16-4.94-4.72.1-2.97,1.49ZM567.52,52.07c-5.22.42-6.09,3.81,0,2.97v-2.97ZM630.38,56.04c.37.23,2.21-.92,1.49-1.99-.93-1.38-3.82-2.11-5.5-1.98-.28,1.64,1.89,1.02,2.76,1.67,1.64,1.22,1.13,2.23,1.24,2.3Z"/>
  <path class="cls-1" d="M660.3,51.07c.29.23,2.09-1.77,3.51-2,.86-.14,9.39-1.1,9.89-1.05.25.03.4,2.74,4.04,1.82,3.99-1.01,2.43-.29,7.24-.05,16.24.81,33.48-.38,49.69-.4,9.09-.01,17.06,1.4,25.9-.26,1.43-.27,2.98-.02,4.42-.04.53,1.39-4.03.88-1.98,2.98,1.03,1.05,4.3-2.95,4.59-2.96,3.14-.11,9.54-.13,12.74.1,2.9.2,5.55.49,4.59,3.86-4.75-2.69-2.01,1.16-3.92,2.53-3.68,2.64-15.19-1.97-20.52-1.05-1.74.3-4.07,3.94-2.99-.5-11.47,3.01-23.4.73-34.96.16-4.1-.2-3.85,2.62-5.92-3.13l-.5,3c-3.65-2.17-2.87.86-3.42.87-7.15.05-14.44-.93-21.04-2.88-.57-.17-.31,1.94-1.09,2.06-1.35.21-3.46-1.51-5.36-.06l.99-2.98c-2.81-1-1.69,2.27-3.63,2.89-4.06,1.31-10.79-2.91-15.32-.9,5.94,6.51.48,6.43-5.99,5.97-.67-5.05,1.4-2.05,4.99-2-.16-4.51-1.19-2.13-2.67-3.25-.78-.59-1.1-2.62-1.81-2.67-.17-.01-.99,1.24-2.01,1.39-4.66.69-21.13,2.6-20.44-4.44,3.53,2.11,16.87-.8,19.33.16,1.64.64,1.46,2.7,1.63,2.83Z"/>
  <path class="cls-1" d="M856.51,49.31c.18.08,1.21,2.58,2.77,2.76.54.06.12-1.81,2.34-2.41,6.45-1.75,14.47.68,21.08-.57l-.99,4.98c2.5-4.03,3.09-1.74,4.89-2.5,2.02-.85,6.11-5.25,6.08-.5h.97s.64-2.06.64-2.06c4.99.51,9.93.6,14.94.95,1.42.1,2.85-.78,3.89-.68,3.3.32,7.52,2.53,10.04,2.75.35.03.2-2.98,2.91-1.94.87.53,2.13,2.21,1.5,2.98-.28.34-2.41-.78-1.98.99l2.98,2c-1.98-.56-5.94.09-7.48-.22-.56-.11-.17-2.65-3.87-1.78-.64.15-.56,3.15-3.09,2-2.23-1.02-.85-4.82-2.06-5.04-4.61-.82-9.53-.08-5.43,5.04-2.11.64-5.13-1.97-6.47-1.95-1.65.03-8.79,4.04-11.27,2.69-.28-.15-.2-1.7-.64-1.68-1.48.06-4.58,1.95-7.11,1.98-3.19.04-4.66-1.76-6.09-1.86-2.44-.18-11.33,3.97-14.81-1.16l-.47,1.97c-4.23,1.71-5.17-2.03-5.5-2.02-1.65.04-2.8,2.44-4.87,2.11-1.03-.16-4.36-5.19-3.6-7.05,2.56,1.47,9.02-.53,10.71.23ZM866.74,53.07h-3.98s0,.98,0,.98l3.97,1.01v-1.99Z"/>
  <path class="cls-1" d="M1282.65,50.07c6.39-1.62,7.93-1.44,14.47-1.51,2.13-.02,3.14-2.04,6.46.53.44,1.62-1.71.62-2.01,1.47-.59,1.63-.15,3.1,2.01,2.5.73-5.28,1.04-5.39,6.25-4.72,1.11.14,2.16,1.15,3.39,1.41.25.05,5.79-1.01,3.86,1.32-1.17,1.41-3.66.11-3.5,1.98,1.4.09,3.02-.53,3.98,1.01-.53.19-1.79-.22-2,0s1.86,4.35,1,5.98c-4.1.18-8.16,1.1-10.61-2.39-.78-1.11.13-4.2-2.37-2.09l1.01,4.47c-2.17-.44-4.53.59-6.5.51-1.41-.06-5.3-.35-6.97-.5-7.7-.69-8.68.51-8.48-5.99,3.97-1.74,4.69-2.28,0-3.99ZM1310.58,55.05c.23-1.84.06-2.93-1.51-3.97h-1.48s0,3.98,0,3.98h2.98Z"/>
  <path class="cls-1" d="M1317.56,54.06c.98-.35,1.84-1.13,2.99-1.01l-1.99-3.97c3,2.01,7.39-3.53,6.99.98,1.68.41.64-1.39,1.11-1.76,1.66-1.3,7.62,1.77,8.34,1.8.38.01,1.18-5,5.49.47-3.71-.3-6.32,1.16-9.96,1.5l-.99-2.99c.23,2.91-3.76,2.59-6,2.99.05,2.21,2.71,1.03,2.86,1.17,2.11,2.07-1.13,4.57-.86,4.79,1.12-.59,5.44.06,5.76-.17,1.27-.94,1.1-4.18,5.71-2.81-.5-5.95,2.73.05,3.05.06,1.1.02,6.27-2.2,5.43-3.04-6.2-.69-3.86-2.38.55-3.98,1.52,4.5,1.14.05,2.02-.1,2.25-.39,3.91,1.86,4.93,2.08.52.11.34-1.45,1.23-1.93,3.68-1.99,4.37.55,6.5.67,2.44.13,6.34-2.45,8.7.76l-1.99,1.48,1.99,1c-7.4.42-15.12.1-22.93-.98l5.98,6.49c-1.42,5.59-5.46,2.57-8.6,2.62-9.33.14-18.95-.5-27.3-.14,2.59-.47,2.03-4.33,1-5.98Z"/>
  <path class="cls-1" d="M1282.65,50.07c-.9,1.5.03,3.12,0,3.99-1.14.5-2.74.71-3.99,1.01,1.36,1.96,2.51,3.35,1.99,5.97-2.68.79-1.48-1.37-2.73-1.93-4.84-2.15-4.18.69-4.97.87-1.24.28-15.51,1.79-13.24-.92.31-.37,2.39.81,1.99-.99-1.15.25-4.49-2.35-3.98-2.98,4.54-.24,1.59-3.32,2-4.01.07-.12,2.81-.01,2.88.11.36.62-.22,2.38.17,2.76s2.84,0,4.13.37c2.02.59,3.22,3.51,4.77-.24l-2.99-1c2.87-.02,7.27-2.34,4.97,2.47,2.56,1.92,2.11-3.52,5.5-5.56,2.3-1.39,3.18.17,3.49.09Z"/>
  <path class="cls-1" d="M1220.67,49.9c.2-.14.11-1.86.69-1.9,1.91-.14,5.07,2.74,5.95,2.74,1.03,0,3.28-3.26,5.95-2.66,2.19.86.2,3.56.53,3.91.26.28,5.9,1.89,6.92,3.2.65.83-2.62,3.35.54,2.86,1.52-.61.59-2.41.85-2.75.43-.57,1.91-.76,2.56-1.8,1.07-1.7.31-4.77,2.47-4.31,5.17,1.1.5,2.44.57,5.36.03,1.05,2.49-.22,2.04,1.5-4.65-.29-7.65-.62-6.98,5-7.3-1.22-9.89,1.41-4.98-6.98-.99-.78-10.02,3.09-7.5,4.96l2.5,1.01c-1.32.09-2.43.17-3.71-.32-2.36-.91-2.25-8.7-6.26-2.67,1.95-.21,2.31-.05,1.99,1.98-4.59,1.87-9.05,4.87-8-2.25-2.03-.17-1.72-5.21-3.94-3.69-1.82,1.24-1.36,5.4-3.01,6.95l2.99,1c-5.33,1.2-5.36-4.19-5.99-7.96l-2.48,2.98-5.49-3.97c3.31-1.96,6.71-1.33,10.24-2.08.8-.17.63-1.66,1.2-1.73,3.11-.38,9.91,1.93,10.34,1.63ZM1230.79,52.07l-7.47-1.02-.51,3,2.49-2c0,2.61,6.16,3.62,5.49.02Z"/>
  <path class="cls-1" d="M459.81,58.05c1.82-.65.23-3.07,3-3.49l-3-2.48c3.78-2.06,2.74,1.06,3.5,1.02,1.45-.06,2.16-1.6,3.14-1.72,1.11-.15,9.31-.47,9.79-.37.74.15-.43,4.93,5.51,3.04l-3.99-2.97c1.25.34,4.8-1.02,5.47-.83.35.1,3.78,3.02,6.18,3.5,1.19.24,2.71-.96,3.3-.68.17.08-.1,3.57-.2,3.73-.41.67-3.17,1.15-2.82,3.25-4.58-3.22-8.27-3.52-13.48-2.87-.94.12-.3,1.98-.46,2.87-1.8.2-.01-1.84-2.41-2.08-2-.2-8.16-.28-9.87.11-.8.18-.82,1.9-1.17,2-3.53,1.01-2.25-1.84-2.49-2.01-1.45-1.06-10.15,1.93-11.47,0-.61-.9-.35-2.83-.51-2.99-.92-.93-4.57,2.64-3.97-.48,2.38-2.47,3.47-2.75,5.97-.51l.49-2.98c4.1,1.58,9.2,1.37,9.49,6.96Z"/>
  <path class="cls-1" d="M821.85,49.06c.27.33-.16,2.2.01,3.01,2.95-1.87,8.99-3.09,12.49-2.81.27.02,1.07,3.17,3.47,1.8.13-.07-2.38-2.57.48-1.98l3,2-.5-2h4c-.12,10.17-1.35,5.62-6.9,5.44-1.22-.04-1.98,1.11-2.72,1.14-2.43.11-4.88-.49-7.33.38l1.99-2.49c-2.13.23-7.01.85-9.21,1.56-.94.3-1.48,3.07-4.15,2.98-.69-.02-4.59-5.28-2.59-7.03l-2.98.99v-2.99c2.37,2.71,10.61-.45,10.96-.01Z"/>
  <path class="cls-1" d="M804.79,50.91c.33-.26-.29-1.83.6-1.85l4.5,2.01-4.98,1.97c2.94-.28,5.77-.09,6.98,2.99-9.17,1.41-17.88-.05-26.92-1,.47-2.95,7.42-1.42,7.98-1.97.34-.34-.36-3.65-.01-4.01,1.53-1.59,11.39,2.23,11.86,1.85Z"/>
  <path class="cls-1" d="M403.74,54.45c.16.08.12,2.89,2.19,1.58.18-.11.2-2.74,2.53-2.98.45-.05,5.23,7.38,5.48,1.01,1.97-.22.05,2.46,1.97,1.98.07-1.05.38-2.29,1.47-2.68.42-.15,8.44-.45,8.88-.37.33.05,2.44,6.02,2.63-.94,2.66-.26,3.64,3.68,2.06,4.55-1.41.78-2.78-.24-4.15.02-6.02,1.14-6.81.57-12.35.67-3.2.06-13.06,2.29-14.98-.23-.3-.4,1.46-2.92-.99-2.02-1.06.39-.48,2.22-1.96,2.68-1.12.34-6.59-.87-8.53.31,3.1-4.77-5.69.29-5.96,0l-1-5.98c3.75,1.8,9.49-.11,12.53.11.84.06,9.54,1.95,10.18,2.27Z"/>
  <path class="cls-1" d="M956.53,52.06c.3.22,5.05-3.68,6.95-2.99l-3.98,2,1.98,1.97c-4.82-.37-2.09.6-2.26,1.77-.49,3.37-6.16,1.78-3.72-.76-3.31,1.16-5.51,2.8-9.37,2.05l-3.6-6.04c2.94-1.69,8.34.72,9.46.64.8-.05,1.92-1.87,2.98-1.66s1.4,2.91,1.54,3.01Z"/>
  <path class="cls-1" d="M1393.37,49.08c.11.15-1.11,1.29-1.01,1.97,1.55,1.13,4.25-4.21,7.29-2.02,1.14.82.59,4.3,2.17.02l2.5,1.99c-5.18,2.61-9.66.47-14.3.36-2.44-.06-7.74.89-9.01.72-1.07-.15.16-2.67-2.11-2.06-1.17.31.35,2.35-1.49,1.99l-1-3.98c2.29.69,16.17-.1,16.96,1Z"/>
  <path class="cls-1" d="M942.53,55.05c-3.55-2.24-2.68.4-3.51.7-6.86,2.43-5.45-2.07-8.45-6.67,4.64,1.75,11.7-1.11,11.96,5.97Z"/>
  <path class="cls-1" d="M1247.75,61.03l3-5.99c3.64,2.29,2.64-.22,4.97-2.49l-2.51.49c-2.51-1.62,2.87-3.1,3.99-2.98,2.1.24.95,1.51.54,2.51-2.58,6.26-.67,9.75-9.99,8.46Z"/>
  <path class="cls-1" d="M647.14,54.31c.32.28.22,1.22.19,1.73h.97c-.66-3.69,3.67-.31,6.36-1.66,1.09,1.91,6.15-.13,5.6,2.14-.78,3.22-3.67,3.02-6.53,2.6-2.21-.33-1.21-1.87-1.45-2.04-2.02-1.48-1.9,1.58-2.44,1.78-2.81,1.03-8.87-3.33-9.5-2.8l.5,2.98c-2.9-.28-2.98-3.8-1.34-4.82.71-.44,7.06-.41,7.64.1Z"/>
  <path class="cls-1" d="M973.4,53.95c-2.2,1.62-7.95,3.14-9.91,1.09-1.54-1.62,6.74-5.95,7.51-5.87,1.06.11,1.91,3.67,2.4,4.78Z"/>
  <path class="cls-1" d="M439.67,52.32c.32.27.22,1.22.2,1.72h.97c-.55-1.55.8-3.04,2-1.98.29.26-.87,1.55-.72,2.34.34,1.78,2.02,2.71,1.71,4.63l-7.97-1.01,2-1.48-3-.51c-.4-1.76,1.56-.62,1.91-1.04.29-.35-1.33-2.57-.92-2.93,1.15.13,2.99-.42,3.8.25Z"/>
  <path class="cls-1" d="M1544.98,62.03c1.64.43.46-1.74,1.63-2.01,1.55-.36,3.66.23,5.34.03l-.48,1.97c-2.87-2.53-2.27.83-3.15,1.02-1.35.29-6.59.23-4.34-2.5l1.01,1.5Z"/>
  <path class="cls-1" d="M1269.69,48.08c-1.21,2.96-6.13,2.69-7.97.48l7.97-.48Z"/>
  <path class="cls-1" d="M1770.39,63.03l4.98-1.98c-.94,4.27-3.42,2.95-6.98,2.97l1.01-2.98.99,1.99Z"/>
  <path class="cls-1" d="M1375.41,52.06c-1.52,1.32-4.99-.57-4.98-2.98,1.88-1.05,6.63,1.54,4.98,2.98Z"/>
  <path class="cls-1" d="M1409.32,49.08c.75.75.46,4.04-2.48,2.98-3.44-1.24,1.17-4.29,2.48-2.98Z"/>
  <rect class="cls-1" x="1820.25" y="62.04" width="4.98" height="1.98"/>
  <path class="cls-1" d="M846.98,58.71c.71.4,3.31-.97,2.8,2.33-2.92-.26-4.73-.82-3.97-3.98,1.61-.43.69,1.38,1.17,1.65Z"/>
  <path class="cls-1" d="M1563.91,61.04c.79,3.22-2.3,1.76-4.98,1.98.54-2.45,3.2-1.17,4.98-1.98Z"/>
  <path class="cls-1" d="M1276.66,48.08c.34.37.63,3.73-1.48,2.98-3.08-1.1.51-4.02,1.48-2.98Z"/>
  <path class="cls-1" d="M790.93,52.06c-.16.2-4.52-1.46-2.98-2.99.95-.94,3.97,1.76,2.98,2.99Z"/>
</svg>