<?xml version="1.0" encoding="UTF-8"?>
<svg id="Layer_1" data-name="Layer 1" xmlns="http://www.w3.org/2000/svg" viewBox="0 0 2388.1 96.56">
  <defs>
    <style>
      .cls-1 {
        fill: #fff;
      }
    </style>
  </defs>
  <path class="cls-1" d="M1468.04,39.58c.54.53-.09,2.53.13,2.8,1.59,1.91,2.55-1.23.99-2.98,4.32.45,8.78.47,13.1.41,23.6-.28,48.79,1.87,73.21,3.45,1.86.12,1.33,2.03,2.12,2.15,3.56.56,11.31-.1,15.74.49,28.17,3.75,57.55,3.37,86.83,3.26,4.91-.02,10.74-1.49,16.04-.89,2.16.25,1.11,2.46,1.91,2.08,7.18-3.44,6.54-.86,12.19-1.26,1.46-.1,2.39-1.49,3.74-1.55,2.75-.12,8.57-.85,9.01,1.83.92-3.88,5.06-1.42,7.98-1.57,3.23-.17,9.64-1.51,12.02-1.34,2.09.15,3.79,3.15,7.43.91-3.3,10.64,17.5,3.37,23.94,4.97-.15-2.23-3.73-1.73-4-2-.12-.12,1.16-3.03,1.64-3.06,1.39-.1,3.18,1.17,4.85,1.09,4.14-.2,7.57-2.84,11.46.99l.5-2.99,2.49,2.98c-.88-5.38,2.91-1.8,6.44-1.95,7.43-.32,15.67-4.02,22.99.97,1.29-.16-.64-1.81-.5-2,1.13-1.47,12.52-.04,14.55,0,2.67.06,9.13-1.01,10.98-.77,1.24.16,1.46,5.92,4.4.76l-1.99-1c8.96,1.14,17.52.04,26.46-.07,5.97-.08,11.45.54,17.01,1.07,2.32.22,4.94-1.52,6.78-.94s.82,3.95,3.6,2.92l-.99-2.97c9.67,2.38,19.43-.9,28.72,2.26,1.39,4.56.78-1.16,1.74-1.34,1.16-.21,10.95-.24,11.42.08.09.06-.89,1.33-.41,2.01.88,1.25,3.61.81,2.41,4.97l2.99-.02c-1.26-2.44-2-4.29-.99-6.98,7.16,1.06,14.36-.42,21.34.91,6.5-1.51,12.88-1.6,19.07-.44,2.74.52.92-.77,3.91,1.11,1.55.98,3.24-.29,2.56,3.41,4.3-4.28,3.55.75,8.46,1.01,2.05-2.74-2.12-1.73-4.03-2.95-.6-.39-2.74-2.8-2.44-3.04,4.6,2.09,12.88-1.33,16.4-1.05.64.05.49,1.95.98,1.94,4.5-.09,11.14-1.81,15.84-.97,1.11.2,1.37,3.02,2.19,3.04.93.02,1.92-4.4,3.99-3.99,2.13,2.73,3.12,2.2,1.49,6l-3.97-1.5c1.15,1.42,3.51,3.82,5.44,3.27,2.95-.84,1.54-3.98,1.73-4.53.05-.16,2.31-2.24,2.48-2.25,1.46-.12,3.05,1.13,4.79,1,2.88-.2,15.53-1.56,17.81-1,.75.19.58,1.97,1.25,2.01,2.33.14,7.29-1.12,9.88-1.06,16.59.36,34.15,2.54,50.84,3.13,4.86.17,13.24-1.24,17.64-.55,2.69.42,1.44,5,3.49.44h13.68c.81-2.22,9.26-4.38,10.62-3.46.68.46.58,1.96,1.49,2.37.62.28,9.49-3.81,13-3.87,4.06-.06,8.99,3.28,9.41,3.01.09-.06-.22-1.39.67-2.01,2.86-1.97,10.26-.15,13.86-.11.36,0,.67-1,5.98-.81,10.42.37,20.93.6,30.94.05.49-.03.35,1.9,1.01,1.98,2.32.29,4.09-3.05,4.9.92,1.15.17-.15-3.18.98-2.99.59.1,4.22,1,4.39,1.15.84.79-1.45,3.85,3.11,2.81l-1.99-2.97,5.98,2.47c-2.54,3.14-6.63.28-9.98,1.5l.5-2c-2.93.08-7.37,2.02-10.02,1.88-1.73-.09-2.75-1.4-4.17-1.69-1.18-.25-2.93.89-3.17.69-.4-.34.44-1.73-.58-1.88-.92-.14.07,1.52-1.2,1.98-7.5,2.69-5.81-2.88-6.84-3.04-4.54-.71-5.71,3.07-6.08,3.1-.99.1-2.34-.69-3.66-.67-4.54.04-3.39.94-7.64-2.35l-.02,3.98c-1.64.27-1.16-2.67-2.52-2.99-.91-.22-3.27,1.73-5,1.96-5.13.68-11.23-.04-16.41,1.05,3.41,5.16,8.09,1,11.44.94,2.61-.05,4.89,1.93,6.05,2.04.44.04.38-1.96,1.06-2.06.42-.06,8,1.31,8.41,1.53,1.5.81.49,1.38.25,2.28-1.19,4.56-3.54,3.78-6.79,1.24-.28,3.52-7.8-.74-10.45,2.01-2.99,3.1,6.8.91,7.52,1.18s.43,4.16,1.94-.22c3.07-1.05,2.21,2.01,3,2.03,1.13.04-.35-2.45,1.49-2,1.42,9.39-9.49,2.2-12.45,2.37-.74.04-1.61,1.52-2.82,1.43-1.81-.13-5.47-3.18-8.65-1.82l.99-2.98c-4.67-.74-1.93,1.25-2.51,1.99-1.98,2.56-11.8-1.23-15.3-1.44-5.29-.3-11.05.93-16.81.17-2.23-.29-3.81-3.58-5.28.25l2.99,1-48.39.82c-1.99-.76.59-5.53-5.47-2.79l1.99,2.97c-4.69-.4-9.55-.76-14.25-.58-1.91.07-4.97,1.4-6.25,1.2s-1.95-2.26-2.93-2.36c-.66-.06-2.52,1.56-4.09,1.75-2.22.26-11.25.32-10.41-3-4.77,4.02-1.03-.1-4.96,0,.25,4.81-.21,2.17-2.5,2.22-.94.02-2.38.88-2.47.79-.15-.15.08-2.08-.54-2.94-2.19-3.07-5.04-.6-2.47,2.92l-16.95,1c-.44-1.11,1.17-3.81,1-3.97-.11-.1-1.88-.05-2.88-.59-1.77-.98-7.44-6.35-7.11-1.42,7.35-1.71,1.02,6.12,6.98,3,.46,2.63-.45,1.8-2.23,2.28-3.17.86-6-.4-9.22-.37-3.99.04-8.83.82-12.21.87-1.18.02-6.28.13-6.69.06-1.8-.29-.45-3.16-2.06-3.83-.14,5.47-4.04.58-8.48,2.98l1.01-1.98c-7.42,1.72-13.59,1.69-21.09,1.39-4.74-.19-10.33-.37-15.22-.72-2.8-.2-2.63-2.89-3.1-2.67-2.17,1.03-9.21,7.79-9.97,2.99-1.67,3.45-7.87,3.18-10.51,1.5-2.22-1.41,1.78-3.81-1.36-3.4-1.02.13-2.29,1.15-3.59.92l2.99,2.97c-4.22-.68-7.12,2.71-11.19.93-1.14-.5-.57-2.74-3.28-1.94-.43.13-.44,2.12-.97,2.03-.84-.15-3.78-2.47-5.02-2.98-1.83.73-.36,2.89-.49,2.96-1.55.83-8.52-2.52-10.7-2.78-3.39-.4-4.62,2.93-6.75-2.18l-.51,3.97-42.88-2,2.99-3.98c-3.3.24-7.11.81-10.36.89-5.25.13-2.9.3-5.08.88-1.09.29-5.1-.59-6.49-.79l1.99-.99c-2.68-6.31-6.26,3.64-7.98,1.99.28-.98,5.34-6.07,1.5-5.95-1.35.04-1.07,3.74-2.1,4.03-2.41.68-6.8-.62-9.51-.5-15.3.68-35.14,0-48.2,2.21-1.21.2-15.21-.28-16.1-.6-1.49-.54-1.76-2.98-4.38-2.18-.5-1.27,5.52-2.58,1.55-2.96-1.99.91-7.24,1.66-5.02,3.98l2.48.97c-2.92,1.87-8.42-.44-10.3-.01-.79.18-.63,1.97-1.3,2.07-1.5.21-7.27-1.47-9.91-1.57-6.16-.23-15.7-.05-22.88.07-3.08.05-8.07,3.09-7.49-.54l-2.48,1.98c-.84-3.65-2.86-.82-5.98-.89-10.89-.27-23.63.6-33.89-.36-6.19-.57-5.86-1.86-11.65-1.38-7.55.63-8.91.23-16.26-.4-10.74-.92-24.06.74-34.95.8-39.08.22-79.51-2.64-117.82,1.95-2.4.29-5.96-1.71-8.76-1.61-2.23.08-5.57,2.05-7.01,1.94-.59-.05-.51-2.02-1.17-2.11-2.17-.29-10.72,1.89-12.87,1.64-3.95-.46-6.36-1.36-11.84-1.44-45.39-.69-91.66-.36-137.72-2.17-10.93-.43-22.83,1.1-32.94-2.96l.48,3.99c-5.47-2.88-11.05-.41-16.9-.5-21.22-.32-42.9-2.48-64.51-3.15-6.47-.2-12.96.87-19.51.33-1.69-.14-6.4-1.78-6.68-1.58-.34.24-.48,2.44-2.06,3.32-2.12,1.19-8.41-.13-10.58-.3-.39-.03-.61,2.65-2.92,2.44-2.78-.25-5.35-.77-8.85-.95-10.44-.55-29.89-2.53-39.94-1.6-.66.06-.46,1.8-1.27,2-2.73.65-7.49-1.85-9.87-1.95-3.1-.13-8.31,1.49-11.94,1.46-21.79-.16-46.51-2.24-67.72-.97-2.68.16-6.38-.45-7.87-.25-2.54.34-8.18,6.26-8.15-.31-4.62,3.04-8.12,1.02-12.01,1.12-14.09.36-29.95.89-44.59.6-1.98-.04-4.41-1.29-6.71-.73l2.48-2.99c-1.93-.09-2.51,2.4-4.2,2.85-1.83.49-13.79.47-15.7.11-2.24-.42-4.06-3.04-6.07-2.99-2.42.07-1.53,2.9-3.92,3.14-2.1.21-4.21-.69-6.07-.62s-7.27,2.93-7.43-1.47h-.96c.03,2.57-4.16,4-4.57.96l-10.4,1.02c-.58-2.79,1.03-1.95,3-2l-1.02-1.98,20.71-.68c1.73-.57,1.16-2.64,2.24-3.82,1.88-2.05,9.67-.02,12.63.12,1.72.08,5.14-1.23,6.31-.61.13.07-1.4,2.19.5,2.96,1.46-4.7,7.87-1.89,11.99-1.93,42.19-.35,84.5,3.66,126.43,2.69,3.78-.09,13-3.79,15.19,1.26l.48-1.99,4.26.8c10.7-3.14,23.37-.9,34.65-1.8.18.09-4,4.04.49,3.99,1.42-.01-1.18-2.56.45-3.52,1.54-.91,8.75-2.58,8.51.53,4.7-4.27,7.96-1.22,12.01,0,.58.17.33-1.97,1.08-2.07,6.48-.9,19.35,1.96,26.74.97,10.24-1.37,20.72-5.11,31.86-4.55,4.79.24,1.22,3.31,1.65,3.64,4.63.93.76-2.41,5.5-3.99.92,3.53,1.67.76,3.88.91,1.06.07-.32,2.56,2.07,2.09,1.42-.28-.94-2.64-.49-2.99,8.39,1,16.9-.22,25.48-.05,1.75.04,3.33.77,4.94.84,2.8.12,6.01-2.86,6.99,1.21.13-2.36,6.74-2.89,9.04-2.88,11.72.07,18.4,2.18,30.96-.02,7.02-1.23,16.44.12,23.85.45,21.95.96,46.61,1.43,67.19,3.85,12.28,1.45,25.31.05,37.56.52,5.44.21,14.94,2.38,19.87,2.03,5.65-.41,2.62-.84,9.11.02,3.35.44,9.76-1.12,13.9-1.06,6.29.09,13.32,2.27,19.85,2.02,3.5-2-2.06-4.24-1.33-7.25.31-1.27,1.57-1.92,2.66-2.42,2.21-1.01,20.57-2.27,23.63-1.98,1.1.1,5.04.55,5.4.91ZM1479.13,46.38c-4.77-4.42-8.61.22-.51,1,.69.27.66-.86.51-1ZM1496.09,48.36c-1.97-6.58-11.16-2.29-15.94-2.98.03,1.19,5.86,2.48,6.46,2.52.67.05,1.63-1.33,2.78-1.26,2.09.12,4.69,1.02,6.7,1.72ZM1452.14,47.41c-.5-.44-7.69,2.6-9.89-2.03.7,5.26,6.89,5.31,10.96,4.98-.56-.65-.95-2.84-1.07-2.94ZM1526.01,48.38c-4.99-2.36-9.84-.84-14.41-.97-3.28-.09-7.54-2.9-10.51.46,7.27-.61,14.03,1.34,21.4,1.52,1.14.03,3.77.69,3.52-1.01ZM1841.19,47.38h-3.98s0,1.98,0,1.98c.55.54,5.19-1.43,3.98-1.98ZM1844.18,48.37h-1.98c-.32,1.47.44,2.07,1.5,2.98l.49-2.98ZM1665.65,49.37h-1.98c-.32,1.47.44,2.07,1.5,2.98l.49-2.98ZM1699.56,50.37l-5.98-1c.8,2.56,3.85,2.03,5.98,1.97v-.98ZM2168.34,49.37l-7.97.48c1.8,1.7,6.98,2.46,7.97-.48ZM1086.16,52.34l-.48-1.97c-1.58.88-6.78.97-4.5,3.97,1.08,1.42,3.12-3.56,4.98-2ZM1643.7,54.35c.39-2.86-1.08-5.22-2.96-2.49l2.96,2.49ZM1893.06,50.37h-2.99l1.01,2.98h.97l1.01-2.98ZM955.51,53.34c-1.24-4.18-5.21-.27-3.98,1,.63.66,3.04-1.26,3.98-1ZM1648.7,52.36l1.49,2.96c6.07-2.67,5.53-4.56-1.49-2.96ZM1938.93,51.36c-6.19-1.32-9.64,6.53-2.18,2.27,1.23-.71,2.77.62,2.18-2.27ZM2092.53,54.36c-.34-.32-4.66-1.3-4.97-1.01v1.98s4.98,0,4.98,0c-.05-.32.14-.84,0-.97ZM1901.04,57.35c-2.68.23-5.76-1.24-4.98,1.98,1.78-.81,4.44.47,4.98-1.98ZM2022.72,60.32c-2.6-3.76-3.05-2.77-5.97-.97l5.97.97Z"/>
  <path class="cls-1" d="M198.49,50.36c.07.65-.03,1.34,0,1.99-3.3-1.46-7.32.7-10.3,0-.77-.18-.65-1.98-1.27-2.06-2.14-.29-4.88,2.45-7.37,2.07.03,1.1,5.1,2.92,5.52,2.98.19.03.82-4.23,2.96-1.01,3.4,5.13-7.39,5.39-9.99,5.43-10.18.17-22.04-.9-31.07-1.12-5.73-.14-15.35,2.01-18.8-2.3-.93,3.36-1.71,1.18-3.78,1.37-4.33.41-6.51.01-10.34,0-2.64-.01-5.98,1.35-8.66.62-.84-.23-.56-2.18-1.13-2-6.11,1.98-3.19.56-7.96.49-6.49-.09-17.72.83-23.64,0-2.1-.3-3.6-2.14-6.27-2.51-2.93-.41-9.03,1.2-9.4.9-.32-.25-.36-1.87-1.08-2.35-1.75-1.16-4.9-.3-7.01-.5l1.98,3.49-7.97-.51,4.98-2.97c-1.98-.02-14.42-.48-14.96-1-.28-.27.2-3.41,0-4.43,7.2.55,14.78-2.53,21.44.49,1.38-4.56,3.58-.37,6.07-.03,2.04.27,3.86-1.03,5.85-.96,10.44.38,20.9,1.06,31.82.56,7.25-.33,14.13-.74,21.75-1.2,2.47-.15,4.92-1.37,7.29-1.33,2.62.04,4.58,4.1,5.53,2.92.65-.81-1.92-3.33,3.48-3.43,6.28-.11,13.28,2.56,19.13,3.06,11.75,1,23.63-.57,35.74.85,1.1.13,2.68-.8,3.79-.55.25.06,2.24,2.08,3.7,3.05-.12-1.13-.68-1.95-1-2.98,1.45-1.08,11.67,2.75,13.44,2.57,1.2-.12,1.76-1.82,4.78-1.43,3.21.42,2.56,2.71,2.74,2.83.38.24,5.87-3.13,8.48-2.95,3.32.23-2.18,4.14.99,4.95,4.09,1.04,3.68-2.25,5.27-2.97,4.43-1.99,8.72,1.44,11.83,1.72,4.4.4,14.4-2.1,19.85-.78l7.42,3.02c-2.3-.22-2.11.17-.98,2-3.88.04-7.78-.48-11.46,1.02l3.48-3.02c-2.32-4.83-4.24,1.32-7.51,1.98-5.34,1.08-2.79-2.05-3.47-2.97-3.53,2.02-9.32,3.77-13.37,3-1.77-.33-2.65-2.02-4.07-2.03-.61,0-.48,2.05-1.01,2.08-1.45.08-3.17-1.87-5.06-2.1-1.46-.18-.99,1.76-3.72,2.28-2.88.55-12.96.48-14.65-2.22l4.98-.49c-3.62-1.14-6.18-5.33-8.47-1.51l-.5-1.99h-.97c.68,2.69-3.17,2.46-5.32,1.97-.63-.14-.67-1.31-1.67-1.98ZM118.69,51.35l-.49-2.98c-1.06.91-1.82,1.51-1.5,2.98h1.98ZM138.64,50.37l-3.98.48c1.42,2.16,1.88.82,3.98.49v-.98ZM164.57,51.36l-2.98.49c.91,1.06,1.51,1.82,2.98,1.5v-1.98ZM178.53,52.36l-4.98-1c.86,1.14-.23,4.86,0,4.97,3.87,1.93,2.29-1.7,2.53-2.02.76-1.04,2.77-.39,2.46-1.95Z"/>
  <path class="cls-1" d="M582.49,42.39c-2.46,2.95,2.93,1.64.99,4.97,3.84.97,1.16-4.49,2.01-5.98,8.86.75,4.05,3.07,4,4.49-.03.95,3.98,2,4.96,2.49l-2.98-6.97c3.89.43,6.33-.66,8.97,2.48l-4.98,6.48c2.66,1.46,6.35-2.7,6.85-4.7.53-2.14-2.5-3.39.64-3.3,2.9.08,8.3.22,10.16,2.39,1.23,1.43-1.12,2.54,3.87,3.5,11.46,2.21,24.52-1.11,35.84-.9,3.31.06,6.51,2.56,10.46,1.02v3.97c-6.41-1.09-13.09,1.46-19.48.07-2.08-.45-1.37-2.12-1.98-2.09-1.28.06-2.48,1.68-4.96,2.05-2.91.43-6.16-2.16-6.45-1.97-.23.16.62,1.73-1.47,2.04-6.08.9-4.6-1.23-5.6-2.03-1.95-1.56-2.07,1.91-2.45,1.98-3.25.59-3.14-3.51-6.48-4.02l1.98,3.98c-3.51-1.63-6.02,1.02-8.42,1.07-8.29.14-16.78-1.59-24.75-1.37s-17.73,2.08-25.13,1.28c-1.46-.16-2.63-1.97-3.83-1.78-.8.13-1.79,1.56-3.24,1.77-7.87,1.09-15.59-.97-22.83.11-3.84.57-9.51,3.48-14.11,3.86-.21.02-.77-3.82-2.41-1.91-.42.49,1.35,2.68.99,2.98-6.93-2.24-14.1,1.36-20.94,0l1.98-1.97c-2.21.8-6.36.8-7.83-1.17-.24-.32,2.28-2.3-.62-1.82-1.15.19-3.22,1.16-2.51,2.97l4.98,1.99c-5.41.75-11.54-.69-16.67-.69-3.47,0-6.85,2.74-11.58.5-2.03-.96-.83-3.51-3.66-2.79l.99,2.98c-2.26.26-2.96-2.36-5.44-2.04-.51.07-.43,1.84-1.21,2.03-3.37.81-9.74-.31-13.78.03-9.3.78-10.31,2.7-19.98-.02-.37-.1-3.42,2.27-5.98,3.01-.7.2-.28-1.87-.9-1.89-12.12-.34-22.69.81-35.15.27-3.34-.14-8.72,2.76-9.8-1.39-.73,3.05-9.2,3.97-10.96,2.02-.29-.32,1.53-3.33-1.99-2.05-.73.27-.8,2.09-1.49,2.54-2.68,1.75-10.08-3.08-13.99-1.51l3.98-1.97-4.47-1.02c-1.9,1.47,2.34,4.22-1.02,4.03-6.76-.38-6.21-8.19-3.12-7.89,1.76.17,3.93,3.71,6.62,2.87l-2.99-2.97c3.61,1.84,6.28-1.1,9.49-1.06s4.31.28,7.91.2c6.6-.15,13.53.91,19.99-.16.91,6.03,2.45,1.52,5.44.47,4.93-1.73,7.44,3.65,12.34,2.61,1.05-.22.64-2.66,3.16-3.12.6-.11,6.71.12,7.04.25.73.3.14,2.01.94,1.79,2.25-.62,4.82-3.28,8.49-1.98l-.5,4.99c2.03-5.19,6.39-8.37,7.49-1.01l.98-3.98c2.74-1.29,3.09,1.99,3.58,2.05,2.3.31,3.78-1.88,5.9-2.07-1.02,3.77.93,1.1,3.5,1.02l-3.47,3.99c4.44-.02,2.78-.72,4.98-3.99,1.79-1.09,1.6,4.25,3.47,1.99.26-.32-.18-2.23.01-3,4.7,3.13,15.68-2.56,14.45,4.99.48-1.18,2.51-.58,2.32-1.47-.13-.62-1.18-2.2-.82-2.5,2.48.39,6.13-.59,8.33-.03,1.13.29.21,2.07,1.14,2.03.32-.01,1.3-4.88,3.5.98,1.74.41.63-1.53,1.06-1.89.22-.18,2.17.99,3.38.92s7.2-.43,7.56-.56c3.83-1.38-2.73-5.9,5.54-6.34,2.04-.11,18.74-.36,19.7-.12s-.19,3.1,3.64,1.01v3.98c5.37-.6-.57-8.44,5.98-.99l.5-2.99,2.5,1c.2.17-4.31,4.76-.49,3.99,4.24-.85,6.98-5.65,11.87-4.83,3.65.61.08,1.63-.41,2.81,4.25.12,10.52-4.51,14.28-2.01,1,.67.07,2.6,2.16,2.01,3.25-5.99,1.87-9,10.48-7.96l-1,3.97c4.12.35,7,5.86,4.99-1.98,4.01,1.33,2.54-2.86,3.54-3.07,1.76-.37,5.79.01,7.95.06,2.61.05,3.03,2.26,3.94-.99,3.01,3.24,6.64.4,10.5,1.01ZM577.5,47.36l-2.98-2.98c-.33,1.89,1.16,3.32,2.98,2.98ZM574.51,48.35l-2.98-2.98c-.33,3.24-.26,3.31,2.98,2.98ZM563.53,48.37c-1.41.68-4.82-1.2-4.98-1.01-1.68,2.03,4.47,4.03,4.98,1.01ZM495.71,52.36c-4.15-.52-5.37,2.71-.99,2.97-2.05-3.25.96-.97.99-2.97ZM480.75,54.35c-2.17.24-4.72.63-3.98,2.98h3.98s0-2.98,0-2.98ZM381.01,56.35c-.15-.2-4.08-1.13-4.98-1,.64,4.03,6.15,2.52,4.98,1Z"/>
  <path class="cls-1" d="M2360.83,67.31l-1.01-1.96c-4.03-1.62-2.11-.26-3.72.9-3.5,2.54-1.75-1.07-3.75-1.92-2.95-1.26-2.49,2.35-4.11,2.88-2.06.68-4.98-1.13-7.34.11.82,2.49,5.31,1.76,7.41,2.06,1.31.19,2.41,1.5,3.07,1.53,3.07.17,7.7-5.58,9.45,3.37-3.84-1.26-7.85-.19-10.96-2.99l-.02,3.01c-2.84-1.34-7.8-.6-10.48-1.22-.63-.15-.41-1.76-1.09-1.84-1.48-.17-3.02,1.26-5.44.67-1.92-.47-1.93-2.53-2.36-2.49-2.95.31-4.09.37-7.11.38-1.71,0-3.68,3.46-4.44-3.5l-4.97,3.99c.48-5.36-1.03-1.6-3.41-1.91-.65-.08-.53-2.08-1.15-2.12-1.85-.12-5.53,1.59-8.99,1.12-1.91-.26-1.44-2.12-1.88-2.07-1.21.15-4.06,2.58-5.06,2.61s-2.51-1.5-4.06-1.63c-2.84-.24-5.91,2.75-5.41-.97-1.69-.46-.45,1.98-1.54,2.04-1.5.09-5.07-1.96-7.43-1.06v-3.98c1.55,1.2,6.1-.05,6.8.28.21.1.31,1.39.87,1.7,4.98,2.71,4.02-.73,4.98-.97,4.35-1.07,8.45,2.02,9.81,1.95,2.81-.13-.11-2.98-.13-3.44-.16-2.81,3.18-4.11,5.6-3.51-2.12,2.51,2.64,7.7,3.42,3.03,3.68,3.35,8.99,1.18,11.9,1.91,1.1.28-.16,2.55,2.13,2.04.91-.2.16-1.84,1.14-2.06,2.15-.48,9.12,2.52,6.35-3.46-2.57-.97-5.98,1.38-7.51,1.48-1.64.11-3.15-.93-4.86-.87-4.6.16-8.53,3.21-11.57-3.07,3.57-1.83,8.98,2,10.49,2.01,1.91.01,2.73-2.5,3.93-2.65,1.36-.17,3.56,1.32,5.25,1.36,9.91.22,21.43-1.43,31.73-.17,6.93.85,5.53,2.8,5.44,9.41ZM2341.89,63.31c-.96-2.63-5.98-3.25-4.98,0h4.98Z"/>
  <path class="cls-1" d="M795.93,53.35c6.93-.2,15.29-2.24,22.51-2.92,4.58-.43,13.31,1.2,18.39.94l-1.05,9.91c-6.07-1.25-13.09,1.59-18.43-1.96-1.59,4.13-7.07,1-9.97,0-.58-.2.08,1.82-1.9,2.09-9.14,1.23-20.95-1.52-30.5-.1.07-6.57,4.74-1.47,7.01-4.66,2.3-3.22-2.06-2.86-2.03-3.79,0-.14.94-2.42,1.04-2.5.35-.29,7.3,1.28,8.93,1.01l-3.98,1.97c1.98.12,4.01-.13,5.98.01-.38,4.88,3.76,3.67,7.47,4v-2.01s-4.48,0-4.48,0c-.44-.26.96-1.57,1-1.98ZM811.39,53.37c-1.49,0-1.49,2.95,0,2.95s1.49-2.95,0-2.95ZM819.87,54.36c-2.35-1.29-4.7.64-4.99,2.97h4.99c-1.11-.99.13-2.9,0-2.97ZM829.83,54.36c-1.78-.27-3.5.06-3.98,1.97,1.3.41,5.01-1.49,3.98-1.97ZM803.9,55.35c-4.53-.22-1.22,5.28,2,3.98l-2-3.98Z"/>
  <path class="cls-1" d="M795.93,53.35c-1.31.04-2.69.09-3.99,0,.22-2.81,4.1-1.33,3.99,0Z"/>
  <path class="cls-1" d="M691.95,49.56c1.63,1.69,1.38,4.84.25,6.77,3.15.7,2.6-3.58,3.95-4.52.68-.47,5.15-1.43,5.02.52l-4.98,2.99c3.4-.78,6.24.81,7.48-2.99.53,7,4.69-.41,6.96,0,2.65,7,2.59,2.46,6.08,1.96,2.04-.3,3.47,1.13,5.41,1.03l-1.99-2.97c3.7-1.68,5.04,2.99,5.57,3.05,1.57.16,5.84-3.05,8.4-2.05-2.94,2.79,2.87,3.76,1,5.96-.87,1.02-18.21-.69-21.52-.82-7.27-.28-21.43.73-27.87-1.04-1.74-.48-1.54-2.01-1.92-1.98-3.47.2-7.64,1.65-11.52.85l3.23-2.69c3.43,1.89.72-1.7.75-4.28-2.44-.92-2.81,3.16-3.47,2.99-2.14-.54-3.02-1.67-2.51-3.99,3.42.25,19.95-.62,21.7,1.19ZM686.2,50.36c-2.44-1.99-1.29,1.84-1.99,2.98h3c-.67-.75-.89-2.88-1.01-2.98Z"/>
  <path class="cls-1" d="M769.91,52.25c.21-.16-.07-1.8.5-1.81.79-.01,6.29,1.5,6.57,2.42-2.33-.3-2.28,8.31-3.56,8.54-6.33.39-12.65-.87-18.9-1.11-2.04-.08-8.63,1.14-10,.72-1.49-.46-1.23-4.18-3.37-2.56-.14.11.1,1.93-.66,1.96-4.44.15-2.45-2.71-2.64-2.9-.34-.35-3.06.1-1.74-2.14.07-.12,2.47.03,1.99-2,2.36,1.28,1.99,7.62,4.46,1.98,2.87,3.07,11.79,1.72,14.2-1.28.7-.88.13-3,1.89-3.61,3.95-1.37,10.8,2.15,11.27,1.8ZM762.01,51.36l-2.98.49c.91,1.06,1.51,1.82,2.98,1.5v-1.98ZM772.98,58.34c.42-2.96-.57-3.41-2.89-4.37-3.5-1.46-2.99,1.21-3.76,1.37-2.95.64-5.38-1.9-7.29.51,3.27,4.67,8.89-1.31,13.93,2.49Z"/>
  <path class="cls-1" d="M2274.06,62.33c-.32,8.1-11.1,3.74-16.63,3.39-3.4-.21-9.91,2.16-10.8-1.41l-.48,2c-2.34.79-3.34-1.45-4.51-1.98-.81-.37.25,1.88-1.92,2.1-1.08.11-12.04-.72-12.52-1.12l3.07-3.93c4.85,3.39,11.37-.04,16.42-.08,4.25-.03,10.18,1.32,14.91,1.47,2.14.07,11.68-1.15,12.46-.43ZM2249.12,62.33h-2.98c.35.86,2.81,3.36,2.98,2.98v-2.98Z"/>
  <path class="cls-1" d="M317,51.52c.53.31.92,2.78,1.68,2.8.87-2.66,6.15-3.37,7.49-1.97.12.12-1.16,2.02-.87,3.28.39,1.7,3.38,2.85,3.86,4.68l-18.95-.99.99-4.98c-1.2,2.28-5.09-1.21-4.97-1.49.69-1.67,10.18-1.69,10.79-1.33ZM318.17,57.33c.45-.57-1.81-2.57-2.98-1.98l-1,2.98,3.99-1Z"/>
  <path class="cls-1" d="M2257.1,55.32c-5.15,4.18-3.56.06-4.53-.03-.75-.07-2.52,1.02-3.93,1.06-10.59.26-20.88-.03-31.41.98.75-1.93,3.66-3.55,5.51-2.76.41.17.84,3.59,2.46,1.77.42-.47-1.35-2.7-.99-2.97,4.85,1.94,9.85-.75,13.52-.92,2.21-.1,5.42.58,7.88.64,3.57.09,8.79-2.32,11.5,2.24Z"/>
  <path class="cls-1" d="M2226.18,61.33c.89,4.25-5.22,1.49-5.99,2l1.01,1.98c-2.88-.89-11.63-.44-13.52-1.18-.9-.35.21-2.22-1.44-1.8l-.02,3c-2.4-1.53-10.88-.61-10.97-4.49-.01-.53,9.76-1.41,10.54-1.38,1.83.07,3.2,1.72,4.99,1.82,5.12.29,10.29-.11,15.4.05Z"/>
  <path class="cls-1" d="M297.24,51.36l-1.02,1.98c1.49,1.13,6.85-4.11,4.01,2l2.65-.25,5.32,3.24c-1.04.3-6.44.98-6.8.76-.38-.24-.66-1.97-1.74-2.64-4.44-2.76-9.57.8-14.39-.11,1.34-8.72,6.79-3.25,11.97-4.97Z"/>
  <path class="cls-1" d="M2288.92,50.23c.41-.32-.67-3.07,4.29-.77,1.03.47,1.01,1.66,1.54,1.93,1.7.86,4.48-.13,5.25,2.95-1.29-.23-5.48,1.56-5.98,1.02-.46-.5.96-3.32-.99-2.99-.44,4.63-7.81-.96-10.98,3.98.75-1.1-.17-4.79.03-4.93.8-.6,3.9,1.39,2.96-3.05.98.06,3.36,2.28,3.88,1.87Z"/>
  <path class="cls-1" d="M2278.05,51.35c.13.09.41,2.73,1.99,2.49-1.64,3.52-16.48,1.33-19.94.49l3.36-1.87,9.6-.12-.99-4.98c3.61.28,2.11,2.97,2.93,3.49,1.03.65,2.73.29,3.05.5v-1.99s3.99,0,3.99,0c-.5,1.98-2.21,2.24-3.99,1.98Z"/>
  <path class="cls-1" d="M2209,53.62c.33.2.12,1.76.73,1.76,2.07,0,2.54-3.45,4.46-.54-3.79,3.99-10.26,1.58-14.94.49-.04-2.51,9.28-1.98,9.74-1.71Z"/>
  <path class="cls-1" d="M2252.89,46.55l4.21,4.8c-4.51-.06-10.39,1.05-8.96-4.98l4.75.18Z"/>
  <path class="cls-1" d="M285.26,51.36c-1.22,5.82-1.91,2.81-2.78,3.28-.38.2-.14,2.68-3.2,1.69-.54-1.38,4.06-.91,1.98-2.98-.31-.31-3.19,2.21-4.39,2.03l-1.58-2.53,9.97-1.48Z"/>
  <path class="cls-1" d="M2269.07,48.37c-.27,2-3.13.05-3.48,2.98l-1.49-4.98,4.97,2.01Z"/>
  <path class="cls-1" d="M34.91,58.33c-.66.62-3.95-.46-3.96-1.49-.03-2.97,5.86-.28,3.96,1.49Z"/>
  <path class="cls-1" d="M669.26,49.37c-.81,2.08-2.74,3.34-4.99,2.97.81-2.08,2.74-3.34,4.99-2.97Z"/>
  <path class="cls-1" d="M206.97,53.37c1.49,0,1.49,2.95,0,2.95s-1.49-2.95,0-2.95Z"/>
</svg>