<?xml version="1.0" encoding="UTF-8"?>
<svg id="Layer_1" data-name="Layer 1" xmlns="http://www.w3.org/2000/svg" viewBox="0 0 2388.1 96.56">
  <defs>
    <style>
      .cls-1 {
        fill: #fff;
      }
    </style>
  </defs>
  <path class="cls-1" d="M2021.72,46.52c-.44,8.55-15.38,4.79-21.31,5.26-1.12.09-2.24,1.38-3.39,1.53-2.12.28-6.8-1.66-6.21,2.18,4.37-1.23,8.67-.13,12.47-.19,26.19-.4,51.26-2,76.76-1.33,1.37.04,5.21-.6,6.03-.27s4.64,7.06,3.99.78c4.36,1.58,8.54-.67,12.85-.89,1.21-.06,2.82,1.14,3.94.99.79-.11.82-2.12,2.33-2.88,2.05-1.04,4.39-.2,6.5-.47,11.38-1.49,23.06-.07,35.2.38,1.97.07,4.02-1.21,5.78-.92s3.18,2.42,4.2,2.48c.93.05,5.05-2.12,7.98-2.11,2.4,0,4.7,1.2,6.99,1.24s9.2-1.18,10.84-.85c.88.18.37,2.37,1.11,2.06,4.36-1.82,6.98-1.84,12.04-1.88.72,0,9.7,2.3,13.08,2.78,13.07,1.84,31.45,2.47,45.47,1.87,4.09-.18,6.86-2.96,12.99-.74,1.1.4.45,2.31,1.2,1.96,1.95-.93,10.94-3.06,13.01-2.95,1.57.09,2.72,2.16,3.93,1.96,2.38-.41-.88-4.84,2.55-6.53.6-.3,9.21-.6,10.45-.53,14.07.69,28.61,4.57,41.84,4.12,4.03-.14,6.21-.17,10.01.14,5.34.43,7.55-.04,6.49,5.8-3.33-1.31-8.16.66-10.47.57-4.66-.18-12.36-2.1-17.12-2.2-10.18-.21-23.88,3.51-33.74,2.64-1.53-.13-3.09-2.33-3.49-2-.15.13.18,1.39-.17,1.69-1.93,1.63-10.11-.22-12.25-.21-22.3.1-44.12,1.58-66.65,1.27-2.4-.03-4.19-1.46-6.01-1.45-2.4.02-6.44,1.79-8.13,1.7-.65-.04-.5-1.64-1.05-1.82-.39-.13-7.42-1.09-7.82-1.04-1.23.16-2.53,2.61-5.11,2.71-4.42.17-12.36-1.29-17.13-1.75-2.86-.28-5.12,1.84-7.86-2.11-1.6,4.35-9.45,1.18-13.18,1.26-18.91.39-40.01.35-58.39.46-12.66.08-29.25,1.58-41.62-1.13-.98-.21-2.57-1.9-2.97-1.59-.16.12-.12,1.96-.98,2.53-.61.4-12.36.42-14.48.43-3.28.01-10.06-1.25-12.97-.98-2.29.21-3.94,4.36-4.93.1-10.09,1.81-20.37,1.56-30.51.91l-.49-2c-.87.21-.13,1.59-1.21,1.98-6.1,2.19-22.16.01-29.62.12-6.68.1-15.14,2.59-22.85.89-.8-.18-.32-1.96-2.14-2.09-5.2-.37-8.43,3.55-12.5-2.88,2.1,9-2.08,1.95-2.5,1.98-1.03.06-.15,1.56-.58,1.9-1.28,1.04-5.5-3.07-7.39-2.94-.52.04-.48,1.73-.67,1.82-.69.3-1.56-.77-2.22-.74-.88.03.26,2.09-3,2.03-4.95-.1-5.78-3.09-6.14-3.1-1.23,0-2.74,1.48-4.2,1.78-2.03.41-16.73,3.39-17.64,3.34-.58-.03-.49-1.99-.96-1.98-3.2.09-8.35,1.61-11.89,1.54-2.24-.05-5.56-1.74-7.07-1.64-.61.04.19,2.56-4.05,2.08-3.24-.37-4.04-.97-2.49-4.06-4.2.21-2.88.14-2.02-2.99-3.1,4.49-3.71,2.92-4.97-1.99,6.17-.98,8.57,7.02,14.96,4.97l-1.01-3.97-2.98,2.98c.86-1.1-.12-3.79.04-3.9.99-.71,21.48.44,24.25-.13,2.81,2.18-.46,4.07-.36,6.52,4.92,3.16,3.46-5.92,4.01-6.47,2.18-2.15,4.95,1.52,5.23,1.65.4.19,1.28-.61,1.55-.38.55.47-.49,2.5,2.19,1.72-.28-4.72.25-2.15,2.28-2.39,7-.83,15.97-1.23,23.04-1.32,1.08-.01,2.35,1.63,3.95,1.51,1.51-.12,3.5-2.47,5.66-1.78l-1.01,1.98c5.23,1.74,7.33-2.29,12.56-2.89,1.39,4.33,1.07.14,2.05-.12,1.18-.3,6.43-.2,7.84.02.26.04.42,5.5,3.49,2.99,2.26-1.84-2.58-1.72-1.98-2.98,4.48-1.77,9.05.75,12.53.89.44.02.31-1.73,1.08-1.89,2.64-.56,6.34.44,9.32-1l.5,3.98c2.1-5.09,8.04-3.11,12.47-3.98l.51,3c2.39-1.34,7.74-4.22,10.36-4.56,1.44-.19,2.57,1.15,3.52,1.07,9.54-.78,18.94-1.3,28.49-1.5ZM1998.78,49.52h-2.98v1.98h2.98v-1.98ZM1982.84,54.49c1.31-2.9-4.65-1.85-4,1,2.66-.23,6.24.14,8.76-.23,1.72-.25,3.06-.34,1.21-1.76-1.29.55-4.72-1.05-4.91-.89-.44.37.67,2.28-1.07,1.87Z"/>
  <path class="cls-1" d="M837.82,50.51c-9.9-2.15-5.81,2.87-10.42,3.86s-3.78-3.11-6.22-3.72c-2.07-.52-11.31,2.75-12.27,1.83-.43-.41.62-2.93-.53-2.99-3.72.41-10.4,3.63-13.86,3-1.08-.2-.24-4.46-2.17.01-3.4-.82-7.35-.19-10.86.05-28.91,1.98-57.22,3.67-87.79,3.86-2.83.02-7.29,2.72-9.04-.95-.59-1.24.63-2.82.54-2.94-.39-.54-8.19-.6-9.46-.52-2.75.18-6.75,1.82-11,1.29-2.29-.29-7.03-2.83-7.94-2.83-.59,0-.39,1.84-1.17,2.04-1.55.39-25.71.42-27.64.06-.77-.15-.52-2.11-1.14-2.09-1.48.04-2.27,1.75-4.02,2-7.64,1.07-20.23-.49-27.99-.85-4.8-.22-11.74,3.1-15.74,1.74-1.95-.66-.71-3.37-3.1-2.87-.84.17-.25,1.98-1.1,2.1-2.89.41-4.2-3.73-4.91,1.92-11.4-2.57-23.3.01-34.89.08-16.19.09-32.86-.89-48.94-1.09-21.84-.28-50.25,3.81-71.8,1.06-2.08-.27-4.21-2.18-4.41-2.04-.09.06.3,1.38-.75,1.94-1.38.74-5.17,1.26-6.79,1.15-1.99-.13-1.01-2.31-2.92-2.22-5.63.28-7.83,3.67-15,.11-.77-.38.22,1.83-1.91,2.09-4.26.52-7.58-1.51-11.03-1.58s-7.62,2.23-11.49,1.49v-4.99c2.73.4,4.48,1.67,7.43,1.87,2.73.19,4.3-1.65,6.1-1.77,9.17-.61,19.5,1.27,28.75-1.18l2.11,4.06c1.99-4.82,3.36-2.15,6.65-2.55,14.63-1.75,28.47-1.25,43.26-1.4,2.81-.03,10.85-1.22,13.19-.38,1.25.45,1.16,2.35,1.8,2.35,3.01.02,4.93-2.49,8.89.98l-.5-2c1.05-1.06,19.78-.47,23.11-.44,4.14.03,14.3-.92,17.25-.57,3.86.46.45,1.67,6.33.33,17.5-4,44.18-1.56,62.53-1.23,2.67.05,5.96-1.46,7.82-1.13.8.14.25,2.16,2.1,2.14,2.33-.03,4-1.78,6.08-2.05,8.72-1.14,17.54-.06,25.98.87,1.56.17,3.1-1.12,4.68-.75,1.33.31,1.89,2.38,3.71,1.81l-.49-2.99c4.8,4.57,6.15.42,11.96.21,8.2-.29,17.33.84,25.82.89,43.02.29,87.26,2.15,130.7-.69,11.6-.76,24.76-.98,35.89-2.41,2.54-.33,4.7-2.83,7.92-2.01.75.19.66,2.05,1.1,2,1.74-.19,5.19-2.06,8.38-2.38,12.83-1.29,25.62-1.04,38.5-2.64,7.05-.88,16.07-3.1,24-3.89,1.1-.11,10.08.59,10.46.96,1.07,1.05-.96,6.34-3.54,6.03-1.33.2-3.24-3.8-4.39-3.03-.17.11-.67,2.96-1.55,2.96-.17,0-1.29-1.78-2.93-1.89-4.61-.31-15.55,3.29-21.08,3.94s-11.43.79-17.28,1.34c-2.98.28-14.57.01-15.64,1.56-.81,1.17.19,3.38-.93,4.06-.54,0-1.96-11.51-5.49-5.01l2.99,1c-2.52,2.01-6.56-3.16-7.97-1.98-.35.3,1.42,2.38.99,2.98h-5.98s4.99,1.01,4.99,1.01l-4.5,3.97c-.62.18-1.36-7.3-6.5-4.5-.59.32-.72,1.35-.97,1.52-.49-.6-2.53-2-3.48-2-.92-.05-.42,1.23-.51,2ZM722.11,51.51h-1.98s0,2.99,0,2.99c1.44-.34,2.29-1.61,1.98-2.99Z"/>
  <path class="cls-1" d="M841.81,50.51c2.96,3.65.06,2.33-1.62,3.36-.41.25-.41,1.6-.97,1.63-.27.02-5.17-.84-5.39-1.01-.25-.19,1.1-4.52,3.98-1.99.07-.65-.07-1.34,0-1.99,2.1.46,1.46,1.72,3.99,0Z"/>
  <path class="cls-1" d="M1098.14,50.51c.4.09.94.84,1.64.84,2.13,0,6.95-4.3,7.84.17.94-3.87,3.33-1.22,6.11-1.14,3.66.11,11.52-1.56,12.83,2.12,2.5-5.35,2.24-1.24,6.03-1.02,11.73.67,20.02.25,31.95,2.03,2.56.38,6.41-1.55,9.96-1.1,2.05.26.57,2.67,4.42,1.59l-8.81,1.96c-4.95-1.88-9.85,2.93-11.63-2.45-1.84,5.3-7.37.56-11.46,2.98-.32-.92,1.77-2.73.48-2.99-2.75-.55-.62,2.69-2,3.04-3.2.82-6.58-2.03-8.98-1.96-1.66.05-2.94,1.6-4.21,1.68-4.1.29-9.13-.27-13.23-.78l3.98-1.48c-1.27-4.03-3.24-.78-5.97-3.49,2.14,7.13-1.03,3.72-3.56,4.11-1.48.23-2.31,1.6-3.48,1.43-1.49-.21-3.64-2.7-5.42-2.62-.83.04.31,2.54-2,2.06-.92-.19-.11-1.71-1.18-2.02-1.27-.36-3.06.27-4.31.02.02-.43,1.55-2.49,1-2.99Z"/>
  <path class="cls-1" d="M1097.14,53.5c-.02.37,1.43,1.72,1,1.98-6.58,1.3-12.09-2.02-17.95-.99l-.49-3.98c-1.57,1.04-1.46,4.2-3.02,4.96-3.65,1.78-.96-3.35-3.96-3.66-.37-.04-6.45,1.12-7.24,1.35-4.07,1.16-5.67,4.76-10.58,2.21-3.26-1.7-2.96-5.55-5.13,1.11-1.95-.84-2.35-5.51-4.44-3.89-.2.16.12,1.46-.18,1.71-.46.38-1.65-1.06-2.65-.61-.37.16.19,2.56-2.71,1.83-.37-.09-.53-2.02-1.02-2.07-2.55-.28-8.28,5.44-9.95.04.77,2.6-11.02,2.45-11.47,2-.32-.32,1.47-2.43.99-2.98l-2.97,1.99-.51-3c-.37,4.21-4.25,5.12-7.87,3.85-1.4-.49-1.43-2.48-1.76-2.67-2.12-1.26-5,3.7-7.82,3.82l-.51-5.98c-1.22.46-.05,3.56-.49,3.99-.49.47-11.83,1.07-13.53,1.05-2-.03-1.09-3.85-5.41-1.05l-.02-3.98c-1.65-.45-.48,1.88-1.6,2.07-1.64.28-3.79-1.23-4.83-.97-1.23.31-1.09,2.65-2.18,2.86-1.82.34-6.07-1.9-6.66-1.79-5.2.93-2.53,2.48-11.29,1.91-1.22-.08-3.12.93-3.28.79-.41-.35.46-1.82-.57-1.9-.96-.07.02,1.66-1.11,1.97-2.78.77-9.23-1.96-11.91-1.84-1.84.08-3.28,1.86-4.78,1.69-1.31-.15-7.4-3.82-9.08-4.33-6.13-1.89-4.24,2-6.52,3.1-1.35.66-2.61-.66-3.42-.59-.76.06-.42,2.06-1.09,2.04-1.49-.03-2.13-1.58-3.13-1.77-1.86-.35-5.61,2.66-4.36-1.77.09-.3,1.44-.43,1.59-.74.31-.63-.21-1.65.34-2.27,2.39-2.66,3.63-.45,5.57-.68,5.12-.6,8.46-1.48,14.05-.89,2.18.23,1.09,2.47,1.91,2.08,2.26-6.15,2.41-2.62,7.47-3.99-.92,4.24,2.43,2.72,5.48,4.01.63-5.29,1.87-1.74,5.88-2.03,2.29-.17,4.6-2.11,7.09-1.99l-1.48,2c2.63,1.45,6.67-1.65,7.49-1.65.88,0,2.48,2.42,4.92,2.53s6.76-1.73,9.99-1.9c9.44-.5,22.52.87,32.13,1.64,2.84.23,4.06-2.16,5.81,2.39,1.18-.05-.28-2.83,1.05-3.07,3.44-.64,8.71.59,12.43.08l-.5,2c9.86-3.52,20.37-.69,30.4-1l-1.98,1.97,5.97-1.98.02,3.98c1.56.08,1.1-1.89,2.57-2.89,4.45-3.05,6.43-.47,10.04-.45,8.64.04,20.46-.36,28.27,1.36-1.23-1.1-4.75,2.24-1,2.99Z"/>
  <path class="cls-1" d="M1764.39,56.49l3.99-1.01.99,2.99c-.18-4.5,6.37.84,5.01-4.98,4.23,3.46,2.24,1.11,3.31.39,5.08-3.42,3.48,1.66,6.17,2.59,1.83.63,1.36-1.48,1.66-1.67.48-.31,1.53.53,2.12.33,1.5-.52,1.94-2,3.69-1.64-3.98,2.79-.4,6.11,2,4.97.14-.07-1.44-2.8.98-2.98l2.6,4.91,4.38-1.94c.44-1.76-1.69-.64-1.98-.99s1.27-1.97,1.5-1.97c1.17,0,2.08,4.98,5.48.98.65.75-2.91,3.24,1.99,3.99.19-.24-.68-5.27-1.18-5.77-1.82-1.83-5.21,1.02-5.78-1.2,2.28-.71,8.19-2.16,9.53-.04.44.7-.88,2.58-.54,2.93,1.66,1.74,9.38,1.87,11.96,1.08-4.21-5.61,10.13-5.9,10.97-4.99.38.41-.55,3.74.13,4.86.96,1.57,8.05,0,8.84,3.11-4.29,2.81-9.84-.54-13.04-.48-2.77.05-5.44,1.87-7.37,2.01-8.82.65-21.49-.78-31-.56-4.35.1-18.33,2.37-21.41.51l-4.98-5.45c-.02.06-1.02-.09-1.05.67-.05,1.31,1.45,3.61,1.04,4.31-.09.15-1.37-.69-1.97-.37-2.78,1.46-7.87,3.57-11.36,3.34-2.86-.19-4.62-2.15-7.1-2.98.99,4.86-4.35.79-7.48,2-.57-1.06,1.23-3.8.99-3.98s-1.52.27-2.19-.05c-.78-.37-1.25-3.62-2.8-1.94-.3.32.93,1.54.74,2.33-.26,1.08-2.1,2.17-1.74,2.64.26.33,2.43-.76,1.99,1-7.6,2.72-12.75,2.46-20.37,2.13-.9-.04-2.43.96-2.55.88-.66-.44.23-5.26-3.49-3.99s2.64,3.09.49,4.97c-.48.42-11.6,1.33-11.97-1.98l5.98-1c-7.2-2.08-13.54-.88-20.95-1.02,2.9-5.07-5.29.45-5.95,0-.18-.13-.55-2.89-1.52-2.96-.31-.02-5.27,3.25-5.48,2.97l.99-3.98c-3.18-1.19-4.55,1.87-5.95,2.4-1.04.39-2.53-.47-4,.01-1.22.4-8.76,5.38-6,.58-4.28-.24-5.84-1.46-8.97,1.99l.99-3.98c-3.92-.62-3.02.56-3,3.99-4.37-2.02-11.69,2.71-13.46-2.01l-1.49,2-.5-3.98-4.48,3.98c-1.23-3.35,1.89-2.85,1.95-3.03.12-.36-3.08-4.08-.96-6.95,2.81-.77,5.09,2.9,6.42,3.07,2.33.29,5.11-.32,7.53-.08l-1.98-1.97,13.96,1c-2.79,5.16,7.34.57,10.45.51,3.58-.07,7.61,1.91,11.12,2.43,2.56.38,4.92-2.18,6.85,1.04.77-3.97,4.42,1.64,5.61-3.82,3.18,1.77,11.12-.65,13.39.22,1.46.56,1.37,4.05,5.43,2.6.08-1.62-2.84-1.79-2.99-2-.56-.81.91-2.93,1.48-2.95.32,0,1.59,1.53,2.93,1.53,4.06,0,9.56-.79,14.07-1,1.64-.08,4.44-3.2,5.97.44.17.4-.43,2.89-.54,3-.29.3-5.78-3.6-7.97-1.98.85.97.74,4,1.55,4.04,3.07.16,8.17-1.64,11.41-1.06-.11-1.08.27-2.39.03-3.37-.27-1.12-2.44.02-2.01-1.61,5.56,2.17,15.67-2.65,19.03,2.48.84,1.28-.19,2.43-.09,2.49,1.05.61,7.06-.41,8.97,0,.16-1.64-2.21-1.12-2.98-2.49-1.38-2.47,9.57-3.3,7.97.52-.11.27-2.77-2.51-1.98.98,3.45.69,3.86-.9,2.99-3.97,2.86-.04,3.63,2.27,4.48-1,2.14,1.62,1.07,1.42.5,2.99ZM1783.34,57.5l-2.98-1.01v2.99l2.98-1.01v-.97ZM1829.22,56.5h-3.98s0,1.98,0,1.98c.55.54,5.19-1.43,3.98-1.98ZM1636.72,59.49h-2.99c1.04,1.92.55,3.63,2.99,2.98v-2.98Z"/>
  <path class="cls-1" d="M1278.67,49.49c1.92,1.69,2.11-2.02,2.44-1.98.95.12,2.97,1.85,5.1,1.93,1.58.06,11.03-2.37,11.39-1.92l-.98,3.99c3.1-4.22,22.52-4.21,24.93-1.98,1.9,1.75-2.92,2.63-2.97,3.47l2.97,5.49c-2.62,1.32-3.09-2-3.6-1.98-.68.04-1.72,1.12-2.24.76-.23-.16-.16-1.87-.63-1.78-3.37.66-2.26,3.67-2.52,4.01-.21.27-4.33-2.5-6.46-2.53-7.38-.11-14.55-.82-22.1-1.12-1.94-.08-8.64,2.15-9.14-.8-.03-.17.88-3.25,1.02-3.36.81-.69,3.11.73,2.77-1.15-5.17-2.58-5.18,8.64-7.46,2.97-2.69,3.75-6.21,1.34-6.98,1.45-.59.08-5.2,2.01-5.5,1.55l.48-3-5.46,2.01-1.01-3.98c4.02,1.43,6.68,1.46,10.97.98l-1.98-1.97c2.16-.14,4.29-2.32,6.4-2.08.27.03,2.45,5.73,2.07.07,3.01-.1,5.65,1.61,8-1,.91.22.25,1.78.49,1.99ZM1285.65,51.51c-1.27,1.38,2.74,4.84,3.98,1.48,1.37-3.71-3.76-1.72-3.98-1.48Z"/>
  <path class="cls-1" d="M188.51,45.53c1.01,4.31-5.93,6.14-7.79,4.7-1.23-.95-1.05-4.87-3.18-.73l1.01,1.52-4,.49c-.31,1.96,2.44.54,3.01.99.26.2-2.8,5.43,2.97,2.99.66,2.73-3.79,4.25-4.97,2.26-1.42-2.38-2.32-2.71-2.83-3.5-.41-.63.79-2.05.38-2.77-.47-.83-7.31-1.01-8.9-.85-1.07.11-4.67.33-4.61,1.85l4.98,1.02-1.99,2.97,5.98,1c-4.58,1.3-9.17,1.79-13.96,2,3.53-2.61-4.44-8.19-2.92-9.88,1.82-2.02,5.93,1.9,6.9.91v-3c5.71,3.02,10.43-.6,15.97-.98l.47,1.98c1.7-2.45,7.21-2.94,7.99,0l5.49-2.98Z"/>
  <path class="cls-1" d="M1327.35,49.77c.61.65-.01,2.5.19,2.73,1.62,1.91,2.53-1.24.99-2.98,5.34.99,27.44-.76,30.97,1.48.87.55.82,2.38.97,2.5.38.31,3.87-2.96,6.31-2.95,2,0,6.62.51,5.65,3.45-1.02,3.06-6.15-.1-6.53-.11-.61-.01-1.4,1.29-1.96,1.27-1.01-.02-1.86-2.05-2.48-1.65-.1.06.19,1.34-.22,1.71-.45.41-10.77-.41-12.13-.8-1.07-.31-.26-2.28-1.13-1.91-4.36,5.39-10.57,1.54-16.46,3l2.99,4.48-8.97-.51c-.54-1.93,1.99-2.61,1.85-4.32-.17-2-4.95-5.49-3.83-6.65,1.02.74,3.28.7,3.79,1.25Z"/>
  <path class="cls-1" d="M1463.19,59.49l-1.01,1.97c1.35-.41,2.8.86,3.56.93.22.02,1.57-3.79,3.43-1.92.53.53-1.18,9.74,3.99,3.49-2.82-.5-3.49-3.92-1.3-4.5,1.92-.51,4.93,1.59,5.77,1.56s1.88-1.32,3.39-1.27c2.93.09,11.52.2,13.45.71.94.25.58,1.93.66,2,.39.31,4.48-5.13,7.46,1.98,2.53-7.44,5.92-3.05,12.47-3.96l-.99,4.97.98-1.98c4.42,1.17,3.68-1.44,4.96-2.51,1.83-1.53,2.46,1.05,4.03,1.9.6.33,1.8-.67,1.99-.4.11.16-1.75,4.04.51,3.97,1.29-.04.82-2.84,1.42-3.51.98-1.09,12.08-2.07,14.37-2.07.93,0,7.24.07,6.64,2.1-1.04,2.06-2.73.26-3.7.76-.33.17.09,1.58-1.7,1.83-4.38.63-5.29-.91-8.32-1.8-5.82-1.72-.93,3.06-3.34,4.59-.52.33-11.76,1.17-12.34.97-.53-.18-.34-1.66-1.17-1.84-1.67-.36-8.84,1.3-9.3.99l1.98-5.97c-1.99.78-2.11,5.15-4.49,5.97-1.83.63-1.23-1.63-2.12-1.93-2.33-.79-6.73,2.73-11.57,1.67-6.01-1.31-1.98-4.66-2.76-5.71-1.5.43-2.8,2.08-4.46,2.05-.35,0-.8-3.96-2.5-2.05-2.21,2.48,5.37,2.28,3.98,4.98-5.76.92-4.49-3.41-4.99-3.98-1.68-1.93-2.12,2.05-2.54,2.05-1.62,0-2.72-1.81-5.45-.57-3.08,1.4,1.88,1.43,1.01,2.5-8.11.09-15.95-.54-23.93-1.99.53-3.71,6.33-2.55,6.91-3.11.79-.75-1.92-4.12,5.06-2.86ZM1465.17,65.46c.31-3.59-3.78-2.53-5.97-2.98l5.97,2.98Z"/>
  <path class="cls-1" d="M1391.18,61.26c3.79-2.87,4.78-.85,10.03-.37,4.16.39,10.03-1.79,11.1,3.56-5.8,1.39-2.81-1.95-2.98-1.98-3.22-.4-1.01,1.78-3.42,2.07-4.11.49-10.66-.76-15.05-1.05-3.34-.22-8.38.09-11.72-.26-1.47-.15-4.29-1.04-4.72-2.76,4.17-.15,8.29-.79,12.46-.47,1.4.11,4.04,1.45,4.31,1.24Z"/>
  <path class="cls-1" d="M334.13,51.5v3s2.5-2.01,2.5-2.01l.99,2c1.51-1.72,1.14-3.67,3.99-2.99-.63,5.71,2.8.06,3.1.03,1.58-.16,5.79-.04,7.82-.08,1.79-.03,59.47-3.62,58.56-.5l-56.51,4.54c-3.33-6.4-4.02-1.5-5.2-.96-2.97,1.34-15.81,1.93-19.8,2.04-1.19.03-2.64-3.07-4.98-3-.67.02-.55,2.22-2.08,2.79-1.89.7-8.03-.33-7.33-3.84,2.12-.37,3.53,2.07,5.51,1.99,1.77-.07,2.53-2.08,4.12-2.67,2.09-.78,6.74,1.09,9.32-.33Z"/>
  <path class="cls-1" d="M220.43,43.54c-.98,6.88-1.96,3.77-4.93,5.5-4.66,2.72-4.29,5.4-12.03,3.46,0-2.16,4.17-1.63,3.98-2.48-.89-4.11-5.1-1.78-6.97-5,6.54-1.55,13.23-1.71,19.94-1.48Z"/>
  <path class="cls-1" d="M1598.98,56.31c2.05,1.17,4.32-.65,2.84-2.8,4.13-1.85,5.84,3.83,6.49,4.02,4.35,1.28,1.07-2.54,1.49-3.03,2.51,1.77,6.02-.57,8.29-.02,1.3.31-.62,1.74,2.15,1.22,1.44-.27.41,4.28-1.97,3.78-8.83-1.07-17.73.37-26.43-2,3.07-9.97,4.8-2.51,7.13-1.18Z"/>
  <path class="cls-1" d="M131.47,50.85c.17.02.08,1.32.67,1.43,5.27.94,5.58-1.61,6.18-1.76,3.04-.74,7.77-.79,6.3,2.97-1.93.55-2.59-2-4.3-1.83-.3.03-5.46,1.63-5.67,1.84-2.83,2.71,6.43,1.81,4.98,4.97-3.67,1.42-6.7-3.28-10.95-3.98l.97,3.51-1.97.49-2-3.99c1.07,4.07,1.44,6.73-3.99,5.96.55-1.49,1.2-3.19,2.98-2.99.41-1.67-1.35-.64-1.76-1.11-.15-.17.25-4.07.7-4.37.97-.64,6.51-1.31,7.86-1.15Z"/>
  <path class="cls-1" d="M290.13,51.67c.36.29-.32,1.48.63,1.85,2.62,1.02.09-2.02,1.01-2.02,3.58,0,12.54.87,15.95,1.52.97.18,2.18,1.86,2.48,1.49l2-2.99v4.98c-1.74.52-.49-2.42-1.49-1.98-2.28,1-7.16,3.7-7.99-.02l-.48,2c-2.55-.83-10.88.48-12.56-.35-2.07-1.02-.6-5.38-4.4.35l2.99,1c-2.87,1.01-5.17-2.31-7.42-2.04-.33.04-1.42,3.75-5.54,2.04.31-.96.84-4.73,1.07-4.96.42-.43,8.4.95,9.48.9,1.68-.08,3.07-2.74,4.29-1.75Z"/>
  <path class="cls-1" d="M119.7,53.51l-1.01,6.98-.99-2.99c-4.25-1.94-6.98,2.89-7.41,2.86-6.78-.47-4.95-1.23-6.55-6.85,5.69,1.2,10.2-1.75,15.96,0ZM108.72,58.48v-2.99s-2.99,1.01-2.99,1.01c-.48.41,1.75,2.62,2.99,1.98Z"/>
  <path class="cls-1" d="M275.29,52.51c-1.64,8.98-10.36,3.67-16.95,5.97.38-8.13,3.45-4.54,8.49-4.91,2.85-.21,5.55-1.39,8.46-1.06Z"/>
  <path class="cls-1" d="M1251.73,52.51l-2.01,3.98c-5.36-4.52-8.92-.71-14.94,0,0-1.24,2.51-3.11-.49-2.99-.95.04,0,1.54-1.21,1.98-2.12.77-6.79.73-9.26,1.02l3.7-3.99c4.08.04,8.8.59,12.79.55,1.18-.01,2.42-1.44,3.92-1.46,2.27-.02,4.68,2.37,7.51.92Z"/>
  <path class="cls-1" d="M252.22,52.69c.22.15.04,1.28.31,1.48.31.23,4.07-.81,4.79.82-1.75,3.99-11.49,5.02-14.71,3.84-1.55-.57-1.99-4.21-5.23-3.35,3.01-5.46,5.11,1.1,5.48,1,1-.27,8.19-4.61,9.36-3.8Z"/>
  <path class="cls-1" d="M1584.88,55.5c2.4,2.46,1.15-3.09,2.48-2.97,7.43,4.86,2.72,5.76-3.93,4.91-1.64-.21-3.04-1.36-4.87-1.68-.97-.17-6.6,1.42-6.64-1.75-.02-1.96,11.52-2.85,12.44-1.48.6.88.35,2.81.51,2.98Z"/>
  <path class="cls-1" d="M236.39,55.51c-.6.52-3.43,3.95-3.7,4-.86.16-8.39.12-9.79.07-1.89-.06-3.27-1.7-3.96-1.7-.94,0-6,2.67-9.02,2.63-3.46-.05-5.88-4.16-6.94-.03l-2.51-4.47,2.5,1.48c1.82-.83-.93-5.97,4-1,.87-4.49,3.83,1.93,7.87,1.05,2.61-.57-2.65-1.72,4.58-.46,3.79.67,13.57,2.45,10.98-3.57l5.98,2Z"/>
  <path class="cls-1" d="M1613.78,62.49c.29,2.56,0,1.59-1.48,2.03-.79.23-8.36,1.08-8.82,1-1.11-.19-1.23-2.93-2.15-3.01-.39-.03-6.31,3.18-7.49,1.95-.28-.29-.27-2.43.6-3.07,2.5-1.85,15.56,1.04,19.35,1.09Z"/>
  <path class="cls-1" d="M90.78,54.51l-.5,2c3.08-1.95,4.9-2.26,8.47-1.52l-1.96,5.06,1.96,1.42-2.99-2.97c-1.57-.65-4.29,3.77-8.07,1.53-1.3-.77-.81-7.38,3.1-5.51Z"/>
  <path class="cls-1" d="M1357.15,58.86c.44.24,0,1.71.83,1.65,1.26-.08,2.22-1.51,3.73-1.74,1.75-.27,14.72-.71,14.71.21-2.55.22-6.38,2.14-8.56,2.47-1.76.27-3.38-.9-4.76-.69-1.91.3-4.54,3.48-8.05.79-1.19-.91.59-4.11-3.57-3.09.4-2.5,4.49-.25,5.67.39Z"/>
  <polygon class="cls-1" points="1221.82 52.51 1220.76 56.46 1210.85 55.5 1213.85 53.49 1212.83 51.51 1221.82 52.51"/>
  <path class="cls-1" d="M1439.25,62.48c.09.06-1.18,1.83-1.01,1.98,2.13,1.88,1.57-2.81,3.48-1.98,1.32.57,2.12,3.32,1.51,3.98-.3.32-2.44-.84-3.48-.8-1.64.06-5.39,1.49-6.49.79-.24-.15,2.36-3.32-2.99-2.99,1.32-2.29,6.67-.39,8.98-.98Z"/>
  <path class="cls-1" d="M290.25,49.5c-.52.63-9.31,1.28-10.97,1l6.72-4.19c-2.52-4.58,6.41.6,4.25,3.19Z"/>
  <path class="cls-1" d="M241.37,41.53l1,4.98c-2.71-1.66-5.09.79-5.04,3.48.02,1.05,2.5-.21,2.05,1.51-4.37.69-5-.31-2.93-4.23.61-1.16,2.29-.21,1.93-1.73-4.87,1.13-4.7,1.63-6.98-2.99,4.27,1.77,5.97-1.15,9.97-1.01Z"/>
  <path class="cls-1" d="M228.41,42.54c-.75,1.1-4.11,10.57-6.98,7.96-.85-.77,1.39-2.65,1.55-3.47.64-3.13-2.71-4.34,5.42-4.49Z"/>
  <path class="cls-1" d="M887.61,50.39c.19-.12-.09-1.36.56-1.65,1.19-.55,5.4.21,4.5,2.77-.53.48-6.13.01-7.71.67-1.14.47-1.65,3.92-3.25,2.32-.22-.22,2.72-4.34,2.01-5.97.51-.54,2.33,2.88,3.9,1.87Z"/>
  <path class="cls-1" d="M873.73,48.52c.1.07-1.01,1.82.02,2.37l4.96,3.59-8.96,1.01c.86-1.18,1.53-8.63,3.98-6.97Z"/>
  <path class="cls-1" d="M1428.33,64.4c.9.54,3.22-.85,2.93,1.06-3.25,1.78-4.03-2.56-5.48-2-.91.35-.31,1.91-1,2.05-4.31.86-4.85-5.3,1.98-4.03,3.38.63,1.38,2.81,1.57,2.92Z"/>
  <path class="cls-1" d="M52.87,60.49c-1,1.66-6.79,5.49-7.97,2.47-1.7-4.36,6.09-3.11,7.97-2.47Z"/>
  <path class="cls-1" d="M1187.91,55.49c-.26-1.73,1.85-.72,2.98-1.54.88-.64.85-2.41,1.46-2.41,1.09,0,4.68,2.23,5.51,3.45l-9.95.49Z"/>
  <path class="cls-1" d="M1575.88,64.47c-4.54-4.23-3.75-.13-4.57-.02-.26.04-5.12.18-5.31,0-.11-.11-.44-2.22-1.08-2.96,3.47,1.43,10.59-2.49,10.96,2.98Z"/>
  <path class="cls-1" d="M275.71,47.08c1.09,1.09,3.26,1.43.06,2.42-1.99.61-1.27-2.04-1.98-2.02-1.19.03-6.21,3.15-8.46,3.03-.51-2.82.65-1.65,2.18-2.25,1.32-.52,6.61-2.6,7.32-2.67.42-.04.45,1.07.88,1.5Z"/>
  <polygon class="cls-1" points="60.85 62.47 52.87 63.46 56.36 58.51 60.85 62.47"/>
  <path class="cls-1" d="M80.79,55.49c.08,1.07-.27,2.3-.02,3.31.33,1.29,2.43.02,2.01,1.67h-5.98c-.61-3.61.34-4.77,3.99-4.98Z"/>
  <path class="cls-1" d="M1692.58,66.47l-3.99,1,1.02,1.98c-3.83-1.85-9.16,2.65-7.99-2.98h10.97Z"/>
  <path class="cls-1" d="M1419.29,65.46c-1.58,1.53-7.45-2.65-5.97-3.98,1.16-1.05,6.64.92,5.97,3.98Z"/>
  <path class="cls-1" d="M258.53,47.71c-.53.48-.19,2.48-1.13,3.32-.23.2-5.84.68-6.05.47-.11-.11-.41-2.77.5-2.99,2.77-.67-.81,3.42,1.97,1.99.6-.31,4.27-3.11,4.5-3.49,1.36-2.28-3.44-.2-2.99-2.47,2.16.2,5.03-.63,7,.47,3.4,1.9-3.6,2.52-3.81,2.71Z"/>
  <path class="cls-1" d="M1678.62,70.45c-2.01.38-2.64-1.76-4.51-2.03-.35-.05-4.35,3.4-6.45,1.55.94-1.23,8.48-3.69,8.86-3.41.18.13,1.39,3.16,2.11,3.89Z"/>
  <rect class="cls-1" x="1555.94" y="61.49" width="3.99" height="3.98" transform="translate(1492.63 1621.34) rotate(-89.93)"/>
  <path class="cls-1" d="M1634.73,75.44l-5.98.99c.84-3.63,5.1-6.54,5.98-.99Z"/>
  <path class="cls-1" d="M1184.91,52.51c-.94.97-.86,3.84-1.01,3.98-2.64,2.46-6.89-5.34,1.01-3.98Z"/>
  <path class="cls-1" d="M291.25,49.5c.34-1,1.66-2.43,2.48-3,4.68-3.2,3.79,4.38-2.48,3Z"/>
  <path class="cls-1" d="M1450.21,65.46c-1.41-.04-3.17,1.32-4.47,1.01-3.83-.9,2.12-5.95,4.47-1.01Z"/>
  <path class="cls-1" d="M1576.88,81.44c.08,2.18-6.71,1.22-6.98.98-3.05-2.83,6.77-1.17,6.98-.98Z"/>
  <path class="cls-1" d="M1654.68,70.46c.1.11.1,2.87,0,2.98-1.94,2.04-3.48-3.43-4.98-1.98-.35.34,1.4,2.35.99,2.98-2.56-.68-2.76.38-3.98-2.5,1.1-.95,7.48-2,7.97-1.48Z"/>
  <path class="cls-1" d="M254.34,45.54c.15.18-.06,1.36,0,1.97h-4.98c-.07-2.85,3.38-3.89,4.98-1.97Z"/>
  <path class="cls-1" d="M1819.25,53.51c-1.85,3.54-4.2,2.55-4.98-1l4.98,1Z"/>
  <path class="cls-1" d="M1601.82,76.44v2.98c-2.17-.24-4.72-.63-3.98-2.98h3.98Z"/>
  <path class="cls-1" d="M199.48,57.48c-.12.17-3.77,1.22-3.98,1-.11-5.17,5.75-3.5,3.98-1Z"/>
  <path class="cls-1" d="M1642.71,74.46c-.21,2.33-6.66-.9-6.97-2l6.97,2Z"/>
  <path class="cls-1" d="M193.49,51.52c.14.13-.05.65,0,.97-9.57,3.13-3.54-4.25,0-.97Z"/>
  <path class="cls-1" d="M153.6,57.51c.16.19-.06,1.36,0,1.97-2,.96-5.15-1.78-3.98-2.98.23-.24,3.85.85,3.98,1.01Z"/>
  <path class="cls-1" d="M40.9,64.46c-1.71-.01-6.88-1.26-4.98-2.98,1.08-.98,4.78,1.27,4.98,2.98Z"/>
  <path class="cls-1" d="M1797.3,56.49c-1.76,2.01-3.96-3.96-1.49-3.96,1,0,2.11,3.26,1.49,3.96Z"/>
  <path class="cls-1" d="M1624.75,73.44c.26.47-.13,2.13,0,2.99h-2.98c.14-.86-.26-2.52,0-2.99.07-.13,2.9-.13,2.97,0Z"/>
  <path class="cls-1" d="M184.52,55.51c.13.08-1.1,2.02,0,2.97h-2.99c-.54-1.67,1.71-3.76,2.99-2.97Z"/>
  <path class="cls-1" d="M71.82,57.5c.29.29-.72,3.57-1.49,3.98-2.66-1.15-.02-5.47,1.49-3.98Z"/>
  <path class="cls-1" d="M897.66,54.49c-1.21-.49-3.85,1.17-3.98,1.01-1.52-1.85,3.57-4.29,3.98-1.01Z"/>
  <path class="cls-1" d="M1582.87,63.46l-2.98,1.01v-2.99c1.23-.65,3.46,1.57,2.98,1.98Z"/>
  <path class="cls-1" d="M1588.85,63.46l-2.98,1.01v-2.99c1.23-.65,3.46,1.57,2.98,1.98Z"/>
  <path class="cls-1" d="M1617.77,61.48v3.98c-.55,1.21-2.53-3.43-1.99-3.98h1.99Z"/>
  <path class="cls-1" d="M1664.66,69.47l-2.98,2.98c-.33-3.24-.26-3.31,2.98-2.98Z"/>
  <path class="cls-1" d="M1207.85,54.51c-.91,2.42-2.44,2.66-3.98.48l3.98-.48Z"/>
  <path class="cls-1" d="M102.73,54.5c.12.1.34,2.23,1.01,2.98h-3c.7-1.14-.45-4.97,1.99-2.98Z"/>
  <path class="cls-1" d="M174.55,56.5c-.34,1.44-1.61,2.29-2.99,1.98v-1.98s2.99,0,2.99,0Z"/>
  <path class="cls-1" d="M192.5,47.52v1.98s-2.99,0-2.99,0c.34-1.44,1.61-2.29,2.99-1.98Z"/>
  <path class="cls-1" d="M1343.49,58.5c-1.02,3-3.09,1.78-2.98-1.01l2.98,1.01Z"/>
  <polygon class="cls-1" points="66.83 60.48 62.85 60.47 62.85 59.5 66.82 58.49 66.83 60.48"/>
</svg>