<?xml version="1.0" encoding="UTF-8"?>
<svg id="Layer_1" data-name="Layer 1" xmlns="http://www.w3.org/2000/svg" viewBox="0 0 2388.1 96.56">
  <defs>
    <style>
      .cls-1 {
        fill: #fff;
      }
    </style>
  </defs>
  <path class="cls-1" d="M26.94,42.76c4.37-1.05,9.61,1.44,13.48,1.09,2.38-.21,3.78-2.13,6-2.2,1.89-.06,1.3,2.06,2.05,2.1,4.18.21,10.58-2.11,15.85-1.95,35.84,1.08,70.83,2.61,106.73,3.54,7.51.19,15.09,1.63,22.46.43l-1.01,1.98c1.21.22,2.97-.28,4,0-1.72-4.81.88-.57,2.47-.39,1.76.2,4.62-2.28,7-2.25,3.49.05,9.96,1.5,14.07,1.55s9.78-3.15,11.36,3.08c-4.59-1.82-8.67,1.92-13.35,1.9-1.8,0-17.05-.95-17.92-1.2-1.51-.43-2.21-2.28-3.64-2.69.35.98.43,2.06,1,2.98-2.65.07-5.61-1.69-8.27-1.02-.86.22-1.19,2.59-3.69,3.57-1.96.77-5.14-.88-7.38-.52-4.93.81-8.03,1.45-13.04,1.48-22.61.14-45.69.62-67.87-.61-1.44-.08-3.44.97-4.06.86-1.24-.21-1.25-2.61-1.44-2.76-.35-.28-4.43,2.56-8.51,2.42-6.79-.22-4.1-5.15-4.43-5.41-.44-.35-9.69-.62-11.31-.64-2.13-.02-5.21,1.67-7,1.35-1.36-.24-2.58-2.34-4.12-2.37-.86-.02-5.05,1.88-7.47,2.13-2.55.27-15.19-.02-15.97-1.99l1.99-1.48-3,3.98-4.98-1v-5.98ZM83.78,46.75c.08-.1.08-1.89,0-1.99-.88-1.04-7.29,5.15,1,3.98l-2.98-1c-.39-1.81,1.68-.63,1.98-.99ZM93.75,50.74c1.29-1.68-1.88-3.6-3.97-1.98v.97c1.15-.41,3.85,1.17,3.97,1.01ZM99.75,51.74c1.51,1.51,4.25-2.97,1.49-2.97-.66,0-2.06,2.39-1.49,2.97ZM159.6,52.73c.97,1.04,4.55-1.87,1.48-2.98-2.11-.75-1.82,2.61-1.48,2.98Z"/>
  <path class="cls-1" d="M1736.47,42.76c1.11,1.55,1.01,3.29,2.98,3.01.44,1.76-1.7.65-1.99.99-1.15,1.36,4.17,1.56,4.98,1.99.59-3.26-3.7-4.54-4.48-7-.9-2.86,2.56-1,3.87-1.1,1.1-.09,6.01-1.03,6.45-.68.12.1,1.29,2.7,1.16,2.78-.5.33-4.29-.69-2.5,1.01,4.85.42,3.42-.16,2.49-3.99,4.8,1.13,11.93-.1,16.41.93,1.4.32-.75,4.08,2.54,3.05l-1.99-3.97c5.1.85,10.29-.05,15.4.08s10.55-.25,16.04.1c1.95.12,3.24,1.72,4.79,1.6,1.94-.15,11.01-5.06,10.66-.79l.99-1.99,1.48,1.99c2.46-3.61,5.58.36,8.47-2.99.17,6.9,2.32,1.02,2.64.96,3.18-.65,5.11,2.58,5.83-.96,3.13,3.64,4.56.36,6.78.26,1.13-.05,11.45.58,12.04.73.87.23.53,2.18,1.13,2,1.71-.51,2.8-2.71,6.01-3.07,3.25-.37,8.37,1.68,9.95,1.63,1.94-.07,7.24-2.1,10.15-2.18,2.57-.07,15.98.2,17.55.71.99.32.44,2.02,2.19,2.02,3.84,0,3.12-3.03,4.12-3.12,2.14-.2,9.46,1.73,12.72,1.67s7.45-1.72,11.09-1.67c6.22.09,9.69.53,15.82.28,2.04-.08,4.2,1.24,6.54-.09,1.93,5.43,2.08.86,4.8.05,1.37-.41,4.38-.46,5.78-.2.96.18-.49,1.26.06,2.03.49.69,4.99,1.82,1.42,4.44-4.01,2.94-9.56-.36-12.52-.45-.5-.01-.31,1.65-.53,1.81-1.24.91-2.77-1.71-4.43-1.88-2.18-.22-3.54,1.59-5.06,1.75-2.02.22-7.26.23-9.9.32-3.47.12-15.37-1.48-17.82-.89-1.32.31-1.48,2.86-3.19,3.59-.38.16-7.49.71-8.22.59-2.8-.47-1.37-1.99-3.11-2.33-.39,5.6-8.47,1.37-11.5,1.4-1.03,0-2.3,1.24-3.75,1.29s-8.32.49-8.71.29c-.14-.07,1.35-2.69-.52-2.99-2.3-.37-3.1,2.48-4.94,3.07-4.04,1.3-11.05.04-15.5.91l1.01-1.98-8.98.98c-.26-1.36,2.53-3.01-.49-2.99-1,0,.27,4.61-4,4.06-2.41-.31-2.25-2.54-3.47-3.47-.4-.3-9.49-2.44-8.99.4l4.98,1.99c-2.7.36-6.12,2.04-8.8,1.34-1.76-.46-3.2-2.32-4.66-2.36-.63-.02-.03,2.8-2.99,2.06-.67-.17-1.45-3.83-4.16-4.7-.75-.24-4.94.02-5.32,1.19-.29.88,1.39.3,1.66.72,2.77,4.32-2.46,1.94-4.26,1.86-2.34-.1-5.28,2.43-5.38-2.08h4.48s-.01-2.02-.01-2.02c-4.94,2.13-11.74-3.02-7.48,5-2.77-1.54-6.98.19-9.26-.19s-3.43-2.71-5.46-3.53c-1.19-.48-8.65-1.71-9.2-1.26-2.15,1.78,3.69,1.95,1.98,3.97-.26.31-3.04.33-2.98,2,5.31-.93,10.65.49,15.96,1.01l-1,2.98c3.87-.78,7.12-2.72,11.32-2.61,1.37.04,11.72,1.7,12.62,2.32,4.99,3.48-5.15,6.47-6.48,1.3-1.63.89-1.65,6.3-4.15.94l-15.29.04-.02-2.98-4.5,3c-.9-3.34-1.44-.91-4.01-.98-11.64-.32-23.61-2.02-35.23-2.43-4.42-.16-9.51.96-14.1.4-.54-.39,2.52-2.56,1.99-2.97-2.13-1.67-3.34,2.58-5.58,2.68-3.68.16-9.3-1.46-12.98-1.58-3.3-.11-14.81,1.08-17.34-.13-.14-.06,1.31-2.24-.51-2.97-1.19.24.19,2.78-.99,3.01-5.06.99-3.03-4.65-5.12.06-6.52-1.73-15.49.43-21.67-1.06-1.16-.28-.2-2.02-1.14-2.02s0,1.81-1.14,2.07c-.46.1-8.96.21-9.33-.07-.34-.25,1.45-2.43.99-2.98-5.04,5.11-8.43,1.28-12.53,1.04-.49-.03-.34,1.64-.91,1.82-.53.17-5.21-1.41-6.51-.88l.5-1.99c-2.14-.63-1.15,1.47-1.94,1.79-3.43,1.39-6.95-2.07-8.95-1.83-1.85.22-6.06,1.67-8.1,2-7.09,1.14-4.13-2.77-4.44-2.95-.21-.12-2.87-.09-2.99,0-2.33,1.78,2.72,1.8,1.98,2.98-3.37.87-8.41-1.78-10.51-1.99-.45-.04-.39,2-1.01,2.05-2.2.16-8.12-2.24-11.42-1.06,1.22-2.25,1.21-3.73,0-5.97,4.4,1.12,18.18-1.6,21.3-.07,1.22.6.56,2.03.65,3.05,1.94-.5,1.03-2.78,3.44-3.07,4.29-.52,12.04.56,17.01.65,16.46.31,34.41-.33,51.86-.1,5.42.07,10.6-2.05,16.43,1.53l-1.99,2.97h3.99s-.99-2.97-.99-2.97c5.12-1.89,4.13,3.54,5.5,3.99,2.03.66,1.9-1.88,1.2-2.81-.36-.48-2.12.46-1.71-1.17,2.72-1.14,4.84,2.04,6.48,2.02.78-.01-.21-2.92,2.5-2.02.2.07-1.96,3.93,2.99,2.97.59-1.26-4.24-1.13-1.98-2.98.43-.35,2.44,1,3.53.89,1.73-.17,5.92-2.39,7.92-2.9l.16,2.01c1.94.32.91,4.88,2.83,4,.66-.3.94-2.76,4.49-2.01.17-1.86-3.55-.69-3.98-2.5-.73-3.05,6.6-5.68,8.98-4.46-1.69,2.44-.08,1.48.99,2.98-1.38-.29-2.66.53-2.99,1.98h2.99s0-1.98,0-1.98ZM1752.42,44.76c-3.85-.77-.61,2.29-1.17,2.88-.67.71-3.82-.94.68,3.1l.49-5.97ZM1790.33,45.76c-2.34.24-6.82-2.13-7.98.98,2.15-.21,8.63,3.27,7.98-.98ZM1761.4,45.76c-1.87.28-3.15,1.04-5.1,1.45-1.04.22-2.29-1.89-1.87,1.54,1.71-.7,7.69.28,6.97-2.98ZM1861.13,46.77c-.23-.23-3.2-1.11-3.98-1,.49,1.92,2.2,2.25,3.98,1.97-.05-.32.14-.83,0-.97ZM1736.46,47.76h-3.98s0,.98,0,.98l3.97,1.01v-1.99ZM1765.39,48.75l-2.97,1.97,3.98,2.01-1-3.98Z"/>
  <path class="cls-1" d="M991.36,37.85c.36.39-.06,2.11.06,2.92,1.6.25.63-1.66,2.18-2.33,7.35-3.19,5.31,1.74,5.79,2.34,1.02,1.25,2.72-2.84,5.43-2.83,5.79.03,13.12,1.56,18.96,1.87,4.88.26,12.54-1.21,16.83-.04,1.81.5-1.03,4.18,3.51-.47,16.77-.1,33.71.93,50.54.94,2.03,0,7.69-2.14,9.46-.47,2.11,2-2.54,1.64-1.99,2.97,4.92,2.61,1.89-2.03,4.98-3.55,1-.49,1.66,1.26,3.05,1.12,1.55-.15,3.27-1.66,5.47-1.62,1.8.04,11.46,3.73,11.93,6.06,1.74-6.75,4.93-3.37,10-2.98,1.19.09,3.17-1.11,3.39-.92.41.36-.46,1.8.58,1.91.95.1,0-1.91,1.1-2.09,1.46-.23,5.74,1.54,8.05,1.7,6.06.4,12.98-1.51,18.86-.7,2.01.28,1.22,2.12,1.92,2.11,2.06-.04,2.48-2.41,3.94-2.62,2.5-.36,9.4,1.11,12.51,1.09-1.47,2.28-8.27,9.2-8.47,2.5-3.28,6.2-4.94,3.52-10,1.01l-.47,1.97c-8.23.78-16.64.05-24.96,0v-4.98s-2.97,4.98-2.97,4.98c-2.81-7.94-2.36-3.44-4.49-3.27-1.27.1-3.33-2.62-4.99-2.72l-2.49,5c.32.34,5.85-4.04,5.98.49-3.44-.2-24.58,1.3-25.94.5-.19-.11,1.84-3-1.5-3.01-.74,0-.31,1.89-1.09,2.07-2.78.63-4.6-2.37-6.83-2.1-.38.05-1.98,3.94-6.53,2.04-.53-1.39,4.03-.88,1.98-2.98-.94-.96-4.37,2.87-4.65,2.94-6.3,1.56-17.31-1.22-23.72-1.44-5.34-.18-13.99,1.94-19.84.51-.99-.24-.23-1.71-1.15-2.03-2.7-.94-.12,1.91-.99,2.01-10.1,1.15-20.99-.6-31.07-.69-7.65-.07-16.88,1.32-24.72.71-.7-.05-.42-2.06-1.07-2.06-2.73-.01-11.28,4.71-15.94.02l-.5,2c-2.55.95-5.04-1.65-6.67-1.79-1.97-.17-10.93,1.84-13.85,1.88-1.48.02-1.68-2.85-3.9-1.82-6.49,3.02-3.51.69-8.16.04-2.98-.41-5.94,3-7.83-2.3l-.49,3-5.96-.99-.02,3c-4.67-.2-3.07-3.12-4.48-3.63-3.17-1.16-3.92,1.55-4.17,1.6-.9.19-8.22,1.16-8.65,1.1-.97-.14-1.48-3.68-3.26-4-1.24-.22-3.21,2.33-5.09,2.76-2.4.54-4.35-.44-6.41-.26-4.09.35-8.55,3.59-10.82-1.55,4.67.22,2.98-1.8,3.99-4.99l-3.98,2.98c-.57-1.24,1.24-3.7.99-3.98-3.16-3.44-1.79,5.68-2.04,5.93-.22.22-1.53-.19-2.06.16-2.94,1.94-3.29,3.24-7.86,1.86l2.98-1.97c-3.78-.19-.93-3.04-4.49-4-1.03,1.73,1.89,3.88-1.15,4.83-.8.25-15.32.2-16.67-.12-4.13-.97.44-2.02.37-2.22-.73-1.93-4.7-1.54-4.98-3.49,3,.63,2.96-2.27,5.89-2.56,6.74-.65,16.39.64,23.57.61,32.2-.16,65.84-.22,98.69,1.95,2.63.17,15.85-.54,16.41.06ZM874.72,37.79h-1.99s0,3.97,0,3.97h.98s1.01-3.97,1.01-3.97ZM941.54,37.78c-.14-.14-3.64-.38-3.98.49l3.97,2.5c-.09-.8.2-2.79,0-2.99ZM898.66,39.78h-3.98s0,.98,0,.98c2.12.47,3.09,1.72,3.98-.98Z"/>
  <path class="cls-1" d="M420.91,49.75c-.16-.01-1.46-1.76-3.01-1.01l-.47-1.98c-2.72,1.38-.43,4.01-.78,4.79-.07.16-1.11.17-1.34.55-.62,1.06-.08,2.57-.92,2.67-1.88.24-5.37-1.44-7.45-1.54,1.22-4.76,4.33-.1,7.38-2.42,3.93-2.98-3.17-4.35-6.36-1.55-1.4,1.23-1.34,4.69-4.52,5.45-2.43-2.26,3.41-1.87,1.5-3.97-.3-.33-4.02-1.05-4.98-1-.47,1.71,1.95.51,1.91,1.42-.33,7.3-8.6,1.66-4.13-1.44.76-.53,3.03,0,3.21-1.97-8.72-1.52-5.52,3-6.92,4.46-2.68,2.79-5.13,1.61-7.59,1.66-.59.01-.37,1.84-1.01,1.89-4.76.34-11.47-1.49-15.94-2.04-2.14-.26-5.09,2.82-4.45-.99,2.78-.01,4.65,1.02,5.48-2,4.9,5.2,4.56,1,5.01.94,1.97-.25,3.04,1.75,4.54,1.61,2-.2,1.83-2.63,2.44-2.58,2.81.22,3.73,5.14,6.47-1.95l-25.33-.91c-3.81,1.97-9.59-.02-12.87.87-1.08.29-.97,2.07-1.7,2.56-.44.29-3.43-.32-4.97,1.47l1.98,1.97h-4.98c1.15-4.4,3.91-7.88-1.99-7.96l.5,4.97-4.48-5.98-2,4.99,3.76-.72c-.33,1.71,4.75,2.63,2.2,4.2-3.14,1.93-6.23,2.07-8.95-.48.99,5.55-6.61,3.22-10.27,3.36s-7.17,3.16-11.05-.31c-.97-.87-.18-2.34-1.31-3.07-8.38-5.43-16.6-2.35-25.76-2.97-2.61-.18-4.78-1.8-6.94-1.84-1.78-.04-3.8,1.1-6.04.95-1.9-.13-5.49-4.12-.48-4.12l-2-2.96c1.92-.54,4.14.77,5.72.71,1.76-.07,2.38-2.21,4.55-.72.82.56.54,2.08,1.22,2.03,4.56-.34,2.4-3.23,9.97-.04.75.31.18-1.75,1.14-2,1.64-.44,9.19-.41,11.86-.5s6.99-.08,10.04-.07c2.29,0,9.29-.08,8.39,2.57h.97c-.82-2.66,9.04-2.62,11.65-2.61,5.47.02,11.17.09,16.38.12,4.57.03,8.96,4.88,7.94-.47,6.14.97,12.21.43,18.4-.03l-2.49,1.02c1.78,4.49,3.89-.81,4.69-.98,1.69-.37,16.71-.69,17.26-.02.3.36-2.64,3.51.48,2.99,3.15-6.24,4.8-2.54,9.97-2.56,6.63-.02,13.97-1.82,20.92-1.43,1.55.91.96,1.55.54,2.97,1.71.79,3.02-1.99,3.49-1.97.68.02,1.24,2.75,2.77,3.34,2.49.97,18.65,1.5,22.03,1.29,1.85-.11,3.27-1.52,4.17-1.65.47-.07.01,2.03,1.91,2.11,2.05.08,4.12-1.18,6.03-1.12,4.79.16,11.08,1.61,16,1.81.88.03,2.31-1.05,2.45-.82.38.61-.61,3.12.51,3.02.93-.08,0-1.74,1.14-2.02,4.21-1.04,13.55.13,18.8-.03,3.83-.12,6.29.47,11.18.59,7.24.18,14.94-.42,22.23-.53-.67,2.66-1.85,2.54,1.01,3.47-2.35,6.6-9.05,3.55-14.46,3.73-11.7.39-24.8,1.1-36.87-.26-1.44-.16-2.64-1.9-3.87-1.79-1.52.13-2.65,2.01-3.67,2.36s-1.77-1.14-2.45-1.11c-.81.04-1.61,1.4-2.83,1.38-4.05-.07-9.97-2.6-12.93-4.48-3.39-2.16-22.17.13-28.01-1.28-1.03-.25-.23-1.95-1.15-2.02-2.86-.53-.22,1.81-.48,2-2.24,1.65-1.83-2.12-2.5-2-.89,3.72-2.71,1.33-5.17,1.37-1.47.03-2.99.73-4.3.63.32.35.63,3.74-1.48,2.98-3.09-1.11.52-4.01,1.48-2.98ZM304.21,46.74c.01-1.24-3.82-3.17-3.98-2.98-1.42,1.65,2.22,3.15,3.98,2.98ZM360.06,43.77h-2.99c1.04,1.92.55,3.63,2.99,2.98v-2.98ZM312.28,52.66c-.99-.64-1.2-8.74-5.06-1.94,3.27-.69.47,4.06,2.68,5.02,2.53,1.09,6.7.96,9.29-.03-2.5-3.47,1.96-3.22,1.96-5.48,0-1.95-4.19-.25-4.52-.03-1.34.89-1.95,4.01-4.35,2.46ZM327.15,48.75l-3.98,1c-.13,6.02,4.99-.13,3.98-1ZM535.6,52.73c.14-.14.38-3.64-.49-3.98l-2.5,3.97c.8-.09,2.79.2,2.99,0Z"/>
  <path class="cls-1" d="M1433.26,47.75c-2.33-.06-4.53,1.96-7.09-1.46-1.59-2.13,1.11-5.12-.4-5.52-2.5-.67-.14,1.73-1.92,3.05-.93.69-2.49-.03-3.04.93-.94,1.64.37,4.01-3.01,3.03-.72-.21-1.01-2.52-2-3.01l-.48,1.98h-4.99c-.58-1.3,4.18-1.06,1.99-2.98-.15-.14-3.02-.09-3.98-1.01v4.99c-.33.32-9.13.51-7.98-2.99,1.96-.95,4.89,1.96,5.49,1.97,3.01.04.64-5-4.94-5.01-.72,0-.56,3.14-1.54,2.04-.84-.95-.34-3.31-3.66-3.73-5.27-.66-3.12,9.5-7.82,7.53-.9-.38.25-2.93-4.49-.81l-.52-4.97-1.49,4.97c-1.66.43-.53-1.54-1.45-1.82s-4.19.97-4.93.83c-.69-.13-.61-3.67-2.58-1.99-.36.31.82,2.37-.99,1.98l-.52-4c-2.03.89-6.05.52-3.99,2.99l1.53.53-9.99,1.47,1.98-5.97c-3.69-.08-2.1,6.91-2.49,6.99-2.5.47-1-2.47-1.98-2-2.01,3.29-4.73.2-7.21.22-1.56,0-2.23,1.77-3.77,1.81-.67.02-.4-2.06-1.06-2.09-.92-.04-2.41,1.21-3.91,1.08-1.59-.14-2.84-2.01-3.03-2-.92,0-1.37,2.88-1.51,2.97-.97.65-2.7-1.62-3.49-1.62-.72,0-1.44,1.67-2.48,1.2-1.93-.88-2.67-4.91-5.48.42l-2-4.96c-2.4,3.62-5.02,1.98-7.5,2.39-2.78.47-13.22,1.75-15.37,1.6-.61-.04-.44-1.83-1.25-2.02-1.71-.41-8.43,1.66-9.3,1-.19-.14,2.09-3.48-.98-3.98-.12.92.51,2.87-.55,3.06-3.64.65-9.25.13-12.98.42-3.92.31-8.52,1.26-12.66,1.27-2.27,0-10.99-1.69-12.07-1.62-1.32.08-3.22,2.62-4.65,1.84-.13-.07,1.29-2.28-.49-2.96-3.33,3.5-8.27,2.3-12.46,2.96-.4-1.81,1.68-.63,1.99-1s-1.27-1.97-1.49-1.97c-.18,0-1.39,1.72-3.03,1.95-4.25.59-8.82-.89-12.92,1.04-3.01-5.93,4.37-3.92,8.96-4,5.45-.1,4.6.9,4.91.89,1.22-.02,3.66-1.63,5.57-.89l.48,1.98c1.96-5.29,10.1-1.55,10.48-1.98.31-.35-.3-2.66,0-3,.34-.38,9.62,2.37,9.96,2,.65-3.97-3.11-2.05-.98-5.97,1.69-.47.53,1.98,1.42,1.96,2.31-.06,3.77-2.97,5.02-3.06,3.61-.28,6.91,1.77,10.45,1.77,3.87,0,10.41-2.11,15.44-1.63,2.39.23,2.5,3.15,5.54-.04l2.02,1.98-.5-1.99c3.11.63,5.24-1.12,7.97-2l-.5,2,24.36-.93c2.01.56.44,2.82.59,2.92,2.12,1.46,1.96-2.01,2.5-2.02,1.76-.03,2.22,2.09,3.98,2.06.67-.01.35-2,1.07-2.06,4.96-.39,15.28-.69,20.33-.42,4.43.24,8.62,5.09,10.51-.55.81,1.08,1.67,1.73,3.05,1.95,4.76.75,12.8-.17,17.9.12,5.15.3,10.84,2.04,15.46.9l.02,3.01c3.66-2.74,7.24-4.42,9.95,0v-3c7.34,1.91,15.07,2.46,22.58,2.92,2.23.14,3.79-1.4,4.87.09.21.28-.48,1.37-.21,1.78.38.59,2.39.75,2.52,1.64.55,3.79-4.47,5.19-7.43,5.51-1.26.14-1.3-.96-1.38-.96.96,1.03,4.57-1.88,1.48-2.98-2.11-.76-1.8,2.63-1.48,2.98ZM1280.66,37.77c-1.8-4.91-4.9,2.94-3.98,4,2.43-2.24,5.53,2.32,5.95,2,.08-.06-.01-1.31.63-1.9.79-.73,2.54-1.14,2.38-1.59-.98-2.73-4.27-2.37-6.46-1.48l1.48-1.02ZM1268.43,37.1c-1.83-.82-4.09-.33-6.01-.28l-3.69,2.94,6.97,2.01,1.5-3.98c1.27,3.77,5.09,4.17,7.48,1-1.7-.17-3.68.35-5.3-.03-.71-.17-.69-1.54-.95-1.65ZM1354.47,39.76c-.6-.65-.99-3.2-1.49-2.98-2.41,1.08-.97,3.3,1.49,2.98ZM1313.57,38.79c-.31-.29-4.44-1.25-4.97-1-.55,1.33,4.15,2.36,4.98,1.98-.05-.32.14-.85,0-.97ZM1318.56,37.78c-1.38-.31-2.65.54-2.99,1.98h2.99s0-1.98,0-1.98ZM1322.54,40.77c.99-1.23-2.02-3.93-2.98-2.99-1.54,1.52,2.82,3.19,2.98,2.99ZM1348.47,37.78c-2.63-2.96-1.77,4.78-1.98,4.99l-5.97.48c1.76,1.97,9.65,1.54,9.73-.96,0-.24-1.61-4.33-1.77-4.51ZM1292.62,38.78l-2.98.49c.91,1.06,1.51,1.82,2.98,1.5v-1.98ZM1389.38,42.77h-3.98s0,.98,0,.98c2.12.47,3.09,1.72,3.98-.98Z"/>
  <path class="cls-1" d="M2049.65,44.76c-.17-.15.26-1.54-.09-1.85-.33-.28-7.69.47-7.88,2.35l.58,1.43c-2.12.59-9.42-6.3-10.54-4.93-1.74,2.13,1.78,2.82,1.98,3.98l-8.97-1.98c-.51,1.75,2.39.48,1.99,1.48-.98,2.41-3.61.5-5.37.6-3.34.19-6.33,3.17-5.6-2.1-4.14,2.56-1.72-2.22-5.97.02l1.98,1.97c-3.09,1.09-5.35-1.04-7.48-1.49-1.16-.24-2.69,1.08-4.47.04-1.27-.74-3.13-4.77-3.02-6.52-2.15-.6-2.6.87-2.01,2.5.31.84,2.46-.14,2.02,1.48-5.11-.62-10.38.73-15.49-.17-.84-.15-.06-2.15-.95-1.81-2.16,2.72-11.05,3.91-9.49-1.01-4.09.73-3.78,4.34-7.96,1.99-.4-1.76,1.56-.61,1.91-1.04.29-.35-1.34-2.58-.92-2.93,6.37-.08,13.1-1.61,18.95.98l-.5-1.99c4.59.88,10.02-.78,14.03-.88.48-.01.31,1.68,1.06,1.88,1.13.31,6.46-1.82,8.34-.99l-2.98,3.47c6.33,6.41,3.67-.69,4.44-2.47.74-1.69,7.07-2.13,8.08-1.67s1.87,4.48,3.42,2.67c.8-.93-2.35-4.13,4.28-2.78,1.49.3,2.59,1.62,3.22,1.79.24.06-.29-.67,3.66-1.27,3.6-.54,12.18-2.3,15.49-1.57,1.21.27,3.49,2.62,4.26,3.81l-10.97.02c3.43,3.87,12.25.92,17.5,1.14.57.02.37,1.79,1.06,1.89,2,.3,16.89-1.89,21.68-1.69,5.33.22,14.53,2.51,19.19,2.56.46,0,.4-2.02.88-1.93.96.18,2.36,1.65,4.16,1.68,5.26.11,11.75-1.48,17.32-.67l-1.98,1.97c4.95,1.55,1.41-4.41,4.81-2.5-1.47,4.29,1.7-.66,2.67-.52,4.44.62,2,4.63,3.47,5.56.73.46,3.33-1.01,4.53.44,2.12-3.37-5.69-2.47-4.5-5.95,3.62-1.48,4.2,2.03,4.48,2,1.03-.1.18-1.55.58-1.92.21-.19,3.7,1.39,5.4,1.38,2.46,0,6.28-1.77,7.87-1.53.69.11.58,2.05,1.18,2.09,1.32.08,3.34-1.47,5.87-1.07,2.29.36,2.66,2.77,6.02,3.05s-1.38-2.04,2.44-2.43c1.37-.14,16.73-.49,17.58-.27,1.27.33,1.14,2.25,1.54,2.55.44.32,2.81-1.97,4.43.11l.45,5.98c-1.03.55-21.92-.34-23.3-.95-1.46-.64,0-2.96-1.14-3.05-5.64,1.22,1.25,2.39-.5,4-.22.21-4.13-1.43-5.86-1.47-5.03-.12-12.24,1.35-17.51,1.21-5.86-.16-14.4-2.37-20.02-2.28-1.31.02-9.58,2.13-10.46,1.53-.21-.14,1.27-2.36-1.49-3.99-.88.02-.44,2.3-2.11,2.88-4.28,1.48-14.36.19-19.04-.49-2.03-.29-7.04-.36-8.82-.83-.43-.11-10.34-5.08-6.43-.56.29.34,2.57-.94,1.99,1.49-6.39,3.14-4.08-4.86-5-5.47-2.02-1.33-3.72,1.87-3.98,1.99,2.05-1.09,2.97,2.16,2.98,3.99l-3.98-1c-.42-.44.76-2.86,1-2.98-.56.26-2.32-.37-2.9.08-.34.26,1.69,4.45-6.07,2.9.25-1.97,6.06-2.23,2.49-4.96-2.4,3.23-3.47,6.48-7.48,2.97-.62,4.23-3.08,4.05-3.99.01h3.99ZM2023.71,41.77c-.3-.27-3,.16-3.98,0-.41,4.96,5.8,1.61,3.98,0ZM2103.89,44.38c-.59-.58-.12-1.91-.88-1.61-4.87,4.35,3.79,4.05,2.48,2.01-.04-.07-1.03.15-1.6-.4ZM2140.41,44.76h-2.99s2.5,2.98,2.5,2.98l.49-2.98Z"/>
  <path class="cls-1" d="M729.11,42.76c-1.93-2.65.42-2.51,3.27-2.83l7.69,3.82c-2.69,2-5.11-.67-6.45-.62-2.12.09-5.61,4.1-9.49-.37-.03,7.95-12.53,6.7-18.35,7.02-2.5.69-7.72,2.75-10.08,2.5-1.79-.19-3.24-2.56-6.73-2.3-2.53.19-3.19.83-1.75,2.74-1.21.77-10.64.64-12.31,1.1-.44.12-5.66,5.8-7.63,1.39-.86-1.92,3.51-.81.98-4.46,3.17-1.43,6.42-.64,9.51-1,1.52-.18,2.59-.43,1.47-2-7.53,1.57-15.88-.31-23.42-.09-8.7.25-18.09,1.74-26.9,2.13-1.3.06-3.04-1.13-3.97-.93-1.39.29-1.47,3.2-2.58,4.37-2.16,2.27-5.58.4-8.42.44-7.53.09-18.42-.95-24.95-.37-8.02.71-12.59.22-20.04.47-9.07.3-18.33-.79-27.75-.96l-1.63-4.54c4.97-.03,14.47-4.41,17.46.48l3.48-2.99,2,2.99c.22-4.84,7.67-2.26,11.32-2.38,2.24-.08,5.76-1.75,7.09-1.65.59.04.56,2.07,1.07,2.09,1.31.05,3.49-1.94,5.98-2.13,14.65-1.08,34.8-.97,49.85-.83,3.47.03,7.58-2.18,8.96,1.9,4.95-3.15,6.89-3.93,12.52-2.5s1.37.09,3.59-.44c7.7-1.82,19.96.48,27.67-.34,1.47-.15,2.75-1.7,5.08-1.74,5.08-.09,11.81,4.15,16.49,1.02l-2.48-1.99c3.23-.82,6.34,1.83,9.04,1.95,1.88.09,3.55-1.19,5.69-.81,1.67.3,2.78,2.25,4.72,1.85Z"/>
  <path class="cls-1" d="M801.91,41.77c-.2.3.31,1.73-.02,1.96-.45.32-10.63,1.5-10.95,1.05-.35-.49.63-2.78-.52-3.01-2.18-.67-1.03,1.76-2.13,2.02-3.75.87-7.98-1.02-10.88-.89-1.82.08-2.96,1.6-4.11,1.73-1.68.19-2.36-2.39-4.32-1.84,3.15,3.88-4.06.77-3.98.5,1.45-4.63,4.42-2.53,5.05-2.99.42-.31,2.38-5.44,3.6-5.52,3.68-.25,8.18,1.7,11.46,2.38,1.21.25,2.67-.46,3.19-.32.75.2.49,1.89,1.25,1.94.64.04,1.81-1.15,2.25-.8.35.27-.29,1.32.63,1.82,2.26,1.24.71-3.33,1.5-4.01,5.06,1.6,9.97-.3,15.44.02,5.12.31,9.95.66,14.97.89,1.52.07,9.83.78,10.28,1.24.22.22-.96,2.16.69,2.83.13-4.61,2.81-1.66,6.48-2.98-.94,3.66,1.23,6.15-4.41,6.01-.69-.02.02-1.9-2.02-2.06-4.39-.35-4.63,1.83-5.24,1.97-2.18.5-23.3.51-24.43.01s-.08-2.3-3.79-1.95c.95-1.47,1.81-1.4,2.97-2.49l-4.96-1.49,1.99,1.97-4.98,2.99c1.82.67,3.77-.87,4.99-.99Z"/>
  <path class="cls-1" d="M2279.05,45.76c-1.31,1.68-1.05,4.62-4.48,4.02-.25-.04-.38-3.04-4-1.77-6.66,2.34-7.74,1.23-14.98.75-2.72-.18-4.52,1.52-7.96-1.02l.5,2c-4.38-1.68-6.94.92-11.16,1.37-6.08.64-1.49-2.4-4.81-6.34,2.78.63,5.62.84,8.47.88,2.53.04,13.89-1.02,14.91-.75,1.49.39,1.4,2.7,1.58,2.85.21.17,3.02-2.22,4.8-2.47,3.21-.44,9.57.98,13.12,1.47-.04-.64.12-1.4,0-1.99,1.18.24,2.37,1.48,3.99,1Z"/>
  <path class="cls-1" d="M2275.06,44.76c-4.36-.89-8.72-1.67-13.13-2.33-1.97-.29-5.79,1.33-5.68-1.99.15-4.76,10.72-1.95,14.07-1.42,11.71,1.86,24.32,1.98,33.99,4.02,1.32.28,2.92,1.95,4.16,2.7v-4c9.88,2.27,19.79,2.16,29.75,3.02,1.11,3.42,3.38.21,6.64,1-.37,1.65-4.17,3.07-5.48,3.08-3.37.04-3.56-3.11-6.48-3.1v3.01s-5.98-1-5.98-1l3.98,1-1.45,1.65c-6.28-.97-12.66-.32-19-.65-2.14-.11-4.86-1.75-6-1.62s-1.69,2.19-3.47,1.61c-.2-.18,1.58-4.95-.99-4.97-1.05,3.1-2.69,3.15-.01,5.97-3.28-1.01-10.75-.37-13.33-1.05-.7-.18-.61-1.53-.82-1.62-.59-.27-3.88,1.71-3.32-1.31l3.5-1.98c-4.39.08-4.3-2.44-6.98.99-.27-1.56-4.12-3.58-4.99-2.98-.06.81.86,1.28,1,1.98Z"/>
  <path class="cls-1" d="M1518.04,44.76c-2.57.82-5.35,1.08-7.49,2.98l-.5-1.98c-1.72-.41-.64,1.49-1.07,1.88-.28.25-6.48-.73-7.38-.91-2.35-.47-3.31-3.06-5.01-3.04-2.42.03-1.94,2.84-3.12,3.05-1.79.31-9.39-1.51-12.01-1.61-6.7-.23-21.68-1.1-27.66-.28-3.63.5-6.79,2.94-10.56,2.89,1.03-3.6,4.47-2.88,3-7.97l2.48,2.97c1.85-.58.03-2.97,1.01-2.98,3.79-.05,5.9,2.47,6.91,2.61,2.97.42,8.94-2.37,12.03-2.59,1.05-.07,11.99.81,13.88.97.87.07-.31,2.96,3.55.98l-.99-1.95,13.98,1-.5,2c5.97-4.37,13.18-.38,19.43-2-.17,1.22.29,2.94,0,3.99,7-2.23,19.86-4.53,27.19-2.75,1.95.47,4.61,2.87,6.08,2.6,1.57-.29,2.34-3.43,4.63-2.83-1.55,3.24-.17,5.09,2.98,5.97l-1.98-3.98,5.98-.02-1.98-1.97c3.84-.59,9.13,1.87,12.55,1.9.26,0-.64-.66,3.92-.84,3.42-.13,7.67-2.82,6.21,3.64-1.36,6.01-4.45-1.69-6.72-2.71-.4,1.25,1.94,5.67.48,5.98-2.22.47-1.02-1.34-2.22-1.96-.55-.28-4.99-2.2-5.22-2.03-.26.19-.3,3.45-2.51,3-4.23-.57,2.68-1.11.49-3-2.83-2.44-3.16,3.47-4.6,3.92-.99.31-4.03-.94-5.83-.99-3.64-.09-11.02.8-13.86.07-1.1-.28-.21-1.99-1.14-2.03-1.02-.08.33,2.83-1.98,2-2.9-1.05.84-5.7.48-5.96-4.77-1.04-2.08,2.09-3.43,4.02-1.51,2.17-17.79-.3-21.5.95-.41-.37,1.76-2.11,1.99-2.98Z"/>
  <path class="cls-1" d="M2205.96,44.11c.32.12.32,1.69.83,1.7,1.21.02,2.76-1.48,4.45-1.67,6.87-.75,13.2,1.03,19.94.62-1.31,2.19-.58,3.71,0,5.97l-39.91-1,1.99-.98.52-4.99,2.49,3.97c3.87.67.98-2.99,1-4.97.35-.31,7.54.9,8.69,1.34Z"/>
  <path class="cls-1" d="M249.15,43.05c.27.15.18,1.63.63,1.62,1.62-.04,8.39-2.89,9.53-1.88.55.49-1.16,3.55,1.51,2.97,1.35-.29-2.9-4.17,2.5-2.99-1.33,4.2-1.74,5.32,2,7.96-3.57-.38-7.69.09-11.15-.22-1.92-.17-4.17-1.6-5.38-1.69-.46-.04.02,1.86-1.88,2.04-1.39.13-12.2-.56-12.53-1.11-.15-.25,1.1-1.75,1.04-2.41-.04-.36-4.31-1.06-1.05-3.11,1.63-1.03,6.05.33,8.32.17,1.96-.13,4.59-2.35,6.45-1.34Z"/>
  <path class="cls-1" d="M1197.87,41.77l-.98,4.97c1.59.31.98-1.9,1.98-2.58s2.19.58,2.81.3c.25-.11-.09-1.77,1.65-1.83s3.23,1.01,4.11,1.04c.47.02.35-1.9.97-1.95,2.07-.17,7.86,1.76,6.42,5.03-8.55-1.13-17.31,1.01-25.92,2v-5.99s8.96-.99,8.96-.99Z"/>
  <path class="cls-1" d="M363.05,50.74l-2,2.49,2,1.49c-2.85.16-5.2,1.15-7.98,0,.43-6.71,3.62-2.35,7.97-3.98Z"/>
  <path class="cls-1" d="M2360.84,46.76c.54,4.12-1.04,3.86-3.5,1-.62,3.3-5.34.72-8.47,1.98,2.56-3.97,7.94-2.95,11.97-2.98Z"/>
  <path class="cls-1" d="M978.46,91.63c.2-3.87,1.83-9.59,4.97-11.97-.95,4.25-.74,9.4-4.97,11.97Z"/>
  <path class="cls-1" d="M751,40.78c.12.11,1.16,2.87,1.05,2.97-.71.69-10.68,2.73-7.99-1.98,1.49.65,6.67-1.25,6.94-.99Z"/>
  <path class="cls-1" d="M742.06,34.8c.25,1.46-1.65,1.34-2.66,1.58-2.24.52-5.01.41-7.31,1.39,1.9-3.7,6.55-3.03,9.97-2.97Z"/>
  <path class="cls-1" d="M763.73,43.48c-.24.28-2.61,1.39-2.7,1.27.49-4.54-.95-4.93,3.97-5.98.09,1.58-.22,3.48-1.27,4.71Z"/>
  <path class="cls-1" d="M354.08,50.75c.16.16-.95,3.47,0,4.46-7.6,2.09-1.63-6.06,0-4.46Z"/>
  <path class="cls-1" d="M760.02,40.78c.27,1.63-1.42.73-2.67,1.35-.41.2-.5,1.66-.8,1.64-1.9-.14-3.2-2.11-2.5-3.99l5.97,1Z"/>
  <path class="cls-1" d="M842.81,43.76c-.47-3.44,1.01-1.27,1.88-1.52,1.93-.56,2.69-2.11,4.08.03l-5.96,1.49Z"/>
  <path class="cls-1" d="M293.24,58.71c-1.09-.1-2.48.25-3.45-.04-3.44-1.03,1.03-5.65,3.45.04Z"/>
  <path class="cls-1" d="M2344.88,49.74c-.57-.57.83-2.97,1.49-2.97,2.76,0,.02,4.47-1.49,2.97Z"/>
  <path class="cls-1" d="M1396.36,45.77c-.34,1.44-1.61,2.29-2.99,1.98v-1.98s2.99,0,2.99,0Z"/>
  <path class="cls-1" d="M712.14,37.77h-1.98c-.32-1.47.44-2.07,1.5-2.98l.49,2.98Z"/>
</svg>