<?xml version="1.0" encoding="UTF-8"?>
<svg id="Layer_1" data-name="Layer 1" xmlns="http://www.w3.org/2000/svg" viewBox="0 0 2388.1 96.56">
  <defs>
    <style>
      .cls-1 {
        fill: #fff;
      }
    </style>
  </defs>
  <path class="cls-1" d="M1793.32,45.32c.1.74.32,2.03-.51,2-1.18.2-2.33-.96-2.48-2,.95-.11,2.02.01,2.99,0Z"/>
  <path class="cls-1" d="M913.62,37.34c.52.04,1.73,1.4,1.98,1v-4c3.98.22,8.55.84,12.47.77.9-.02,2.37-.93,2.49-.77.27.35-.32,2.21.08,2.91.11.2,3.34-.27,4.41,1.1l-2.48-3.99c5.05.55,10.48-1.27,15.42-1.05,2.19.1,4.06,1.71,5,1.66.73-.04,2.02-1.57,3.95-1.67,5.74-.29,11.77.24,17.52.06-.4,5.96-2.12,3.85-3.03,4.53s-.85,2.34-.99,2.45c-.36.28-6.47-5.13-5.96,1.99,2.15.17,13.42-1.24,14.33-.99,1.98.55-1.79.98,4.09.99,3.28,0,6.62.21,9.88-.11,1-.1,4.69-.4,4.6-1.86-3.07-2.1-4.63.87-6.47.95-1.17.05-5.29-1.77-8.05-1.8s-5.52,1.4-8.42.83c2.72-1.61.41-6.21,1-6.97.21-.26,5.68.23,6.69.28,6.39.26,13.87.52,20.86.59,13.12.14,26.71-.59,39.77.32,2.21.16,14.69,1.36,15.41,1.86.17.11-1.63,1.94,1.26,3.18,5.76,2.48,13.09,1.11,19.07.38,4.76-.58,7.2-.83,12.14-1.13,1.08-.07,2.5-1.77,4.98-1.63,2.67.15,3.43,7.98,6.99-.86,3.93,6.07,4.88.5,5.91.29,2.14-.43,7.87,1.06,10.53-.29.46,2.62-1.25,3.93-2.96,5.48l3.47,1.5c-.76-2.54,3.72-8.15,5.43-6.94.4.28.48,4.08,4.53,2.68.5-.17.32-1.39,1.96-1.81,1.37-.35,6.89-1.39,7.53-.9.43.32-1.88,2.55-.5,2.98l3.16-2.9c3.89.61,19.32-1.68,21.25.4,2.7,2.92.89,7.18,8.01,2l-2.98-1.48c3.92-.38,12.53-2.37,14.95.97l-7.47.25-3.5,3.74c2.12-1.98,6.37-.38,6.93-.52.33-.08,5.86-2.75,6.11-2.97,1.02-.9-.2-2.42-.09-2.48,1.59-.94,15,.59,18.4.74,2.37.11,6.39-2.35,8.07,1.26.68,1.46-1.81,4.74,1.95,4.98l.52-7.99c6.26.98,13.03.84,19.45,1.08.51.02,7.26-1.44,5.48.91-.13.18-3.35-.45-1.48,1.02,5.06-2.31,13.54-3.68,18.82-1.87,1.32.45,1.28,2.25,1.84,2.67.29.22,7.64.77,5.27-1.83,3.49-.81,10.38-1.89,14.02-1.85,4.19.04,12.23,1.49,16.7,1.55,6.31.08,16.65-1.44,22.2-.77,1.99.24,1.28,2.25,1.9,2.1.66-.16,1.73-1.64,3.15-1.78,1.68-.16,3.31,1.3,4.98,1.47,2.55.25,4.97-2.6,5.86,1.31,1.01-4.99,6.13.23,6.46-.01s.04-3.08,2.51-3.01c.84.02.12,1.53,1.14,1.92,2.05.8,10.5.85,12.74,1.08.78.08.4,2.01,1.08,2.03,1.88.03,2.18-1.9,3.47-2.4,3.75-1.43,10.14-.23,12.49,3.36l.5-3,12.96.02c.48.36-4.41,5.19-.48,5.01,4.58-.22,3.79-3.94,6.08-4.77,1.7-.61,10.97,1.15,13.82-.31,1.56,6.8,2.44,1.27,3.19,1.07,6.12-1.68,10.55.05,15.96.61,7.27.76,13.58.29,20.78.37,1.88.02,10.91.32,11.46,0,.19-.11-1.93-2.66,1.51-3.04,4.11-.45,11.13,5.46,11.45.06l-2.48-1.03c15.75,1.66,31.63.11,47.76.12,3.46,0,14.65-.58,16.92-.14.7.14.63,2.08,1.19,2.11,1.17.06,4.51-1.82,6.92-2.06,6.9-.68,18.11,2.22,24,1.56,1.77-.2,1.99-3.48,2.85.36l94.34,1.07c1.2-2.32-5.03-2.89-5.56-2.9-.56,0-.15,1.94-.92,1.94-.52,0-7-1.67-10.02-1.98-6.39-.64-1.46-6.1,3.03-6.08,5.63.03,4.54-1.01,5.96-1.07,2.56-.12,7.84.25,11.01.3,4.2.07,9.19.67,13.47.81v5.98s3.76-5.98,3.76-5.98c1.31-.61,7.15-.47,8.48.03,1.12.41.33,1.8,1.21,1.98,2.25.46,1.17-1.36,1.7-1.73,1.98-1.38,9.24,1.29,12.31,1.34,1.19.02,5.76-2.46,7.43-.61,1.01,1.12-3.56,6.07-.5,5.95,3.94-.15,1.2-3.7,1.5-3.96,4.54.23,13.29-2.62,17.21-.97.46.19,2.84,5.58,2.24-.04,3.92-2.42,10.38,3.02,10.97,2.98.81-.06,1.01-2.44,2-2.84.54-.22,6.81.96,3.99,2.84l-2.5-.99-1,4.99c1.67.23,1.29-2.87,2.48-2.97.4-.03,6.71,3.46,7.48,2.96.73-3.73-3.09-2.95-2.99-3.47.41-3.24,6.15-3.38,8.05-2.06,1.37.95.13,5.31,2.9,3.06l-.99-2.5c.74-.73,12-.64,13.18-.02,1.29.68,1.01,2.75,3.28,3.08,3.71.54,12.04-5.64,15.45-.09-4.72.59-1.26,6.93,1.49,2.99.71-1.02.46-4.68,2.04-4.97,1.1-.2,2.6,1.48,3.91,1.55,1.73.1,3.92-1.09,5.9-.58.94.24.57,1.95.66,2.01.53.41,1.99-2.49,4.27-1.89,1.49.39,3.92,4.18,6.19,4.88.69-5.74,7.69-3.97,12.95-3.83,9,.24,20.46.62,29.66,2.01,1.41.21,2.74,1.86,4.26,1.8,2.25-.08,5.18-4.39,8.99.03.61-2.42,10.23-2.4,12.99-2.04,3.61.47,7.13,4.91,7.91,1.03,7.22,6.77,5.11-.87,7-.97l2.01,3.96.49-2.97c2.21,1.7,9.59-.35,9.96-.02.22.2.19,4.42,1.5,5,1.42-.65-.69-3.74-.51-3.99,1.23-1.7,17.59-.24,20.96,0l-.5,2c2.64-.07,2.92-5.86,3.56-1.11,3.05-.8,7.15-.93,10.32-.9,32.18.31,64.63-.93,96.82-.78,5.02.02,5.63,2.76,5.98,2.8.87.09.15-2.07,2.46-2.69,4.58-1.22,14.96,2.99,18.41,2.7.62-.05,8.96-5.51,10.03-1.21l29.52.6c3.61.95,3.29,5.92.44,6.25-1.82.21-4.37-3.36-5.51.31,2.63-1.01,5.22,1.74,6.51,2,.5.1.29-1.54,1.22-1.92,3.44-1.42,10.07-.72,9.23,3.91,1.8.33.55-1.8,1.24-2.69,2.42-3.12,7.37-1.26,10.72-2.28l-2.01,3.98-4.96-2.99v4.98c2.51,1.19,1.85-2.2,2.47-2,.74.24,3.01,2.37,3.49,2l2.03-5.98c2.51-.76,2.33,2.26,3.19,2.82.16.1,3.63.29,3.72.12.38-.66-.21-2.66.06-2.96.89-.96,2.79,1.67,3.46,1.66.63-.01,1.58-1.44,2.98-1.49,4.11-.14,8.38.85,12.5-.16l.03,5.98c2.25-1.03,4.91-.52,7.21-1.06.8-.19.7-1.65,1.4-1.85.96-.27,4.77.62,6.33-.09-2.04-7.48,2.13-.93,2.5-.95,2.34-.15,6.11-5.46,5.47.97l-2,.48c3.44.34-.22,3.39,2.51,4.49,2.17.87,1.99.06,2.71-1.26,1.31-2.43-2.2-6.39.29-6.71,2.42-.31,8.56,8.41,6.45,2.01,3.82-.71,4.01-3.01,8.99-.99-2.7,2.82,3,2.77,3.79,4.15,1.99,3.48-2.08,5.78-5.21,4.88-1.18-.34-.17-4.14-2.9-3.92-4.76.38-3.93,3.43-4.71,4.84-.39.7-12.92-2.56-15.91,0-.43-.4,3.15-6.73-1.49-6.98l.49,5.98h-8.97s-.49-2.99-.49-2.99c-1,3.78-2.73,1.09-5.5,1.01l1.01,1.98c-1.7-.18-3.76.38-5.35.02-.75-.17-.56-3.42-2.64-2-.14.1.76,1.64.51,1.99-1.55,2.12-4.49.14-6.75.21-1.45.05-6.11,1.29-6.72.77-.36-.3,2.95-8.33-3.97-3.48.08,1.21,4.39.45,1.97,4.49-3.08-4.08-1.99-1.94-4.42-2.22-6.61-.77-3.5.64-5.18,1.15-3.84,1.15-17.27.02-20.82-1.91l-.47,1.98h-6.99c.04-1.33,3.08-1.72,2.96-3.49-.08-1.18-2.37-1.55-3.52-1.57-1.56-.03-2.29,2.95-3.96,3.08-.29.02-1.02-4.56-4.45-.51l7.95,2.48c-5.32,1.39-11.23,0-16.4-.04-2.8-.03-4.89,2.58-7.63-.43-.32-.35-.11-4.14-3.39-4.18-1.76-.02-6.28,5.19-6.67,5.38-.47.22-6.45-.22-7.79.27,1.01-1.06.08-3.52.29-3.82.09-.12,3.3-.19,1.7-2.15-.33-.41-5.63,2.81-3.97-1.4l5.98-4.58-33.91-1.01.48-4.99-4.48,1.02c2.86,8.54-3.38,2.96-5.47,2.95-.75,0-.37,1.59-.65,1.82-.48.4-2.08-1.13-2.72-.73-.26.16-3.47,4.62-3.59,4.9-.4.99.78,2.77.47,3.02-.5.4-4.45-.4-4.99,0-2.21,1.69,1.02,1.74,1.35,1.99,1.09.82-.44,1.85-.87,1.99-2.65.83-.83-3.43-1.97-2.98-2.39.93-.34,3.86-.51,3.98-.65.47-4.5-1.55-5.99-1,2.82-6.4-1.6-2.18-2-4.5-.2-1.16,1.25-3.27,1-3.46-.2-.15-4.6-.18-4.93.1-.63.52,1.22,3.76-2.05,2.88-.12-.98,1.84-2.48.45-2.97-1.01-.36-5.58-2.05-5.89-2.06-.2-.01-2.23,2.54-2.53,3.03,4.45,1.52,8.09-2.78,6.97,4l-1.98-.48-.5-2.52c-1.33,2.81-2.16,3.44-5.5,2.99l1.99-2.49c-3.56-1.83-2.59.17-3.48,2.49l-3.5-4.5c3.13-.19,1.47-2.46.51-2.46-.25,0-4.27,1.89-4.44,2.07-.35.35.71,4.11.95,4.88-3.87-2.1-9.34,2.11-10.47-1.98-.73,3.88-10.5,2.92-11.41,1.92-.17-.19-.2-3.78-.06-3.92.39-.41,3.21.78,4.36.69,3.89-.31,4.95-.05,8.1-.12.94-.02,6.12-1.24,6.49-2.55-11.84-.83-23.77-.43-35.63-1.33-2.72-.21-5.64-2.59-9.18-1.14-1.27.52-2.37,3.4-3.93,2.29-.19-.13-.03-1.82-.68-1.88-.92-.08-3.87,1.22-5.58,1.4-3.41.35-10.27,1.45-13.14.63-1.17-.33.11-2.46-2.16-1.99-.88.18-.12,1.47-1.24,1.96-1.35.59-4.98-.12-5.24,2.03,2.83.31,7.68.86,10.32.67,2.15-.15,5.34-1.99,7.02-1.72.69.11.55,1.97,1.03,1.96,7.94-.27,20.71-3.89,26.98,1.1,3.24-3.29,7.35-.38,11.49-1.99v4.98c-4.34-1.69-9.12.31-13.97-1,2.24-3.08-4.51-4.83-.99,1l-3-2.98c-1.59-.08-1.54,2.95-2.57,3.02-.44.03-7.71-.87-8.72-1.05-.25-.05-1.65-2.76-4.14-1.98l.48,2.99c-1.29.98-11.91-1.29-14.44-1.46-2.18-.15-5.03,1.19-7.04.99-3.8-.38-6.07-7.48-6.95-7.48-1.98.02-3.38,5.15-3.49,6.95,1.79.94,4.59-2.21,4.93-1.94.1.08-.14,1.34.33,1.64,1.16.71,2.99-.44,2.71,1.3-5.22.77-10.64-.63-15.58-.85-5.72-.26-6.01.44-11.34-1.13h1.99s0-3.98,0-3.98h-1.98s0,3.98,0,3.98c-.9-.26-8.4,1.59-7.97-2.99,3.65,1.87,4.01-2.01,5.77-2.98s5.7-.43,9.7-2c2.7-1.06-.73,3.52,1.96,1.97,2.21-1.27,2.11-4.46.01-5.97-.65,3.64-.65,3.21-4.49,2.98l-.48-2c-.94.07-.12,1.69-1.13,1.97-6.12,1.69-27.86-.34-35.61-.58-3.11-.1-5.88,1.63-9.63.1-.89-.36-1.74-2.25-2.49-2.25-.45,0-1.94,1.77-4,1.88-1.94.1-3.83-1.2-4.94-1.15-.61.03-.41,1.65-1.04,1.82-.52.14-10.26.12-10.79.04-1.41-.21-3.38-2.53-4.69-1.82-.13.07,1.24,2.32-.5,2.98-.81.27-.05-1.43-1.24-1.96-.38-.17-7.57-1.04-8.23-1.03-.18-1.36-.21-2.12-1.5-2.97-1.14.92-1.71,1.47-1.5,2.97-3,.36-4.7,2.11-8.66,1.64-3.18-.38-5.66-3.72-6.79.36-1.07-3.07-6.64-.73-7.31-1.25-.86-.67-.39-2.77-2.68-2.76-.84,0-.16,1.81-1.16,2.05-2.58.61-10.42-.45-13.31-1.02l1.01,1.98c-3.21.73-6.52-.9-9.44-.87-6.06.05-13.94,1.69-20,1.69-2.07,0-7.25-2.03-8.99-1.65-.62.13-.39,1.74-.89,1.73-3.4-.07-8.74-1.35-10.05-4.87-2.27,1.46.39,3.76-2.05,4.9-6.55-.64-13.49-1.46-20.06-1.55-6.52-.08-15.12,1.09-21.66.6-1.71-.13-4.51-1.87-5.15-1.77-1.19.19-1.52,3.22-3.11,3.67-1.06.3-2.57-.74-3.72-.56-6.36.99-17.13,2.65-22.89,2.39-2.66-.12-4.13-2.67-6.64-2.71l.99,2.98c-3.34.38-7.03.34-7.99-3.5-.2-.8,3.67.16,1.01-2.01l-3.01.52-.47-1.98-1.52,3.97c-1.97.3.14-2.61-2.47-1.99-.9.21-.46,2.04-1.5,2.51,1.55,1.53,5.82-1.27,4.98,2.48-4.12.27-8.41-.34-12.51-.05-2.12.15-3.42,1.87-4.76,1.84-.51,0-9-1.55-9.94-1.77-.47-.11-4.34-5.55-8.17-4.01l4.46,4.99-4.97-1.99c-.17.81.27,2.62-.02,3.01-.34.45-9.31-.76-11.16-.72-6.87.16-14.4.31-20.37.38-3.36.04-6.6-.8-10.35.32l-.48-2c-.99,3.71-3.35,1.36-5.99,1.57-3.46.27-6.78,1.06-10.01,1.42-2.54.28-.77-.82-.45-1.96-4.34,1.81-7.62-.04-11.98,0l1.01,1.98c-7.52-1.28-15.12.19-22.42-.03-5.24-.15-12.69-.35-17.75-1.14-2.84-.45-2.81-2.93-3.21-2.81-3.08.98-7.28,3.79-10.92,3.87-3.08.07-7.63-2.52-9.96-2.74-1.47-.14-7.24,1.57-8.6.4-1.19-1.01,1.76-2.65-4.45-3.51,1.09,6.41-4.58,2.3-8.94,4l1.47-2.01c-9.56,2.7-17.37-.27-26.74-.81-5.12-.29-10.12-.2-14.6-.14-5.85.08-11.69-.58-17.49-.06.6-7.34-6.71-.21-9.52-.02-3.32.22-10.14-1.7-13.93-1.96-26.36-1.77-55.42-2.49-81.77-2.09-1.66.02-11.06,1.49-11.47,1.08v-3.48c3.38,1.21,1.91-1.42.5-3.49-.77,1.12-3.05,2.48-3.49,3.5-.81,1.87,4.21,1.62,1.98,3.47-.37.3-7.97-.52-9.49-.48-.77.02-1.52,1.36-2.79,1.24-1.1-.1-3.01-2.35-5.66-.77-.43-1.62,1.41-.64,1.72-1.18.63-1.1.17-2.56.26-3.79l-4.76,2.22c-.58.66-.03,2.1-.32,2.63-.2.37-7.44.67-8.34.57-1.17-.12-2.2-1.64-3.98-1.5-.62.05-.11,2.09-2.01,2.17-2.26.08-4.98-1.53-6.88-1.15-.72.14-.61,2.01-1.24,2.1-2.69.37-6.79-2.56-7.89-5.04l-.5,2.99h-2.99s-.01-3.01-.01-3.01c-1.6-.27-3.34,3-3.57,3-1.42.01-6.92-.78-8.85-1.04-2.3-.32-2.65-2.89-5.81-.94-.63.39-.66,1.98-1.34,2.04-1.52.13-3.36-1.32-4.76-1.13-.66.09-.54,1.99-1.01,1.98-4.25-.14-10.91-2.94-14.5.08.48-1.55-.84-3.04-2.03-1.96-.25.22,2.55,3.37-2.3,5.26-1.91.75-12.84.54-15.91.54-17.13,0-37.23-1.27-55.06-1.34-3.65-.01-19.5,1.93-21.22.24-.76-.75-.74-4.39-3.24-4.72l.99,4.98c-6.97-1.18-14.28.93-21.02.66-2.47-.1-5.64.07-6.4-2.64-4.41,5.57-10.89,1.93-16.02,1.97-6.44.05-13.72.05-19.3.41-8.22.53-15.62.78-23.5.65-4.4-.07-12.04.52-15.94-.1-1.73-.28-2.69-1.91-4.03-1.97-.93-.04-.62,2.57-2.07,2.92-.46.11-8.99-.7-9.42-.9-.14-.07,1.54-2.7-.99-2.98-.11.93.53,2.87-.56,3.06-3.22.55-10.33.88-13.87.96-3.12.07-5.41-.73-8.01-.83-3.06-.12-7.4,3.31-6.49-2.2-5.04,4.19-5.14-.14-5.47,0-1.34.58-1.58,2.49-4.5,1l1.01,1.98c-7.02-1.62-12.93.3-19.67.56-6.08.23-12.16-.37-18.24.46,1.52-5.01-3.81-5.93-5.49-1.99-1.65-4.6-4.9-1.41-6.97-1.46-6.96-.14-14.85-.63-21.88-.68-5.94-.05-12.11-.62-18.05-.78l-2.46,2.91c3.24-1.45,4.92.07,7.93,1.08l-.96,1.91c.88.65,3.92-2.53,6.46-1.73.33.1,5.45,3.69,5,4.73-9.06-1.21-19.36.39-27.97.12-1.94-.06-1.3-2.19-1.96-2.15-1.93.1-3.17,3.08-6.83,1.91-5.35-1.71,3.87-6.76,6.06-7.63,4.83-1.91-8.89-.55-8.69-1.22,6.44,5.8,2.2,2.81-1.4,3.06-.98.07-7.33,1.63-7.58,1.93-1.08,1.29,1.4,3.28,3.47,3.04,2.66-.3,2.36-3.36,4.49-4.05,1.59,4.64.49,4.56-4.64,4.9-4.32.28-10.37-3.53-11.79.09-2.06-1.54-4.05-1.37-5.01-4-1.08.07,1.78,6.79-6.28,3.32-1.47-.63-.95-2.43-1.71-2.35-2.61.27-2.49,3.86-5.97-.96-.25,3.5-1.89,4.3-4.48,1.49l.5-1.5c-2.79-1.04-4.69,2.88-5.18,2.99-1.18.26-8.73.34-9.67.08-.75-.21-1.71-6.41-4.1-7.04-1.5,2.33-.24,5.02,2.5,5-3.35,3.88-11.93.72-16.95,1.97-.46-.39,1.39-3.5.99-3.97-1.67-1.98-2.09,1.68-2.22,1.78-.55.4-3.38-1.05-4.26,1.19l-.49-3.96h-3c2.86,3.48-6.82,4.37-9.37,3.96-1.79-.29-3.45-2.23-5.58-1.98-.36-1.78,1.45-.61,2.15-1,5.19-2.89-2.05-8.03-2.99-1.25-.18,1.29.96,3.14.84,3.24-.89.77-10.68,2.26-6.99-2.98l-4.99,1,.49,1.99c-1.37-.46-4.11-.17-5.23-.71-1.81-.88-.48-2.97-3.23-2.3,1.58,8.24-6.76,2.23-9.46,2.37s-8.02,5.78-5.5-2.37l3.49,2.99c.39-2.66-2.66-7.52-5.48-8.97l.99,4.98c-5.09.7-2.02-1.4-2-4.98-3.7.66-2.2,3.87-5.48,4.98l-1.58-3.91c-2.58,1.05-7.39-.43-9.17.05-3.09.82-1.6,7.05-8.68,1.87l-1.01,2.98,6.98.02c2.7,2.38-10.64,5.2-12.97,3.98l-.47-1.98c-2.72,3.68-6.92.61-10.72,2.04-.88.33-.8,1.87-1.21,1.84-2.46-.19-8.07-3.09-10.57-1.44-.86.57-.82,2.39-.99,2.52-.35.27-7.26-3.04-8.3-2.85-1.36.24-3.51,3.86-4.14,3.84-.54-.01-1.89-2.63-2.98-2.71-.65-.05-2.52,1.48-4.07,1.7-6.72.95-4.35-2.56-4.59-2.82-1.94-2.14-26.23,1.29-31.22-3.19l-.05,3.06c-4.08-2.5-8.23-1.05-12.8-1.37-1.25-.09-2.33-1.36-3.32-1.46-1.42-.14-2.62,2.09-4.8,1.87-.46-.05-.56-2.05-1.03-2.1-2.06-.21-3.07,1.72-4.75,1.79-5.33.22-12-1.5-17.16-1.48-1.21,0-2.29.79-3.51.74l.5-1.99-1.49,1.99c-7.42-2.71-18.62,1.38-25.45.52-1.78-.23-3.95-2.63-7.03-2.59-1.86.02-1.26,2-2.07,2.11-8.8,1.22-25.87-1.87-36.72-1.45-2.15.08-6.02,3.36-8.01-1.56-3.74,3.62-11.68.76-17,1.11-1.57.1-2.49,1.81-3.78,1.7-2.79-.23-13.71-3.26-16.14-2.6-.63.17-.45,1.78-1.05,1.82-1.44.1-4.21-1.74-6.14-1.77-1.18-.02-2.11,1.23-2.75,1.22-2.7-.06-8.94-.01-10.95-.42-1.06-.21.71-4.65-4.54-3.05l2.99,2.97c-1.53-.35-3.52.84-4.71.74-5.82-.46-12.17-.15-18.65-.81-14.22-1.46-22.84-.19-36.98.09-3.07.06-6.29,1.36-9.48.98l1.99-3.97c-4.91-1.55-4.67,1.76-6.66,2.76-4.28,2.15-13.35.18-18.28,1.21l-.47-1.97c-10.32,5.01-22.44.25-33.95,1.47-2.16.23-5,4.44-4.48-1.5-2.55,2.2-1.75-1.22-2.48-.98-1.32,1.25-3.3,3.64-5.16,3.8-.87.08-7.54-2.34-8.81-2.36-1.68-.02-6.44,2.18-7.98,2.4-2.49.36-4.35-1.68-5.81-1.62-2.49.11-2.7,2.66-3.09,2.63-.99-.07-2.34-1.04-4.02-.97-2.37.09-9.92,1.23-11.55.53-2-.85-.36-4.28-3.46-4.44-.29-.01-.07,3.1-4.47,1.02-.18.15,2.07,3.13-.64,3.9-2.3.65-12.09-1.13-15.31.07l6.97-2.99c-3.04-4.32-7.37,1.72-10.02,2.51-1.62.49-2.46-.52-3.33-.48-.78.04-.12,1.93-2.08,2.06s-4.25-1.12-6.5-.1c.13-4.45,4.34,1,1.98-5.99-6.63,1.59-2.71,1.71-3.07,4.44-.2,1.46-5.95,1.79-7.22,1.57-.66-.11-.86-3.26-3.66-2l1.98,1.97-6.47,1.02,1.48-3.99c-4.99-.93-2.78,2.92-2.98,2.98-2.86.88-4.6-1.35-3.98-3.98l2.98-.99c-4.3-.72-3.56,2.14-4.48,4.98-2.11-3.7-6.21-6.12-10.48-5.97v4.97c1.84.96,4.6-2.24,4.97-1.98.07.05-.17,1.3.32,1.61,1.57.98,4.46.5,4.68,2.36-4-1.3-7.87.67-11.58.91-1.84.12-3.53-1.02-5.37-.9.29-1.38-.53-2.66-1.98-2.99v2.99s1.98,0,1.98,0c-3.17.2-7.7.77-11.42,1.05-1.56.12-3.13,1.64-4.04,1.6-1.46-.07-3.96-3.65-5.95-3.69-.29,0-3.83,4.09-4.12,4.08-1.2-.01-2.22-1.25-3.34-1.48-.96-.2-2.01.57-2.79.2-.19-.09-2.22-3.55-3.25-2.75-.46.35,0,4.05-.94,4.54-2.01,1.04-5.95-.93-7.42-.51-.8.23-.3,3.31-4.61.47,1.21-5.31,4.49-4.07,4.92-4.56,3.52-3.92-9.24-5.01-11.92-3.93v-5.98c6.6.58,13.4.64,20,.65,3.69,0,10.22-2.77,11.42,1.36,1.08-3.31,8.11-.56,11.79-1.88,4.18,2.91.26,2.57-.35,3.52-.82,1.29-.81,4.19-.98,4.33-1.93,1.69-6.04-2.18-1.98-4.98l-5.99.99c3.12,4.86-1.96,1.43-1.97,3.48,0,2.47,4.81.3,4.96.49-1.63,4.59,7.62,4.59,6,0l2.98,1c-2.83-4.05,1.04-4.11,1.05-4.53.03-.81-1.51-3.02-1.05-3.43.19-.17,1.57.3,2.15-.1,1.86-1.28-.09-2.35,3.83-.88l-1,1.96c2.99.57,1.37-2.45,4.69-2.76,7.53-.7,17.81.74,25.78.82s18.71,1.2,25.77.65c3.41-.27,5.01-3.99,7.11,1.32.93-.04.02-1.77,1.13-2.03s18.67-.94,19.7-.74c4.87.94-2.98,2.22,1.1,2.78,6.27-1.94,13.12-2.64,19.45-2.51l-1.99,2.49c2.94,1.04,2.75-1.54,3.76-1.9,6.34-2.23,13.25.06,19.69-.02s13.01-1.07,19.44-1.07v3.01c4.62-4.52,7.11-2.49,12.52-2.5,6.88,0,13.52-1.2,19.93-1.55,4.33-.24,13.3,1.93,16.92,1.58,1.47-.14,5.82-2.43,8.07-2.44.51,0,.32,1.83.83,1.82,11.07-.2,23.96-.68,35.32-1.62,1.88-.16,4.36-1.34,5.57-1.29.58.02.57,1.54,1.34,1.94,1.17.6,3.41.44,4.06,1.31,1.32,1.79-1.92,2.84,4.64,2.74l-2.47-3.99c3.12,1.68,5.51-.45,7.43-.54,5.91-.28,12.16.42,18,.63,2.05.07,5.87-2.15,6.24.39.12.81-2.26,3.82,1.73,2.5,1.63-.54.29-3.38,2.05-3.9,3.9-1.15,3.57,1.95,3.9,1.91.87-.11,2.55-1.81,4.06-1.62.97.12,1.91,2,2.44,1.63.13-.1.17-2.55,1.57-2.88.89-.21,6.42.78,5.45,2.87,1.79.53.33-1.73,1.48-2,.88-.2-.41,2.75,2.99,2.01.98-.21-.44-1.43,0-2,1.7-2.19,4.64-.04,6.94-.11,5.11-.15,9.26.12,14,.1.85,0,17.16-3.65,13.99.02-.77.89-2.79.45-2.51,1.97l7.97,1-3.98-2.48c1.23-2.04,3.61-1.02,5.26-1.55.89-.29.74-1.97,1.32-2,4.47-.26,2.89,3.81,3.54,4.86,1.43,2.29,9.52.01,12.34.1,17.91.57,35.37.18,53.89.13,3.87,0,14.08-3.13,11.42,3.93,6.33-.17,13.23.78,19.46.8,5.29.01,22.65.09,26.74-.82.69-.15.63-1.74,1.44-1.9,2.1-.42,16.47-2.48,17.11-1.9.46.42-.62,2.28,1.08,1.82.01-5.72,8.16,2.82,8.98,2,1.85-1.86-3.2-2.56-2.98-3.98l21.33-2.07c1.1,3.52,2.8,1.08,6.05,1,7.46-.18,19.73,1.34,25.85.75,2.36-.23,5.3-2.39,8.94-2.31,3.39.08,7,2.65,8.13,2.65.62,0,.33-1.79,1.14-1.98,7-1.62,17.35.21,24.74-.28,3.18-.21,9.23-2.85,11.59-1.29.89.59.65,2.69,1.43,2.5,1.2-.28,3.24-2.46,5.22-2.77,5.46-.87,15.93.06,21.73.23,4.35.13,5.9.28,9.98.61s9.37-2.77,12.83-2c.62.14.82,3.64,2.62,1.94.24-.23-1.08-1.82-.98-1.95l3.32-1.05,4.63,5.99c-.62-3.18-2.17-6.39,2.58-5.71.89.13,1.58,4.41,5.41,2.72l-1.01-1.98c4.88-2.35,7.03,2.95,7.48,2.97,2.06.11,3.16-2.05,1.51-3.97,3.42,1.35,7.21-.09,10.38.09,1.7.1,3.18,1.29,4.44,1.34,6.67.29,13.27-2.17,19.61-1.53,2.11.21,4.25,2.24,4.44,2.08.16-.12.22-2.63,1.57-2.9.8-.16,2.58.9,3.96.93,2.52.06,6.6,1.01,7.96.73.64-.13.38-1.46.97-1.52,2.08-.23,17.58.71,18.5,1.28,1.01.62.44,3.44,3.46,2.5.56-.17,0-3.52,3.97-1.03,1.87-.66.36-2.89.51-2.98,1.35-.79,9.75,3.94,11.49,3.99,3.82.11,2.75-6.22,4.95-4.98,1.73,2.46,1.6,5.21,5.5,4.98.19-.98-.33-3.64.01-3.98.26-.26,6.44-.87,7.25-.8,1.49.13,3.12,1.57,4.4,1.6,1.45.03,2.74-1.99,3.78-1.81,3.52.59.26,1.81-.47,2.99l3.98,1-.99-2.98c2.84,1.29,6.93-1.64,8.47-1.6.29,0,5.24.88,5.48,1.04.99.62,1.16,3.02,2.6,3.35.86.2,2.12-.81,2.84-.73,2.18.24-.65,3.62,2.04,2.92,1.65-.43-1.61-4.28.46-5.53,3.95-2.39,3.54.21,4.04,1.53-.66-.06-1.34.01-2,0,1.06,2.84-1.32,3.42,3,2.97-.47-.94-.63-2.02-1-2.98ZM1704.55,36.34c-1.13-4.35-7.91-.68-5.98,1s3.52-3.59,5.98-1ZM1709.54,34.36h-2.99s0,1.98,0,1.98c1.38.31,2.65-.54,2.99-1.98ZM1737.89,36.97c-.41-.41-2.81-4.52-3.41-1.11-.41,2.33,3.06,3.88,4.98,2.47.36-1.47-.92-.72-1.56-1.36ZM1023.15,39.23c1.11-1.57-.55-4.39-2.82-3.87,2.49,3.37-2,1.18-2.98,3.49l1.99,1.48c-4.38.92-8.52-3.41-11.95.01l-1-3.98-.49,3.96c-1.64-1.34-6.2-1.07-5.5,2.01,3.07-.6,6.7.63,9.48.51,3.27-.14,5.27-.72,9.93-.62,2.79.06,5.18-2.36,6.02,1.11,3.97-4.46-1.43-3.56-4.48-3-.43-1.68,1.5-.65,1.81-1.1ZM1721.51,36.35c-1.25-.29-4.03-.89-4.98,0-1,.95,4.58,3.33,4.98,0ZM875.71,37.35c-2.64-2.14-3.14,4.52-1.98,5.98,2.32-.27,3.2-4.98,1.98-5.98ZM939.7,39.12c-.53-.44.52-2.2-1.14-1.78,1.7,6.33-5.93-1.56-5.99,3.98,5.63-.51,11.38-.74,16.94,0,.06-5.01-8.64-1.23-9.82-2.2ZM1690.58,37.35h-4.98v.97c1.84.64,3.13.64,4.97,0v-.97ZM920.6,39.35h-4.98v.98h4.98v-.98ZM962.48,39.34l-6.97,1.01c.56.59.9,2.86,1.02,2.96.93.75,7.49-2.11,5.95-3.97ZM1159.97,41.32c-.34-1.44-1.61-2.29-2.99-1.98v1.98s2.99,0,2.99,0ZM1235.78,41.32c-.34-1.44-1.61-2.29-2.99-1.98v1.98s2.99,0,2.99,0ZM1038.29,40.34l-5.97.48c1.6,2.4,3.68.54,5.97.49v-.98ZM1461.19,40.34c-1.86-.27-3.46,0-3.99,1.97,1.86.27,3.46,0,3.99-1.97ZM1573.88,40.33c-1.87-1.53-3.15,1.86-.47,2.98,2.36.99.65-2.83.47-2.98ZM1666.65,40.34h-2.99s0,1.98,0,1.98c1.38.31,2.65-.54,2.99-1.98ZM705.16,41.34l-3.98,3.97h3.99s0-3.97,0-3.97ZM1517.04,41.34l-3.98.49c1.08,1.53,2.14,1.74,3.98,1.5v-1.98ZM1718.51,41.33c-1.38-.31-2.65.54-2.99,1.98h2.99s0-1.98,0-1.98ZM810.88,46.31c1.02-1-1.95-4-2.98-2.98s1.95,4,2.98,2.98ZM1913.99,48.3c1.81-4.15.56-5.41-3.97-4.97l3.97,4.97ZM1934.94,46.32c.99-1.23-2.02-3.93-2.98-2.99-1.54,1.52,2.82,3.19,2.98,2.99ZM379.01,44.33c-1.82-2.06-4.68,5.73,0,4.98-.19-1.13.31-4.62,0-4.98ZM422.9,45.33c-.94.25-3.35-1.66-3.98-1-1.23,1.27,2.75,5.18,3.98,1ZM1502.08,45.33l-3.99-1c1.21,2.37,2.92,4.14,3.99,1ZM109.72,45.32c-1-1.02-4,1.95-2.98,2.98s4-1.95,2.98-2.98ZM613.4,46.33c-2.6-1.69-4.53.97-6.31.78-2.17-.22-5.02-3.94-7.65-.29l1.99,1.48c-2.33.11-5.45-1.12-5,1.99h-.97c1.15-2.9-5.04-2.38-4.98-1.49,1.74,6.69,1.88,1.52,2.56,1.42,1.15-.17,2.87,1.06,4.64.86,4.23-.48,7.56-3.16,12.23.19,2.39-.92.1-3.64.46-3.96.53-.45,3.32.97,3-.99ZM666.26,45.32l-2.72.52c2.07,1.62-3.26,1.58-1.26,3.46,1.37,1.29,5.14-1.25,3.98-3.98ZM692.2,45.33c-1.8.82-4.91-.79-3.98,1.47,1.04,2.53,3.1.59,3.98-1.47ZM1464.18,45.33h-2.99s0,1.98,0,1.98c1.38.31,2.65-.54,2.99-1.98ZM1562.92,45.33c-.5.36-13.03.07-9.96,2.98.38.36,9.35-1.44,9.96-2.98ZM1586.86,47.3c-.6-2.27-3.13-2.08-4.99-1.97,1.43,4.26,1,2.29,4.99,1.97ZM2007.46,46.6c-2.45-2.06-4.78-.39-5.66,2.21,2.49,3.46,2.45-1.57,3.48-1.51,5.98.34-1.62,5.9-.5,6.99,5.03.67,5.55-5.28,2.68-7.69ZM497.7,46.32h-2.98c-.65,2.43,1.06,1.95,2.98,2.99v-2.99ZM699.17,49.3c1.02-1-1.95-4-2.98-2.98s1.95,4,2.98,2.98ZM713.13,46.32c-5.44.52-.34,2.92-.22,3.14.09.16-1.51,6.39,1.22,2.83.66-.86-.81-4.61-1.01-5.98ZM721.12,53.29c5.51-.29,1.45-5.35-.99-6.97.06,2.82,2.86,4.05.99,6.97ZM754.03,46.32h-1.98v2.98h1.98v-2.98ZM774.97,49.3v-2.99s-4.98,1.01-4.98,1.01v.98s4.98,1,4.98,1ZM1540.98,46.32c-1.9,1.77,3.99,4.46,3.96,1.49-.01-1.03-3.3-2.11-3.96-1.49ZM1973.85,47.33c-1.03.19-3.42-1.64-3.98-1-2,2.23,2.45,5.23,3.98,1ZM657.29,50.3c-1.15-3.78-2.23-4.03-2.99,0h2.99ZM733.84,47.57c-.95-.54-4.73.04-4.73,1.73l8.96,2c.66-3.3-1.91-1.32-3.71-2.3-.33-.18-.27-1.29-.52-1.43ZM793.93,52.29c.47-2.67-3.54-7.28-4.98-3.48-.22.58,1.12.28,1.93,1.3.68.87-1.21,3,3.05,2.18ZM1538.98,47.32l-2.98.49c.91,1.06,1.51,1.82,2.98,1.5v-1.98ZM478.75,48.32l-2.98.49c.91,1.06,1.51,1.82,2.98,1.5v-1.98ZM589.46,52.3l-.49-3.98c-2.68,2.07-3.35,3.69.49,3.98ZM2079.57,49.32c-3.5,1.21-9.08-2.95-10.97.98,4.3.02,8.43,4.62,10.97-.98ZM2101.51,49.32l-9.48-.8-3.48,3.77c1.3-.03,4.36,1.23,5.37.83,1.38-.54,1.81-4.51,3.59-2.81.33.31.93,7.54,3,4.98.21-.26-1.85-4.35,1-5.96ZM2108.49,50.29c-1.3-3.71-5.63-1.24-2.49.99l2.49-.99ZM684.22,52.29c.95.94,3.97-1.76,2.98-2.99-.16-.2-4.52,1.46-2.98,2.99ZM47.88,50.32l-5.03,1.66-1.95,2.32c3.25.59,5.59-1.22,6.98-3.97ZM53.86,52.29c.45-.57-1.81-2.57-2.98-1.98l-1,2.98,3.99-1ZM784.95,50.31h-2.99s1.01,2.99,1.01,2.99c.41.48,2.62-1.75,1.98-2.99ZM2085.41,54.19c1.15-1.68-1.87-3.54-3.84-2.88-.46,1.71,1.93.5,1.9,1.4-.03.99-1.53,2.92-.91,4.56l9.96-.51-8.96-.49c-.97-2.69,1.59-1.71,1.85-2.1ZM2014.74,52.31c-.98.16-3.68-.27-3.98,0-1.82,1.61,4.39,4.96,3.98,0ZM2109.49,52.31h-2.99s0,1.98,0,1.98c1.38.31,2.65-.54,2.99-1.98ZM2155.37,52.31h-2.99s0,1.98,0,1.98c1.38.31,2.65-.54,2.99-1.98ZM2162.35,55.3c-2.12-.47-3.09-1.72-3.98.98h3.98s0-.98,0-.98ZM2177.31,54.3c-.95-.94-3.97,1.76-2.98,2.99.16.2,4.52-1.46,2.98-2.99Z"/>
  <path class="cls-1" d="M26.94,55.29c.34,2.19,3.78,1.77,4,2.5.72,2.41-2.3,1.61-4,.49v-2.99Z"/>
  <path class="cls-1" d="M2266.08,50.32c.43,1.64-1.43.69-1.75,1.14-2.22,3.12,1.27,2.51,2.38,3.19.51.32.17,1.71,1.83,1.74,3.7.05,3.3-2.26,4.53-5.07-.39-.36-8.04,4.42-5.47-2.02,5,1.63,16.53-1.55,14.46,6.99,1.66-3.52,8.54-4.33,8.99,0,1.7-.2.7-2.69,3.46-2.58,1.58.06,3.04,1.32,4.99,1.37,12.45.37,20.52-2.92,33.94,1.21.56.17.28-1.78,1.13-2,2.11-.53,11.16-.83,13.67-.67,1.96.12,3.9,1.92,6.09,1.68,1.67-.18,2.52-2.08,4.01-2.04.78.02-.05,3.1,2.49,1.03v3.99c-2.55.43-5.26-.77-7.65-.73-14.09.22-29.58-.31-44.1.2-3.68.13-2.96,2.44-7.57-1.48l.5,2c-1.73.19-3.43-.56-5.14-.42-8.6.7-20,.62-30.26.47-2.02-.03-4.56.32-6.5.95l1-2.98h-4.99s1.98,1.98,1.98,1.98c-2.08-.78-12.54,1.52-12.96,1.02-.38-.46.66-2.77-.5-3.01-.78-.09-.08,1.93-2.43,2.54-.94.25-18.46.78-19.4.52-.25-.07-2.6-4.3-2.59-4.56.03-1.13,3.32-.91,2.97-2.47-.95.11-5.87-1.38-3.98-3,.31-.26,2.37.8,3.49.78,12.36-.25,24.99.37,38.07.84,1.76.06,3.51-.85,5.31-.61ZM2258.1,51.31c-1.89-.9-5.15,1.6-3.98,2.98,1.62,1.93,2-1.77,2.5-1.74,1.68.12,1.9,1.8,1.48-1.24ZM2231.18,55.3c1.02,3,3.09,1.78,2.98-1.01l-2.98,1.01Z"/>
  <path class="cls-1" d="M2054.55,51.34c.24.16.44,2.27,1.58,2.95,3.07-5.69,1.74-.21,2.11,1.03.74,2.49,3.24,3.01,4.37,4.94-4.67,2.84-7.94-2.87-8.42-2.86-.23,0-4.37.74-4.55.88-2.28,1.79,2.6,1.75,1.99,2.98h-11.96c2.61-3.03,3.83-4.42,1-7.96,4.24,2.38,2.8-1.53,4.54-1.95,1.11-.27,3.31,1.51,4.92,1.52,1.46.01,4.13-1.73,4.41-1.54Z"/>
  <path class="cls-1" d="M2031.7,54.29c2.98-.6,5.1-1.72,7.97-1.99l-3.98,2c-.59,1.56,3.84.48.98,2.47-1.16.81-2.55,1.41-3.98,1.52l2.98,2.97h-15.95c1.15-1.41-.11-4.72.05-4.9.28-.32,2.36-.36,3.28-1.02.77-.55.65-3.55,2.58-1.95.14.12-.19,3.33,2.04,1.88.21-.14.13-3.19,3.47-3.04.92.43.36,1.53.54,2.07-.58.12-1.34-.07-1.99,0-.31,6.37,3.57,4.74,1.99,0Z"/>
  <path class="cls-1" d="M851.87,56.22c.74.5,8.55.24,5.89-2.91,3.26-.2,6.46,4.28,7.46-.02,3.72,1.19,1.27,2.63,2.51,5.99-4.03,1.36-8.53-1.3-11.43-1.52-.91-.07-16.97,3.22-13.49-1.47.28-.37,1.56,1.05,1.84.89.95-.56,2.76-7.82,4.62-6.86,1.78.79,2.07,5.55,2.6,5.9Z"/>
  <path class="cls-1" d="M827.75,57.21c-.99.72-4.05-.69-5.53-.84-1.2-.12-2.8.94-3.21.74-.3-.15-4.24-4.71-3.13-5.8.43-.43,10.83.6,11.98,1.5,1.41,1.11.39,4.03-.11,4.4Z"/>
  <path class="cls-1" d="M839.81,52.29c.12.16.59,3.57.58,3.95-.09,4.02-8.66.44-11.53,2.04l2.91-5.54c1.17.03,7.8-.78,8.04-.46Z"/>
  <path class="cls-1" d="M632.34,48.32c.23.13,1.32,3.19,3.01,3.97l-2.99,1,2.98,1c-2.15.07-4.31.8-4.01-1.97-2.82,2.75-4.52,1.58-7.96.96,2.01-2.8-.7-1.66-.99-1.98-.35-.39,1.81-2.62,2.69-2.85,2.16-.56,3.7,1.64,4.79,1.57.93-.06,1.81-2.05,2.46-1.69Z"/>
  <path class="cls-1" d="M2215.11,50.43c1.13,1.04,1.15,7.29,3.1,8.84l-5.99-1,2-5.96-3.98.99c-.68-2.89,3.87-3.8,4.87-2.87Z"/>
  <path class="cls-1" d="M876.72,55.3c-1.88,4.21-1.64,5.91-6.98,4.97l2.98-1-1.98-1.97,5.98-2Z"/>
  <path class="cls-1" d="M642.32,50.31c1.67,1.34-3.21,4.57-4.97,1.48-.97-1.71,4.76-1.65,4.97-1.48Z"/>
  <path class="cls-1" d="M2175.32,49.32c-.15,1.04-4.79,4.24-4.98,3.98-.99-3.71,2.15-3.44,4.98-3.98Z"/>
  <path class="cls-1" d="M2079.57,58.29l-.49,2.98c-1.06-.91-1.82-1.51-1.5-2.98h1.98Z"/>
</svg>