<?xml version="1.0" encoding="UTF-8"?>
<svg id="Layer_1" data-name="Layer 1" xmlns="http://www.w3.org/2000/svg" viewBox="0 0 2388.1 96.56">
  <defs>
    <style>
      .cls-1 {
        fill: #fff;
      }
    </style>
  </defs>
  <path class="cls-1" d="M2091.54,37.28c4.63,2.46,2.95-1.88,4.49-1.98.61-.04,2.5,3.75,4.49,2.98-.52-3.73.6-3.15,3.99-2.98-1.69,1.59-.49,4.4-2.97,3.99-.71,4.85,4.95-.17,4.96-.62.01-1.22-1.4-2.85-.98-4.36,1.5-.33,6.04-1.74,6.97-1.02,2.22,1.74-3.03,2.06-1.98,2.97.59.51,4.3,1.39,4.77,2.21.82,1.43-.5,4.47.72,4.79,2.59.68.98-2.46,1.53-2.93.99-.85,4.37.73,5.66.65.27-.02,5.1-1.03,5.31-1.2,2.33-1.89-1.65-6.55,6.43-6.51,1.41,1.08-2.01,1.74-2.32,2.22s.68,2.65-.16,3.76l5.98-.99-1.99-3.97c2.21-.03,4.68-.23,6.75.65,2.54,1.08,2.24,6.83,4.71-.65,3.4,3.76,7.49,5.7,11.99,7.96-.14-1.38,4.22-6.71,4.96-6.77.64-.05,1.97,1.44,3.12,1.54,4.14.36,14.34-4.27,16.85,2.25l.5-2.99c.62-.62,10.35,2.88,11.53,2.92.45.02.29-1.63,1.07-1.87.47-.14,8.13.4,9.38.47,8.64.45,17.34,1.92,25.98,2.12l1.9,2.35-5.97-.99,2.99,3c-1.61,6.17-5,1.67-7.66,1.3-.54-.08-7.31-.41-7.7-.37s-1.98,5.01-6.1.06c-.05,2.18-6.34,1.79-8.67,1.68-2.26-.11-5.82-1.59-7.37-1.6-.5,0-.32,1.84-.83,1.83-.82-.02-3.54-1.7-4.56-.91-3.46,2.68,3.1,1.23,3.35,1.27,1.93.31,4.58,2.55,4.11,4.73-2.81-1-7.57-.65-9.93-1.96-.79-.43.25-1.7-.01-2.04-1.45-1.9-3.35.51-4.54-.4s-1.32-6.24-3.95-4.1l1.99,5.48c-1.67.77-3.43-2.47-3.98-1.99-.35.31.77,2.42-.99,1.98-.03-2.27-2.87-1.67-1.01-3.97l-5.98,1,1.5,2.97c-1.97-1.71-4.95-2.27-7.45-2.53s-7.14,0-8.76-.66c-.31-.13-3.57-3.85-4.69-3.86-4.52-.06-2.52,2.64-2.76,2.91-1.67,1.85-5.15.29-7.17.27-1.24-.01-2.64.97-4.06.88-1.96-.12-3.53-2.11-5.02-2.03-.54.03-.38,2.09-1.01,2.08-2.06,0-8.88-5.84-2.49,3.94-5.9,1.12-7.76,2.99-3.01-2.92-4.47-1.28-3.65-5.11-6.96-.07l3.97-.99c-1.04,9.14-2.63,3.36-3.7,3.03-2.03-.63-5.64-1.62-7.72-2.09-.69-.15-3.66-.25-2.03,1.06l2.48.49c-4.07,2.89-11.03.06-15.95.49l3.98-2.48c-8.61-5.92-4.43,1.9-4.99,2.48-.92.97-2.94-1.98-4.48-2.03-.32-.01-2.24,4.51-5.38,1.91-1.07-.89-1.13-12.08-4.6,1.11-1.88-1.32-1.05-3.26-.49-4.97-4.55-1.6-8.68-.57-12.97-2.01-.13,4.8,5.71,2.02,8,3.46,1.75,1.1.63,3.27-.49,3.39-.42.04-1.85-.91-3.07-.88-3.57.08-10.69.79-13.73.05-1.13-.28-1.33-2.93-2.18-2.97-.24-.01-.85,1.15-1.49,1.26-3.48.57-3.39,1.61-3.62,1.65-1.29.2-5.3-.98-7.36.03l10.53-3.91c4.04-.72,8.9,3.57,10.41-1.06-1.24-.85-5.63-.04-5.86-.23-.45-.37.38-1.71-.62-1.79s.03,1.96-1.06,2.05c-.65.05-1.87-.92-2.91-.85-2.61.19-9.61,1.36-11.83.84-.86-.2-.57-2.19-1.13-2.04-4.81,1.34-6.6,4.63-3.51-3.98-5.92-3.02-.87,3.48-3.08,4.9-.39.25-8.08.94-9.35.96-2.76.06-18.47-1.65-19.49-.88-.68,3.69,2.54.68,5.21,1.16.82.15,5.39,1.72,5.74,2.81-2.99,1.35-9.19,2.21-12.22.98-.42-.17-2.83-5.59-2.24.03l-6.47,1c-.47-12.02-12.82-4.03-19.41-5.92-1.2-.34.32-4.91-2.52-2.57,2.16,1.63-3.77,9.31-5,5.51l2.98-3c-2.6.61-6.05-2.12-6.98.98l4.98.99c-1.67.16-2.89,1.63-4.47,2.02-2.85.72-.03-1.77-1.01-2.02-2.34-.57-3.02-.17-1.49,1.99h-10.98s5.97-3.96,5.97-3.96c-1.69-1.67-8.35-2.57-9.99-1.57-1.34.82-.99,2.3-.96,3.54l2.98-.99c1.75,5.51-7.1,2.23-8.47-1.01-.62.03-.99,8.23-5.98,0-.96,7.04-4.87.79-5.93.97-1.59.28-2.67,1.79-4.99,2.09-3.45.45-7.88-1.52-9.87-1.11-.73.15-.6,2.04-1.21,2.07-.76.04-10.42-1.42-11.16-1.76-4.06-1.83-2.04-4.99-2.26-5.21-.6-.6-3.14-.1-3.5-.25-.79-.32,0-1.43-.98-1.79-4.37-1.61,1.05,3.15,1.2,3.35.79,1.03.84,3.3,3.29,4.63h-5.98s.99-3.97.99-3.97c-4.77-1.42-4.9,3.21-7.27,4.32-3.62,1.69-6.53-1.27-8.03-1.17-2.26.14-5.2,4.95-4.65-1.16l-1.48,1.99c-1.86-.8-2.03-4.91-3.11-5.06-2.69-.38-8.48,1.25-6.36,5.06,1.66-.55,4.26-1.55,4.98.99-3.43,1.31-8.98-2.17-11.4-2.01-.58.04-.41,1.74-1.27,1.99-10.41,2.94-6.03-3.8-6.79-3.96-2.76-.55-.36,3.73-3.96,4.03-5.11.43-5.44-4.98-10.48-2.02l2.98,1.97c-4.8.89-9.5-2.47-13.95,0l.48-3c-1.99-.45-1.97,2.38-2.67,2.78-3.87,2.23-6.51-4.04-10.78-3.77v3.99c-2.86-1.34-6.08.3-8.42,0-1.32-.17-2.45-1.66-3.08-1.66-.68,0-1.52,1.6-2.96,1.69-.85.05-.28-1.59-.97-1.81-4.36-1.35-4.8,1.67-5.2,1.77-1.2.28-10.5-.34-11.63-.94-1.04-.56,0-4.17-4.21-4.02-3.72.13-.38,6.11-6.22,3.3-1.24-.6-1.18-2.37-1.75-2.37-2.78-.04-4.08,4.14-4.93.06-1.46,1.26-6.18,3.65-7.78,3.71-3.02.11-7.37-2.53-9.22-2.7-.43-.04-.32,1.83-1.11,2.02-.95.23-3.62-.72-5.07-.81-5.09-.33-8.77.03-13.73,0s-3.59-1.26-3.99-1.25c-1.48.04-2.1,1.54-3.12,1.75-1.83.37-5.84-1.44-8.08-1.42-2,.02-8.94,2.74-11.04.54-.1-.11.87-2.52-.71-2.83-2.19-.42-2.62,3.6-3.93,3.78-.8.11-2.76-1.5-4.23-1.57-1.15-.05-2.14,1.29-2.77,1.27-3.62-.12-11.04-2.27-12.55-1.31s-2,1.11-3.93.8l2.98-1v-.97c-2.16.37-2.17-1.12-2-3.01-4.77,3.87-6.03-3.91-9.51,4.98l-4.95-2.98c-.66-.23-.4,4.63-1.99,0-1.64,4.69-4.56,1.64-9.02,1.48-7.99-.27-6.64,1.2-15.94-1.49-.55-.16-.36,1.96-1.08,2.08-.48.08-9.2-.91-9.74-1.04-.81-.2-.73-1.36-.65-2.01l-.99,2.98c-3.94-4.78-7.92-1.34-13.19-1.25-6.16.11-14.04-1.18-19.76-1.22-2.63-.02-7.93,1.64-9.37,1.52-.68-.06-.45-2.21-1.03-2.05-1,.27-2.84,2.21-4.4,2.47-2.69.45-5.82-2.09-9.4-.28-1.54.78-1.58,2.78-2.27,2.88-2.18.3-4.27-3.3-7.4-1.07l4.98,2.97c-4.71,1.02-8.03-1.64-12.44-2.03l1.47,2.03h-14.95s2.99-3.97,2.99-3.97c-1.92.34-7.09-1.06-8.51-.67-1.96.54-.82,5.9-5.84,4.67-.81-.2-.18-2.95-2.6-.99l-.5-3.01c-3.5,7.14-2.95-1.74-8.48,1.01l1.99,2.98h-14.46c-4.82,0-4.78-1.97-5.15-2.04-1.42-.26-3.35,1.02-4.4.55-1.36-.61-1.6-3.45-2.55-3.59-.41-.06-7.7,1.61-8.08,1.79-1.88.93-2.24,3.59-4.16,3.84-1.53.2-6.35-1.96-9.08-.57l2.99-2.97c-4.68-1.56-3.73,3.33-7.46,3.04-3.85-.3.44-4.37-4.51-3.04l.99,2.98h-3s1.01-1.98,1.01-1.98c-3.56-1.35-3.72,1.84-5.42,2.06-1.57.2-6.64.22-7.93-.22-1.62-.56-1.5-4.68-4.6-2.35l2.98,2.49c-3.4-1.84-6.35.76-8.4.88-3.95.22-13.15-2.01-15-1.93-.52.02-.39,1.75-1.16,1.99-.59.18-8.05-.65-8.35-.94,2.09-6.44-3.25,1-3.66,1.08-1.9.39-4.67-1.54-6.67-1.12-.72.15-.58,1.94-1.05,1.93-2.1-.04-7.55-2.51-8.06-2.5-.79,0-2.05,1.92-3.91,1.7-.71-.08-2.08-5.05-5.06-5.1-.19,0-3.23,2.8-1.51,3.54,2.1.91,3.06-.52,5-.51-2.24,5.16-4.76,1.38-7.66,1.22s-9.53,5.53-9.8-1.24c-1.19,0,.31,2.83-1.07,3.07-8.05,1.37-16.29.61-24.36.93-.12-.11,1.15-2.68,1.5-2.98,1.45-1.25,3.59-.28,3.48-1.98l-6.99-.02.5-2c-2.09-.51-2.02,2.96-3.07,3.03-1.32.09-4.36-1.8-6.4-1.04,2.1-3.05-.67-.97-.99-2.97,2.56,1.1,3.24-2.05,3.46-2.01,1.22.21,3.27,3.12,5,3.01l-.48-3c.42-.37,2.46.87,3.48.8,15.73-1.04,32.67-2.76,47.38,1.69,6.7,2.03,4.52-1.9,5.05-2.39.34-.32,7.7-.08,9.4-1.12l.52,3.01c3.34-2.27-1.42-3.23,4.51-3.04,3.9.12,8.32.03,11.95.22,1.86.1,3.33,1.76,4.82,1.63,2.64-.23,3.8-4.38,6.14,1.2,3.62-6.2,5.55.04,5.98,0,.94-.1-.07-1.51,1.2-1.98.93-.35,3.65-.5,4.97-.63,5.4-.53,15.15-.62,20.75-.47,4.69.12,9.51,2.48,14.48,1.06.41-1.58-1.24-.6-1.69-1.29-.63-.96-.17-2.54-.3-2.69-.85-.93-2.75,1.6-3.63,1.74-1.01.16-2.07-.77-2.76-.74-.36.02-1.63,5.29-4.57-1.48,2.85-3.74,7.03-.85,9.43-.99,4.71-.29,9.59-2.15,14.5-1.5l-2,1.47c1.26,4.09,5.12,2.14,3.01-1.47,2.07-.47,2.87,1.44,3.01,2.98,2.38-3.67,5.13-3.6,9.51-3.06,3,.37,6.39,8,6.93,8.02,3.2.14-1.44-6.56.52-7.96,5.32.79,11.09-.17,16.37-.03,1.57.04,3.14.86,4.94.94,4.73.21,2.17-1.54,8.1,1.08.82.36-.58-2.35,2.84-1.96,7.42.84.63,1.84.63,5.44,4.29,2.09,2.06-.85,2.56-1.52,1.5-2.04,3.77.46.45-5.94,3.72.06,6.99-1.62,10.42-2.08.73-.1,3.66-.24,2.04,1.07l-4.5.51c.2.68,1.19,1.98.84,2.37s-1.97-.36-1.82.6c1.89,1.03,4.93,5.87,6.99,4.49l-.5-1.99c2.05.57,2.79,3.26,6.47,2.99.51-2.92-5.21-3.37-6.97-4-.17-1.86,3.55-.69,3.98-2.5.35-1.44-1.7-2.49-2.5-3.48-1.41-3.21,8.84-.07,10.86-.29,3.19-.35,3.37-3.4,7.59.31-1.07,4.24-6.59,1.64-6.96,1.98-1.2,1.08,3.82,3.29,1.99,5.99l1-2.99c4.91,1.74,9.7-4.7,12.47,1.98,1.26-2.85,2.25-3.41,5.49-2.98l-.99,1.96,3.97,1.03c2.43-7.69-1.08-4.05-1.99-4.99-.1-.11-.1-2.86,0-2.97,1.29-1.53,16.67.8,19.94-1.02v4s2.01-3,2.01-3c3.79,3.68,5.77,1.39,9.96,2.01l-3.47,2.99c3.83.48,4.14-4.41,4.62-4.83,2.37-2.1,21.61.28,25.32.3,4.3.03,13.49-1.91,17.85-1.47.68.07.52,1.99,1.14,2.04,1.46.11,5.1-1.98,7.42-1.03l-1.49,2.99c2.26-.33,2.44-2.46,5.02-2.96,5.86-1.13,20.22.57,26.71.58,7.84,0,15.49-.5,23.29,0,5.18.34,4.56,1.41,4.86,1.43,1.24.07,3.29-1.57,5.07-1.74,3.38-.32,8.51.75,11.8.71,10.76-.14,22.04-.59,31.95.48,2.78.3,6.95-2.16,7.49,3.46-3.48.12-7.14,1.83-10.53,2.04-4.42.27-3.07-.49-6.63.64-.33.11-8.2-1.35-4.79,1.32.59.46,14.16,1.17,14.77.74.2-.14.23-3.32,2.17-1.7.17.14-.31,2.03.6,1.99.64-.03,2.2-1.24,2.41-1.04s.29,4.34,2.51,5l.5-4.97c3.33-.88,1.48,2.49,2,2.98.72.69,2.93.1,1.24-1.51,3.8-1.78,3.42,1.07.76,3.01,3.78.79,8.81.3,8.97-4.48-5.47,2.31-3.27-1.77.96-2.58,2.63-.5,4.52-.22,7.03.58l-1,3.97c3.32-.05,5.35-2.93,8.97-2l-3.48-2.99,5.47,3.01c-.83-2.47,1.03-4.28,3-2.99.25.16-1.75,5.06-.49,5.98,1.24.06,3.62-2.13,3.94-2.97.7-1.84-2.52-3.69,2.54-3.02l.48,2c-.38-3.65,5.9.24,6.43,1.55,1.05,2.54-.63,1.94-1.28,2.45-2.19,1.73,5.24,2.52,6.32,1.97l-3.98-2.98c4.5-.16,6.67,1.83,9.96-2l.5,1.99c7.41-8.09-4.15-.67-5.48-2l.51-4c5.98,2.57,9.87-3.1,10.98,5.02,4.91-1.58,5.14-6.7,11.45-5-2.43,2.87.67,4.21,1.99,2.98.44-.41-1.33-4.21,2.5-3.01.88.27,1.99,4.42,2.7,4.87.51.32,1.85-.69,2.8-.27,1.61.71,3.08,3.06,5.97,2.4l-1.02-1.98c3.88.94,2.38-2.08,4.03-4.99l7.96,4.97-3.99-4.98h25.43c.5,0,2.12-1.56,3.49-.99l-4.98,3.97c1.78-.2,3.86,1.21,5.44,1.07.92-.08.58-3.89,2.03-4.02.41-.04,2.38,1.69,3.98,1.54s5.31-2,8.28-2.27c3.63-.32,8.46.79,12.19.71.68,3.98-3.99,1.07-5.98,1-.45,2.69.5,1.81,2.37,2.16,4.74.89,8.43-2.84,14.13-3.11,6.69-.32,9.67,2.07,14.91,2.95,2.83.48.27-1.88.49-2,2.65-1.34,3.06,1.85,3.68,1.99.26.06,5.09.14,5.31,0,.12-.08-1.11-1.99-.01-2.51,9.54-.52,3.05,1.53,3.08,1.95.15,2.36,1.27,4.46,3.91,3.55l-1.98-1.97c3.31-1.6,3.44.43,5.97,1.98l1.01-3.98-3.51.97c-2.77-2.35,6.02-2.86,8.01-2.82,1.44.03,2.35,1.58,3.78,1.61,1.92.04,5.14-2.13,7.06-1.82.68.11.57,2.05,1.18,2.08,1.71.11,5.81-2.08,8.41-1.02l-2.98,1.97,5.49,2c.1-8.52,6.17-2.02,8.96-1.96.37,0,1.6-2.4,6.34-2.47,6.53-.08,2.76,2.08,3.14,2.43,1.84,1.68,2-1.86,2.65-2,2.85-.62,7.22.46,10.33.02-2.07,4.07,6.18,5.39,2.99,0,2.74-.79,2.38,2.71,3.5,2.99,2.23.56.92-1.65,2.71-2.32.34-.13,6.8-.7,7.15-.61,1.64.43,1.13,2.96,1.88,3.7s4.09-.22,3.72,4.21c3.52-.8.82-5.43,1.26-6.48,1.31-3.12,5-.61,7.2-.69,6.25-.2,10.06-1.69,15.46,1.19h-1.99s0,3.98,0,3.98h1.98s0-3.98,0-3.98ZM1602.82,31.3c-5.05,2.78-8.79.7-13.96,2h4.97s0,2.98,0,2.98l-2.98-1-1,4.98c.98-.84,4.7-.94,4.85-1.14.56-.73.74-4.53,1.17-4.83,1.15-.79,7.34,3.28,6.95-2.99ZM1558.93,35.27l-1.01-2.98h-.97l-1.01,2.98h2.99ZM1610.79,34.27c2.35-2.96-3.28-.84-4.98-.98v.97c.61.6,4.51.59,4.98,0ZM1636.73,35.27c-.9-2.27-3.76-3.12-5.98-2.98-.69,3.24,4.05,2.83,5.98,2.98ZM1702.56,35.27c-1.66-4.19-6.62-3.19-7.96.51,2.26,3.31,4.69-1.57,7.96-.51ZM1561.92,33.29c-2.92-.8-1.29.86-1.55,1.52-.67,1.71-2.04,3.18.06,4.44l1.49-5.96ZM1683.61,33.29c-.63-.14-13.49-.62-9.97,1.98,4.37-2.24,11.23,4.08,9.97-1.98ZM1691.58,34.29c-3.77.34-8-3.5-6.98,1.98,2.15-.69,6.02.78,6.98-1.98ZM1902.04,35.29h-2.99c.24,5.35,3.39,5.8,2.99,0ZM1701.56,36.27l-1,2.99-4.98.02c-.33,1.92,2.04.4,2.86,1.15.57.51-.11,2.51.13,2.83,1.02,1.42,3.14-3.58,4.98-2v-.97c-2.73.43-2.08-1.8-1.99-4.01ZM1859.14,36.28c-.35-.36-3.55.73-3.98,1.49,1.79,3.41,5.08-.34,3.98-1.49ZM2000.78,38.26c-.53-1.98-2.13-2.24-3.99-1.97.53,1.98,2.13,2.24,3.99,1.97ZM2139.79,39.69c1.17-.73,2.73-.64,3.6-1.91-1.88-2.98-5.14,2.36-6.96,3,2.26,2.06,2.82-.75,3.36-1.08ZM1511.03,37.31l-.97,1.93c-3.15.65-5.9,1.07-2.49,4,1.36-1.78,3.34-2.16,5.49-1.98l-2.03-3.95ZM1524.02,37.28c-1.73-1.73-5.09,1.6-1.48,2.98,2.12.81,1.77-2.68,1.48-2.98ZM2071.6,40.27c.13.15,3.98-1.79,3.97.5,0,.76-3.51,1.58-.46,3.5,10.89-4.55,5.24-4.63-1.99-7-.86.53-2.16,2.24-1.52,3ZM1748.43,41.27l-3.97-3c-2.53,3.25,6.6,6.18,6.97,0l-3,2.99ZM1717.51,40.28l-3.97-1.01v1.99s3.97,0,3.97,0v-.98ZM1854.16,41.27c.24-.59,1.27-1.81,1-1.98-2.41-.1-3.47-.64-2.99,1.98.62.13,1.53-.17,1.99,0-.26.63-1.26,1.68-1,1.98l3.99,1c-.86-3.24-1.27-2.34-2.99-2.98ZM2113.48,39.28h-2.98v1.98h2.98v-1.98ZM2179.31,42.25c-1.18-2.4-3.08-4.29-4.98-1.48l4.98,1.48ZM1549.95,40.27c-.59-.59-5.94,2.54-4.98,2.98,1.8.26,6.79-1.16,4.98-2.98ZM1901.03,40.27c-1.51-1.51-4.25,2.97-1.49,2.97.66,0,2.06-2.39,1.49-2.97ZM1995.96,43.01c-.32-.28-.2-1.22-.18-1.74h-.96s-2.01,2.97-2.01,2.97c2.64.68,5.77,2.24,7.97-.49-.88-1.27-3.69.23-4.81-.74ZM1368.42,42.27h-1.98c-.32,1.47.44,2.07,1.5,2.98l.49-2.98ZM1542.96,45.25l-.47-2.98c-3.14,1.79-6.65.61-7.5,4.96,2.89.9,1.82-2.4,3.59-2.93s4.24,1.14,4.38.95ZM1843.19,44.25c-.6-2.25-3.12-2.13-4.98-1.97v.98s4.98,1,4.98,1ZM1882.09,44.25c-.34-1.44-1.61-2.29-2.99-1.98v1.98s2.99,0,2.99,0ZM1424.28,44.26c-1.47-1.47-8.29,3.39,0,2.99v-2.99ZM2105.5,45.27c-1.67-1.39-3.19,2.81-2.99,2.97,1.67,1.39,3.19-2.81,2.99-2.97ZM1344.49,48.26c1.02,3,3.09,1.78,2.98-1.01l-2.98,1.01Z"/>
  <path class="cls-1" d="M469.78,45.26c.17-.88-.15-2.04.01-3,1.69,1.24,3.3-.63,4.46-.6,17.27.43,38.11-3.11,54.7-.03,1.08.2,1.95,1.57,2.18,1.57.79,0,1.58-2.89,2.48-3.43,3.29-1.97,26.17-1.52,31.67-1.82,9.67-.53,19.52-.69,29.51-1.04,3.03-.11,16.46-3.43,18.62-.61.07.09-1.15,1.88-1.01,1.97,2.8,1.49,2.82-2.67,4.48-1.98,1.22.51,1.82,2.02,1.41,3.37-.81,2.62-10.33,2.59-13.08,2.9-2.16.25-4.38,1.54-6.4,1.66-3.28.19-6.56-1.69-10.34.05.01,1.62,2.95,1.54,3.09,2.62s-1.26,3.11-1.1,3.34c.61.87,8.87,2.46,9.99-.49-2.91-.58-3.89-1.21-4-4.48,3.32-1.03,1.24,2.98,2.5,3,2.38.04,1.9-2.86,3.16-3.08,1.61-.29,3.51,1.06,4.92.98,2.04-.11,3.92-1.01,5.86-.99,6.3.07,12.85,2.59,18.45.08l1.01,3.99-4.98,1c3.19-.1,5.89,1.24,8.97,0-6.47-6.8,11.28-3.93,7.98-.99l-4.98.02c1.89,3.15,7.77,0,10.96.98.65-3.97-2.09-.29-3.97-1.47-.2-.12-2.49-2.84-3-3.5,4.11.53,10.41-.18,14.2,1.06,1.12.37.09,2.81,4.74.92.41,1.43-1.34,4.05,1.52,4.03,4.38-.04,3.98-3.62,4.56-3.96.34-.2,1.61.93,2.3.92.79-.01.1-1.81,2.03-2.08,8.76-1.2,19.26,1.99,28.22,1.8,2.2-.05,7.25-1.83,10.68-1.71,2.4.08,6.72,2.63,10.56.99-.29,4.33-.49,4.38,3.99,3.99-6.43-8.92,7.9-7.46,9.48,0l2.01-6.95c3-.57.81,4.33,1.48,4.98.2.19,4.62.15,5.49,0,1.08-.18-.6-1.27-.27-1.8.12-.2,3.11-3.24,3.34-3.26.85-.07,7.17,4.15,8.67,5.09,1.12.7.46,2.86,3.72,1.95-2.18-2.56-2.69-3.88,1.49-3.97l1.51,4.95c-3.5,1.88-5.55-.52-7.66-.76-1.05-.12-5.16,2.64-6.32,1.78-.18-.13.98-1.47.79-1.79-.36-.61-3.23-1.5-3.27-3.18l.49,3.98c-2.88-.16-5.64,1.33-8.52,1.12-2.41-.17-.65-2.32-2.44-2.1.6,3.77-2.11.41-3,1,1.79,1.96-.22,2.97-2.57,2.98-2.85,0-1.32-3.84-4.41-2.99v3.99c-2.89-2.35-9.31,1.02-9-2.98l-1.48,1.98-2.51-5.98c-2.47.53-1.54,3.75-2.46,5.01-.45.62-12.79,2.01-14.99,2.06s-18-.47-19.15-.86c-1.23-.42-2.1-1.92-2.79-2.21-.83-.35-.05,1.68-1.16,1.98-6.53,1.81-13.1-.47-18.76-.48-5,0-31.23,1.74-33.43-.57-.13-.14-.17-3.79,0-3.88.93-.49,3.26.87,2.98-1.04-5.3,1.51-3.55-5.02-5.99.51,3.85.74.07,2.4,0,5.46l-2.48-3.96c-2.55,1.07-.03,3.64-.49,3.96-.74.51-17.29.59-17.91-.06-.52-.55.59-2.89-.55-2.94-1.29,4.11-8.67,3.42-12.99,3.47-.68,0-1.85-1.17-3.39-1.21-3.03-.08-10.49,2.13-14.58,1.84-1.95-.14-.96-1.16-1.94-2.11-3.29,4.82-11.1-1.19-13.51.49-.71.5-.56,2.33-1.58,2.48-2.6.39-8.44-.88-10.96-.87-3.35.02-7.36,1.08-10.85.9,0-7.9-2.07-1.27-3.2-.98-1.55.4-3.74-.02-5.3-.51l1.01-2.5c-3.16-1.17-8.47,5.48-10.96,1.96-.61-.86,2.04-4.04-.51-4.95-4.2-1.49-1.85,5.62-4.11,6.06-1.19.23-12.16-1.25-15.08-1.41-1.06-.06-2.02-1.15-2.73-1.17-2.62-.09-8.58,1.09-11.47,1.5.17-3.52,3.56-5.38-.51-7.97.15,4.35-3.47,3.39-1.49,6.97-2.67,1.41-5.78-3.97-6.48-3.97-.38,0-1.75,2.35-3.19,2.78-1.27.38-6.55.57-7.67.26-1.91-.53-1.65-7.53-1.87-7.89-.08-.13-3.56-.31-1.73-2.14.17-.17,4.26-1.6,4.5-1.6.67-.02,1.75,1.37,2.8,1.34,2.65-.08,6.32-1.72,8.68-.23,1.05.66-.19,1.3,2.97,2.47-.11.55-1.38,1.74-1,1.98,2.41.1,3.47.64,2.99-1.98-.62-.13-1.53.17-1.99,0ZM579.49,45.27c-3.7-.99-6.97,1.51-8.47-3l-4.49,3.98c2.52-.68,9.19-.95,8.98,1.99h.97c-.51-3.13,2.29-.28,3.01-2.97ZM460.8,45.27c-.16-.16-3.75-1.23-3.98-1.01v1.99s3.98,0,3.98,0c-.05-.32.14-.84,0-.97ZM482.37,47.01c.37-.82.98-2.47-.12-2.75-2.1,1.81-1.61,4.6-4.49,5.48,2.61,2.5,7.06,4.57,5.97-.49l-2.97,1.99c-.87-2.68,1.51-3.99,1.61-4.22ZM521.63,47.25c.99-1.23-2.02-3.93-2.98-2.99-1.54,1.52,2.82,3.19,2.98,2.99ZM530.62,48.24c.31-1.38-.54-2.65-1.98-2.99v2.99s1.98,0,1.98,0ZM549.57,45.27c-2.02.77-9.58-2.01-8.97,1.98,1.22.41,4.57-1.4,4.98-1,.14.14-.42,5.18,2,2.99.19-.18-1.95-1.88,1.99-3.97ZM524.63,50.24v-3.98s-.98,0-.98,0c-.47,2.12-1.72,3.09.98,3.98ZM561.53,47.26c-.2-.18-3.73-1.28-3.98-1v2.98c1.32.21,4.82-1.18,3.98-1.98ZM613.39,46.25c-.07-.07-2.11-.37-1.98.49,1.91,5.19,4.13,1.61,1.98-.49ZM516.64,47.25c-2.37-1.9-2.76,3.99,1,3.98.25-.31-.84-3.86-1-3.98ZM677.24,47.26c-1.82-.34-3.31,1.09-2.98,2.98l2.98-2.98Z"/>
  <path class="cls-1" d="M49.88,39.27c.17-.14-.33-1.51.47-1.8,1.3-.48,10.53,1.64,13.5-.18l.99,1.99c-.36-4.82.32-2.02,3.99-1.99-3.36,5.36-13.11,2.74-17.95,5.97-.21-.25,2.06-7.15-1-3.99Z"/>
  <path class="cls-1" d="M49.88,39.27c-.14.14-.96,3.72-.82,3.86.32.35,1.67-.04,1.82.13.07.08-1.17,1.88-1,1.99,4.45-.11,9.26-2.32,12.96,1,.43-1.19-1.41-3.29-.98-3.99.28-.45,9.44,1.84,10.54,1.88.46.01.31-1.71,1.08-1.89,3.63-.87,10.46,1.75,14.68-.05,1.4,4.25,1.44-.15,4.61.07l-1.99,3.97,4.98,1.01-1.98-4.98c3.65.77,11.84-1.8,11.48,3,2.28-.85,2.82-2.19,5.48-1.02l-1.01-1.98c3.94-1.78,6.14,3.15,6.49,2.98,3.48-1.66,2.15-3.69,9.05-3.06,2.94.27,4.12,1.75,5.12,1.89.78.11,8.91-4.16,9.79.18l.48-1.99h12.97s-2.99,1-2.99,1c1.72,4.53,4.18-1.01,4.63-1.04.32-.02,5.86.5,6.37.62,1.14.27,2.06,3.59,4.95,1.4.02,2.09-.62,5.16,1.99,5.99-.56-2.18-1.07-5.1.5-6.99,1.42-1.7,5.64-1.48,4.48.49-.79,1.35-3.14.86-2.98,2.5h6.98s-1.99-2.97-1.99-2.97c5.69-1.57,8.57,4.46,12.97,2.98l-1-2.98c3.29-2.06,6.31,4.39,6.96,3.98.23-.14.37-3.86,3.01-2.98l-1.5,3.97c3.29-.92,1.97-2.84,2.57-3.92.28-.5,10,.62,11.44.47,4.42-.45,10.32-4.8,14.41-.52-.86-6.51,4.51-.98,7.52-.89,1.87.05,1.51-2.17,1.95-2.12,1.21.13,3.35,1.56,2.5,3.02-.13.22-2.52-2.45-1.98.47,6.46,4.76,3.69-3.36,4.99-4.47,2.23,0,5.13,4.06,5.47,4,1-.18.17-1.4.62-1.79.22-.19,1.67.68,2.77.24,2.57-1.03,5.71-3.55,8.63-3.55,1.96,0,1.27,2.17,1.95,2.14,1.56-.07,2.39-1.87,4.01-2.05,2.14-.23,3.92,1.44,5.97,1.54,3.03.15,4.5-4.81,6.96,2.45l-.5-3.96c4.52-2.12,2.49.98,4.5,1.98,2.51.52,1.11-2.96,3.9-2.99,1.85-.02,8.96,1.61,9.05,4l1.11-3.06c6.35.53,13.74-1.07,19.78-.87,1.49.05,2.58,1.27,3.45,1.37,3.18.35,8.79-2.14,8.09,3.55.54.65,4.77-3.63,5.68-3.83.33-.08,6.36-.2,6.7-.18s.74,3.37,5.56,1.02c.49,3.08-.8,1.58-2.49,1.95-1.83.4-7.2-.1-6.48,3.02,2.48-.69,6.54.3,8.69-.63,1.39-.6,3.32-5.01,4.25-4.34.18.13-.23,2.94,3.02,1.99-.89,2.35-1.19,3.49-3.99,2.99v.97c3.28-.46,1.41,3.79,2.98,5.99-2.61-1.48-8.57.26-10.38-.2-1.77-.45-1.62-3.81-4.08-3.8-.72,0-.22,1.55-1.23,1.96-4.76,1.93-7.48.89-11.68,1.02-1.87.06-4.33,1.44-5.9,1.12-1.74-.35-2.79-9.98-6.62-8.07l1.49-1.99c-6.01.43-1.62,2.34-1.46,4.48.02.32-5.89,3.5-1.04,3.52l-1.5,1.58-44.95-.49c-3.28-3.62-1.66-.72-4.03-.34-1.34.21-3.07-1.01-4.81-.79s-2.53,2.06-4.04,2.07c-.66,0-.4-2.03-1.06-2.08-.82-.06-2.53,1.05-3.94,1.06-3,.03-5.74-.87-7.98-.83-2.86.04-5.68,2.3-8.72.8-1.2-.59-.69-4.27-2.24,0-2.61-3.87-3.64-.28-6.02,0-1.3.15-17.99-.02-18.93-.2-.51-.09-.34-1.47-.97-1.56-1.72-.25-5.56,1.02-6.82.83s-1-3.48-3.15-3.05l.49,3c-4.15,1.91-6.99-.45-9.61-.72-4.83-.49-13.92,1.73-20.89.81-3.44-.46,1.68-2.04-6.05-.36-.88.19-2.08-.78-2.76-.72-.79.07-.07,3.68-3.88.98-.88-.62-.54-2.29-1.19-1.98-4.34,2.1-2.44,1.13-6.64,1.54-11.24,1.11-22.3-.44-31.24-.09-2.78.11-5.83,2.11-9.49.53.19-1.12,3.78-1.98,1.98-3.98-.33-.37-3.66,2.52-4.73,2.8-1.57.41-3.42,1-3.96,1.13-2.57.62-30.15.53-33.71.09-2.41-.29-5.36-2.37-6.88-2.1-.63.11-.43,3.54-2.53,2.02-.3-.21.72-2.59-1.52-1.95l.5,1.99c-5.44-.29-9.47,1.52-8.98-4.98,1.3-.17,2.18-.33,2.99-1.5l-1.99-1.49c2.01.04,4.12.17,6.08-.42,2.21-.67,1.95-2.38,2.88-2.97.82-.52,1.93.47,2.01.4ZM319.17,41.28c-3.56-.31-1.82,4.34-4.98,1.98-.57.81,1.38,5.92,2.96,3.5-2.02-2.58,1.08-3.41,2.02-5.49ZM289.25,44.25c-.53-1.98-2.13-2.24-3.99-1.97.53,1.98,2.13,2.24,3.99,1.97ZM66.83,44.27l-1.49,4.97c1.53-.72-.4-2.82-.44-3.56-.05-.89,2.4.28,1.93-1.41ZM276.28,45.27c-1.23-.99-3.93,2.02-2.99,2.98,1.52,1.54,3.19-2.82,2.99-2.98ZM212.45,46.26h-2.99s0,1.98,0,1.98c1.38.31,2.65-.54,2.99-1.98Z"/>
  <path class="cls-1" d="M37.91,45.26c-7.46.97-4.8-2.55-5.99-4-.54-.66-3.53,2.69-2.97-.47,2.77-2.73,7.53-.24,10.96-1.5-.39.98-.67,1.98-.99,2.98-.16.48-.81.54-1,2.99Z"/>
  <path class="cls-1" d="M1148.8,37.04c.24-.12-.19-1.69,1.65-1.86,4.66-.43,21.54-.13,25.86.41,5.52.69,5.96,5.7.64,1.7l.99,2.98c-5.87.04-11.76-.65-17.57-.64-4.06,0-5.36-.21-8.88-.29-4.21-.1-8.27.01-12.44-.04.41,7.7,18.28,2.88,19.8,4.07.21.16,2.3,4.67,2.14,4.88-1.19,1.63-10.42-.05-12.46,2.64-5.05-3.38-15.38,1.02-20.9-.57-1.19-.34.23-5.21-2.55-2.54,2.69,4.18-3.18,3.18-5.27,2.45-1.29-.45-.26-2.05-1.2-1.98-.99.08.05,1.82-1.08,2s-5.75-.67-7.7-.56c-3.51.2-9.31,1.51-12.24,1.49-.59,0-.29-1.67-.49-1.83-.56-.43-2.19,1.69-3.42,1.59-1.31-.1-4.17-4.4-2.99.33-2.58-.14-5.21-1.08-6.98-3-.94,3.26-1.8,1.19-3.58,1.55-12.62,2.59-23.4,1.04-36.17,1.16-4.37-2.33-1.11-2.22-.12-5.7,1.21.21-.2,3.12.97,2.97,2.45-.32,4.98-.88,7.49-.99l-1.47-2c4.11.47,7.75.08,11.88,1.09,1.32.32,3.37,2.05,3.54,1.92.18-.15.02-2.32,1.6-2.81.61-.19,11.29-.11,12.76-.04,4.49.22,7.71,3.34,12.05-.02l25.63.33c2.08-.22,2.51-2.16,2.77-4,.56-3.92-2.14,1.87-3.4,2.13-2.99.63-13.2-.82-15.78-2.58-.92-.63-.65-1.91-.74-1.97-.6-.36-2.22,1.75-3.43,1.64-1.55-.15-3.27-3.7-6.01.32-2.04-1.57,1-4.43-3.47-2.49l.98,2.5c-4.97-1.05-10.21-.2-15.29-.37-2.28-.08-4.65-1.34-7-1.27-4.51.13-2.61,2.25-5.82-.17-.89-.67-.72,1.19-2.83-.45-2.46-1.91-2.07-.01-1.99,2.26-2.02.25.22-2.49-2.47-1.99-1.24.23,1.96,2.55-1.02,2.02l-9.46-4c2.93-.25,5.78.85,8.67.72s9.24-1.77,12.84-1.82c1.88-.03,1.39,2.15,1.88,2.08,12.72-1.81,19.17-1.29,32.06-1.39,6.67-.05,20.08-2.28,25.84-1.44,2.49.37,3.55,2.65,5.96,2.85l-.51-2.49c2.59-2.7,2.39,3.53,3.51,3.49-.98-9.77,13.54-1.39,15.25-2.24ZM1133.04,42.25c-.6-.65-.99-3.2-1.49-2.98-2.41,1.08-.97,3.3,1.49,2.98ZM1128.05,44.26c.08-4.37-5.07-2.99-3.97,1l3.97-1ZM1140.02,43.27c-.88-.83-3.71,1.62-3.98,2.98,1.72.28,5.52-1.53,3.98-2.98Z"/>
  <path class="cls-1" d="M356.06,44.25c.18-.14-.72-1.78,1.43-2.07,4.33-.59,9.15,1.11,13.54.09.4,1.81-1.68.63-1.99,1-.7.82,2.05,3.27,3.68-1.08,2.65,1.06,16.31.15,17.27,1.08.15.15-2.39,2.51.49,1.99.81-4.43,2.49.61,3.48-.02.07-.04-.16-1.25.33-1.61,3.47-2.58,4.27.29,6.18.19,3.19-.17,8.9-1.86,12.87-1.56.68.05.48,1.78,1.23,1.98.67.19,10.85-1.04,13.71-1.09,1.85-.03,3.97-1.35,6.08-.94.75.15-.4,4.91,5,3.04l-3.49-2.99c3.8-1.39,8.8,3.92,9.47,0,.45,2.86,4.05,2.9,4.27,3.16.26.31,1.45,5.59,2.21,6.81-1.64-.95-2.78.62-4.05.52-4.36-.36-4.84-4.5-7.42,2.47l-1-3c-1.77-.11-4.54,4.63-6.47,3-1.2-1.01.23-2.8,1.97-.99l1.02-3.98-4.97,2.98c.27-1.2-2.13-5.64-2.99-4.98l-1.59,6.04c-4.14-.84-11.07.53-14.81-.05-2.35-.37-2.96-2.78-5.07-3.06-2.24-.3-1.54,2.55-3.03,2.92-1.65.42-9.18-2.86-12.41-.88l.5-5.99-2.49,2.02c-.52,1.65,2.24.56,1.99,1.46-1.36,4.85-10.29.41-14.96,2.5-.52-3.17.98-1.51,2.53-1.92,2.29-.61,4.22-.85,6.44-2.07-.73-3.66-5.5-.53-5.98-.99l1-2.98c-1.5.04-5.27-1.77-4.43.99l2.42,3.98c-1.31.57-1.03-4.16-2.98-1.98-.38.43,3.09,3.62-3.63,4.86-2.82.52-.66-3.07-1.37-3.87-3.31-.86-1.94,2.95-2.5,3-5.49-1.65-11.48,1.57-15.44-3l-.5,3.98c-2.45-2.32-4.03-8.4.49-6.99l-1.99-1.48c2.38-4.74,5.63-.26,5.96-.51ZM436.87,51.24c1.17-1,3.43-.11,3.99-.47,2.92-1.91-4.16-4.72-3.99.47Z"/>
  <path class="cls-1" d="M1001.39,40.28l-1.99,2.97,2.98-.99c-2.14,7.6,9.25.09,14.69,4.25,2.81,2.15.16,2.24-.72,3.71l1.99,2h-10.96c-.51-1.75,2.39-.48,1.99-1.49-1.91-4.72-13.02,6.78-11.97-1.51-1.33.52-1.86,1.67-3.5,1.98-2.65.49-21.11,1.06-22.25-.22-.62-.69.35-2.29-.68-2.76-2.27-1.03-1.19,2.44-1.53,2.99-.13.21-3.62-.48-4.83-.44-1.68.05-6.55.97-7.57.96-2.39-.03-4.96-.95-7.5-.51l1.48-3-4.99,3-.99-2c-3.6,3.02-4.94,1.11-7.97,1.19-1.62.04-3.17,1.07-4.81.85-.4-.05-1.55-2.77-3.18-3.03-.72-.12-.59,1.77-1.45,2.36-.49.34-1.36-.14-2.46.65-.38.27-.63,3.51-2.54,1.97-.22-.18-.21-2.64-1.57-2.9-1.69-.32-4.01,3.13-3.91-2.03.06-3.21,4.78-7.74,5.96-3.04,2.82-4.65,7.55-1.65,12.15-1.38,3.22.19,12.26-2.92,7.31,3.36l4.47,1.02c2.21-2.01-3.58-2.58-1.48-4.98,1.73-1.98,9.22,1.75,11.97,0l-.99,2.98c3.86.12,6.57-4.68,10.3-1.99.93.67.6,1.94.69,2,.45.28,2.5-2.54,4.53-2.95,2.52-.51,11.21,2.47,12.9,1.79,1.01-.41.94-3.1,2.99-2.84l-.48,2c2.82-.28,7.79,3.09,7.97-1.98l-3.98.99c.06-4.76,6.59-2.58,9.97-2.98Z"/>
  <path class="cls-1" d="M893.67,43.27l-3.97.99c-.27,4.9,4.46-.22,6.5-.99,2.75-1.04,5.66-.39,8.44-1.01l-2.99,2c.52,5.01,2.43,1.5,4.73,1.24,2.17-.25,7.02,1.05,7.24.76.38-.52-.37-3.26.02-4,.09-.18,3.85-.14,3.98.01,1.67,1.95-2.08,3.06-2.11,4.46-.03,1.69.45,3.02,1.11,4.51-3.53,1.21-12.44-2.32-14.35-2.04-.39.06-1.48,3.9-6.6,1.06l1.02,1.98c-4.72-2.07-11.31,1.02-14.62-2.33-1.73-1.76-1.73-5.6-4.78-4.68-1.38.42-2.39,6.01-3.13,6.1-1.54.21-3.33-.89-4.91-.89s-3.41,1.16-4.87.89c-1.08-.2-.26-4.6-2.24,0-4.03-2.03-12.54.72-15.68-.03-1.02-.24-.35-2.39-1.14-2.04-3.96,1.75-10.43,2.85-14.94,2.04-2.68-.48-2.42-3.35-3.02-3.04-1.11.58-1.09,2.92-2.1,2.99-.51.03-1.8-.68-2.92-.76-.84-.06-2.14.82-2.38.61-.46-.4.62-2.3-1.07-1.84.41,3.39-2.05,1.34-4.11,1.58-1.74.2-7.59,1.7-7.86,1.4-.52-.58,3.24-5.08,2.96-6.57,5.82-.52,10.71-1.7,16.47.6l-.5-2h6.99c.41.5-6.69,5.06-2.5,4.99.72-.01.74-1.96,2.1-2.87,3.23-2.17,15.16-3.57,18.75-2.18,1.2.47.51,2.1.62,3.05.45.58,5.68-4.01,6.46-4.09,4.56-.45,13.98.86,18.97.9,2.23.01,4.93-1.45,7.47-.79.32,1.96-2.52.54-3,.99-.22.21.35,4.45,2.49,3.99,1.21-.26-.42-1.8.05-3.03,1.58-4.19,6.16-1.83,9.43-1.95ZM843.81,46.26h-2.99c-.97.89,3.08,6.43,2.99,0Z"/>
  <path class="cls-1" d="M1235.43,39.68c.32.18.25,1.57.92,1.59,2.09.07,6.62-2.05,8.96-1.89,2.67.18,5.55,1.01,9.77,1.23,4.47.23,12.1,4.37,4.64,6.66,1.48,3.26,6.05.28,8.46-.03l-.5,2c1.89.57,3.11-1.26,4.52-1.46,3-.42,9.03.83,10.82.52,4.91-.86,3.7-1.17,10.94-.43,1.94.2,9.3-1.41,7.64,2.38-.12.27-2.75-2.54-1.99.99l3,.99c-2.34.47-6.66,1.09-8.71-.27-1.19-.79-3.1-6.62-3.26.28-1.75.41-.64-1.59-1.05-1.94-.25-.22-4.28,2.19-6.4,1.96-1.52-.17-3.13-2.3-3.49-2.01-.12.09-.11,1.94-.98,2.53-1.83,1.24-20.52-2.76-24.99.46l.99-1.96c-3.84-1.99-2.7.93-3.55.98-.35.02-5.56-.08-5.85-.15-1.45-.35-1.35-2.65-1.59-2.85-.4-.33-8.38,4.28-9.93,2.98-2.23-1.86,2.56-1.72,1.98-2.97l-8.46-3.02,4.47,2.5c-1.62,3.6-16.64,2.89-19.45-.49l-.51,3c-3.2-.6-7.36-1.66-10.52-1.75-5.07-.14-11.67,1.3-16.94.6-1.8-.24-2.49-1.83-3.94-1.89-.62-.03-.38,1.95-1.13,2.09-1.47.27-3.25-.85-4.88-.82-1.83.03-6.35.89-7.81.44-2.64-.82-6.09-6.04-3.13-6.67,2.4-.51,1.46,2.61,2.92,2.81.9.12,3.69-1.61,5.26-1.58,3.11.07,3.52.41,7.73.22,5.39-.23,6.69,2.52,7.1,2.54,1.96.12,12.93-3.03,14.38-2,.43.3-1.88,2.55-.5,2.98,3.34-4.03,4.28-2.04,7.64-2.53,7.41-1.08,8.41.13,14.33.08,3.02-.03,8.08-1.81,11.44-1.54.22-2.09-2.96-.27-3.86-1.11-.34-.31-.34-2.98-1.13-3.85,3.17-1.06,3.81-1.17,6.64.4ZM1244.66,43.36c-.3-.33-7.72.27-8.88.4l9.97,2.49c-.58-.72-.94-2.73-1.08-2.89Z"/>
  <path class="cls-1" d="M790.93,49.24l-.98-3.99c3.19,1.36,6.91-.09,10.49.17,2.21.16,3.85,2.97,7.45.83-2.39,7.23-4.69,5.79-8.97.99v4s-1-1.99-1-1.99c-2.17-.56-3.82,1.4-5.62,1.71-5.95,1.01-10.59.66-17.82.47-5.2-.14-5.3,3.49-8.41-3.7,3.51-3.93,9.23-2.14,13.89-2.47.33,1.38-4.8,2.25-2.98,3.97,1.13,1.07,3.5-2.42,3.98-1.99.37.33-.82,2.38,1,1.99-1.79-3.57,2.84-5.49,5.43-4.86,1.85.45,1.25,4.48,3.55,4.86Z"/>
  <path class="cls-1" d="M1214.82,37.27c1.05,8.17-6.2,3.6-10.53,3.39-5.39-.26-10.22-.1-15.86-.44-3.79-.23-4.56,3.35-6.52-3.94l32.91.98Z"/>
  <path class="cls-1" d="M2224.05,50.43c.18.13.05,1.73.77,1.87,1.12.22,8.73-1.54,9.21-.92.55.7.04,3.08,1.64,3.85l-.5-2.98h4.98c.4,1.62-3.63.48-1.98,2.98.12.18,4.09.04,4.3,0,.29-.05,1.92-3.73,3.66-1.99,1.63,1.63-3.67,3.84-.99,5.97h-14.96c1.63-6.2-1.06-4.26-5.51-5.96-2.06,1.91,3.71,2.82,1.51,4.96-.26.25-3.01-.14-3.98,0-.42-1.76,1.31-3.95,1.08-5.39-.15-.95-2.4-.23-2.08-1.08.29-.78,1.87-2,2.84-1.32ZM2236.16,56.24l-3.98.48c1.42,2.16,1.88.82,3.98.49v-.98Z"/>
  <path class="cls-1" d="M2238.17,42.26c.76,1.31.94-2.05,1.54-2.05.97,0,2.49,1.07,3.99,1.1,1.77.03,10.75-1.08,11.42-.03,1.42,2.22-1.47,3.04-1.57,3.22-.93,1.67.72,2.82-4.13,3.54-4.17.62-.46-3.66-5.75-3.8-.71-.02.19,3.21-.51,3.99-3.25-.07-5.75-1.45-8.97,0-.61-3.84,5.46-1.94,6.97-4.49-.46-1.22-3.54-.06-3.99-.5-.11-.11-.61-3.44,1-2.99.13.6-.18,1.65.02,2Z"/>
  <path class="cls-1" d="M1320.55,41.28c-1.31,2.13-2.29,2.3-1.62,5.03.76,3.05,4.7,2.56,5.6,4.92-3.98,1.08-7.54-.3-11.45-1l1.48,2c-1.75-.52-4.25,1.13-5.42,1.04-.34-.03-.66-3.43-5.54-1.04-.52-1.74,2.43-.49,1.99-1.48-.63-1.42-3.84-2.04-.48-4.48,1.87-.67,1.25,1.85,2.13,2.02.36.07,7.11.26,7.32-.04,1.45-1.98-3.48-7.03,5.99-6.97Z"/>
  <path class="cls-1" d="M1022.34,47.24c5.6,2.67,7.48-5.74,16.07,1.41,1.02.84,2.51,0,1.87,2.59-2.83-.62-9.39,1.83-8.99-1.98h-.97c-2.63,5.98-14.87,2.77-8.98-4.99,2.52.28.85,2.91.99,2.98Z"/>
  <path class="cls-1" d="M2281.04,60.2c-2.53,2.41-4.19-5.12-6-2.47l1.01,2.47c-2.64.64-5.72-1.5-7.9-1.53-2.47-.04-3.19,0-5.71-.15-1.57-.09-4.38,1.22-5.33.69-.23-.13,1.08-3.48-.99-4.97.84-.66,20.31.91,21.3,1.3,1.57.61,3.96,4.35,3.63,4.67Z"/>
  <path class="cls-1" d="M2279.05,45.25c1.88,1.7,2.08-1.91,2.41-1.89,4.07.18,9.02,2.25,13.54.91-.65,2.65-1.88,2.57,1,3.48-.91,1.32-2,1.4-3.46,1.55-1.87.19-9.67-.05-11.76-.28-4.5-.5-6.49-2.8-2.23-5.75,1.03-.1.22,1.73.5,1.98Z"/>
  <path class="cls-1" d="M2350.86,57.23c-.66,3.29-6.75.92-7.48,1.14-.5.15-.28,1.49-1.24,1.81-1.02.35-2.69-.23-3.26.04-.47.22,2.47,5.61-7.49,3.74-.46-.09-.28-1.37-1.14-1.64-.73-.23-5.44-.29-6.33-1.13-1.21-1.14-.79-1.34.94-1.68,1.54-.3,4.4-.67,5.99-.81,4.01-.34,4.85-.9,8.62-1.41,3.69-.5,7.56.88,11.37-.06Z"/>
  <path class="cls-1" d="M1039.29,37.28c-1.73,6.9-16.72,3.51-22.93,4.98,0-5.54,6.45-1.54,8.31-2.02.82-.21.57-2,2.58-2.51,1.22-.31,11.58-.85,12.03-.45Z"/>
  <path class="cls-1" d="M2193.05,53.54c.26.15.2,1.7.78,1.72.89.02,2.4-.97,3.96-.99,2.99-.04,6.49.06,9.44.45l-6.74,2.26c-3.68-1.66-3.28,1.23-3.78,1.28-2.14.2-6.14-2.6-8.42-3.05-.6-.89,2.68-2.89,4.76-1.67Z"/>
  <path class="cls-1" d="M2266.08,45.26c-2.93-.31-1.74-3.26-3.98-1.97-.4.23,1.28,3.04-3,.99l2.99,2.01c-1.52,4.08-4.59,1.73-7.98,1.96,2.62-6.97,4.98-6.4,11.97-5.97-.09.97.12,2.03,0,2.99,4.49.48,3.26-5.01,7.97-.98.37,1.51-1.34.67-2.03,1.64-2.06,2.89-.14,6.25-4.92.34l-2,2.99c-.54-1.58.84-2.91.99-3.99Z"/>
  <path class="cls-1" d="M1988.8,44.26c-1.9,6.81-2.25,3.95-5.43,3.92-.77,0-.46,1.97-.56,2.05-.9.76-1.71-2.9-2.64-3.07-2.41-.43-4.73,2.69-4.34-.9-3.28,5.08-8.3,2.89-3.42-2.07,5.18,3.53,10.47-.66,16.39.07Z"/>
  <path class="cls-1" d="M2320.93,51.24c-.51.42-4.72-2.65-5.48-2.63-.69.02-1.5,1.3-2.19,1.41-3.71.6-1.33-3.01.51-3.66,5.17-1.83,8.87-1.31,7.16,4.88Z"/>
  <path class="cls-1" d="M2038.68,45.27l-2.64,3.89-9.33-1.41c3.5-3.13,7.55-2.63,11.96-2.48Z"/>
  <path class="cls-1" d="M166.57,38.26c-4.36-1.87-8.53.35-12.96-.48,3.07-4.37,10.6-5.03,12.96.48Z"/>
  <path class="cls-1" d="M114.71,35.29c-1.16,4.32-2.07,1.91-2.76,2.28-.24.13-.21,1.51-.9,1.68-1.89.44-4.3-.19-6.3.02-.14-6.23,5.42-2.83,9.97-3.97Z"/>
  <path class="cls-1" d="M2209.05,49.5c.53.33-.27,1.78.68,1.75s.03-2.06,1.05-2.06c1.55,0,4.25,1.78,6.42,1.06-2.32,3.92-6.45,1.32-8.45,1.44-2.75.16-11.51,3.45-10.01-1.43,3.23,2.82,2.45-1.49,3.91-1.75.32-.06,6.12.83,6.39.99Z"/>
  <path class="cls-1" d="M2346.82,61.29c.21.16-.24,1.97.55,1.95,1.61-.03,5.02-3.49,8.47-.54-1.5,4.94-7.82,1.05-11.96,1.49.64-1.46,1.19-4.27,2.94-2.9Z"/>
  <path class="cls-1" d="M183.52,38.27l-9.96-.98c3.53-2.87,8.58-5.08,9.96.98Z"/>
  <path class="cls-1" d="M2128.44,33.3c-.75,1.94-4.23.84,0,2.48-7.73,9.02-10.48-4.82,0-2.48Z"/>
  <path class="cls-1" d="M1582.84,28.31l1.02,4.97c-6.33-.38-7.35-5.63-12.95,0,1.26-6,7.85-3.83,11.93-4.97Z"/>
  <path class="cls-1" d="M2255.11,56.21c-1.86-.14-3.88,2.06-5.42,2.07-1.17,0-3.89-6.26.76-5.9,1.24.1,5.15,3.18,4.66,3.83Z"/>
  <path class="cls-1" d="M2328.7,48.56c.35.23.14,1.54.28,1.63.27.17,5.77-3.75,5.91-.46-1.21,1.84-2.64,1.44-4.44,1.51-.95.04-10.28-.47-6.53-2.51,1.25-.68,3.56-.98,4.79-.18Z"/>
  <path class="cls-1" d="M2016.72,45.27c.11.09-.34,1.87.63,2.03,1.1.19,6.14-.2,5.84-2.06,8.56,3.95-8.53,5.62-8.47.52-.11-.87,1.84-.62,1.99-.49Z"/>
  <path class="cls-1" d="M2317.87,58.34c.25.2.04,1.34.09,1.87l2.97-1.5c-2.68,3.86-3.56,5.91-7.95,2,.84-1.01,3.9-3.18,4.88-2.37Z"/>
  <path class="cls-1" d="M2347.86,50.25c-2.2,3.05-7.02,1.43-9.97.98,2.56-4.03,6.6-1.87,9.97-.98Z"/>
  <path class="cls-1" d="M96.41,35.63c.87-.3,5.35-.31,5.31,1.15-3.61,4.29-11.79,1.09-5.31-1.15Z"/>
  <path class="cls-1" d="M1332.52,47.26c.78.65-3.49,4.63-4.49,4.97-.71.24-.5-1.74-1.53-2.45-1.58-1.1-3.68.47-2.94-2.53,3.19,1.92,5.69.67,8.97,0Z"/>
  <path class="cls-1" d="M128.68,35.29c.69,3.89-2.95.51-5.33.95-.33.06-1.83,3.74-5.64,2.03l.48-1.97,3.52.97-1.01-1.98h7.99Z"/>
  <path class="cls-1" d="M78.8,37.29c.8,3.65-2.32.71-3.49,1.17-.24.09-2.18,3.71-4.49,1.81s6.08-4.82,7.98-2.98Z"/>
  <path class="cls-1" d="M2288.03,61.21c-.79.62-3.77-1.02-4.98-1.01,2.57-8.07,7.45-.93,4.98,1.01Z"/>
  <path class="cls-1" d="M2151.38,51.25c-1.03,5.34-6.08,2.81-6.98-1l6.98,1Z"/>
  <path class="cls-1" d="M2310.96,57.23c1.07.97-2.67,4.55-4.49,4.01-.87-.26-.03-2.01-.99-2.03-1.14-.03.35,2.45-1.49,2-1.27-4.69,4.28-2.57,6.96-3.98Z"/>
  <path class="cls-1" d="M2187.28,55.24l-8.97.98c.06-5.2,5.65-.65,8.97-.98Z"/>
  <path class="cls-1" d="M2212.23,55.24l5.96.49c-1.9,2.82-5.65,4.04-5.96-.49Z"/>
  <path class="cls-1" d="M148.62,38.26l-6.98-.48c1.16-4.3,5.22-2.43,6.98.48Z"/>
  <path class="cls-1" d="M2296.83,57.39c.13.08,1.29,2.72,1.17,2.81-.84.64-3.57-1.15-3.9-.87-.44.38.64,2.28-1.08,1.87l-1.01-3.97c1.37.19,3.81-.5,4.81.16Z"/>
  <polygon class="cls-1" points="1875.11 35.29 1873.61 39.27 1871.12 34.29 1875.11 35.29"/>
  <path class="cls-1" d="M2356.85,50.25l-2.5,2.98c-.79-3.28-2.8-.89-5.47-2,1.06-2.94,5.73-.46,7.97-.97Z"/>
  <path class="cls-1" d="M1219.82,38.27c.25.28-.17,2.23,0,2.99l1-2.98c7.66-.64-1.12,6.17-3.99,3.97.47-.71,1.17-6,2.99-3.98Z"/>
  <path class="cls-1" d="M2304.95,46.3c.19.14.27,5.31,2.52-.05l1.5,2.98c-6.02,2.16-6.96-5.06-4.02-2.94Z"/>
  <path class="cls-1" d="M2157.8,35.86c.39.42,1.58.62,1.56.9-.04.56-1.63,3.81-2.97,2.51-.11-1.55-1.21-2.28-.53-3.99,1.03-2.61,1.49.08,1.95.58Z"/>
  <path class="cls-1" d="M2166.34,54.22l-6.98,1c1.16-3.07,5.39-4.6,6.98-1Z"/>
  <path class="cls-1" d="M2138.41,52.23c-.22.27-2.81,1.12-3.49,0-.3-.49.4-2.89.52-2.99,1.13-.93,3.92,1.85,2.98,2.98Z"/>
  <path class="cls-1" d="M1524.85,45.43c.13.08.79,2.22,1.17,2.81-2.29.4-3.61-.83-4.98-2.49.36-.94,3.25-.67,3.81-.32Z"/>
  <path class="cls-1" d="M2131.43,49.25c1.82,1.61-4.39,4.96-3.98,0,.98.16,3.68-.27,3.98,0Z"/>
  <path class="cls-1" d="M2360.83,55.23c-2.81-1.22-2.84-2.35-1.97-4.99,2.27.6,2.08,3.13,1.97,4.99Z"/>
  <path class="cls-1" d="M2359.31,56.75c.8.68,1.83.11,1.52,1.46-2.76.25-7.55.3-3.67-2.17,2.1-1.33,1.06-.22,2.15.71Z"/>
  <path class="cls-1" d="M2360.83,66.19c-1.37,1.56-2.57-1.64-2.99-2.98l2.98-1.01c-.15.98.27,3.68,0,3.98Z"/>
  <path class="cls-1" d="M667.26,47.24c-.94-.25-3.35,1.66-3.98,1-1.23-1.27,2.75-5.18,3.98-1Z"/>
  <path class="cls-1" d="M2300.99,45.26c1.04.97-1.87,4.55-2.98,1.48-.75-2.11,2.61-1.82,2.98-1.48Z"/>
  <path class="cls-1" d="M1774.37,44.27c.15.19-.07,1.36,0,1.98h-2.98s0-2.99,0-2.99c.75.67,2.88.89,2.98,1.01Z"/>
  <path class="cls-1" d="M1477.14,47.26v.97s-4.97,0-4.97,0v-.97c1.84-.64,3.13-.64,4.97,0Z"/>
  <path class="cls-1" d="M1007.37,39.28c.2.16-1.46,4.51-2.99,2.98-.94-.95,1.76-3.97,2.99-2.98Z"/>
  <rect class="cls-1" x="1905.03" y="49.25" width="4.98" height=".98"/>
</svg>