<?xml version="1.0" encoding="UTF-8"?>
<svg id="Layer_1" data-name="Layer 1" xmlns="http://www.w3.org/2000/svg" viewBox="0 0 2388.1 96.56">
  <defs>
    <style>
      .cls-1 {
        fill: #fff;
      }
    </style>
  </defs>
  <path class="cls-1" d="M26.94,51.14c5.69,2.35,11.05-2.48,16.5-2.11,1.96.13.96,1.19,1.94,2.11,3.28-3.38,11.71-3.73,16.96-4.08,15.81-1.06,33.46-1.54,49.83-2.85,2.75-.22,8.35-2.71,10.86-2.07.98.25.39,2.36,1.14,2.03,7.67-3.36,15.87-2.38,22.51-3.4,1.14-.18,3.65-1.79,3.92-1.59l1.5,3.99c1.63-1.28,4.01-3.72,6.05-4.03,1.64-.25,1.14,3.3,5.79,2.06,1.02-.27.55-4.45,2.13-.02,3.71-4.49,3.37-.13,4.08.04,4.41,1.03,3.91-2.6,4.43-3.03.24-.2,3.26,2.2,5.8,2.44,6.86.64,16.99-1.81,24.93-.78,5.69.74,2.57,3.6,4.74,4.19,4.01,1.08,10.36-.54,14.86,2.15l-.5-2c6.85.58,14.83-.78,21.53-.1,2.4.25.61,2.28,2.41,2.08-.13-7.39,5.11.02,5.58.07,1.15.13,7.2-3.29,10.21-3.47,5.14-.3,11.55,1.18,16.72,1.32.51.01.38-1.89.84-1.88,1.1.04,3.97,1.7,6.21,1.83,5.36.32,3.58-1.71,9.83,1.14.76.35.35-1.82.98-2.02,3.74-1.18,1.2,3.55,5.49,4.01,1.07-1.38-3.63-4.43,2.6-5.01,1.69-.16,2.1,3.41,5.34,2.99l.06-2.97c4.79.77,9.67-.3,14.45-.45,5.39-.17,10.68-.57,16.03-.63,1.91-.02.86,3.5,5.42,1.09v3.97s-3.49-1.98-3.49-1.98c-1.05,4.75-8.02-.25-8.45,0-.09.05.31,1.35-.75,1.93-3.36,1.84-23.98.39-28.76.16-.47-.02-.33,1.71-1.08,1.88-.47.1-9.08.1-9.62,0-.51-.1-1.7-2.81-3.2-2.97-2.65,5.35-2.08,1.34-3.95,1.28-.7-.02-3.84,2.52-5.05,2.69-.38.05-.05-2.85-3.46-1.99l-1.99,1.98,1.01-1.98h-3s1.01,1.98,1.01,1.98l-9.47,1.02c1.77-7.6-4.31-4.06-6.01.98l-3.98-3.99c-.35,5.6-1.35,3.89-6.48,4.01,1.13,4.23,8.34.49,8.98,1l-1,3.98-3.97-2c.53,3.79-.65,3.13-4,2.99v-3.98s-2.98,2.99-2.98,2.99c.34-1.04-1.2-2.5-.89-2.88.37-.46,2.27.63,1.87-1.09l-8.96-1.01c-.95,3.87,4.8,1.15,5.98,2-.9,1.01-.8,3.62-1.06,3.95-.37.47-10.15-.89-11.91-.98l2-3.47c-5.7-2.44-2.57,3.97-3.01,4.48-2.55.38-4.21-3.09-4.47-2.99-1.66.64-.27,3.18-2,3.97-1.66-.67-1.2-3.61-1.58-3.97-.5-.47-3.84,3.11-3.91-3.98,2.37-.15,9.3,1.54,10.98-.02.12-.11-.93-2.87-1.05-2.98-.69-.65-10.11,2.54-11.55,2.7-1.17.13-2.54-.68-3.86-.7-2.71-.04-4.87,2.7-5.52-2.01-4.59,4.35-9.87,2.3-14.43-1.01.07,3.11,1.07,3.56-3.1,3.88-3.84.29-11.21.77-14.65.84s-8.06-2.49-10.24-2.71c-.5-.05-.25,1.62-.94,1.78-15.33,3.68-39.18,2.54-55.73,3.36-3.48.17-8.91,1.76-12.14,1.66-1.8-.05-5.14-1.95-5.38-1.79-.29.2-.58,2.77-1.6,2.97-1.09.21-2.23-1.67-2.97-1.66-2.27.03-3.35.08-5.98,0-3.71-.1-9.8,6.01-13.93.55l-23.96,1.15-2.5-3.03c-.73,1.01.02,3.72-.12,3.86-1.03,1.08-12.48.77-14.85.12v-5.98ZM176.54,44.17l-5.97-2v3.98c.26.27,6.09-.07,5.97-1.98ZM95.77,51.14l4.5-1.96-.53-3.03-3.97,4.99ZM147.62,49.14c2.08,1.23,4.66-3.2,0-2.97,1.08,1.1-.13,2.9,0,2.97ZM93.76,48.16c-.89-.55-6.62,2.33-6.98,3.97,1.51-.77,6.34-.67,6.99-1.02.13-.07-1.09-1.82,0-2.95ZM59.86,52.13l7.95-1.49c-2.69-3.37-1.51.34-2.62.51-1.56.24-5.24-.97-5.34.98ZM108.72,49.16h-2.99s0,1.98,0,1.98c1.38.31,2.65-.54,2.99-1.98ZM52.86,51.15h-3.98s0,.98,0,.98l3.97,1.01v-1.99ZM100.74,51.15l-2.98.49c.91,1.06,1.51,1.82,2.98,1.5v-1.98ZM34.91,53.14c-.84-.84-3.76,1.66-3.98,2.98,2,.98,5.16-1.8,3.98-2.98ZM37.9,53.14h-1.98v2.98h1.98v-2.98Z"/>
  <path class="cls-1" d="M2071.24,41.58c.57.41.3,1.53.37,1.58.57.34,1.41-1.43,2.41-1.54,3.4-.39,10.95,1.52,14.98,1.59,10.04.18,19.67-.36,28.96.16,10.1.56,15.43-.1,24.98-1.18.43-.05.34,1.79,1.11,1.99,3.5.91,8.21-1.81,11.8-2.02l-.5,2c1.03.71,12-4.22,8.98,1,1.98.67,3.37-1.48,4.66-1.68,2.03-.32,6.4,1.27,9.01,1.25,9.46-.08,12.13-.8,21.77,1.44.63.15-.04-2.07,1.93-2.13,1.81-.05,3.67,1.11,5.1,1.03,2.2-.12,2.38-3.13,5.41.09.81-10,6.71-5.18,12.48-5.19,5.79-.01,14-1.24,19.81-.47,4.23.56,10.4,2.69,7.6,7.65,6.8.12,13.67,1.58,20.41,2.04,6.01.41,12.13-.06,17.9.05,1.44.03,3.02,1.08,4.59.92l-1.01,1.98c2.83-.49,5.58-1.35,8.49-1.42,11.31-.3,23.08,2.13,34.26,2.88,4.12.28,9.45-.04,13.68-.1,1.44,1.99,4.15,2.79,3.42,5.62-9.82-.65-19.63-1.73-29.39-2.47-3.45-.26-10.46.4-12.99.2-1.12-.09-1.93-2.39-2.98-2.47-.73-.05-2.22,1.58-3.95,1.63-2.14.07-5.38-1.7-8.03-.88l.51-1.99c-2.18-.23-3.41,1.8-5.57,1.99-1.76.15-7.59.03-9.81,0-.48,0-.3-1.57-2.06-2.12-2.78-.87-13.03-.33-16.33-.47-11.06-.49-21.71-1.63-32.42-2.45-14.2-1.08-31.68-2.27-45.87-1.88-2.77.08-5.35,3.17-4.65-2.05-1.52-.37-.75,1.4-1.68,1.99-4.49,2.83-4.08.33-6.59.34-4.54.01-10.46,1.18-14.11,1.19-7.45.02-24.43-2.68-30.83-1.57-.75.13-.6,2.01-1.2,2.06-1.33.11-5.08-1.59-7.18-1.76-11.19-.89-23.89,1.1-34.57.76-.67-.02-.11-2.03-2.02-2.13-2.51-.12-10.26,1.99-10.81,1.9-20.25-3.32-42.71,1.56-63.8.42-18.84,1.74-37.63,3.35-56.6,2.76-.19,1,.39,3.48-.05,3.95-.26.28-7.61,2.11-5.95-.94h-.97c.46,3.98-7.19,1.56-9.3,1.99-.78.16-.62,1.79-1.37,1.98-5.11,1.27-39.76,2.95-46.77,3.07-3.64.06-5.95-.63-11.07-.44-12.18.45-24.64-.06-36.69.45-36.3,1.51-77.91.5-115.75-.97-7.17-.28-16.77.33-22.88-.11-2.47-.18-3.7-2.43-5.17-2.68-3.9-.65-12.12.49-16.58-.43-2.44-.5-4.5-3.2-8.3-3.75-7.38-1.07-17.96,1.12-25.72.6-2.15-.14-4.32-1.96-7.16-1.8-2.17.13-1.13,2.49-1.94,2.11-6.76-3.24-5.55-.97-11.96-.92-12.62.11-24.35.09-36.95.4-2.85.07-8.12,2.37-11.64.54-1.25-.65-1.48-2.81-2.31-3.02-1.37-.35-9.69,8.51-12.94.99-1.91,5.42-5.83,2.12-9.21,2.29-1.82.09-4.28,2.13-7.25.7l.49-1.99c-2.74-.68-3.59,1.93-4.91,2.08-7.86.87-17.07-.26-25.04-.12-2.01.03-4.61,1.28-5.83,1.1-.67-.1-.61-2.09-1.16-2.12-1.37-.07-3.38,1.77-4.95,1.68-29.19-1.6-61.28-.91-91.8-.67-10.99.09-26.35-2.37-38.88-1.77-2.27.11-3.97,1.69-5,1.81-.42.05-.34-1.8-1.11-1.98-2.99-.69-10.76.56-13.51-.98-1.09-.61-1.07-2.14-2.24-2.6-.71-.28-8.53,0-10.04.11-18.49,1.38-37.32,1.62-55.85,1.39-2.73-.03-4.54,1.92-7.08.15-1.4-.97-.08-4.18-2.87-4.06-1.95,1.31,2.02,3.38,1.48,3.99-.32.36-8.41,1.07-9.48,1.1-4.11.11-11.26-.31-14.79-2.06-1.03-.51.1-2.5-2.15-2.02l.49,3.99c-1.8,1.31-20.57-2.3-23.93,1.01l-1-3.99v4c-4.79-.6-8.68.09-12.96-3.01l-.49,2.98-5.51-.99.49-3.99c-3.22-.7-6.94,5.5-7.91,5.62s-3.26-.71-4.99-.67c-14.66.34-29.65,1.56-43.84,1.99-2.18.07-7.78-.55-8.07-2.95-1.97,5.65-5.98,1.35-8.76,1.29-7.48-.15-17.07,1.62-24.12,1.59-4.48-.02-24.88-2.77-27.33-.74-.14.12.89,1.85-.04,2.39-3.61,2.11-8.41.59-11.67.56-13.45-.12-27.92-.05-41.54.71-2.46.14-5.3-.36-4.24-2.8-1.66.07-2.23,1.7-4.02,2.01-1.58.27-16.08-.69-17.12-1.33-1.48-.9-.31-3.47-5.29-1.66l1,2.98c-3,1.28-5.86-1.36-7.5-1.58-2.15-.3-3.03,4.32-4.47,2.59-.31-.37.3-2.65,0-2.99-1.69-1.89-2.02,1.91-2.63,2.04-4.36.92-6.3-2.08-8.84-3.03-.51-.19-4.2,8.32-6.48-.99l3.98-2c-3.48,2.21-7.34-3.05-3.58-5.12,2.28-1.26,8.65-4.28,5.59,1.12,2.41.17,3.21-2.25,5.62-2.66,6.78-1.15,23.77,1.34,31.79,1.76,12.75.66,27.45.3,40.1,1.22,1.91.14,10.99,2.81,11.76,2.53,5.35-1.96,17.34-.92,24.96-.92,5.24,0,12.11.73,16.95.64,1.49-.03,3.48-1.69,5.95-1.07,2.15.54,3.51,2.49,4.98,2.52.89.02.73-2.3,2.02-3.01,1.87-1.03,1.45,4.05,3.48,1.98.33-.33-1.46-2.5-.99-2.98,2.58,1.64,4.77-.02,7.5-.05,16.03-.2,32.27-.5,47.87.03,3.67.13,13.53.74,16.02-.91,1.44-.95,2.13-3.58,2.61-3.86,1.93-1.14,9.66,1.68,12.49,1.52,1.4-.08,2.3-1.38,3.05-1.43,3.39-.24,15.15-.95,17.48-.31,1.32.36,1.08,3.38,3.18,3.02,1-.86-1.01-2.19,1.09-2.97,5.28-.08,11.18.51,16.34.45,11.5-.13,22.3-.12,34.43.61,4,.24,6.22-2.98,8,1.91,1.1-4.02,7.45-1.44,10.97-1.58,9.91-.39,25.26-2.82,33.92,1.56.79.4-.26-1.83,1.91-2.08,6.54-.75,16.89-.06,23.99.02,2.14.02,3.98,1.74,4.99,1.69,4.34-.24,9.07-1.73,14.68-1.3,3.62.27,8.96.14,11.28,2.68,1.51-5.12,3.33,1.34,5.98,1.99l-1.5-2.97c.71-.51,15.13-1.13,17.43-1.08,11.24.23,21.88,1.94,32.43,1.43,2.28-.11,4.21,1.47,5.29,1.39,1.7-.11,3.83-1.92,5.12-1.82.56.04.47,2.05,1.12,2.09,2.85.17,4.15.14,7.39.5,11.73,1.31,24.57-1.43,35.52,1.41,9.51,2.47,19.81,1.1,30.83.96,1.95-.03,4.64,1.34,5.96,1.1.75-.14,2.09-1.69.52-2.51-1.3-.69-2.36.48-3.94,0-6.19-1.83-3.86-7.06,1.45-6.54,2.79.27,1.58,2.93,3.47,3.06.06-.81.33-2.07.97-2.5,1.49-1,22.13,1.43,26.47,1.57,23.25.72,54.9-2.39,77.48,1.17,15.31,2.41,27.31,2.24,42.3,3.68,1.36.13,4.46-.87,4.94-.65,1.43.65,1.08,2.74,1.97,2.75,1.77.01,3.11-2.55,5.08-2.75,9.81-1,24.42,1.34,34.95,1.41,7.73.06,16.46-.75,24.77-.76,11.77-.02,23.76.04,35.44.55,3.71,3.25-2.92,5.05-2.99,6.01-.18,2.29,7.61-.14,6.46,4.5l2.06-3.9c6.31.6,13.64,1.43,19.89,1.35,22.36-.27,45.88-1.74,68.17-2.9,5.41-.28,11.35,1.28,17.1-.55-.06-1.51-4.59-2.04-5.51-2.02-2.32.04-3.61,1.59-5.08,1.74-5.64.59-15.82-1.58-21.84-1.76-3.92-.12-19.54,1.52-21.17-.19-3.26-3.39,1.13-5.35,4.22-5.77,13.95-1.9,26.34,1.37,39.99.91,17.29-.58,35.73.35,53.8-.38,2.26-.09,7.41-1.52,10.9-1.54,2.16-.02,10.87-.15,11.91-.03.34.04,4.54,5.95,2.6.07,2.92-1.73,5.46.56,7.06.52,7.64-.19,8.54-1.8,18.24-.9,3.98.37,9.8-2.08,13.22-2.33,2.83-.21,7.37,2.02,10.35.2.93-.57,1.58-2.86,3.04-4,2.98-2.33,4.82.15,7.59.18,4.25.05,10.1-.86,14.8-.76,5.57.12,19.07-.39,23.1,2.49ZM2248.14,48.15c2.69-.89,1.44-1.86.98-3.98h-.98s0,3.98,0,3.98ZM1217.82,48.16h-4.98v.98h4.98v-.98ZM1553.94,50.16c-1.97.1-4.84-2.14-6.41-2.06-.56.03-.47,1.89-1.22,2.07-1.97.48-5.91-1.39-6.32-1.02-2.87,2.66,9.01,3.6,10.65,3.16.9-.25,3.49-.9,3.3-2.15ZM1055.25,53.15c-.18.15,1.95,3.95,2.49,3.96,2.6.03.2-4.65-2.49-3.96ZM1911,56.13c.32-5.14-6.62-2.45-4.97,0,.14.21,3.52-1.28,4.97,0ZM1932.95,55.12c-.6-2.25-3.12-2.13-4.98-1.97v.98s4.98,1,4.98,1ZM1789.32,56.14c-3.19.75-6.93-.73-9.69-.74-1.35,0-2.15,1.42-3.55,1.47-1.79.06-4.85-1.17-6.69-1.73-.28,6.68,7.61,2.78,11.6,2.32,1.86-.22,6.95,1.73,8.34-1.31ZM1744.44,56.14h-4.98v.98h4.98v-.98ZM1804.29,61.1c-.89-2.69-1.86-1.44-3.98-.98v.98s3.98,0,3.98,0Z"/>
  <path class="cls-1" d="M768,42.16l-11.97,2.01,6.48.98-.51,1.99c1.9.6,3.15-1.29,4.49-1.51,2.11-.35,4.15,2.32,5-1.48,1.01,4.07,5.74,1.25,8.8,1.39,8.73.39,17.49,1.31,26.1,1.62,3.14.11,5.56-1.68,9.75.04,1.23.5.31,1.93,1.22,1.96s.12-1.46,1.22-1.97c7.75-3.54,9.92,2.96,11.74,2.97,2.47.01,1.96-2.93,3.1-3.02.6-.05,1.79.87,2.87.79,8.03-.56,15.86-1.03,23.99-.85,12.3.28,11.24,3.04,24.06-1.62.2-.07,4.19-.47,4.33-.31,1.96,2.19-2.49,1.54-1.98,2.98l19.3.08c2.05-4.56,1.09-.27,2.29-.01.77.16,2.24-.65,3.5-.5,11.9,1.43,24.07,1.54,36.1.78,4.26.74,2.8,4.06,4.84,4.99l13.75,1.66c.99,6.19-6.51,2.1-11.09,2.56-1.54.16-2.58,1.24-3.41,1.42-.75.17.47-2.37-1.94-2-.4.06-3.11,6.3-4.5-1.98-1.63.2-1.29,2.43-2.75,2.97-4.79,1.78-19.31-1.02-25.58.92-2.6.57-5.46-4.32-7.05-3.89-1.03.27-1.03,2.83-2.21,3.06s-2.71-.71-3.82-.57c-5.98.77-11.45,1.34-17.43,1.49l.5-2c-7.43,2.78-14.67.63-21.92,2.02v-4.02c-2.84,4.86-2.54,2.97-5.97,3.2-1.27.09-4.95,1.3-5.51.79-2.3-2.1,1.92-2.83,1.98-3,.83-2.23-4.61-2.3-5.97.53-1.06,2.22,2.44.75,1.98,2.47-6.22.23-13.35-1.1-19.44-1.08-2.69,0-5.25,1.44-8,1.19-2.41-.22-3.54-2.09-4.96-2.13-.43-.01.41,2.5-4.98,2.04-4.57-.39-4.7-2.99-5.01-3.03-4.54-.64-2.26,2.89-2.49,3.02-1.38.78-11.95-1.35-14.32-1.07-2.49-4.99-2.44-.16-3.58.59-2.07,1.36-10.58-1-14.01.48.38-2.27,5.36-.74,4.98-2.97-3.71-.76-6.57.7-9.87,1.42-3.56.78-6.02,2.03-10.59,1.56-10.06-1.05-1.65-9.36.9-3.98.66,1.4-2.19,2.53,3.02,1.9.98-.12,3.75-.43,3.58-1.89l-4.97-2c6.39-1.67,15.49,3.53,19.94-1.98-3.89-1.74-7.03-.09-10.37-.1-3.67,0-27.88-.41-29.88-1-.76-.22-.53-1.58-1.3-1.82-3.83-1.15-4.69,1.88-4.99,1.93-4.47.72-11.22-1.98-14.82-2.1-7.5-.24-8.13,2.64-16.62-.7-1.19-.47-11.22-1.38-14.27-1.22-10.26.54-22.92-.07-31.98.96-7.53.85-5.1.55-11.98.06-2.85-.2-8.54,1.66-11.94,1.72-8.7.15-12.33-.79-21.18,1.04-8.67,1.8-20.89-1.58-30.61-.74-20.11,1.75-42.19-.03-62.88.87-2.48.11-4.27,2.01-5.99,2.01-1.61,0-3.5-1.76-5.95-1.97-15.89-1.35-36.42.72-52.88,1.03-12.23.23-23.77-.32-35.83.14-4.42.17-9.67,2.39-13.83.81-1.17-.44-.1-2.41-2.2-1.96-1.78,4.47-2.68,1.74-5.93,1.95-4.6.3-13.9,1.53-18.04,1.14-10.42-.99-19.44,1.08-29.86.97-5.07-.05-6.8-1.58-10.05-2.06-.23-.03-.8,3.9-2.45,2-.12-.14-.81-3.35-.78-3.53.2-1.22,7.46-2.52,8.21-2.35,1.13.26,1.88,4.83,3.54,2.88.36-.43-.7-2.7.55-3.06,1.81-.52,8.22.13,10.92.07,1.64-.04,3.67-1.25,4.9-1.07.69.1.55,1.98,1.02,1.97,2.86-.09,7.85-.67,10.97-.98,27.46-2.73,55.89-2.08,83.86-2.47,6.28-.09,13.36-1.47,19.85-1.13,2.76.14,2.59,2.89,3.08,2.68,3.09-4.79,5.81-.85,7.78-1.21,27.54-4.95,66.66-2.37,95.82-3.09,2.76-.07,8.14-2.29,11.86-1.53,1.99.4,3.49,2.85,5.23,2.82,1.22-.02,5.24-.75,7.96-.89,40.64-2.02,82.35-4.14,122.69-4.52,2.46-.02,10.89,1.66,11.36,1.33.37-.25.77-2.85,1.6-2.87.17,0,1.3,1.8,2.93,1.9.96.06,12.93-1.62,13.52-1.97.17-.1-.78-2.95.02-3.94.83-.73,6.46,6.86,4.98,8.97ZM806.9,48.16c-4.61-.55-2.11,5.59,0,3.97.16-.12-1.3-2.65,0-3.97ZM907.63,55.12c-.89-2.69-1.86-1.44-3.98-.98v.98s3.98,0,3.98,0Z"/>
  <path class="cls-1" d="M323.16,50.15c-1.33,1.36.18,3.87.01,3.98-.28.19-5.85.97-6.64,1.01-1.85.09-1.11-1.93-1.95-1.98-.68-.04-1.82.9-2.69.65-2.41-.68-6.37-4.37-7.68-.69l4.99.02c-1.71,2.92-8.87.44-12.5.48s-9.33,3.78-10.94-1.5c-.08,5.76-6.07,1.33-10.05,3.91-.82-3.57-2.53-.67-5.41-.91,1.79-6.07,12.47-2.38,17.96-3.97l.5,2c1.43-.37,2.54-1.86,4.02-1.99,7.75-.72,15.87-.07,23.35-.58,2.35-.16,4.53.64,7.03-.43Z"/>
  <path class="cls-1" d="M219.43,51.15l-2.99,1,1.5,1.98-2.49,1.01,2.98,2.98c-4.11-.84-7.89.83-11.96-1-.61-7.28,8.35-2.42,8.97-2.99,2.17-1.96-2.55-1.66-1.98-2.98h5.97Z"/>
  <path class="cls-1" d="M269.3,52.15c1.03,4.86-8.93,4.24-8.96,2.49l4.96-.51-.99-2.98,4.98,1Z"/>
  <path class="cls-1" d="M2360.83,54.13v4.99c-7.67.94-8.29-5.23,0-4.99Z"/>
  <path class="cls-1" d="M859.75,43.17v2.99s-2.99-1.01-2.99-1.01c-.48-.41,1.75-2.62,2.99-1.98Z"/>
  <path class="cls-1" d="M881.7,44.17c.13.12-.05,1.36,0,1.99-8.01.38-1.19-3.04,0-1.99Z"/>
</svg>