<?xml version="1.0" encoding="UTF-8"?>
<svg id="Layer_1" data-name="Layer 1" xmlns="http://www.w3.org/2000/svg" viewBox="0 0 171.18 171.18">
  <defs>
    <style>
      .cls-1 {
        fill: #fff;
      }
    </style>
  </defs>
  <path class="cls-1" d="M89.32,40.01c.63.64,1.21,2.41,1.33,2.49.1.06,1.27-.56,2.25-.42,1.11.16,2.4,1.34,2.88,1.36.86.04,1.58-1.39,2.61-1.34.57.03,2.9,1.12,3.87,1.22.88.09,3-.62,3.51-.18.25.21.23,2.51.71,3.09.21.24,4.79,1.67,5.85,2.58.94.81.27,2.27.79,3.02s2.42.26,3.01,1.33c-3.14,3.2,4.1,2.19,4.36,2.44.19.19-.23,3.07.09,3.99.34.99,2.37,1.33,2.48,2.26.02.21-1.46,3.46-.93,4.07.08.09,1.62.11,2.4.61.61.39.73,1.3.95,1.44.38.26,3.04-.52,3.15-.41.78.87,1.65,6.46,1.69,7.91.08,2.96.41,2.19.49,2.75.2,1.3-.82,4.78-.57,5.83.14.6,1.45.58,1.55,1.15.08.48-.97,2.64-.96,3.85,0,1.45,1.04,3.04.93,4.27-.04.46-1.89,5.98-2.13,6.21-.51.47-1.53.38-2.19.69s-.04,1.73-2.04.51c-.04,1.14.16,3.07-.51,4.01-.28.39-3.04,1.23-3.59,3.08-.38,1.28.96,1.54.78,2.84-.03.22-1.91,3.75-2.09,3.95-1.61,1.8-7.35,1.72-3.61,4.58,1.21.92-2.65,1.76-2.8,1.85-.23.13-.37.97-1.04,1.32-1.48.76-4.7,1.39-5.77,2.25-.81.65-.62,1.8-1.03,2.1-.81.59-3.26.09-4.41.7-1.91,1.02-2.33,3.63-4.65,3.99-.98.15-3.12.02-2.8-1.31h-.52c-.04.57-.19,1.21-.8,1.43-.31.11-6.16.83-6.48.78-.59-.09-.71-1.67-.89-2.21-1.8-.56-.67,1.62-1.36,1.64-1.37.02-.84-1.73-2.16-1.7-1.79.04-2.21,1.89-3.79,1.73-1.45-.15-1.4-1.91-2.47-2.48-1.63-.87-5.96-.62-7.07-1.16-.91-.44-3.12-2.29-4.25-2.86-1.6-.81-6.8-2.84-7.7-3.6-1.07-.89-.17-2.57-.65-3.43s-3.81-1.5-3.95-1.72c-.62-1-.74-3.06-1.7-4.32-.57-.74-1.74-.97-2.14-1.71-.36-.67-.1-5.32-.89-6.4-.34-.46-1.65-.31-1.97-.76s.01-1.57-.6-2.4c-.42-.57-1.56-.67-1.65-.8-.33-.47.77-1.74.88-2.48.61-4.23-2.48-4.13-3-6.03-.28-1.04.3-1.91.2-2.6-.37-2.46-.23-2.73-.33-4.92-.05-.96-1.56-2.1-1.04-3.5h2.18c-3.78-3.37,1.05-3.74,1.53-6.94.27-1.79-.88-3.93-.48-5.24.08-.25,3.23-1.84,4.07-3.08,1.81-2.68.95-4.11,1.45-6.14.11-.45.96-.38,1.22-1.01.32-.78.29-2.51.37-2.61.05-.07.89.5,1.62.31.34-.09,3.82-1.2,3.99-1.33.6-.45.31-1.6.87-1.99.62-.43,1.94-.13,3.05-.77,1.93-1.11.61-2.57,1.04-3.3.52-.88,2.8-2.65,3.77-3.3.51-.34.14-2.33,2.23.04,1.17-2.7,2.27-.64,4.04-.22,2.26.53,6.7-.4,8.59-1.76,1.16-.83,3.25-4.94,4.96-3.92.2.12.45,1.54.88,1.54.32,0,1.46-3.89,4.43-.89Z"/>
</svg>