<?xml version="1.0" encoding="UTF-8"?>
<svg id="Layer_1" data-name="Layer 1" xmlns="http://www.w3.org/2000/svg" viewBox="0 0 171.18 171.18">
  <defs>
    <style>
      .cls-1 {
        fill: #fff;
      }
    </style>
  </defs>
  <path class="cls-1" d="M84.44,45.97c.1.04.23,1.31,1.43,1.57.33-.15.21-.85.38-.95.99-.57,5.95,1.7,7.36,1.93.91.14,3.55-.49,3.82-.29,2.06,1.57,2.45,1.31,3.78,2.17.37.24.54,1.43.95,1.47.3.03,1.13-1.2,1.92-.84,1.98.91.51,3.78.77,4.13.59.78,2.13.31,3.01.81.55.31.72,1.53,1.77,2.04.75.37,2.47.32,2.56.42.24.26-.22,1.59.09,2.07.22.33,1.45.22,1.96.77s.88,2.98,1.53,3.65c1.2,1.25,2.82-.52,1.34,3.81.91-.49,5.67,1.33,5.91,1.7,1.02,1.59-3.22,5.45.61,4.83-1.02,1.44.31,2.44.33,3,.09,2-1.06,3.38-1.34,4.44-.26,1,.8,3.07.81,4.34s-.76,2.41-.72,3.63c.03.97.77,2.05.77,2.91,0,1.27-2.61,3.23-.39,4.23,1.6.72,2.28-.57,2.17,1.64s-2.87,4.74-4.01,6.8c-.27.49.14,1.42-.34,2.32-.23.44-2.11,1.64-2.46,2.6-.5,1.35.91,1.93-1.12,4.29-2.42,2.81-3.2.35-3.49.58-.75.6.1,2.63,0,2.71-.19.12-1.09-.2-1.48.12-.21.17-.56,1.78-1.07,2.5s-1.45,1.06-1.62,1.35c-.47.8-.15,2.28-.83,2.98-.95.99-4.15.33-5.19,1.34-.85.82-.05,2.78-.78,3.54-2.84,2.92-6.08-.58-6.38-.39-.05.03.08.78-.4,1.1-.78.53-1.81.04-2.36.3-.72.34-1.14,1.53-2.01,1.77-1.08.3-2.98-.64-4.71-.44-1.37.16-2.85,1.38-3.33,1.4-.71.03-2.02-1.24-3.79-.91-.25,4.1-3.83-.84-4.43-1.02-.92-.28-1.87.5-2.58.37-.85-.15-2.03-2.39-3.83-2.09-.34.06-.31,1.11-.54,1.1-.17,0-3.01-.89-3.21-1.01-.88-.54-.87-2.67-1.82-3.34-1.62-1.15-6.93-2.12-7.76-2.92-2.58-2.46-.8-4.7-1.13-5.16-.13-.19-4.02-1.43-4.22-1.77-.31-.51.06-1.74-.36-2.63s-2.14-1.08-2.87-2.58c-.43-.88-1.02-3.24-1.43-4.46-.28-.82,1.08-1.33-1.43-1.12,1.94-2.69-1.45-3.42-1.63-5.17-.15-1.39,1.01-2.56,1.09-3.27.03-.24-.98-.18-1.08-.6-.22-.94.23-2.17-.03-3.15-.58-2.22-2.53-5.15-.93-7.78.26-.43,1.72-.53,1.85-1.46.16-1.16-1.2-2.69-1.23-3.31-.03-.51.7-1.08.69-1.6-.01-.72-1.03-1.53-.93-2.66.01-.16,1.3-.72,1.7-1.64,1.11-2.51.11-4.37,4.31-4.15-.85-1.82-2.44-2.08-1.55-4.55.26-.73,1.27-.72,1.46-1,.21-.3-.35-1.03-.15-1.52.42-1.06,2.18-1.64,2.77-2.36,1.49-1.82,3.43-6.25,5.61-7.13.52-.21,1.44.41,1.6.24.13-.14.02-1.09.33-1.57,1.39-2.09,4.42-.41,4.59-.59.06-.06,0-1.08.31-1.6.41-.67,3.4-1.5,4.3-1.58,1.42-.13,4.59.51,5.87.35,3.28-.41,1.21-1.67,5.25-.2.54.19,3.58.21,3.7-.52.05-.31-.51-.72-.26-1.21.08-.16.67-.03.82-.42.07-.17-.32-3.21,1.7-2.37ZM94.29,60.03c2.34-.84,2.72,1.85,3.58,2.13,2.91.96,1.39-2.96-.58-3.62l-3,1.49ZM77.92,61.19c-1.97-.44-2.96.06-3.73,1.84,0,.83,5.85,1.9,3.73-1.84ZM71.46,62.21c-3.04-.42-5.59,5.54-1.63,2.42.14-.11,2.06-2.07,1.63-2.42ZM63.86,72c-1.26,1.69,4.72,2.9,4.34-1.09-.6.74-4.18.88-4.34,1.09ZM74.18,95.38c-.11-.12-3.15-.67-3.26-.55-.34.37,1.04,2.28-2.18,1.63-.27,1.17,1.22,6.55,2.45,6.51,1.22-.79,3.3-7.26,2.99-7.6Z"/>
</svg>