<?xml version="1.0" encoding="UTF-8"?>
<svg id="Layer_1" data-name="Layer 1" xmlns="http://www.w3.org/2000/svg" viewBox="0 0 171.18 171.18">
  <defs>
    <style>
      .cls-1 {
        fill: #fff;
      }
    </style>
  </defs>
  <path class="cls-1" d="M81.59,43.61c2.2,1.31,8.36,1.56,10.98,1.73.64.04,2.14-.71,2.42-.43.1.1,0,1.12.3,1.63s1.1.12,1.36.33c.58.48.72,1.55,1.45,1.79.81.27,1.77-.41,2.56-.33.5.05,3.94.52,4.12.62,1.49.8.97,2.87,1.11,3.02.65.69,2.27-1.38,3.26-.87,1.13.59,1.29,2.54,1.71,2.93.06.06,1-.26,1.73.13,3.75,2.01,2.84,3.19,4.69,5.7.69.93,1.92,1.25,2.66,2.23,1.84,2.46.47,4.9.93,5.64.78,1.24,2.34,1.21,2.81,1.77.97,1.14-.07,3.15.39,4.19.37.82,2.22,1.69,2.39,2.55s-1.08,1.9-1.39,2.8c-1.97,5.89,1.51,4.17,2.02,5.39.66,1.59.62,4.48.85,6.19.07.56.79,1.2.81,1.82,0,.4-1.18.33-1.56,1.21-.17.38-.8,3.84-.65,3.99.17.17,1.45-.16,1.63,0,.17.15-1.07,3.61-.51,4.57-.09.59-3.6.6-3.84.86s.66,1.68.58,2.37c-.04.33-.88.33-.94.5-.51,1.44-.53,2.64-1.33,4.29-.21.43-1,.48-1.04.81-.09.8,1,2.9.54,3.42-.09.11-1.75.12-2.67.86-1,.8-1.62,3.17-2.72,3.73-.5.26-1.86-.2-2.9.41-.8.47-1.46,2.07-1.74,2.07-.2,0-.71-1.25-1.92-.88-1.28.4-1.41,1.66-1.72,1.85-.2.12-.94-.47-.97-.42-.11.17.21,1.07-.12,1.48-1.08,1.31-6.91.75-8.6,2.05-.7.54-.26,1.88-.82,1.94-1.23.14-3.39-1.13-4.9-1.16-1.01-.02-.81,1.48-2.21,1.53-1.02.04-1.87-.75-2.66-.73-1.51.05-4.9,1.47-7.14,1.24-2.75-.28-2.99-2.07-3.18-2-.89.33-1.23,1.67-3.21,1.61s-3.17-1.89-3.93-2.03c-.56-.1-1.62.62-1.82.43-.07-.07.05-1.06-.31-1.58-1.7-2.42-5.56-.75-7.32-2.49-1.55-1.52.39-5.15-.01-5.68-.1-.13-1.48-.31-2.12-.88-1.86-1.67-3.74-4.89-5.6-6.13-.17-.11-2.88.04-3.62-1.28-.2-.36,1.33-7.43-2.22-5.35.06-1.92-.73-4.99-1.68-6.63-.43-.74-2.29-1.83-2.49-2.2-.07-.13-.59-2.81-.6-2.96-.02-1.02,1.97-4.16,2.1-5.93.11-1.58-.84-1.09-1.22-2.07-1.04-2.63.81-3.47,1.56-5.66.44-1.29.81-4.15,1.44-5.42.07-.14,1.22-.43,1.4-1.55.17-1.03-.83-.59-.93-1.02-.03-.13-.16-2.5-.14-2.63.08-.5,1.19-.58,1.6-1.22.57-.89.51-2.22,1.11-3.26.7-1.2,3.66-4.12,3.75-4.39.27-.86-.11-2.6.12-2.88.43-.52,2.96.14,3.75-.31.46-.26,2.45-3.07,2.89-3.37.89-.63,2.38-.37,3.68-1.48.66-.57,1.14-1.98,1.57-2.22.26-.15,5.42-.04,5.73.81.69-1.54,1.85-3.03,3.57-3.52,1.25-.36,2.97.66,4.47.28.5-.13,1.3-2.34,2.29-2.73.45-.18.12.7.43.89ZM85.21,65.56c-.15-.13-1.17.45-1.79.38-.43-.05-.89-.78-1.18-.78-.21,0-1.67,1.55-2.96,1.82-1.63.35-2.49-.51-3.82-.07.8.85,2.75,1.83,3.88,1.64,1.05-.17.96-1.38,1.32-1.38,1.43.01,3.23.77,5.12,0-.38-.42-.51-1.57-.57-1.62ZM80.34,81.87l-3.25.56c.03,6,3.74-.11,3.25-.56Z"/>
</svg>