<?xml version="1.0" encoding="UTF-8"?>
<svg id="Layer_1" data-name="Layer 1" xmlns="http://www.w3.org/2000/svg" viewBox="0 0 171.18 171.18">
  <defs>
    <style>
      .cls-1 {
        fill: #fff;
      }
    </style>
  </defs>
  <path class="cls-1" d="M103.05,46.72c2.43,1.07,5.49,1.91,7.64,4.3.33.37.22,1.44.68,1.74.81.54,2.34-.02,2.7.33.18.17-.1,1.08.17,1.39.18.21,4.24,2.26,4.65,2.99.35.62-.03,1.77.38,2.61.49,1.01,1.83.79,2.3,1.24.78.74,1.43,4.46,2.12,5.77,1.36,2.61,3.83,2.51,4.5,5.33.27,1.14-1.11.6-1.5,1.58-.84,2.14,1.05,1.85,1.88,2.87,1.87,2.29-.11,4.86.17,7.43.12,1.07,1.18.7,1.16,1.06-.04.87-1.16,1.39-1.16,2.71,0,1.56,1.55,2.31,1.62,3.78.02.36-.48,2.81-.59,2.94-.19.22-1.04-.01-1.35.21-1.63,1.14.04,5.13-.16,5.31-.11.1-1.14-.09-1.62.27-1.33.99-.86,6.32-1.67,8.01-.53,1.11-2.51,1.11-3.26,1.91-.69.73-.99,2.76-1.6,3.15-.67.44-1.91.15-3.03.78-1.34.75-2.65,3.71-3.51,4.15-1.01.52-2.18-.57-2.74-.09-.47.4-.32,1.47-.66,1.81-.36.35-1.41.17-1.78.65-.24.31.56,1.42-.22,1.95-.34.23-3.46,1.03-4.24,1.23-.61.15-1.4-.36-1.96-.25-.98.2-1.88,1.64-2.79,1.76-.79.1-2.04-.56-3-.29-.33.33,2.36,5.06-4.65,3.02-.69-.2-1.25-1.28-1.6-1.3-.31-.01-1.26,1.28-2.24,1.39-1.25.14-4.32-.16-3.47-2.03-3.83,2.06-6.14.75-9.75.25s-8.84-1.11-11.72-4.05c-1.24-1.27-1.8-3.72-3.56-4.61-.5-.25-1.26.19-1.62-.05s-.36-1.22-.89-1.36c-1.03-.26-2.4.59-2.8.46-.18-.06-2.11-2.76-2.15-3-.14-.81.6-2.15.44-2.31-.09-.09-1.05.26-1.67-.35-.95-.94-2.43-4.67-2.65-4.84-.71-.53-1.88.2-2.64-1.17-1.83-3.33-.75-8.32-2.59-12.09-.44-.91-1.74-1.2-1.82-2.44s1.03-3.44,1.06-4.96c.03-1.61-1.11-4.38-1.02-5.43.07-.82,1.94-.24,2.09-1.08s-1.71-1.89-1.51-3.14c.08-.52.88-1.14,1.01-1.74.66-2.89,1.32-6.45,2.79-9.14.48-.88,4.02-3.5,4.13-3.75.22-.5-.57-1.35-.07-2.46.15-.32,4.6-4.88,4.89-5.07.87-.55,3.88-2.72,4.14-2.83.78-.35,1.72.11,2.3-.34.9-.7,1.07-2.38,1.46-2.65,1.14-.81,4.66-.55,5.54-.78.72-.19.69-1.34,1.53-1.7.94-.4,2.3-.13,3.12-.64.54-.33.68-1.38,1.07-1.63.22-.14,4.91-.32,5.16-.28,1.18.19,1.74,1.48,2.19,1.52.94.08,2.69-2.44,3.82-2.42.73.01,1.44,1.05,2.28,1.28.76.2,2.57-.36,3.65-.26,5.5.51,7.52,1.15,12.61,3.39ZM52.55,74.6c.17-2.58,2.16-4.36,1.8-6.9l-3.79,1.09c-.18.85,1.59.76,1.62,1.35.01.3-4.12,4.64-1.08,4.63v.53s-.67.01-.67.01l-.41,2.17,2.53-2.88ZM48.52,79.27c-.3.35-.44.72-.41,1.17.76.81-.6,5.23.55,5.19.79-.03.95-5.43,1.38-6.23.42-1.32-1.16-.53-1.51-.13ZM101.63,112.83c-2.61-.36-3.07,1.31-4.4,2.39-1.01.82-4.17,1.44-.06,1.81l4.46-4.2Z"/>
</svg>