<?xml version="1.0" encoding="UTF-8"?>
<svg id="Layer_1" data-name="Layer 1" xmlns="http://www.w3.org/2000/svg" viewBox="0 0 171.18 171.18">
  <defs>
    <style>
      .cls-1 {
        fill: #fff;
      }
    </style>
  </defs>
  <path class="cls-1" d="M78.23,40.51c.08.02.1.82.48.9,5.98,1.22,12.28.68,17.91.17.44-.04,3.28.34,3.66.47.58.21,2.2,3.62,2.9,3.73,1.49.25,3.27-1.21,3.42-1.1.07.06.18,1.07.78,1.66.74.73,2.45,1.47,2.77,2.15.43.89.05,2.16.34,2.64.44.72,3.6.32,4.6,1.11s.95,3.96,1.66,4.97c.54.77,1.42.86,1.84,1.47.76,1.1,1.01,3.41,1.56,4.14.4.53,1.52.42,2.24,1.14s1.08,2.23,1.62,3.17c.23.4,1.05.47,1.25,1.07.12.36.45,7.3.38,7.68-.07.41-1.08.31-1.13.69-.08.59.53,1.4.42,2.04s-1.46,2.55-.94,3.06c.1.1,1.06-.19,1.48.11.17.12,2.07,3.3,2.15,3.53.24.63-1.47,4.66-1.89,5.46-1.96,3.8-5.39,4.54-.67,9.12-3.97,1.24-.75,2.21-1.7,4.8-.06.16-2.05,2.19-2.3,2.37-.38.28-1.22.07-1.35.21-.41.45.25,2.19-.15,2.63-.14.15-1.04-.09-1.37.19-.89.73-3.31,4.02-4.02,4.46-3.8,2.37-9.57,4.6-11.62,9.52-.2.49.35,1.23.17,1.53-.26.42-5.44,2.34-6.19,2.34-2,0-2.04-2.79-4.6-2.22l.54,2.71-2.17-1.08c.54.87-.06,2.97-.92,3.27-2.66.91-1.73-2.23-2.38-2.72-.19-.14-1.14.42-1.64.25-.93-.32-1.7-1.19-2.79-1.55-1.02-.34-2.12.1-2.62-.11-1.03-.42-1.33-2.22-2.27-2.59-1.17-.46-2.51-.1-3.28-.39-.86-.32-3.58-2.19-4.89-2.82-.75-.36-2.31-.3-2.5-.49-.17-.17-.56-3.44-1.69-4.49-.62-.58-5.76-1.75-5.93-2.01-.18-.3-.74-4.67-.88-4.87-.54-.74-2.33-.62-3-1.32-.53-.55-2.63-5.38-3.31-6.5-.38-.63-1.34-.73-1.48-.97-.27-.44.56-2.71-.14-3.1-.54-.3-1.88.23-2.68-.3-.15-.1-1.75-2.82-1.82-3-.91-2.3-.71-6.17-1.1-8.22-.2-1.05-1.4-1.01-1.44-1.37-.11-1.11,1.07-2.34,1.16-3.75s-.76-2.86-.38-4.09c.26-.85,3.04-3.25,3.72-5.02.48-1.26.2-2.84.69-3.66.21-.36,3.54-2.8,3.56-3.07.05-.71-.56-1.53-.52-2.15.36-5.54,1.24-2.43,2.68-3.17.62-.32.85-1.49,1.49-1.96,1.64-1.21,3.17-.91,4.17-3.29.48-1.14.5-4.03,1.39-4.59s3.48-.16,4.56-.78c.64-.37.04-1.37.71-1.67,1.38-.62,4.38.18,4.53.01.25-.26-.39-3.01.23-3.84.47-.62,1.58-.3,2.04-.57,1.24-.71,2.75-2.47,4.68-1.93Z"/>
</svg>