<?xml version="1.0" encoding="UTF-8"?>
<svg id="Layer_1" data-name="Layer 1" xmlns="http://www.w3.org/2000/svg" viewBox="0 0 35.66 1486.5">
  <defs>
    <style>
      .cls-1 {
        fill: #fff;
      }
    </style>
  </defs>
  <path class="cls-1" d="M26.46-2.39c-.15,14.22.62,28.55.54,42.73-.14,26.31-.6,52.28-.6,78.52,0,2.77,0,4.67,0,7.44,0,13.46-.71,27.09-.54,40.46.03,2.37,1.77,5.58,1.52,7.66-.17,1.43-1.73,2.42-1.82,3.78-.1,1.63,1.57,3.58,1.68,5.65.92,17.04-1.47,37.2-1.38,54.58.05,10.05,2.02,22.26,1.04,29.85-1.62,12.68.42,27.12-.39,40.06l-2.9.52c.88,2.01,1.03,4.7,3.78,4.73-.3,2.89-3.85.48-3.78,1.4.25,3.66,3.67,1.23,3.78,1.41-1.03,9.58-1.32,19.53-1.36,29.2,0,1.61,1.5,3.14,1.23,5.22-.34,2.57-2.43,4.01-.8,7.08l-2.84.47c1.54.18,3.78,5.87,3.78,6.61,0,1.26-1.68,2.29-1.86,3.8-.72,5.95,1.28,18.81,1.41,25.46s.8,14.13-.21,21c-.16,1.08-1.1,2.02-1.22,2.6-.1.48,1.94.22,1.92.9-.04,1.41-1.47,2-1.66,2.95-.64,3.27,1.55,11.89.59,17.75-.34,2.07-3.51,7.37-1.79,8.55.39.27,2.2-1.4,2.35,1.35.09,1.64-1.11,2.46-1.13,3.43-.04,1.8.95,3.67.78,5.57-.18,2.05-2.05,1.44-2.57,2.77-.98,2.51,1.46,8.25-.39,11.36l3.78-2.34c.64,2.25-1.61,4.68-1.89,6.16-.05.25,4.54.72.02,3.26l-2.83-4.71c-.17,1.63.59,3.24.43,4.85-.71,7.31-1.53,14.68-1.91,22.03-.15,2.9-1.65,17.89-.32,19.29.37.39,2.44-.19,2.74.05.33.27-1.9,6.71-.94,8.49h2.83s.93-4.72.93-4.72c.8,6,.58,11.63-.81,17.51,1.67,19.88,1.42,42.61,1.85,64.07.12,5.83-1.96,4.06.85,10.38.34.77-1.64.08-1.89,1.08-.72,2.88-.73,14.45-.69,17.99.39,28.87,1.57,59.78,1.4,89.64-.03,5.64.28,11.34.24,16.75-.02,2.69-2,5.09-1.98,7.58.01,1.79,2.01,1.29,2.03,1.88.04,1.35-1.65,3.28-1.72,4.83s1.47,2.97,1.66,4.64c.3,2.59-.88,5.56-1.03,8.41-.12,2.3,1.47,4.78.09,5.67-.55.36-2.53-1.5-2.84,3.75l2.83-2.34c.4,2.01-.68,4.1-.57,5.96.63,11.4,1.67,23.05,2.17,34.23.1,2.32-1.5,5.13-1.52,6.56,0,.43,1.91.37,1.83.82-2.98,15.21-.91,31.61-1.14,46.44-.98,61.38.15,124.02.17,184.69,0,7.89-.92,15.97-1.44,23.56-.11,1.58,2.72,8.32,2.45,10.25-.09.63-1.76.51-1.92,1.23-1.06,4.55.57,8.96.67,12.21.35,11.46-.24,23.26-.45,34.08-.46,24.07,1.51,49.09-.13,72.51-.6,8.52,1.15,18.28,1.76,26.33.32,4.14-2.03,12.63-1.9,18.77.36,18.1.88,36.61.9,54.65.01,19.62,1.07,39.1.62,58.58-.9,39.13-1.14,78.57-.57,116.97.06,4.16-1.26,8.42.03,12.71H6.65c2.1-5.03-.17-10.7-.01-15.51,2.03-62.87.97-125.12,1.12-187.71.04-17.4,2.78-39.82-1.04-53.91-.49-1.8,1.31-16.37,1.36-19.63.36-21.66.06-43.72-.5-65.13-.15-5.64-1.95-7.49-2.75-11.38-1.18-5.74,2.21-17.76,1.89-24.45-.14-2.91-1.94-7.06-1.68-9.32.33-2.96,1.98-6.23,2.02-10.49.03-3.57-2.44-11.6-2.35-12.23.07-.5,1.9-.42,1.95-1.04.37-4.92-1.94-14.56-1.59-19.62,1.03-14.77.22-29.97.59-42.56.29-9.72,1.61-24.89,1.01-33.89-.02-.33-2.1-.24-1.53-5.54,1.02-9.48,1.32-15.51.79-24.92-.4-7.21,2.48-15.65,2.2-22.39-.04-1.02-2.35-4.79-2.31-6.7,0-.28,2.68-.71,2.71-3.8.02-1.92-1.35-2.75-1.46-3.68-.51-4.51.75-15.56.55-20.7-.09-2.3-2.09-6.33-1.96-7.51.08-.81,1.94-.78,2.39-1.46,2-2.97-1.04-4.99-1.36-7.15-1.6-10.87-.41-23.64.42-33.91,1.16-14.29-.77-30.42-1.37-43.37-.17-3.66.89-5.21.22-11.59-3-28.47-2.1-57.48-1.65-85.98.06-3.61-1.47-10.58-.49-14.52.18-.73,1.86-.62,1.89-1.17.08-1.37-1.4-4.28-1.4-6.53,0-14.4,1.46-30.45,2.78-44.35.62-6.6.36-12.92.71-19.55.24-4.5,1.89-11.36,1.77-15.35-.05-1.59-1.49-1.31-1.89-2.13-2.59-5.27,1.7-4.29,1.87-5.53.12-.89-.93-2.23-.74-3.47.1-.67,3.39-5.78,1.13-6.3-1.97-.4-1.56,1.71-2.78,2.86-2.81,2.64-2.14-2.95-.25-4.48,1.39-1.13,3.63.41,3.59-3.6-.02-1.57-1.34-1.03-1.89-2.14-2.17-4.36-.79-4.17-.94-8.17-.09-2.28-3.65-9.19-.55-10.86.79-.42-.18,3.53,1.9.94-.18-1.96.81-5.96-.65-7.36-.38-.37-2.14,2.01-2.72-2.51-.11-.9-.55-3.62.98-3.33l1.89,4.71c.82-4.84-.86-10.76-.88-15.59-.04-11.38.58-23.31.57-33.94,0-4.54.65-11.06.15-15.1-.21-1.69-1.7-2.69-1.83-4.71-.14-2.3,2.23-.62,1.97-2.33-.66.08-1.5-.19-1.87-.72-2.92-4.13-1.79-12.57-1.69-17.5.35-18.42,2.14-37.73,1.62-56.76-.08-2.99-1.8-7.46-1.78-9.3.04-5.08,3.46-11.36,2.76-18.02-.5-4.69-5.35-5.12.99-11.83h-2.84c.14-2.21,1.67-2.59,1.9-5.17.51-5.54-2.82-24.8-1.82-27.11.41-.94,1.94-.54,1.91-2.11-.04-2.28-1.88-3.94-1.9-5.68s1.5-3.37,1.51-4.86c.08-12.17,1.2-23.64-.12-34.73-.23-1.92,1.07-4.27.28-6.54-.48-1.38-6.89-3.42.15-4.84-4.24-6.33,3.13-13.5-2.85-19.31,4.63.37,1.83-.57,2.2-2.2.25-1.09,1.55-1.89,1.56-2.05.04-.79-6.24-1.8-3.76-4.24.34-.34,6.95.39,5.66-4.72-1.11.42-3.82.87-3.76-.93,6.84-3.26,3.74-4.51,2.29-8.46-.78-2.12.65-5.24-2.29-4.77v-.91c2.63.37,1.89-1.7,1.87-3.78-.38-.48-3.28,2.6-3.77-1.88,1.25,0,3.24-.06,3.64-1.5l-.86-19.79,1.94-4.65c-4.92-.27-6.63-4.02-.96-2.37.17-2.14-3.53-3.52-3.73-4.3-.37-1.48,4.83-7.13-.04-8.42.67-.83,2.7-3.04,2.84-3.8.04-.23-3.13-.78-1.9-3.28h2.84c-4.94-5.42-.58-8.24-.42-12.77.05-1.52-2.15-6.49-2.39-8.57-.64-5.37.25-14.22.3-20.53,0-.99,1.17-2.03,1.19-2.93.02-1.59-1.66-3.43-1.58-4.68.03-.52,1.95-.49,2-1.05.15-1.78-2.09-4.87-2.36-6.57-.14-.92-.02-4.1.05-5.29,1.39-22.9,2.98-43.69,3.64-66.36.07-2.41.61-11.13.54-12.19-.04-.56-1.74-.42-1.92-1.18-.7-2.94,1.51-9.82,1.73-12.25.1-1.11-1.33-2.13-1.43-3.39-.62-7.92,1.83-14.47,1.71-21.94-.03-1.89-2.54-1.09-1.99-3.27h18.86ZM20.79,385.23c-.59-2.31,2.02-5.68-.92-6.6.48,1.59-1.16,6.12.92,6.6ZM20.8,400.33l.94-8.49c-2.21.96-2.23,5.04-2.61,7.3-.31,1.82.03,1.12,1.67,1.19ZM12.3,661.57c-.52-1.86,1.21-6.7-.92-7.54.52,1.86-1.21,6.7.92,7.54ZM10.44,670.06c2.14-.57,1.96-2.96,1.87-4.72-2.14.57-1.96,2.96-1.87,4.72ZM11.37,673.84c-3.54-.62-.81,2.21-.92,4.24-.1,1.77-1.08,3.38-.96,5.18,4.46.22.97-6.9,1.88-9.42ZM11.37,686.1h-1.88s.95,5.65.95,5.65h.92s0-5.65,0-5.65ZM11.36,697.41c.25-1.76,0-3.27-1.87-3.77-.25,1.76,0,3.27,1.87,3.77ZM11.37,699.3h-1.88v3.76h1.88v-3.76ZM12.09,714.22c.2-.44-.96-9.24-2.13-9.24-2.37,0-1.13,10.87-1.42,13.19l-1.88-.47c-.66,2.03,1.6,1.06,1.71,1.85.2,1.4-.49,4.36.19,6.16,3.04-1.94,1.21-7.7,1.88-10.7.16-.7,1.59-.65,1.65-.79ZM10.42,731.37c-3.03-.55-1.38,1.08-1.84,2.35-.31.84-2.5,4.58-.51,5.19.98.3,2.62-6.24,2.35-7.53ZM9.47,751.17v-4.71h-.92v4.71h.92Z"/>
  <path class="cls-1" d="M26.45,518.22c-3.91-3.49-1.27-11.77-1.34-16.5-.09-6.51-2.3-12.65.87-19.35,1.34.03.91,20.55.84,22.72-.03.8-1.23,2-1.28,3.27-.11,2.76,1.8,6.62.9,9.86Z"/>
</svg>